<?xml version="1.0" encoding="utf-8"?>
<!-- Generator: Adobe Illustrator 15.1.0, SVG Export Plug-In . SVG Version: 6.00 Build 0)  -->
<!DOCTYPE svg PUBLIC "-//W3C//DTD SVG 1.1//EN" "http://www.w3.org/Graphics/SVG/1.1/DTD/svg11.dtd">
<svg version="1.1" id="Ebene_1" xmlns="http://www.w3.org/2000/svg" xmlns:xlink="http://www.w3.org/1999/xlink" x="0px" y="0px"
	 width="172.914px" height="172.914px" viewBox="0 0 172.914 172.914" enable-background="new 0 0 172.914 172.914"
	 xml:space="preserve">
<g id="Background_on_white">
	<g id="M">
		<path fill="#FFF200" d="M86.457,170.958c-46.594,0-84.502-37.908-84.502-84.501c0-46.595,37.908-84.502,84.502-84.502
			c46.595,0,84.502,37.907,84.502,84.502C170.96,133.05,133.052,170.958,86.457,170.958z"/>
		<path d="M170.958,86.457c0,46.594-37.906,84.5-84.5,84.5c-46.594,0-84.502-37.906-84.502-84.5
			c0-46.595,37.908-84.502,84.502-84.502C133.052,1.955,170.958,39.862,170.958,86.457z M162.454,86.457
			c0-41.905-34.092-75.998-75.998-75.998S10.458,44.552,10.458,86.457c0,41.903,34.092,75.995,75.998,75.995
			S162.454,128.36,162.454,86.457z"/>
	</g>
</g>
<g>
	<defs>
		<path id="SVGID_1_" d="M105.81,89.251c0,0,3.062,15.63,10.664,12.306c5.137-2.245,5.283-4.082,4.5-8.625
			c-0.785-4.543,12.875-8.625,8.75-28.375c-0.795-3.809,10.35-20.6-4.25-34.875c-4.676-4.571,4.02-23.778-40.81-22.762
			c-22.565,0.512-24.367,2.537-29.065,4.887c-4.7,2.351-8.744,3.269-11.25,8.75c-2.506,5.484-3.697,16.697,0.375,28.125
			c4.073,11.429-5.084,15.068,3.375,24.625c8.46,9.558,3.979,15.076,8.993,19.619c5.014,4.543,0.337,7.865,5.014,15.039
			c2.277,3.496,3.163,8.629-1.494,8.969c0,0,5.642,4.177,7.836-0.682c2.193-4.857-1.919-11.22-1.136-14.195
			c0.782-2.975,2.432-4.306,2.432-4.306l4.322,17.766c0,0-9.453,6.235-13.527,6.862s-16.919,5.325-16.605,17.075
			c0.312,11.748,7.192,21.168,7.192,21.168s18.502,9.355,44,5.679s48.979-19.794,48.979-19.794s6.434-13.366,4.242-17.126
			c-2.193-3.761-11.021-8.752-22.043-14.265c-7.9-3.95-20.578-13.801-20.578-16.936C105.724,95.049,105.81,89.251,105.81,89.251z"/>
	</defs>
	<use xlink:href="#SVGID_1_"  overflow="visible"/>
	<clipPath id="SVGID_2_">
		<use xlink:href="#SVGID_1_"  overflow="visible"/>
	</clipPath>
</g>
</svg>
