<?xml version="1.0" encoding="utf-8"?>
<!-- Generator: Adobe Illustrator 15.1.0, SVG Export Plug-In . SVG Version: 6.00 Build 0)  -->
<!DOCTYPE svg PUBLIC "-//W3C//DTD SVG 1.1//EN" "http://www.w3.org/Graphics/SVG/1.1/DTD/svg11.dtd">
<svg version="1.1" xmlns="http://www.w3.org/2000/svg" xmlns:xlink="http://www.w3.org/1999/xlink" x="0px" y="0px"
	 width="172.914px" height="172.914px" viewBox="-5.287 156.034 172.914 172.914"
	 enable-background="new -5.287 156.034 172.914 172.914" xml:space="preserve">
<g id="S">
	<path fill="#FFF200" d="M81.169,326.992c-46.594,0-84.502-37.908-84.502-84.501c0-46.595,37.908-84.502,84.502-84.502
		c46.594,0,84.502,37.907,84.502,84.502C165.672,289.084,127.764,326.992,81.169,326.992z"/>
	<path d="M165.67,242.491c0-14.142-3.508-27.473-9.676-39.196c-14.15-26.906-42.371-45.306-74.825-45.306
		c-32.453,0-60.674,18.399-74.826,45.306c-1.086,2.066-2.107,4.173-3.024,6.336c-0.063,0.148-0.116,0.302-0.179,0.45
		c-4.162,9.986-6.473,20.933-6.473,32.41l0,0v0.001c0,46.594,37.906,84.499,84.502,84.499
		C127.764,326.991,165.67,289.086,165.67,242.491L165.67,242.491L165.67,242.491z M155.758,242.492
		c0,41.127-33.461,74.587-74.588,74.587c-41.129,0-74.59-33.46-74.59-74.587c0-41.129,33.461-74.591,74.59-74.591
		C122.297,167.901,155.758,201.363,155.758,242.492z"/>
</g>
<g id="Alex">
	<g id="Illustration_Kopie_Kopie">
		<g>
			<path fill-rule="evenodd" clip-rule="evenodd" d="M87.076,322.711c0,0-15.581-0.093-29.586-3.148s-26.127-17.268-26.127-17.268
				l0.237-12.652c1.02-10.905-2.061-19.483-2.635-28.461c-1.375-21.477,3.961-36.771,19.237-43.22
				c0.423-2.166,1.568-3.609,2.7-5.068c0.41-0.528,1.059,0.161,1.209-0.739c0.219-1.316,0.658-2.4,0.926-3.219
				c1.353-0.211,1.901,0.622,3.07,0.594c2.879-2.907,1.773-6.171,2.635-10.54c1.582-8.021,6.295-15.421,12.649-18.711
				c8.166-4.229,19.376,2.685,23.454,8.169c1.477,1.986,4.734,7.378,3.426,10.542c-0.673,1.628-2.009,1.001-2.698,1.556
				c-1.027,2.861-1.159,6.628-2.837,8.721c-0.955,1.193-2.368,1.015-3.162,2.372c-0.115,3.136,0.479,6.979-1.317,8.434
				c-1.246,0.669-2.324-0.839-3.689-1.055c-1.117,1.236-1.9,1.406-2.898,1.454c-0.438,0.317-0.407,0.746-0.852,1.049
				c-0.483,0.331-1.402,0.443-2.047,0.659c-0.436,1.586-1.15,2.892-2.899,3.163c0.346,0.832,0.164,1.511-0.189,2.127
				c-0.42,0.73-1.082,1.375-1.393,2.09c-1.34,6.307,2.305,9.93,4.48,15.548c4.86,12.554,4.575,27.443,7.51,41.658
				c6.232,2.958,7.372-3.13,11.991-4.765c1.892-0.67,5.909-0.306,6.46,0.254c0.55,0.559,0.224,2.042,0.673,2.974
				c0.147,0.312,0.522,0.5,0.805,0.658c5.574-1.364,15.365-5.438,16.413-5.121c0.537,0.219,0.586,1.101,0.949,1.5
				c-0.708,1.839-3.215,2.051-4.656,3.158c0.263,0.838-0.437,2.099-1.146,2.781c-1.004,0.965-2.351,1.255-3.779,1.755
				c-1.32,0.463-0.472,2.143-1.221,2.585c-0.779,0.465-2.546,0.569-3.356,1.15c-1.57,1.125-2.565,2.94-4.552,3.327
				c-1.942,0.379-3.866-0.612-5.799-0.526c-4.276,0.187-7.804,2.236-11.594,3.162c-0.532,3.509-0.148,7.934-0.264,11.858
				L87.076,322.711z"/>
		</g>
	</g>
</g>
</svg>
