<?xml version="1.0" encoding="utf-8"?>
<!-- Generator: Adobe Illustrator 15.1.0, SVG Export Plug-In . SVG Version: 6.00 Build 0)  -->
<!DOCTYPE svg PUBLIC "-//W3C//DTD SVG 1.0//EN" "http://www.w3.org/TR/2001/REC-SVG-20010904/DTD/svg10.dtd">
<svg version="1.0" xmlns="http://www.w3.org/2000/svg" xmlns:xlink="http://www.w3.org/1999/xlink" x="0px" y="0px"
	 width="172.914px" height="172.914px" viewBox="0 0 172.914 172.914" enable-background="new 0 0 172.914 172.914"
	 xml:space="preserve">
<g id="Background_on_black">
</g>
<g id="S_Kopie">
	<path d="M86.457,164.623c-43.101,0-78.167-35.066-78.167-78.166C8.29,43.355,43.356,8.29,86.457,8.29
		c43.101,0,78.167,35.065,78.167,78.167C164.624,129.557,129.558,164.623,86.457,164.623z"/>
	<path fill="#FFF200" d="M170.957,86.457c0-14.142-3.508-27.473-9.676-39.196C147.131,20.354,118.91,1.955,86.457,1.955
		c-32.453,0-60.674,18.399-74.826,45.306c-1.086,2.066-2.107,4.173-3.024,6.336c-0.063,0.148-0.116,0.302-0.179,0.45
		c-4.162,9.986-6.473,20.933-6.473,32.41l0,0v0.001c0,46.594,37.906,84.499,84.502,84.499
		C133.051,170.957,170.957,133.052,170.957,86.457L170.957,86.457L170.957,86.457z M161.045,86.458
		c0,41.127-33.461,74.587-74.588,74.587c-41.129,0-74.59-33.46-74.59-74.587c0-41.129,33.461-74.591,74.59-74.591
		C127.584,11.867,161.045,45.329,161.045,86.458z"/>
</g>
<g id="universe_ON_BLACK_x21_">
	<g>
		<g>
			<path fill="#FFF200" d="M57.415,56.843c1.303,0,2.358-1.055,2.358-2.358c0-1.301-1.056-2.358-2.358-2.358
				c-1.302,0-2.356,1.057-2.356,2.358C55.058,55.788,56.113,56.843,57.415,56.843"/>
		</g>
		<g>
			<path fill="#FFF200" d="M56.9,91.602c1.019,0,1.844-0.825,1.844-1.843s-0.825-1.841-1.844-1.841
				c-1.018,0-1.842,0.823-1.842,1.841S55.882,91.602,56.9,91.602"/>
		</g>
		<g>
			<path fill="#FFF200" d="M116.941,81.317c0.509,0,0.921-0.413,0.921-0.922c0-0.51-0.412-0.922-0.921-0.922
				c-0.51,0-0.922,0.412-0.922,0.922C116.02,80.904,116.432,81.317,116.941,81.317"/>
		</g>
		<g>
			<path fill="#FFF200" d="M115.098,122.417c0.51,0,0.922-0.413,0.922-0.922c0-0.508-0.412-0.922-0.922-0.922
				c-0.509,0-0.921,0.414-0.921,0.922C114.177,122.004,114.589,122.417,115.098,122.417"/>
		</g>
		<g>
			<path fill="#38C4F2" d="M73.612,86.205c0.651,0,1.179-0.527,1.179-1.179s-0.527-1.179-1.179-1.179
				c-0.65,0-1.179,0.527-1.179,1.179S72.961,86.205,73.612,86.205"/>
		</g>
		<g>
			<path fill="#FFF200" d="M79.296,153.371c0.202-0.621-0.136-1.284-0.757-1.485c-0.618-0.201-1.284,0.137-1.485,0.757
				s0.139,1.284,0.757,1.486C78.431,154.33,79.095,153.99,79.296,153.371"/>
		</g>
		<g>
			<path fill="#38C4F2" d="M16.915,68.851c0.65,0,1.178-0.528,1.178-1.179c0-0.652-0.527-1.179-1.178-1.179
				c-0.651,0-1.179,0.526-1.179,1.179C15.736,68.322,16.263,68.851,16.915,68.851"/>
		</g>
		<g>
			<path fill="#38C4F2" d="M110.771,35.468c-0.616,0.212-0.943,0.883-0.732,1.5c0.213,0.614,0.884,0.94,1.5,0.729
				c0.615-0.212,0.942-0.882,0.73-1.498C112.057,35.583,111.387,35.256,110.771,35.468"/>
		</g>
		<g>
			<path fill="#38C4F2" d="M37.237,54.599c0.65,0,1.179-0.528,1.179-1.18c0-0.652-0.528-1.18-1.179-1.18
				c-0.651,0-1.179,0.527-1.179,1.18C36.058,54.07,36.585,54.599,37.237,54.599"/>
		</g>
		<g>
			<path fill="#38C4F2" d="M52.88,43.087c0.65,0,1.179-0.528,1.179-1.18s-0.528-1.179-1.179-1.179s-1.18,0.527-1.18,1.179
				S52.228,43.087,52.88,43.087"/>
		</g>
		<g>
			<path fill="#38C4F2" d="M40.302,85.026c0.65,0,1.178-0.528,1.178-1.179c0-0.652-0.527-1.179-1.178-1.179
				c-0.651,0-1.18,0.526-1.18,1.179C39.123,84.498,39.651,85.026,40.302,85.026"/>
		</g>
		<g>
			<path fill="#38C4F2" d="M83.391,27.787c-0.616,0.212-0.943,0.884-0.731,1.5c0.212,0.615,0.883,0.941,1.498,0.729
				s0.943-0.883,0.731-1.498C84.678,27.903,84.006,27.575,83.391,27.787"/>
		</g>
		<g>
			<path fill="#38C4F2" d="M67.898,80.198c1.335,0,2.415-1.081,2.415-2.414c0-1.334-1.08-2.414-2.415-2.414
				c-1.334,0-2.414,1.08-2.414,2.414C65.484,79.117,66.564,80.198,67.898,80.198"/>
		</g>
		<g>
			<path fill="#38C4F2" d="M129.149,79.474c0.65,0,1.178-0.528,1.178-1.18s-0.527-1.178-1.178-1.178s-1.179,0.526-1.179,1.178
				S128.499,79.474,129.149,79.474"/>
		</g>
		<g>
			<path fill="#38C4F2" d="M126.763,47.177c0.652,0,1.18-0.528,1.18-1.18s-0.527-1.179-1.18-1.179c-0.65,0-1.178,0.527-1.178,1.179
				S126.112,47.177,126.763,47.177"/>
		</g>
		<g>
			<path fill="#38C4F2" d="M96.035,48.812c0.651,0,1.179-0.528,1.179-1.18s-0.527-1.178-1.179-1.178s-1.178,0.526-1.178,1.178
				S95.384,48.812,96.035,48.812"/>
		</g>
		<g>
			<path fill="#38C4F2" d="M66.055,33.661c0.333,0,0.604-0.271,0.604-0.604c0-0.335-0.271-0.604-0.604-0.604
				s-0.604,0.269-0.604,0.604C65.452,33.391,65.722,33.661,66.055,33.661"/>
		</g>
		<g>
			<path fill="#FFF200" d="M96.035,62.975c1.694,0,3.065-1.373,3.065-3.066c0-1.692-1.371-3.065-3.065-3.065
				c-1.693,0-3.063,1.372-3.063,3.065S94.342,62.975,96.035,62.975"/>
		</g>
		<g>
			<path fill="#38C4F2" d="M111.701,107.614c-0.388-0.523-1.126-0.634-1.648-0.246c-0.524,0.388-0.634,1.126-0.246,1.65
				c0.386,0.522,1.124,0.634,1.648,0.246C111.978,108.877,112.089,108.139,111.701,107.614"/>
		</g>
		<g>
			<path fill="#38C4F2" d="M92.984,91.274c-0.197-0.268-0.575-0.325-0.844-0.126c-0.268,0.198-0.323,0.575-0.127,0.843
				c0.199,0.27,0.578,0.326,0.844,0.126C93.126,91.919,93.185,91.542,92.984,91.274"/>
		</g>
		<g>
			<path fill="#38C4F2" d="M90.104,136.512c-0.316,0.104-0.486,0.446-0.382,0.763c0.106,0.316,0.448,0.487,0.764,0.381
				c0.316-0.104,0.487-0.447,0.382-0.763C90.762,136.576,90.42,136.407,90.104,136.512"/>
		</g>
		<g>
			<path fill="#38C4F2" d="M74.599,126.499c-0.316,0.106-0.485,0.448-0.381,0.763c0.105,0.316,0.448,0.487,0.765,0.381
				c0.314-0.104,0.486-0.447,0.38-0.764C75.257,126.563,74.916,126.395,74.599,126.499"/>
		</g>
		<g>
			<path fill="#38C4F2" d="M32.351,68.179c-0.199-0.268-0.578-0.324-0.846-0.125c-0.268,0.198-0.324,0.575-0.125,0.844
				c0.198,0.268,0.576,0.325,0.844,0.125C32.492,68.825,32.548,68.447,32.351,68.179"/>
		</g>
		<g>
			<path fill="#38C4F2" d="M90.802,36.984c0.275,0.189,0.651,0.119,0.839-0.156c0.189-0.274,0.119-0.65-0.155-0.839
				c-0.275-0.188-0.651-0.12-0.839,0.156C90.459,36.419,90.526,36.795,90.802,36.984"/>
		</g>
		<g>
			<path fill="#FFF200" d="M113.255,89.095c-1.303,0-2.357,1.056-2.357,2.359c0,1.303,1.055,2.357,2.357,2.357
				c1.304,0,2.358-1.055,2.358-2.357C115.613,90.15,114.558,89.095,113.255,89.095"/>
		</g>
		<g>
			<path fill="#FFF200" d="M145.274,99.746c-1.018,0-1.844,0.825-1.844,1.844c0,1.017,0.826,1.843,1.844,1.843
				c1.017,0,1.843-0.826,1.843-1.843C147.117,100.571,146.291,99.746,145.274,99.746"/>
		</g>
		<g>
			<path fill="#FFF200" d="M84.365,74.626c-0.509,0-0.922,0.413-0.922,0.922c0,0.508,0.413,0.922,0.922,0.922
				c0.51,0,0.922-0.414,0.922-0.922C85.287,75.039,84.875,74.626,84.365,74.626"/>
		</g>
		<g>
			<path fill="#38C4F2" d="M81.833,128.778c-0.651,0-1.179,0.527-1.179,1.178c0,0.652,0.527,1.18,1.179,1.18
				c0.65,0,1.179-0.527,1.179-1.18C83.011,129.306,82.483,128.778,81.833,128.778"/>
		</g>
		<g>
			<path fill="#38C4F2" d="M73.233,112.873c-0.651,0-1.179,0.529-1.179,1.18s0.527,1.178,1.179,1.178
				c0.65,0,1.178-0.527,1.178-1.178S73.883,112.873,73.233,112.873"/>
		</g>
		<g>
			<path fill="#38C4F2" d="M146.452,120.06c-0.65,0-1.178,0.527-1.178,1.178c0,0.653,0.527,1.181,1.178,1.181
				c0.652,0,1.18-0.527,1.18-1.181C147.632,120.587,147.104,120.06,146.452,120.06"/>
		</g>
		<g>
			<path fill="#38C4F2" d="M133.874,120.06c-0.65,0-1.178,0.527-1.178,1.178c0,0.653,0.527,1.181,1.178,1.181s1.18-0.527,1.18-1.181
				C135.054,120.587,134.524,120.06,133.874,120.06"/>
		</g>
		<g>
			<path fill="#38C4F2" d="M146.452,120.06c-0.65,0-1.178,0.527-1.178,1.178c0,0.653,0.527,1.181,1.178,1.181
				c0.652,0,1.18-0.527,1.18-1.181C147.632,120.587,147.104,120.06,146.452,120.06"/>
		</g>
		<g>
			<path fill="#38C4F2" d="M126.736,82.613c-1.334,0-2.416,1.081-2.416,2.413c0,1.334,1.082,2.415,2.416,2.415
				c1.332,0,2.413-1.081,2.413-2.415C129.149,83.694,128.068,82.613,126.736,82.613"/>
		</g>
		<g>
			<path fill="#38C4F2" d="M56.839,101.075c-0.65,0-1.178,0.527-1.178,1.179c0,0.652,0.527,1.18,1.178,1.18
				c0.651,0,1.18-0.527,1.18-1.18C58.019,101.603,57.491,101.075,56.839,101.075"/>
		</g>
		<g>
			<path fill="#38C4F2" d="M63.697,121.791c-0.65,0-1.178,0.527-1.178,1.18c0,0.651,0.527,1.178,1.178,1.178
				s1.179-0.526,1.179-1.178C64.875,122.318,64.347,121.791,63.697,121.791"/>
		</g>
		<g>
			<path fill="#38C4F2" d="M75.97,96.97c-0.651,0-1.18,0.529-1.18,1.18s0.528,1.178,1.18,1.178c0.65,0,1.178-0.527,1.178-1.178
				S76.621,96.97,75.97,96.97"/>
		</g>
		<g>
			<path fill="#38C4F2" d="M90.264,154.454c-0.202,0.62,0.135,1.285,0.757,1.486c0.618,0.201,1.284-0.137,1.484-0.757
				c0.201-0.619-0.138-1.285-0.757-1.486C91.13,153.496,90.464,153.836,90.264,154.454"/>
		</g>
		<g>
			<path fill="#38C4F2" d="M25.799,75.548c-0.65,0-1.179,0.528-1.179,1.179c0,0.652,0.528,1.179,1.179,1.179
				s1.179-0.526,1.179-1.179C26.978,76.076,26.45,75.548,25.799,75.548"/>
		</g>
		<g>
			<path fill="#38C4F2" d="M105.037,26.058c0.614-0.212,0.942-0.882,0.729-1.498c-0.211-0.616-0.881-0.941-1.496-0.729
				c-0.619,0.211-0.943,0.882-0.731,1.498C103.748,25.943,104.422,26.271,105.037,26.058"/>
		</g>
		<g>
			<path fill="#38C4F2" d="M91.292,110.676c-0.333,0-0.604,0.269-0.604,0.604c0,0.333,0.271,0.603,0.604,0.603
				c0.334,0,0.604-0.27,0.604-0.603C91.896,110.945,91.626,110.676,91.292,110.676"/>
		</g>
		<g>
			<path fill="#38C4F2" d="M108.033,144.117c-0.104,0.316,0.069,0.657,0.388,0.762c0.315,0.102,0.657-0.072,0.76-0.388
				c0.104-0.316-0.071-0.657-0.388-0.762C108.478,143.626,108.136,143.8,108.033,144.117"/>
		</g>
		<g>
			<path fill="#38C4F2" d="M34.594,93.32c-0.332,0-0.604,0.271-0.604,0.604s0.271,0.604,0.604,0.604
				c0.334,0,0.604-0.271,0.604-0.604S34.928,93.32,34.594,93.32"/>
		</g>
		<g>
			<path fill="#38C4F2" d="M86.085,18.088c0.316-0.107,0.484-0.452,0.375-0.767c-0.108-0.315-0.451-0.482-0.768-0.373
				c-0.314,0.107-0.482,0.45-0.374,0.767C85.428,18.029,85.771,18.196,86.085,18.088"/>
		</g>
		<g>
			<path fill="#FFF200" d="M35.35,112.873c-1.693,0-3.066,1.372-3.066,3.066c0,1.693,1.373,3.064,3.066,3.064
				s3.065-1.371,3.065-3.064C38.416,114.245,37.043,112.873,35.35,112.873"/>
		</g>
		<g>
			<path fill="#38C4F2" d="M64.851,99.864c0.387,0.524,1.124,0.634,1.648,0.246c0.523-0.388,0.634-1.126,0.246-1.648
				c-0.388-0.523-1.125-0.634-1.649-0.246C64.573,98.604,64.463,99.341,64.851,99.864"/>
		</g>
		<g>
			<path fill="#38C4F2" d="M99.192,153.969c0.618-0.206,0.95-0.873,0.744-1.492c-0.207-0.618-0.873-0.95-1.493-0.743
				c-0.617,0.206-0.951,0.874-0.742,1.492C97.906,153.844,98.576,154.175,99.192,153.969"/>
		</g>
		<g>
			<path fill="#38C4F2" d="M19.533,89.457c0.387,0.524,1.125,0.634,1.649,0.246c0.523-0.386,0.634-1.124,0.246-1.648
				c-0.387-0.522-1.126-0.634-1.649-0.247C19.255,88.196,19.146,88.934,19.533,89.457"/>
		</g>
		<g>
			<path fill="#38C4F2" d="M99.273,19.219c-0.535-0.369-1.27-0.232-1.639,0.304s-0.232,1.27,0.305,1.639
				c0.536,0.37,1.27,0.233,1.639-0.303C99.947,20.321,99.812,19.588,99.273,19.219"/>
		</g>
		<g>
			<path fill="#38C4F2" d="M94.976,136.264c0.197,0.268,0.575,0.324,0.843,0.126s0.324-0.576,0.128-0.843
				c-0.199-0.27-0.578-0.325-0.846-0.126C94.834,135.618,94.775,135.996,94.976,136.264"/>
		</g>
		<g>
			<path fill="#38C4F2" d="M94.976,122.458c0.197,0.268,0.575,0.325,0.843,0.126s0.324-0.575,0.128-0.845
				c-0.199-0.268-0.578-0.325-0.846-0.124C94.834,121.812,94.775,122.19,94.976,122.458"/>
		</g>
		<g>
			<path fill="#38C4F2" d="M72.671,67.672c0-0.651-0.529-1.179-1.18-1.179c-0.651,0-1.179,0.527-1.179,1.179
				c0,0.65,0.527,1.179,1.179,1.179C72.142,68.851,72.671,68.322,72.671,67.672"/>
		</g>
		<g>
			<path fill="#38C4F2" d="M87.232,62.004c-0.268,0.198-0.325,0.577-0.128,0.844c0.198,0.269,0.576,0.324,0.847,0.127
				c0.267-0.199,0.324-0.577,0.125-0.845S87.5,61.806,87.232,62.004"/>
		</g>
		<g>
			<path fill="#38C4F2" d="M92.927,79.019c0,0.651,0.529,1.179,1.181,1.179c0.652,0,1.178-0.527,1.178-1.179
				s-0.525-1.179-1.178-1.179C93.456,77.84,92.927,78.368,92.927,79.019"/>
		</g>
		<g>
			<path fill="#38C4F2" d="M106.634,63.696c0,0.332,0.268,0.604,0.604,0.604c0.332,0,0.604-0.271,0.604-0.604
				c0-0.333-0.271-0.604-0.604-0.604C106.902,63.092,106.634,63.363,106.634,63.696"/>
		</g>
		<g>
			<path fill="#38C4F2" d="M101.271,75.798c0.522-0.388,0.634-1.125,0.245-1.649c-0.386-0.523-1.123-0.634-1.648-0.246
				c-0.521,0.387-0.635,1.125-0.246,1.649C100.009,76.074,100.747,76.186,101.271,75.798"/>
		</g>
		<g>
			<path fill="#FFF200" d="M79.217,52.497c0-0.509-0.413-0.921-0.922-0.921c-0.508,0-0.922,0.412-0.922,0.921
				c0,0.511,0.414,0.922,0.922,0.922C78.804,53.419,79.217,53.007,79.217,52.497"/>
		</g>
		<g>
			<path fill="#FFF200" d="M117.862,50.397c0-0.511-0.412-0.922-0.921-0.922c-0.51,0-0.922,0.411-0.922,0.922
				c0,0.51,0.412,0.921,0.922,0.921C117.45,51.318,117.862,50.906,117.862,50.397"/>
		</g>
		<g>
			<path fill="#38C4F2" d="M87.385,92.141c0-0.651-0.527-1.179-1.177-1.179c-0.652,0-1.179,0.527-1.179,1.179
				c0,0.652,0.526,1.18,1.179,1.18C86.858,93.32,87.385,92.793,87.385,92.141"/>
		</g>
		<g>
			<path fill="#38C4F2" d="M154.552,86.456c-0.62-0.201-1.286,0.137-1.485,0.758c-0.201,0.619,0.137,1.284,0.757,1.485
				c0.619,0.201,1.282-0.138,1.485-0.757C155.51,87.321,155.171,86.657,154.552,86.456"/>
		</g>
		<g>
			<path fill="#38C4F2" d="M66.63,150.254c0-0.65-0.528-1.178-1.179-1.178c-0.651,0-1.179,0.527-1.179,1.178s0.527,1.18,1.179,1.18
				C66.102,151.434,66.63,150.904,66.63,150.254"/>
		</g>
		<g>
			<path fill="#38C4F2" d="M30.146,49.859c0.213,0.617,0.884,0.942,1.499,0.73c0.616-0.212,0.942-0.882,0.73-1.498
				c-0.211-0.617-0.882-0.943-1.498-0.731S29.935,49.243,30.146,49.859"/>
		</g>
		<g>
			<path fill="#38C4F2" d="M48.966,125.133c0-0.65-0.528-1.179-1.18-1.179s-1.179,0.528-1.179,1.179c0,0.651,0.527,1.18,1.179,1.18
				S48.966,125.784,48.966,125.133"/>
		</g>
		<g>
			<path fill="#38C4F2" d="M43.792,102.769c0-0.65-0.528-1.179-1.179-1.179c-0.652,0-1.18,0.528-1.18,1.179s0.527,1.178,1.18,1.178
				C43.263,103.946,43.792,103.419,43.792,102.769"/>
		</g>
		<g>
			<path fill="#38C4F2" d="M86.207,125.451c0-0.65-0.528-1.178-1.179-1.178c-0.652,0-1.18,0.527-1.18,1.178s0.527,1.18,1.18,1.18
				C85.678,126.631,86.207,126.103,86.207,125.451"/>
		</g>
		<g>
			<path fill="#38C4F2" d="M28.967,82.361c0.212,0.616,0.883,0.942,1.499,0.73c0.615-0.212,0.941-0.882,0.729-1.499
				c-0.211-0.615-0.882-0.941-1.499-0.729C29.082,81.075,28.755,81.745,28.967,82.361"/>
		</g>
		<g>
			<path fill="#38C4F2" d="M84.388,86.021c0-1.332-1.08-2.415-2.414-2.415s-2.414,1.083-2.414,2.415c0,1.334,1.08,2.415,2.414,2.415
				S84.388,87.354,84.388,86.021"/>
		</g>
		<g>
			<path fill="#38C4F2" d="M80.654,36.604c0-0.651-0.528-1.18-1.179-1.18c-0.651,0-1.179,0.528-1.179,1.18
				c0,0.65,0.527,1.179,1.179,1.179C80.125,37.782,80.654,37.254,80.654,36.604"/>
		</g>
		<g>
			<path fill="#38C4F2" d="M49.993,36.604c0-0.651-0.529-1.18-1.18-1.18c-0.651,0-1.179,0.528-1.179,1.18
				c0,0.65,0.527,1.179,1.179,1.179C49.463,37.782,49.993,37.254,49.993,36.604"/>
		</g>
		<g>
			<path fill="#38C4F2" d="M49.993,69.717c0-0.651-0.529-1.18-1.18-1.18c-0.651,0-1.179,0.528-1.179,1.18
				c0,0.65,0.527,1.179,1.179,1.179C49.463,70.896,49.993,70.367,49.993,69.717"/>
		</g>
		<g>
			<path fill="#38C4F2" d="M38.942,88.604c0-0.334-0.27-0.604-0.604-0.604c-0.332,0-0.603,0.271-0.603,0.604
				c0,0.332,0.271,0.604,0.603,0.604C38.672,89.208,38.942,88.937,38.942,88.604"/>
		</g>
		<g>
			<path fill="#38C4F2" d="M108.795,54.053c-0.524,0.387-0.634,1.124-0.246,1.649c0.388,0.524,1.126,0.634,1.648,0.246
				c0.524-0.387,0.634-1.125,0.246-1.65C110.056,53.776,109.319,53.665,108.795,54.053"/>
		</g>
		<g>
			<path fill="#38C4F2" d="M92.453,72.769c-0.269,0.196-0.323,0.576-0.126,0.842c0.198,0.269,0.575,0.325,0.843,0.127
				c0.27-0.199,0.324-0.576,0.127-0.845C93.1,72.627,92.722,72.569,92.453,72.769"/>
		</g>
		<g>
			<path fill="#38C4F2" d="M137.692,75.649c0.104,0.316,0.447,0.486,0.763,0.381s0.485-0.448,0.381-0.765
				c-0.106-0.315-0.447-0.486-0.763-0.381C137.757,74.99,137.586,75.333,137.692,75.649"/>
		</g>
		<g>
			<path fill="#38C4F2" d="M127.68,91.154c0.106,0.316,0.446,0.484,0.763,0.38c0.315-0.106,0.487-0.448,0.381-0.765
				c-0.105-0.315-0.447-0.485-0.763-0.379C127.744,90.495,127.574,90.838,127.68,91.154"/>
		</g>
		<g>
			<path fill="#38C4F2" d="M75.098,129.465c-0.268,0.198-0.324,0.578-0.126,0.844c0.198,0.27,0.575,0.324,0.844,0.126
				s0.325-0.576,0.126-0.843C75.744,129.323,75.366,129.268,75.098,129.465"/>
		</g>
		<g>
			<path fill="#38C4F2" d="M38.165,74.95c0.188-0.275,0.118-0.65-0.156-0.84c-0.274-0.188-0.65-0.119-0.839,0.156
				c-0.189,0.275-0.119,0.65,0.155,0.839S37.975,75.226,38.165,74.95"/>
		</g>
		<g>
			<path fill="#FFF200" d="M98.864,105.573c0,0.51,0.413,0.922,0.923,0.922c0.506,0,0.922-0.412,0.922-0.922
				c0-0.509-0.416-0.921-0.922-0.921C99.277,104.652,98.864,105.064,98.864,105.573"/>
		</g>
		<g>
			<path fill="#FFF200" d="M134.64,107.417c0,0.509,0.41,0.921,0.92,0.921c0.509,0,0.921-0.412,0.921-0.921
				c0-0.511-0.412-0.922-0.921-0.922C135.05,106.495,134.64,106.906,134.64,107.417"/>
		</g>
		<g>
			<path fill="#38C4F2" d="M136.48,81.878c0,0.651,0.529,1.18,1.18,1.18c0.652,0,1.18-0.528,1.18-1.18
				c0-0.65-0.527-1.179-1.18-1.179C137.01,80.699,136.48,81.228,136.48,81.878"/>
		</g>
		<g>
			<path fill="#38C4F2" d="M101.115,117.014c0,0.651,0.527,1.181,1.178,1.181c0.653,0,1.18-0.529,1.18-1.181
				c0-0.65-0.526-1.178-1.18-1.178C101.643,115.836,101.115,116.363,101.115,117.014"/>
		</g>
		<g>
			<path fill="#38C4F2" d="M115.903,27.724c0,0.651,0.528,1.179,1.18,1.179c0.65,0,1.178-0.527,1.178-1.179
				c0-0.65-0.527-1.179-1.178-1.179C116.432,26.545,115.903,27.073,115.903,27.724"/>
		</g>
		<g>
			<path fill="#38C4F2" d="M115.903,43.036c0,0.651,0.528,1.179,1.18,1.179c0.65,0,1.178-0.527,1.178-1.179
				c0-0.65-0.527-1.179-1.178-1.179C116.432,41.857,115.903,42.386,115.903,43.036"/>
		</g>
		<g>
			<path fill="#38C4F2" d="M66.977,23.764c0,0.65,0.528,1.179,1.179,1.179c0.651,0,1.179-0.528,1.179-1.179
				s-0.527-1.178-1.179-1.178C67.505,22.586,66.977,23.114,66.977,23.764"/>
		</g>
		<g>
			<path fill="#38C4F2" d="M83.792,39.018c0,1.333,1.08,2.415,2.414,2.415c1.333,0,2.415-1.082,2.415-2.415
				c0-1.334-1.082-2.414-2.415-2.414C84.873,36.604,83.792,37.684,83.792,39.018"/>
		</g>
		<g>
			<path fill="#38C4F2" d="M121.239,108.148c0,0.65,0.527,1.178,1.179,1.178c0.652,0,1.179-0.527,1.179-1.178
				c0-0.652-0.527-1.18-1.179-1.18C121.767,106.97,121.239,107.497,121.239,108.148"/>
		</g>
		<g>
			<path fill="#38C4F2" d="M121.239,108.148c0,0.65,0.527,1.178,1.179,1.178c0.652,0,1.179-0.527,1.179-1.178
				c0-0.652-0.527-1.18-1.179-1.18C121.767,106.97,121.239,107.497,121.239,108.148"/>
		</g>
		<g>
			<path fill="#38C4F2" d="M98.15,89.783c0,0.65,0.526,1.18,1.178,1.18s1.178-0.529,1.178-1.18s-0.526-1.179-1.178-1.179
				S98.15,89.133,98.15,89.783"/>
		</g>
		<g>
			<path fill="#38C4F2" d="M155.635,75.489c0.619,0.202,1.284-0.137,1.485-0.757c0.201-0.619-0.138-1.285-0.757-1.485
				c-0.62-0.201-1.284,0.139-1.485,0.757C154.677,74.624,155.016,75.288,155.635,75.489"/>
		</g>
		<g>
			<path fill="#38C4F2" d="M73.612,139.167c0,0.65,0.528,1.179,1.179,1.179c0.652,0,1.18-0.528,1.18-1.179
				c0-0.651-0.527-1.179-1.18-1.179C74.14,137.989,73.612,138.517,73.612,139.167"/>
		</g>
		<g>
			<path fill="#38C4F2" d="M26.915,55.795c-0.212-0.616-0.884-0.942-1.499-0.73c-0.615,0.213-0.941,0.883-0.73,1.498
				c0.211,0.617,0.884,0.943,1.499,0.732C26.799,57.082,27.127,56.411,26.915,55.795"/>
		</g>
		<g>
			<path fill="#38C4F2" d="M116.189,69.862c0,0.333,0.27,0.604,0.604,0.604c0.333,0,0.603-0.271,0.603-0.604
				s-0.27-0.604-0.603-0.604C116.459,69.259,116.189,69.53,116.189,69.862"/>
		</g>
		<g>
			<path fill="#38C4F2" d="M145.298,57.72c0.315,0.104,0.657-0.069,0.76-0.387c0.104-0.316-0.071-0.658-0.388-0.762
				c-0.317-0.104-0.656,0.07-0.76,0.388C144.806,57.275,144.979,57.617,145.298,57.72"/>
		</g>
		<g>
			<path fill="#38C4F2" d="M94.5,131.157c0,0.332,0.27,0.604,0.604,0.604c0.332,0,0.603-0.271,0.603-0.604
				c0-0.333-0.271-0.604-0.603-0.604C94.77,130.553,94.5,130.824,94.5,131.157"/>
		</g>
		<g>
			<path fill="#38C4F2" d="M19.269,79.666c-0.108-0.315-0.453-0.482-0.769-0.373c-0.314,0.108-0.482,0.45-0.373,0.766
				c0.108,0.315,0.451,0.483,0.767,0.375C19.208,80.324,19.376,79.981,19.269,79.666"/>
		</g>
		<g>
			<path fill="#38C4F2" d="M106.492,86.562c0.523-0.388,0.634-1.125,0.246-1.649c-0.388-0.523-1.125-0.634-1.649-0.247
				c-0.522,0.387-0.634,1.126-0.246,1.649S105.968,86.949,106.492,86.562"/>
		</g>
		<g>
			<path fill="#38C4F2" d="M155.149,66.56c-0.207-0.618-0.876-0.95-1.492-0.743c-0.618,0.206-0.95,0.873-0.744,1.491
				s0.875,0.951,1.492,0.744S155.355,67.178,155.149,66.56"/>
		</g>
		<g>
			<path fill="#38C4F2" d="M89.137,143.259c0.523-0.388,0.634-1.124,0.246-1.649c-0.386-0.522-1.124-0.633-1.648-0.245
				c-0.523,0.385-0.635,1.124-0.248,1.648C87.875,143.538,88.613,143.646,89.137,143.259"/>
		</g>
		<g>
			<path fill="#38C4F2" d="M35.516,102.101c-0.369,0.537-0.232,1.271,0.304,1.64c0.536,0.37,1.271,0.233,1.64-0.304
				c0.368-0.535,0.232-1.271-0.304-1.639C36.62,101.428,35.884,101.564,35.516,102.101"/>
		</g>
		<g>
			<path fill="#38C4F2" d="M137.444,70.777c0.268-0.198,0.324-0.578,0.126-0.844c-0.199-0.269-0.576-0.324-0.845-0.127
				c-0.268,0.199-0.324,0.577-0.125,0.845C136.799,70.919,137.176,70.976,137.444,70.777"/>
		</g>
		<g>
			<path fill="#38C4F2" d="M123.639,70.777c0.268-0.198,0.324-0.578,0.126-0.844c-0.199-0.269-0.578-0.324-0.845-0.127
				c-0.268,0.199-0.324,0.577-0.127,0.845C122.993,70.919,123.369,70.976,123.639,70.777"/>
		</g>
		<g>
			<path fill="#38C4F2" d="M68.852,93.082c-0.651,0-1.179,0.527-1.179,1.18c0,0.651,0.527,1.179,1.179,1.179
				c0.65,0,1.178-0.527,1.178-1.179C70.03,93.609,69.502,93.082,68.852,93.082"/>
		</g>
		<g>
			<path fill="#38C4F2" d="M40.344,63.574c0.199,0.268,0.577,0.325,0.845,0.125c0.268-0.197,0.324-0.575,0.126-0.844
				c-0.199-0.268-0.576-0.324-0.845-0.125C40.203,62.929,40.146,63.306,40.344,63.574"/>
		</g>
		<g>
			<path fill="#38C4F2" d="M80.199,72.824c0.651,0,1.18-0.527,1.18-1.179s-0.528-1.179-1.18-1.179c-0.65,0-1.178,0.527-1.178,1.179
				S79.548,72.824,80.199,72.824"/>
		</g>
		<g>
			<path fill="#38C4F2" d="M64.876,59.119c0.334,0,0.604-0.271,0.604-0.604c0-0.332-0.27-0.603-0.604-0.603
				c-0.333,0-0.604,0.271-0.604,0.603C64.273,58.849,64.543,59.119,64.876,59.119"/>
		</g>
		<g>
			<path fill="#38C4F2" d="M76.978,64.482c-0.388-0.524-1.125-0.634-1.648-0.246c-0.524,0.386-0.634,1.124-0.246,1.649
				c0.386,0.521,1.124,0.634,1.648,0.246C77.255,65.743,77.366,65.005,76.978,64.482"/>
		</g>
		<g>
			<path fill="#38C4F2" d="M120.953,143.001c-0.315,0.105-0.487,0.447-0.381,0.763c0.105,0.316,0.448,0.486,0.764,0.381
				c0.316-0.106,0.486-0.449,0.381-0.765C121.61,143.064,121.27,142.895,120.953,143.001"/>
		</g>
		<g>
			<path fill="#38C4F2" d="M105.449,132.988c-0.315,0.104-0.488,0.447-0.382,0.763c0.105,0.316,0.447,0.486,0.764,0.381
				c0.316-0.106,0.486-0.447,0.382-0.764C106.105,133.054,105.765,132.882,105.449,132.988"/>
		</g>
		<g>
			<path fill="#38C4F2" d="M114.724,141.79c-0.651,0-1.178,0.526-1.178,1.18c0,0.65,0.526,1.178,1.178,1.178
				c0.652,0,1.18-0.527,1.18-1.178C115.903,142.317,115.376,141.79,114.724,141.79"/>
		</g>
		<g>
			<path fill="#38C4F2" d="M104.46,124.19c-0.649,0-1.179,0.526-1.179,1.178s0.529,1.179,1.179,1.179c0.651,0,1.18-0.527,1.18-1.179
				C105.64,124.718,105.111,124.19,104.46,124.19"/>
		</g>
		<g>
			<path fill="#38C4F2" d="M125.824,142.753c0.2,0.268,0.577,0.325,0.846,0.124c0.268-0.197,0.324-0.575,0.126-0.843
				c-0.199-0.268-0.577-0.325-0.845-0.126C125.683,142.107,125.626,142.483,125.824,142.753"/>
		</g>
		<g>
			<path fill="#38C4F2" d="M125.824,128.946c0.2,0.269,0.577,0.324,0.846,0.125c0.268-0.197,0.324-0.575,0.126-0.843
				c-0.199-0.269-0.577-0.324-0.845-0.126C125.683,128.301,125.626,128.679,125.824,128.946"/>
		</g>
		<g>
			<path fill="#38C4F2" d="M117.056,131.94c0-0.652-0.527-1.18-1.178-1.18c-0.651,0-1.179,0.527-1.179,1.18
				c0,0.65,0.527,1.178,1.179,1.178C116.528,133.118,117.056,132.591,117.056,131.94"/>
		</g>
		<g>
			<path fill="#38C4F2" d="M105.947,135.953c-0.27,0.199-0.324,0.577-0.125,0.845c0.199,0.267,0.575,0.324,0.844,0.126
				c0.27-0.199,0.323-0.577,0.126-0.845C106.593,135.812,106.217,135.756,105.947,135.953"/>
		</g>
		<g>
			<path fill="#38C4F2" d="M125.351,137.646c0,0.332,0.27,0.604,0.604,0.604c0.333,0,0.603-0.271,0.603-0.604
				c0-0.334-0.27-0.604-0.603-0.604C125.62,137.042,125.351,137.313,125.351,137.646"/>
		</g>
		<g>
			<path fill="#38C4F2" d="M119.987,149.748c0.523-0.388,0.634-1.126,0.246-1.65s-1.125-0.634-1.648-0.246
				c-0.526,0.388-0.634,1.126-0.246,1.65C118.727,150.024,119.463,150.136,119.987,149.748"/>
		</g>
		<g>
			<path fill="#38C4F2" d="M58.025,124.641c0.271,0.194,0.648,0.13,0.842-0.142c0.194-0.27,0.132-0.648-0.141-0.841
				c-0.271-0.192-0.647-0.129-0.841,0.14C57.691,124.07,57.752,124.446,58.025,124.641"/>
		</g>
		<g>
			<path fill="#38C4F2" d="M59.039,143.069c0.271,0.193,0.647,0.129,0.841-0.142s0.132-0.649-0.141-0.842
				c-0.271-0.195-0.647-0.131-0.842,0.14C58.704,142.498,58.766,142.875,59.039,143.069"/>
		</g>
		<g>
			<path fill="#38C4F2" d="M60.707,130.39c0.383,0.527,1.12,0.646,1.647,0.263c0.525-0.383,0.643-1.12,0.26-1.648
				c-0.383-0.525-1.12-0.644-1.646-0.259C60.441,129.127,60.325,129.864,60.707,130.39"/>
		</g>
		<g>
			<path fill="#38C4F2" d="M52.5,149.038c0.383,0.527,1.121,0.646,1.648,0.261c0.525-0.382,0.643-1.118,0.26-1.646
				c-0.383-0.525-1.12-0.644-1.647-0.261C52.235,147.775,52.119,148.513,52.5,149.038"/>
		</g>
		<g>
			<path fill="#38C4F2" d="M54.961,120.845c0.1-0.317-0.077-0.656-0.395-0.757c-0.317-0.102-0.657,0.076-0.758,0.395
				c-0.099,0.317,0.077,0.656,0.396,0.757C54.521,121.339,54.86,121.162,54.961,120.845"/>
		</g>
		<g>
			<path fill="#38C4F2" d="M43.792,128.959c0.101-0.317-0.076-0.656-0.396-0.757c-0.316-0.102-0.656,0.077-0.757,0.395
				c-0.1,0.317,0.077,0.656,0.395,0.757S43.691,129.277,43.792,128.959"/>
		</g>
		<g>
			<path fill="#38C4F2" d="M45.915,134.743c-0.527,0.383-0.644,1.12-0.261,1.647c0.383,0.525,1.12,0.645,1.646,0.262
				c0.527-0.384,0.645-1.121,0.261-1.649C47.179,134.479,46.441,134.36,45.915,134.743"/>
		</g>
		<g>
			<path fill="#38C4F2" d="M81.188,109.902c0.318,0.102,0.656-0.075,0.757-0.395c0.101-0.317-0.076-0.657-0.394-0.757
				c-0.318-0.1-0.657,0.076-0.757,0.395C80.694,109.463,80.871,109.803,81.188,109.902"/>
		</g>
		<g>
			<path fill="#38C4F2" d="M49.167,95.324c0.27-0.195,0.329-0.572,0.134-0.842s-0.573-0.331-0.843-0.134
				c-0.271,0.196-0.33,0.574-0.135,0.844C48.52,95.461,48.898,95.521,49.167,95.324"/>
		</g>
		<g>
			<path fill="#38C4F2" d="M65.231,114.107c-0.621-0.196-1.283,0.148-1.479,0.77c-0.196,0.621,0.148,1.282,0.77,1.479
				c0.622,0.195,1.283-0.149,1.479-0.77C66.197,114.964,65.852,114.304,65.231,114.107"/>
		</g>
		<g>
			<path fill="#38C4F2" d="M128.083,58.685c0.106-0.315,0.449-0.486,0.766-0.381s0.485,0.448,0.379,0.765
				c-0.104,0.315-0.447,0.484-0.763,0.379C128.148,59.342,127.979,59.001,128.083,58.685"/>
		</g>
		<g>
			<path fill="#38C4F2" d="M130.362,65.918c0-0.651,0.527-1.18,1.18-1.18c0.651,0,1.178,0.528,1.178,1.18s-0.526,1.179-1.178,1.179
				C130.89,67.097,130.362,66.569,130.362,65.918"/>
		</g>
		<g>
			<path fill="#38C4F2" d="M114.435,62.489c0-0.651,0.527-1.18,1.179-1.18s1.179,0.528,1.179,1.18c0,0.65-0.527,1.179-1.179,1.179
				S114.435,63.14,114.435,62.489"/>
		</g>
		<g>
			<path fill="#38C4F2" d="M105.831,43.64c0-0.65,0.529-1.179,1.181-1.179c0.65,0,1.178,0.528,1.178,1.179s-0.527,1.179-1.178,1.179
				C106.36,44.818,105.831,44.29,105.831,43.64"/>
		</g>
		<g>
			<path fill="#38C4F2" d="M127.035,70.292c-0.651,0-1.178-0.528-1.178-1.179c0-0.652,0.526-1.18,1.178-1.18
				c0.65,0,1.18,0.527,1.18,1.18C128.215,69.764,127.686,70.292,127.035,70.292"/>
		</g>
		<g>
			<path fill="#38C4F2" d="M131.05,59.184c0.197-0.269,0.577-0.324,0.843-0.126c0.269,0.198,0.326,0.577,0.126,0.844
				c-0.197,0.269-0.576,0.324-0.844,0.127C130.908,59.829,130.852,59.452,131.05,59.184"/>
		</g>
		<g>
			<path fill="#38C4F2" d="M129.037,39.271c0.194,0.271,0.131,0.648-0.142,0.841c-0.27,0.194-0.647,0.132-0.841-0.14
				c-0.194-0.271-0.131-0.648,0.141-0.842C128.466,38.937,128.844,38.999,129.037,39.271"/>
		</g>
		<g>
			<path fill="#38C4F2" d="M140.739,44.44c0.527,0.382,0.644,1.12,0.262,1.648c-0.383,0.526-1.12,0.643-1.647,0.26
				s-0.644-1.118-0.259-1.646C139.476,44.175,140.214,44.059,140.739,44.44"/>
		</g>
		<g>
			<path fill="#38C4F2" d="M122.429,39.046c-0.317,0.101-0.656-0.075-0.757-0.395c-0.102-0.317,0.077-0.656,0.395-0.757
				s0.656,0.077,0.757,0.395C122.923,38.606,122.747,38.945,122.429,39.046"/>
		</g>
		<g>
			<path fill="#38C4F2" d="M123.163,53.292c-0.195-0.622,0.149-1.284,0.77-1.479c0.621-0.194,1.283,0.148,1.479,0.771
				c0.196,0.62-0.15,1.282-0.771,1.478C124.021,54.257,123.359,53.912,123.163,53.292"/>
		</g>
		<g>
			<path fill="#FFF200" d="M57.415,72.187c0-4.831-0.136-9.367-0.376-13.311c-0.239,3.943-0.376,8.479-0.376,13.311
				s0.137,9.368,0.376,13.311C57.279,81.555,57.415,77.018,57.415,72.187"/>
		</g>
		<g>
			<path fill="#FFF200" d="M107.42,71.077c-2.777-2.684-5.436-5.154-7.786-7.259c2.184,2.277,4.746,4.846,7.525,7.531
				c2.78,2.683,5.437,5.154,7.787,7.258C112.763,76.33,110.2,73.762,107.42,71.077"/>
		</g>
		<g>
			<path fill="#FFF200" d="M114.946,107.548c0-3.862-0.136-7.49-0.376-10.645c-0.239,3.154-0.376,6.782-0.376,10.645
				c0,3.864,0.137,7.491,0.376,10.646C114.811,115.039,114.946,111.412,114.946,107.548"/>
		</g>
		<g>
			<path fill="#FFF200" d="M125.067,99.389c-3.184-2.188-6.212-4.188-8.878-5.873c2.53,1.883,5.481,3.994,8.665,6.184
				c3.184,2.188,6.212,4.186,8.878,5.874C131.202,103.688,128.252,101.578,125.067,99.389"/>
		</g>
		<g>
			<path fill="#FFF200" d="M75.292,103.612c12.676-4.029,24.562-7.877,34.876-11.278c-10.386,3.174-22.313,6.892-34.991,10.919
				c-12.678,4.027-24.563,7.875-34.876,11.276C50.687,111.357,62.614,107.64,75.292,103.612"/>
		</g>
		<g>
			<path fill="#FFF200" d="M56.68,135.357c-6.335-5.508-12.188-10.795-17.186-15.491c5.346,4.297,11.396,9.355,17.73,14.864
				c6.337,5.508,12.188,10.794,17.186,15.488C69.066,145.924,63.016,140.866,56.68,135.357"/>
		</g>
	</g>
</g>
</svg>
