<?xml version="1.0" encoding="UTF-8" standalone="no"?>
<svg width="170px" height="170px" viewBox="0 0 170 170" version="1.1" xmlns="http://www.w3.org/2000/svg" xmlns:xlink="http://www.w3.org/1999/xlink">
    <!-- Generator: Sketch 41.2 (35397) - http://www.bohemiancoding.com/sketch -->
    <title>vi_icon_socmed_mail_RGB_M</title>
    <desc>Created with Sketch.</desc>
    <defs></defs>
    <g id="Page-1" stroke="none" stroke-width="1" fill="none" fill-rule="evenodd">
        <g id="vi_icon_socmed_mail_RGB_M">
            <g id="Group">
                <g id="M">
                    <path d="M85.455,168.955 C39.413498,168.955 1.955,131.49628 1.955,85.4554941 C1.955,39.4127315 39.413498,1.955 85.455,1.955 C131.496502,1.955 168.955,39.4127315 168.955,85.4554941 C168.955,131.49628 131.496502,168.955 85.455,168.955 Z" id="Shape" fill="#FFF200"></path>
                    <path d="M169.957,85.457 C169.957,132.051 132.051,169.957 85.457,169.957 C38.863,169.957 0.955,132.051 0.955,85.457 C0.955,38.862 38.863,0.955 85.457,0.955 C132.051,0.955 169.957,38.862 169.957,85.457 Z M161.453,85.457 C161.453,43.552 127.361,9.459 85.456,9.459 C43.55,9.459 9.458,43.552 9.458,85.457 C9.458,127.361 43.55,161.453 85.456,161.453 C127.361,161.453 161.453,127.361 161.453,85.457 Z" id="Shape" fill="#000000"></path>
                </g>
                <g id="social_x5F_mail" transform="translate(38.000000, 51.000000)" fill="#000000">
                    <g id="Group">
                        <g transform="translate(2.000000, 0.000000)" id="Shape">
                            <path d="M45.477,47.866 L33.869,37.692 L0.727,66.094 C1.932,67.24 3.538,67.924 5.339,67.924 L85.576,67.924 C87.373,67.924 88.973,67.24 90.184,66.094 L57.039,37.692 L45.477,47.866 Z"></path>
                            <path d="M90.186,2.823 C89.011,1.677 87.374,0.989 85.578,0.989 L5.342,0.989 C3.574,0.989 1.933,1.677 0.728,2.823 L45.477,41.159 L90.186,2.823 Z"></path>
                        </g>
                        <polygon id="Shape" points="0.604 6.872 0.604 62.474 32.958 34.978"></polygon>
                        <polygon id="Shape" points="61.953 34.978 94.311 62.474 94.311 6.835"></polygon>
                    </g>
                </g>
            </g>
        </g>
    </g>
</svg>