<?xml version="1.0" encoding="utf-8"?>
<!-- Generator: Adobe Illustrator 15.1.0, SVG Export Plug-In . SVG Version: 6.00 Build 0)  -->
<!DOCTYPE svg PUBLIC "-//W3C//DTD SVG 1.0//EN" "http://www.w3.org/TR/2001/REC-SVG-20010904/DTD/svg10.dtd">
<svg version="1.0" xmlns="http://www.w3.org/2000/svg" xmlns:xlink="http://www.w3.org/1999/xlink" x="0px" y="0px"
	 width="172.914px" height="172.914px" viewBox="0 0 172.914 172.914" enable-background="new 0 0 172.914 172.914"
	 xml:space="preserve">
<g id="Background_on_white">
</g>
<g id="M">
	<path fill="#FFF200" d="M86.457,170.958c-46.594,0-84.502-37.908-84.502-84.501c0-46.595,37.908-84.502,84.502-84.502
		c46.594,0,84.502,37.907,84.502,84.502C170.959,133.05,133.051,170.958,86.457,170.958z"/>
	<path d="M170.957,86.457c0,46.594-37.906,84.5-84.5,84.5c-46.594,0-84.502-37.906-84.502-84.5
		c0-46.595,37.908-84.502,84.502-84.502C133.051,1.955,170.957,39.862,170.957,86.457z M162.453,86.457
		c0-41.905-34.092-75.998-75.997-75.998c-41.906,0-75.998,34.093-75.998,75.998c0,41.904,34.092,75.996,75.998,75.996
		C128.361,162.453,162.453,128.361,162.453,86.457z"/>
</g>
<g id="eco_x5F_system">
	<path d="M115.085,118.215v-5.669V60.368v-5.669h5.669h8.714c-9.753-13.178-25.396-21.744-43.011-21.744
		c-19.016,0-35.745,9.971-45.235,24.958L52.09,84.297l0.89,2.158l-0.89,2.16L41.221,115c9.49,14.987,26.221,24.959,45.235,24.959
		c17.616,0,33.257-8.567,43.011-21.744h-8.714H115.085z M86.457,105.923c-10.734,0-19.466-8.732-19.466-19.466
		c0-10.734,8.731-19.467,19.466-19.467c10.734,0,19.466,8.732,19.466,19.467C105.923,97.19,97.19,105.923,86.457,105.923z"/>
	<polygon points="144.577,60.368 120.754,60.368 120.754,112.546 144.577,112.546 158.652,86.164 	"/>
	<path d="M10.457,114.385h24.886l11.506-27.93L35.343,58.529H10.457C3.082,74.852,5.332,99.582,10.457,114.385z"/>
</g>
</svg>
