<?xml version="1.0" encoding="UTF-8" standalone="no"?>
<svg width="170px" height="170px" viewBox="0 0 170 170" version="1.1" xmlns="http://www.w3.org/2000/svg" xmlns:xlink="http://www.w3.org/1999/xlink">
    <!-- Generator: Sketch 41.2 (35397) - http://www.bohemiancoding.com/sketch -->
    <title>vi_icon_socmed_twitter_RGB_M</title>
    <desc>Created with Sketch.</desc>
    <defs></defs>
    <g id="Page-1" stroke="none" stroke-width="1" fill="none" fill-rule="evenodd">
        <g id="vi_icon_socmed_twitter_RGB_M">
            <g id="Group">
                <g id="M">
                    <path d="M85.455,168.955 C39.413498,168.955 1.955,131.49628 1.955,85.4554941 C1.955,39.4127315 39.413498,1.955 85.455,1.955 C131.496502,1.955 168.955,39.4127315 168.955,85.4554941 C168.955,131.49628 131.496502,168.955 85.455,168.955 Z" id="Shape" fill="#FFF200"></path>
                    <path d="M169.957,85.457 C169.957,132.051 132.051,169.957 85.457,169.957 C38.863,169.957 0.955,132.051 0.955,85.457 C0.955,38.862 38.863,0.955 85.457,0.955 C132.051,0.955 169.957,38.862 169.957,85.457 Z M161.453,85.457 C161.453,43.552 127.361,9.459 85.456,9.459 C43.55,9.459 9.458,43.552 9.458,85.457 C9.458,127.361 43.55,161.453 85.456,161.453 C127.361,161.453 161.453,127.361 161.453,85.457 Z" id="Shape" fill="#000000"></path>
                </g>
                <g id="social_x5F_twitter" transform="translate(40.000000, 48.000000)" fill="#000000">
                    <path d="M4.586,66.184 C3.088,66.184 1.613,66.093 0.157,65.918 C8.384,71.207 18.155,74.269 28.653,74.269 C62.851,74.269 81.546,45.953 81.546,21.393 C81.546,20.58 81.53,19.767 81.501,18.976 C85.122,16.354 88.281,13.085 90.761,9.369 C87.442,10.843 83.852,11.844 80.083,12.285 C83.932,9.984 86.87,6.344 88.266,1.993 C84.676,4.136 80.69,5.677 76.45,6.502 C73.065,2.9 68.235,0.645 62.882,0.645 C52.623,0.645 44.299,8.968 44.299,19.229 C44.299,20.696 44.454,22.105 44.772,23.469 C29.335,22.694 15.623,15.293 6.462,4.045 C4.871,6.791 3.948,9.986 3.948,13.385 C3.948,19.835 7.236,25.534 12.226,28.852 C9.176,28.758 6.298,27.936 3.806,26.534 C3.788,26.616 3.788,26.692 3.788,26.774 C3.788,35.782 10.206,43.292 18.705,44.991 C17.145,45.423 15.498,45.641 13.812,45.641 C12.606,45.641 11.446,45.53 10.318,45.307 C12.683,52.698 19.544,58.065 27.679,58.225 C21.31,63.219 13.305,66.184 4.586,66.184" id="Shape"></path>
                </g>
            </g>
        </g>
    </g>
</svg>