<?xml version="1.0" encoding="utf-8"?>
<!-- Generator: Adobe Illustrator 15.1.0, SVG Export Plug-In . SVG Version: 6.00 Build 0)  -->
<!DOCTYPE svg PUBLIC "-//W3C//DTD SVG 1.0//EN" "http://www.w3.org/TR/2001/REC-SVG-20010904/DTD/svg10.dtd">
<svg version="1.0" xmlns="http://www.w3.org/2000/svg" xmlns:xlink="http://www.w3.org/1999/xlink" x="0px" y="0px"
	 width="172.914px" height="172.914px" viewBox="0 0 172.914 172.914" enable-background="new 0 0 172.914 172.914"
	 xml:space="preserve">
<g id="Background_on_white">
</g>
<g id="M">
	<path fill="#FFF200" d="M86.457,170.958c-46.594,0-84.502-37.908-84.502-84.501c0-46.595,37.908-84.502,84.502-84.502
		c46.594,0,84.502,37.907,84.502,84.502C170.959,133.05,133.051,170.958,86.457,170.958z"/>
	<path d="M170.957,86.457c0,46.594-37.906,84.5-84.5,84.5c-46.594,0-84.502-37.906-84.502-84.5
		c0-46.595,37.908-84.502,84.502-84.502C133.051,1.955,170.957,39.862,170.957,86.457z M162.453,86.457
		c0-41.905-34.092-75.998-75.997-75.998c-41.906,0-75.998,34.093-75.998,75.998c0,41.904,34.092,75.996,75.998,75.996
		C128.361,162.453,162.453,128.361,162.453,86.457z"/>
</g>
<g id="inc_x5F_5000">
	<g>
		<polygon points="125.485,141.294 130.612,141.294 130.612,139.984 126.958,139.984 126.958,137.543 130.035,137.543 
			130.035,136.291 126.958,136.291 126.958,134.199 130.502,134.199 130.502,132.888 125.485,132.888 		"/>
		<path d="M58.623,140.066c0.553,0.844,1.575,1.356,2.923,1.356c1.297,0,2.355-0.477,2.937-1.335
			c0.477-0.709,0.603-1.638,0.603-2.88v-4.32h-1.428v4.344c0,0.918-0.066,1.544-0.334,1.997c-0.303,0.524-0.837,0.849-1.721,0.849
			c-0.978,0-1.497-0.396-1.778-0.881c-0.24-0.433-0.324-0.997-0.324-1.988v-4.32h-1.47v4.413
			C58.029,138.439,58.154,139.368,58.623,140.066"/>
		<polygon points="43.072,141.294 48.202,141.294 48.202,139.984 44.543,139.984 44.543,137.544 47.623,137.544 47.623,136.291 
			44.543,136.291 44.543,134.199 48.085,134.199 48.085,132.888 43.072,132.888 		"/>
		<polygon points="120.812,89.387 122.979,91.567 126.013,91.009 124.613,93.749 126.075,96.458 123.04,95.975 120.915,98.205 
			120.435,95.165 117.655,93.837 120.402,92.439 		"/>
		<polygon points="137.399,103.58 138.251,105.351 140.195,105.652 138.777,107.007 139.086,108.948 137.357,108.018 
			135.61,108.915 135.961,106.982 134.57,105.597 136.515,105.334 		"/>
		<polygon points="129.962,89.876 133.977,92.646 138.532,90.915 137.139,95.584 140.195,99.38 135.323,99.497 132.657,103.58 
			131.037,98.981 126.329,97.705 130.204,94.747 		"/>
		<path d="M102.053,93.204c-2.496,5.903-14.533,5.417-17.919-0.286v4.026H72.82V92.46c0.648-0.05,1.265-0.099,2.026-0.159
			c0-1.704,0.068-3.371-0.031-5.023c-0.071-1.266-1.028-1.723-2.179-1.771c-1.476-0.065-2.783,0.846-2.935,2.261
			c-0.145,1.466-0.029,2.959-0.029,4.514c0.699,0.064,1.357,0.123,2.076,0.187v4.469h-11.5v-4.488
			c0.674-0.053,1.286-0.101,1.973-0.153v-6.707c-0.681-0.064-1.299-0.122-1.976-0.187v-4.545h9.082v2.804
			c0.351-0.249,0.532-0.347,0.68-0.486c2.646-2.627,5.815-2.701,9.085-1.662c2.145,0.677,3.066,2.425,3.098,4.621
			c0.029,2.035,0.005,4.06,0.005,6.166h1.486c-0.121-1.213-0.351-2.372-0.334-3.528c0.05-3.249,1.979-5.832,5.261-7.012
			c3.214-1.153,6.471-1.339,9.675,0.02c2.514,1.062,4.065,3.399,3.95,5.899c-1.981,0.218-3.979,0.438-6.034,0.665
			c-0.121-0.631-0.192-1.162-0.322-1.677c-0.31-1.188-1.05-1.869-2.334-1.854c-1.28,0.02-2.317,0.581-2.476,1.863
			c-0.198,1.592-0.222,3.242-0.053,4.841c0.132,1.246,1.108,1.948,2.396,1.979c1.284,0.029,2.316-0.401,2.707-1.776
			c0.06-0.211,0.145-0.415,0.218-0.624h6.126c-0.113,0.702-0.214,1.31-0.311,1.917C102.11,93.075,102.081,93.14,102.053,93.204"/>
		<path d="M59.422,80.777H58.13h-1.322v11.521c0.834,0.047,1.669,0.093,2.599,0.145v4.524H44.781v-4.556h2.542V80.813h-2.55v-4.885
			h14.65V80.777z"/>
		<path d="M102.053,93.204c0.028-0.064,0.058-0.129,0.098-0.193c0.781-0.393,1.53-1.017,2.358-1.126
			c1.535-0.207,2.681,0.982,2.694,2.516c0.016,1.584-1.186,2.747-2.756,2.68c-1.483-0.061-2.598-1.295-2.524-2.798
			C101.939,93.921,102.011,93.563,102.053,93.204"/>
		<path d="M129.309,108.289c-1.302-4.604-3.949-7.992-8.834-8.944c-5.215-1.025-9.911-0.052-13.369,4.443
			c-0.081,0.109-0.16,0.222-0.242,0.335c-6.404-6.973-13.705-7.043-20.782-0.218c-2.203-3.236-5.338-4.766-9.174-4.991
			c-3.767-0.226-7.161,0.722-10.125,3.448c0.087-1.036,0.15-1.836,0.226-2.719H44.914c-0.546,5.282-1.092,10.603-1.651,16.047
			c2.42,0.292,4.699,0.597,6.983,0.818c0.302,0.03,0.699-0.307,0.957-0.569c1.478-1.484,4.436-1.652,6.107-0.31
			c1.652,1.324,2.054,4.377,0.82,6.348c-1.088,1.742-3.666,2.555-5.495,1.443c-0.86-0.526-1.382-1.649-1.938-2.577
			c-0.234-0.385-0.153-0.961-0.226-1.539c-2.96,0.217-5.866,0.432-8.767,0.646v1.086c0.084,0.149,0.214,0.289,0.245,0.444
			c1.197,5.714,5.62,7.74,9.749,8.265c0.39,0.051,0.767,0.172,1.151,0.265h3.262c0.83-0.163,1.657-0.335,2.483-0.482
			c2.807-0.508,5.165-1.814,7.102-4.101c2.071,2.763,4.951,3.903,8.086,4.583h3.262c0.814-0.214,1.636-0.408,2.443-0.649
			c2.125-0.639,3.193-1.347,5.799-3.934h0.901c1.86,2.479,4.486,3.784,7.438,4.583h4.895c1.159-0.438,2.43-0.694,3.452-1.351
			c1.467-0.943,2.805-2.096,4.221-3.232h0.782c1.696,2.42,4.362,3.711,7.306,4.583h4.897c1.013-0.352,2.05-0.625,3.02-1.064
			c4.658-2.105,6.607-6.123,7.552-10.836c0.084-0.386,0.199-0.768,0.302-1.149v-5.98
			C129.804,110.081,129.562,109.185,129.309,108.289z M62.937,110.109c-3.958-1.882-7.907-1.853-12.03-0.415
			c0.135-1.331,0.264-2.525,0.389-3.799H64.28C63.847,107.265,63.416,108.613,62.937,110.109z M75.447,124.232
			c-2.737,0-4.953-4.486-4.953-10.02c0-5.541,2.216-10.026,4.953-10.026c2.735,0,4.948,4.485,4.948,10.026
			C80.396,119.746,78.182,124.232,75.447,124.232z M96.375,124.232c-2.738,0-4.956-4.486-4.956-10.02
			c0-5.541,2.218-10.026,4.956-10.026c2.734,0,4.951,4.485,4.951,10.026C101.326,119.746,99.109,124.232,96.375,124.232z
			 M117.484,124.232c-2.738,0-4.956-4.486-4.956-10.02c0-5.541,2.218-10.026,4.956-10.026c2.734,0,4.955,4.485,4.955,10.026
			C122.439,119.746,120.219,124.232,117.484,124.232z"/>
		<g>
			<path d="M114.402,133.331c-0.701-0.386-1.59-0.443-2.496-0.443h-2.345v8.406h1.475v-3.157h0.723c1.162,0,2.068-0.095,2.748-0.501
				c0.701-0.415,1.178-1.146,1.178-2.137C115.685,134.442,115.136,133.724,114.402,133.331z M113.616,136.639
				c-0.39,0.233-0.881,0.27-1.742,0.27h-0.838v-2.709h0.812c0.722,0,1.259,0.01,1.676,0.22c0.429,0.209,0.682,0.579,0.682,1.126
				C114.206,136.06,113.985,136.419,113.616,136.639z"/>
			<path d="M95.347,132.759c-2.474,0-4.325,1.88-4.325,4.333c0,2.449,1.852,4.331,4.325,4.331c2.478,0,4.332-1.882,4.332-4.331
				C99.679,134.639,97.824,132.759,95.347,132.759z M95.347,140.077c-1.634,0-2.855-1.313-2.855-2.985s1.222-2.985,2.855-2.985
				c1.637,0,2.862,1.313,2.862,2.985S96.983,140.077,95.347,140.077z"/>
			<path d="M81.323,135.349c0-0.999-0.524-1.672-1.209-2.041c-0.664-0.362-1.497-0.42-2.353-0.42h-2.456v8.406h1.476v-3.473h1.125
				l2.35,3.473h1.729l-2.535-3.635C80.635,137.371,81.323,136.489,81.323,135.349z M77.95,136.686h-1.169v-2.486h0.89
				c0.735,0,1.199,0.036,1.573,0.231c0.371,0.197,0.603,0.511,0.603,1.012c0,0.416-0.161,0.708-0.427,0.906
				C79.081,136.592,78.627,136.686,77.95,136.686z"/>
		</g>
	</g>
	<path d="M46.422,41.133l0.572-1.971h-2.261l1.247-4.354h-2.119l-1.239,4.354h-2.374l1.249-4.354h-2.11l-1.252,4.354h-2.261
		l-0.57,1.971h2.265l-0.763,2.659h-2.264l-0.57,1.967h2.261l-1.249,4.354h2.118l1.246-4.354h2.37l-1.244,4.354h2.11l1.249-4.354
		h2.261l0.572-1.967h-2.263l0.762-2.659H46.422z M41.29,43.792h-2.373l0.762-2.659h2.367L41.29,43.792z"/>
	<polygon points="65.218,33.129 50.344,38.204 50.344,46.361 56.284,44.364 56.284,59.489 51.409,59.489 51.409,65.073 
		69.525,65.073 69.525,59.489 65.218,59.489 	"/>
	<path d="M91.968,37.514c-2.081-2.866-5.332-4.385-9.412-4.385c-4.077,0-7.329,1.519-9.416,4.385c-1.906,2.6-2.73,6.286-2.73,11.794
		c0,5.511,0.825,9.195,2.73,11.797c2.086,2.864,5.339,4.384,9.416,4.384c4.08,0,7.331-1.52,9.412-4.384
		c1.905-2.602,2.733-6.286,2.733-11.796C94.701,43.8,93.873,40.113,91.968,37.514z M84.941,56.376
		c-0.43,0.782-1.127,1.347-2.385,1.347c-1.259,0-1.953-0.564-2.386-1.347c-0.648-1.126-0.825-3.378-0.825-7.068
		c0-3.687,0.177-5.942,0.825-7.07c0.433-0.779,1.127-1.345,2.386-1.345c1.258,0,1.955,0.565,2.385,1.345
		c0.648,1.128,0.825,3.384,0.825,7.071C85.766,52.998,85.59,55.25,84.941,56.376z"/>
	<g>
		<path d="M102.328,33.129c0.869,0,1.595,0.707,1.595,1.575c0,0.867-0.726,1.575-1.595,1.575c-0.865,0-1.591-0.708-1.591-1.575
			C100.737,33.836,101.463,33.129,102.328,33.129z M100.955,37.528h2.75v8.901h-2.75V37.528z"/>
		<path d="M105.988,37.528h2.716v0.812l0.034,0.019c0.688-0.562,1.629-1.033,2.752-1.033c0.938,0,1.773,0.327,2.334,0.906
			c0.541,0.578,0.778,1.357,0.778,2.642v5.556h-2.751v-5.101c0-0.672-0.093-0.999-0.308-1.25c-0.237-0.272-0.564-0.383-0.94-0.383
			c-0.707,0-1.377,0.364-1.865,0.744v5.989h-2.75V37.528z"/>
	</g>
	<g>
		<path d="M104.735,58.376c1.287-1.72,1.957-2.681,1.957-3.692c0-1.087-0.797-1.72-1.938-1.72c-1.033,0-2.175,0.562-3.077,1.413
			v-2.771c0.725-0.613,1.863-1.212,3.386-1.212c2.497,0,4.541,1.574,4.541,4.037c0,1.483-0.738,2.858-2.062,4.634l-1.573,2.079
			l0.016,0.037h4.089v2.516h-9.319l-0.017-0.035L104.735,58.376z"/>
		<path d="M113.029,62.123c-0.816-1.121-1.195-2.681-1.195-4.979c0-2.299,0.379-3.854,1.195-4.977
			c0.85-1.156,2.172-1.773,3.618-1.773c1.465,0,2.769,0.617,3.623,1.773c0.81,1.122,1.193,2.679,1.193,4.977
			s-0.384,3.857-1.193,4.979c-0.854,1.158-2.158,1.771-3.623,1.771C115.201,63.895,113.879,63.281,113.029,62.123z M117.965,60.621
			c0.438-0.617,0.62-1.647,0.62-3.493c0-1.647-0.146-2.787-0.62-3.458c-0.284-0.415-0.716-0.704-1.317-0.704
			c-0.578,0-1.03,0.289-1.32,0.704c-0.454,0.65-0.616,1.811-0.616,3.493c0,1.792,0.181,2.841,0.616,3.458
			c0.29,0.397,0.742,0.704,1.32,0.704C117.249,61.325,117.681,61.019,117.965,60.621z"/>
		<path d="M126.17,54.052l-2.663,0.957v-2.604l5.54-2.01v13.303h-2.877V54.052z"/>
		<path d="M140.126,50.594l-3.527,5.231l0.037,0.016c0.358-0.217,0.869-0.377,1.573-0.377c2.171,0,3.999,1.681,3.999,4.07
			c0,2.516-2.082,4.36-4.886,4.36c-2.713,0-4.867-1.7-4.867-4.579c0-1.446,0.488-2.658,1.632-4.379l2.839-4.343H140.126z
			 M137.377,61.488c1.084,0,1.99-0.779,1.99-1.901c0-1.066-0.816-1.915-1.972-1.915c-1.066,0-1.992,0.74-1.992,1.862
			C135.403,60.548,136.182,61.488,137.377,61.488z"/>
	</g>
</g>
</svg>
