<?xml version="1.0" encoding="UTF-8" standalone="no"?>
<svg width="170px" height="170px" viewBox="0 0 170 170" version="1.1" xmlns="http://www.w3.org/2000/svg" xmlns:xlink="http://www.w3.org/1999/xlink">
    <!-- Generator: Sketch 41.2 (35397) - http://www.bohemiancoding.com/sketch -->
    <title>vi_icon_side_boy_cap_RGB_M</title>
    <desc>Created with Sketch.</desc>
    <defs></defs>
    <g id="Page-1" stroke="none" stroke-width="1" fill="none" fill-rule="evenodd">
        <g id="vi_icon_side_boy_cap_RGB_M">
            <g id="M">
                <path d="M85.455,168.955 C39.413498,168.955 1.955,131.49628 1.955,85.4554941 C1.955,39.4127315 39.413498,1.955 85.455,1.955 C131.496502,1.955 168.955,39.4127315 168.955,85.4554941 C168.955,131.49628 131.496502,168.955 85.455,168.955 Z" id="Shape" fill="#FFF200"></path>
                <path d="M169.957,85.457 C169.957,132.051 132.051,169.957 85.457,169.957 C38.863,169.957 0.955,132.051 0.955,85.457 C0.955,38.862 38.863,0.955 85.457,0.955 C132.051,0.955 169.957,38.862 169.957,85.457 Z M161.453,85.457 C161.453,43.552 127.361,9.459 85.456,9.459 C43.55,9.459 9.458,43.552 9.458,85.457 C9.458,127.361 43.55,161.453 85.456,161.453 C127.361,161.453 161.453,127.361 161.453,85.457 Z" id="Shape" fill="#000000"></path>
            </g>
            <g id="side_x5F_boy_x5F_cap" transform="translate(36.000000, 30.000000)" fill="#000000">
                <path d="M51.957,134.791 C51.562,132.018 50.278,124.047 49.756,121.288 C49.718,121.084 50.539,120.458 51.683,119.705 C52.541,119.226 53.159,118.873 53.296,118.773 C54.341,118.014 62.827,114.12 63.148,113.992 C63.5,113.852 69.868,113.764 70.616,113.774 C71.619,113.787 72.652,113.394 73.164,112.964 C73.485,112.695 73.565,112.344 73.422,111.781 C73.314,111.541 73.349,111.119 73.566,111.01 C74.514,110.37 74.937,110.421 75.838,109.871 C76.619,109.475 76.939,108.89 76.702,108.185 C76.646,108.017 76.585,107.873 76.581,107.698 C76.958,107.537 77.321,107.381 77.686,107.221 C78.327,106.939 78.623,106.302 78.506,105.712 C78.418,105.28 77.943,104.737 78.033,104.186 C78.072,103.955 78.718,103.382 78.95,103.248 C79.676,102.834 79.913,102.255 79.655,101.471 C79.642,101.429 79.574,100.967 78.976,100.541 C79.089,100.424 82.693,97.113 83.198,96.595 C83.486,96.301 82.329,95.389 82.035,95.33 C81.873,95.299 76.734,99.962 75.314,101.169 C75.023,101.413 74.554,101.531 74.139,101.647 C73.672,101.77 73.527,101.867 73.033,101.914 C72.064,102.005 69.156,102.219 68.668,102.211 C68.323,102.202 67.962,102.119 67.612,102.042 C67.317,101.979 67.364,101.737 67.343,101.577 C67.33,101.464 67.433,101.306 67.543,101.255 C67.994,101.037 68.471,100.859 68.928,100.652 C69.07,100.588 69.166,100.463 69.299,100.383 C69.365,100.345 69.485,100.301 69.553,100.331 C69.956,100.499 70.177,100.461 70.547,100.386 C70.698,100.358 71.093,100.34 71.25,100.348 C72.263,100.402 73.563,99.749 73.758,98.94 C73.79,98.808 73.816,98.67 73.809,98.536 C73.78,98.159 73.535,97.949 73.102,97.932 C72.56,97.912 72.024,97.925 71.484,97.893 C70.847,97.855 70.212,97.705 69.611,97.459 C68.745,97.102 67.985,97.077 67.242,97.49 C66.724,97.781 66.125,97.979 65.551,98.205 C64.804,98.497 64.052,98.786 63.291,99.059 C62.757,99.25 62.416,99.565 62.175,100.015 C61.908,100.519 61.568,100.992 61.198,101.442 C60.464,102.338 59.69,103.213 58.921,104.091 C58.198,104.91 57.327,105.594 56.353,106.196 C55.425,106.771 54.58,107.436 53.679,108.047 C53.114,108.427 52.519,108.779 51.935,109.145 C51.688,109.3 51.444,109.459 51.199,109.62 C49.929,110.059 48.753,110.465 48.139,110.677 C47.961,109.679 47.904,108.132 47.798,107.372 C46.751,99.847 44.874,92.479 43.568,84.997 C42.999,81.74 41.803,78.595 40.894,75.398 C40.147,72.775 37.393,65.042 36.92,63.836 C37.88,63.626 38.51,63.484 39.474,63.274 C38.08,60.32 35.145,58.848 33.321,56.422 C33.302,54.082 34.541,52.742 37.858,51.61 C38.724,52.359 39.594,53.19 40.539,53.922 C43.247,56.021 45.382,56.034 48.346,54.264 C49.332,53.675 50.534,53.444 51.777,53.335 C53.237,52.195 54.697,51.057 56.43,49.706 C56.468,49.726 56.856,49.998 57.286,50.152 C58.663,50.655 59.689,50.167 60.056,48.739 C60.323,47.717 60.413,46.645 60.547,45.592 C60.881,42.927 61.599,40.506 63.868,38.723 C64.71,38.063 65.28,36.984 65.811,36.011 C66.827,34.147 67.725,32.219 68.664,30.336 C73.555,27.672 72.548,20.963 66.822,16.653 C66.174,14.078 65.588,11.701 64.968,9.339 C64.903,9.087 64.654,8.859 64.437,8.684 C62.021,6.729 59.628,4.74 57.158,2.852 C55.369,1.483 53.328,0.774 51.018,0.849 C48.393,0.933 45.766,0.909 43.141,0.917 C42.578,0.917 42.003,0.915 41.457,0.805 C39.481,0.401 39.124,0.534 38.436,1.637 C34.154,3.769 30.441,5.639 26.706,7.462 C24.734,8.425 24.009,10.067 23.981,12.122 C23.967,13.043 24.005,13.968 24.099,14.882 C24.312,16.925 24.454,18.984 24.852,20.99 C25.204,22.767 25.236,24.444 25.582,26.876 C24.996,27.111 22.65,27.881 21.938,28.091 C18.613,29.069 17.825,29.179 14.506,30.168 C13.865,30.36 13.292,30.781 12.781,31.374 C16.048,32.452 22.256,30.319 25.236,29.998 C25.691,31.778 24.888,33.469 23.384,36.048 C21.833,38.768 19.83,41.469 17.236,43.745 C16.128,44.719 15.2,45.901 14.231,47.023 C11.878,49.749 9.412,52.374 7.886,55.728 C4.974,62.123 2.339,68.655 1.062,75.544 C0.39,79.168 0.821,83.046 1.092,86.785 C1.323,89.948 0.432,114.126 0.474,117.288 C7.041,125.791 34.895,137.772 51.957,134.791 Z" id="Shape"></path>
            </g>
        </g>
    </g>
</svg>