<?xml version="1.0" encoding="UTF-8" standalone="no"?>
<svg width="170px" height="170px" viewBox="0 0 170 170" version="1.1" xmlns="http://www.w3.org/2000/svg" xmlns:xlink="http://www.w3.org/1999/xlink">
    <!-- Generator: Sketch 41.2 (35397) - http://www.bohemiancoding.com/sketch -->
    <title>vi_icon_front_guy_beard_RGB_M</title>
    <desc>Created with Sketch.</desc>
    <defs></defs>
    <g id="Page-1" stroke="none" stroke-width="1" fill="none" fill-rule="evenodd">
        <g id="vi_icon_front_guy_beard_RGB_M">
            <g id="M">
                <path d="M85.46,168.96 C39.4184981,168.96 1.96000004,131.50128 1.96000004,85.4604941 C1.96000004,39.4177316 39.4184981,1.96000004 85.46,1.96000004 C131.501502,1.96000004 168.96,39.4177316 168.96,85.4604941 C168.96,131.50128 131.501502,168.96 85.46,168.96 Z" id="Shape" fill="#FFF200"></path>
                <path d="M169.957,85.457 C169.957,132.051 132.051,169.957 85.457,169.957 C38.863,169.957 0.955,132.051 0.955,85.457 C0.955,38.862 38.863,0.955 85.457,0.955 C132.051,0.955 169.957,38.862 169.957,85.457 Z M161.453,85.457 C161.453,43.552 127.361,9.459 85.456,9.459 C43.55,9.459 9.458,43.552 9.458,85.457 C9.458,127.361 43.55,161.453 85.456,161.453 C127.361,161.453 161.453,127.361 161.453,85.457 Z" id="Shape" fill="#000000"></path>
            </g>
            <g id="front_x5F_guy_x5F_beard" transform="translate(20.000000, 22.000000)" fill="#000000">
                <path d="M128.565,117.721 C128.286,115.644 122.292,108.843 120.699,108.242 C112.652,103.967 98.013,98.63 98.013,98.63 L90.195,95.004 C90.069,94.903 89.951,94.804 89.861,94.716 C89.852,94.753 89.842,94.799 89.834,94.836 L86.01,94.829 C86.01,94.829 81.893,102.735 79.188,105.1 C76.922,107.079 67.795,109.11 64.707,109.481 C62.149,109.793 58.416,108.484 55.971,107.726 C53.713,107.025 49.241,105.103 47.615,103.493 C45.772,101.668 43.155,94.887 42.74,93.791 C42.729,93.687 42.722,93.623 42.722,93.623 C42.712,93.636 42.698,93.643 42.687,93.649 C42.685,93.644 42.677,93.623 42.677,93.623 L40.309,95.47 C33.178,99.9 10.168,108.423 10.168,108.423 C10.168,108.423 2.991,112.513 0.746,115.367 C-1.5,118.222 49.454,144.797 49.454,144.797 L72.622,144.797 C88.64,144.797 128.849,119.797 128.565,117.721 Z" id="Shape"></path>
                <path d="M78.093,52.334 C77.168,52.385 76.226,52.415 75.283,52.488 C73.951,52.592 72.637,52.8 71.36,53.207 C70.777,53.393 70.308,53.734 69.966,54.24 C69.366,55.125 69.234,56.133 69.253,57.164 C69.274,58.508 69.643,59.781 70.064,61.041 C70.271,61.647 70.646,62.111 71.158,62.465 C72.325,63.268 73.637,63.657 75.037,63.702 C76.071,63.734 77.107,63.684 78.139,63.629 C78.96,63.582 79.786,63.525 80.591,63.377 C81.63,63.188 82.528,62.71 83.104,61.784 C83.323,61.429 83.463,61.03 83.646,60.654 C84.167,59.57 84.361,58.401 84.532,57.229 C84.651,56.404 84.704,55.577 84.542,54.752 C84.37,53.888 83.906,53.232 83.05,52.967 C82.369,52.757 81.668,52.58 80.959,52.499 C80.015,52.39 79.062,52.384 78.093,52.334 M54.394,63.567 C54.394,63.55 54.394,63.539 54.395,63.525 C55.274,63.48 56.15,63.43 57.03,63.392 C58.865,63.314 60.122,62.405 60.833,60.732 C61.21,59.844 61.403,58.903 61.528,57.955 C61.618,57.267 61.713,56.578 61.71,55.885 C61.708,54.946 61.325,54.152 60.559,53.571 C60.146,53.258 59.68,53.05 59.183,52.918 C57.329,52.416 55.438,52.206 53.525,52.178 C51.78,52.153 50.055,52.317 48.346,52.671 C47.213,52.908 46.436,53.518 46.221,54.7 C46.161,55.038 46.145,55.39 46.152,55.737 C46.165,56.34 46.207,56.939 46.243,57.542 C46.299,58.485 46.395,59.424 46.715,60.321 C47.051,61.262 47.526,62.113 48.447,62.603 C49.342,63.079 50.285,63.44 51.31,63.488 C52.337,63.534 53.367,63.542 54.394,63.567 M42.448,55.574 C42.448,54.84 42.447,54.108 42.448,53.379 C42.449,52.932 42.457,52.484 42.45,52.037 C42.449,51.908 42.484,51.858 42.617,51.828 C44.001,51.506 45.4,51.278 46.81,51.117 C49.508,50.808 52.217,50.723 54.929,50.871 C57.457,51.006 59.947,51.385 62.399,52.034 C63.963,52.448 65.562,52.657 67.183,52.467 C67.712,52.404 68.23,52.232 68.75,52.096 C70.146,51.726 71.563,51.5 72.995,51.327 C75.31,51.046 77.632,50.959 79.96,50.973 C81.64,50.988 83.323,51.06 84.996,51.256 C85.954,51.367 86.908,51.499 87.835,51.791 C87.985,51.838 88.046,51.895 88.046,52.064 C88.046,53.216 88.063,54.364 88.066,55.515 C88.066,55.572 88.029,55.649 87.982,55.687 C86.737,56.72 85.878,58.007 85.372,59.546 C85.099,60.376 84.746,61.175 84.229,61.894 C83.337,63.147 82.108,63.889 80.609,64.101 C79.533,64.253 78.433,64.276 77.345,64.338 C76.001,64.412 74.662,64.351 73.328,64.154 C72.326,64.008 71.361,63.724 70.506,63.154 C69.959,62.79 69.562,62.308 69.313,61.697 C68.683,60.167 68.238,58.575 67.832,56.97 C67.759,56.684 67.687,56.393 67.607,56.106 C67.494,55.692 67.212,55.413 66.83,55.258 C65.8,54.847 64.788,54.92 63.813,55.439 C63.489,55.61 63.285,55.887 63.179,56.252 C62.829,57.457 62.465,58.658 62.105,59.86 C61.935,60.429 61.821,61.022 61.578,61.56 C61.065,62.706 60.121,63.383 58.936,63.732 C57.94,64.027 56.91,64.145 55.878,64.237 C54.106,64.387 52.332,64.369 50.564,64.182 C49.904,64.115 49.235,64.06 48.601,63.834 C47.45,63.424 46.634,62.62 46.084,61.565 C45.683,60.795 45.381,59.972 45.038,59.171 C44.666,58.303 44.287,57.441 43.735,56.662 C43.401,56.201 43.03,55.774 42.448,55.574" id="Shape"></path>
                <path d="M59.012,74.367 L58.52,74.367 C58.52,76.449 61.538,78.137 65.257,78.137 C68.977,78.137 71.994,76.449 71.994,74.367 L71.501,74.367 C70.502,75.75 68.085,76.726 65.255,76.726 C62.43,76.727 60.011,75.75 59.012,74.367" id="Shape"></path>
                <path d="M52.188,68.502 C51.241,67.584 50.354,67.791 50.069,68.86 C49.859,69.659 49.85,70.963 50.402,71.333 C51.275,71.916 52.742,72.215 53.874,72.088 C56.233,71.824 57.637,70.191 59.079,68.743 C61.241,66.567 62.027,66.386 65.143,67.308 C65.435,67.393 65.868,67.253 66.186,67.129 C67.994,66.423 69.657,66.636 71.032,67.844 C71.971,68.672 72.871,69.534 73.754,70.408 C75.334,71.975 78.069,72.654 80.139,71.72 C80.731,71.453 81.14,70.494 81.173,69.838 C81.196,69.238 80.675,68.565 80.212,68.046 C80.091,67.91 79.283,68.221 78.423,68.405 C78.938,67.967 79.356,67.347 79.692,67.377 C80.502,67.452 81.58,67.634 82.004,68.117 C83.91,70.308 82.851,74.172 79.566,75.246 C77.063,76.064 74.856,75.492 73.025,74.479 C69.567,72.574 65.874,72.744 62.141,72.925 C61.077,72.979 60.053,73.629 59.012,74.012 C57.416,74.596 55.871,75.325 54.216,75.728 C52.31,76.194 48.918,74.363 48.56,72.697 C48.298,71.48 48.148,70.134 48.514,68.975 C48.734,68.28 49.973,67.708 50.897,67.342 C51.233,67.21 51.981,67.839 52.54,68.118 C52.425,68.254 52.308,68.378 52.188,68.502" id="Shape"></path>
                <path d="M94.378,34.334 C94.316,34.202 94.284,34.022 94.336,33.895 C94.629,33.186 94.617,32.587 94.402,32.038 C94.402,32.037 94.402,32.033 94.401,32.031 C94.246,31.271 92.875,30.153 92.869,30.146 L92.869,30.145 L91.792,28.166 C91.936,27.298 91.964,26.399 92.088,25.523 C92.112,25.352 92.141,25.183 92.174,25.013 C92.203,24.861 92.236,24.709 92.276,24.56 C93.02,21.759 92,19.422 90.194,17.272 C91.503,15.835 91.503,15.835 89.13,13.804 C91.048,13.058 91.462,11.467 89.962,10.479 C90.125,10.113 90.295,9.74 90.454,9.364 C91.533,6.819 90.84,5.644 87.79,4.833 C86.444,4.477 85.102,4.103 83.745,3.771 C79.282,2.679 74.827,1.563 70.344,0.543 C68.203,0.056 66.288,0.485 64.743,1.972 C64.212,2.485 63.445,2.823 62.785,3.237 C60.898,4.421 58.954,5.545 57.139,6.804 C55.087,8.223 53.093,9.717 51.183,11.276 C49.623,12.549 47.951,13.816 46.814,15.348 C44.972,17.833 43.356,20.441 41.722,23.036 C41.409,23.214 41.122,23.392 40.872,23.567 C37.363,26.017 37.605,30.624 37.614,30.811 C37.355,31.314 37.066,31.792 36.708,32.226 C35.355,33.874 34.758,35.581 34.953,37.446 C35.391,41.585 36.063,45.711 36.595,49.843 C36.758,51.098 37.324,51.833 39.008,51.488 C39.049,52.174 39.06,52.775 39.128,53.37 C39.194,53.946 39.32,54.517 39.42,55.088 C39.607,55.136 39.793,55.183 39.979,55.227 C38.797,46.491 44.148,41.962 53.517,39.953 C53.505,39.943 53.497,39.934 53.487,39.924 C54.333,39.763 55.171,39.582 55.978,39.381 C62.649,37.907 69.412,37.014 76.145,38.92 C78.767,39.658 80.894,39.827 82.737,37.847 C82.841,37.736 82.972,37.643 83.092,37.542 C83.092,37.543 83.094,37.543 83.096,37.543 C82.26,38.348 81.422,39.147 80.432,40.1 C88.764,42.574 91.879,47.706 91.164,54.862 C91.369,54.831 91.568,54.803 91.769,54.768 C91.946,52.497 92.125,50.224 92.299,47.956 C92.461,47.957 92.618,47.958 92.777,47.958 C92.853,49.031 92.929,50.098 93.007,51.168 C93.201,51.21 93.4,51.251 93.592,51.291 C94.048,50.587 94.882,49.893 94.902,49.18 C95.049,44.229 96.676,39.226 94.378,34.334" id="Shape"></path>
                <path d="M90.232,59.05 C90.232,59.05 86.267,69.696 85.354,71.413 C85.195,71.712 85.041,72.131 84.896,72.616 C83.625,74.302 82.354,75.989 81.033,77.744 C80.896,77.151 80.802,76.761 80.674,76.224 C79.085,79.744 79.085,79.744 75.901,79.036 C75.315,79.444 74.774,79.823 74.036,80.338 C73.853,79.667 73.753,79.298 73.647,78.919 C73.079,79.47 72.693,80.005 72.146,80.347 C70.428,81.413 68.523,82.287 68.013,84.289 C67.894,84.753 67.467,85.181 67.108,85.571 C65.956,86.827 64.942,86.879 63.868,85.594 C63.125,84.706 62.665,83.65 62.05,82.683 C61.843,82.359 61.624,81.996 61.295,81.784 C59.957,80.914 58.574,80.096 57.224,79.265 C57.162,79.393 56.983,79.753 56.739,80.254 C55.708,79.67 55.034,78.851 53.593,79.166 C51.646,79.59 51.152,79.141 50.721,77.374 C50.65,77.08 50.545,76.788 50.433,76.507 C50.414,76.46 50.291,76.442 50.206,76.406 C50.113,76.79 50.026,77.154 49.891,77.712 C48.4,75.768 47.017,73.963 45.645,72.174 C45.172,71.278 43.836,67.868 42.701,64.91 C42.341,63.826 41.98,62.739 41.616,61.658 C41.442,61.141 41.142,60.651 40.898,60.145 C40.094,64.262 41.909,71.941 43.155,76.441 C43.38,77.652 43.655,78.849 44.193,79.943 C44.201,79.967 44.207,79.982 44.207,79.982 L44.212,79.98 C44.241,80.038 44.267,80.104 44.298,80.162 C46.011,83.384 47.392,86.769 50.225,89.524 C52.094,91.341 53.512,93.49 55.277,95.391 C57.298,97.566 60.401,98.386 63.166,99.599 C63.436,99.718 63.953,99.582 64.267,99.43 C64.876,99.14 66.038,99.158 66.713,99.469 C67.015,99.61 67.507,99.677 67.808,99.566 C71.702,98.151 75.336,96.366 77.899,93.414 C79.689,91.355 81.393,89.212 82.793,86.949 C84.26,84.574 85.611,82.121 86.699,79.601 L86.701,79.601 C86.701,79.601 86.701,79.598 86.703,79.592 C86.844,79.263 86.985,78.933 87.114,78.603 C87.401,77.891 87.57,77.143 87.698,76.382 C89.043,71.779 91.17,63.377 90.232,59.05" id="Shape"></path>
            </g>
        </g>
    </g>
</svg>