<?xml version="1.0" encoding="UTF-8" standalone="no"?>
<svg width="170px" height="170px" viewBox="0 0 170 170" version="1.1" xmlns="http://www.w3.org/2000/svg" xmlns:xlink="http://www.w3.org/1999/xlink">
    <!-- Generator: Sketch 41.2 (35397) - http://www.bohemiancoding.com/sketch -->
    <title>vi_icon_guarantee_RGB_M</title>
    <desc>Created with Sketch.</desc>
    <defs></defs>
    <g id="Page-1" stroke="none" stroke-width="1" fill="none" fill-rule="evenodd">
        <g id="vi_icon_guarantee_RGB_M">
            <g id="Group">
                <g id="M">
                    <path d="M85.455,168.955 C39.413498,168.955 1.955,131.49628 1.955,85.4554941 C1.955,39.4127315 39.413498,1.955 85.455,1.955 C131.496502,1.955 168.955,39.4127315 168.955,85.4554941 C168.955,131.49628 131.496502,168.955 85.455,168.955 Z" id="Shape" fill="#FFF200"></path>
                    <path d="M169.957,85.457 C169.957,132.051 132.051,169.957 85.457,169.957 C38.863,169.957 0.955,132.051 0.955,85.457 C0.955,38.862 38.863,0.955 85.457,0.955 C132.051,0.955 169.957,38.862 169.957,85.457 Z M161.453,85.457 C161.453,43.552 127.361,9.459 85.456,9.459 C43.55,9.459 9.458,43.552 9.458,85.457 C9.458,127.361 43.55,161.453 85.456,161.453 C127.361,161.453 161.453,127.361 161.453,85.457 Z" id="Shape" fill="#000000"></path>
                </g>
                <g id="guarantee" transform="translate(30.000000, 35.000000)">
                    <g id="Group">
                        <rect id="Rectangle-path" x="20.982" y="59.082" width="0.521" height="10.034"></rect>
                        <rect id="Rectangle-path" x="22.286" y="59.082" width="0.521" height="10.034"></rect>
                        <rect id="Rectangle-path" x="23.328" y="59.082" width="0.26" height="10.034"></rect>
                        <rect id="Rectangle-path" x="21.764" y="59.082" width="0.26" height="10.034"></rect>
                        <rect id="Rectangle-path" x="27.497" y="59.082" width="0.521" height="10.034"></rect>
                        <rect id="Rectangle-path" x="24.63" y="59.082" width="0.261" height="10.034"></rect>
                        <rect id="Rectangle-path" x="20.2" y="59.082" width="0.261" height="10.034"></rect>
                        <rect id="Rectangle-path" x="28.279" y="59.082" width="0.522" height="10.034"></rect>
                        <rect id="Rectangle-path" x="29.322" y="59.082" width="0.521" height="10.034"></rect>
                        <rect id="Rectangle-path" x="26.976" y="59.082" width="0.261" height="10.034"></rect>
                        <rect id="Rectangle-path" x="25.673" y="59.082" width="1.042" height="10.034"></rect>
                        <rect id="Rectangle-path" x="13.163" y="59.082" width="1.043" height="10.034"></rect>
                        <rect id="Rectangle-path" x="11.86" y="59.082" width="0.262" height="10.034"></rect>
                        <rect id="Rectangle-path" x="11.078" y="59.082" width="0.261" height="10.034"></rect>
                        <rect id="Rectangle-path" x="18.897" y="59.082" width="0.261" height="10.034"></rect>
                        <path d="M10.298,69.116 L10.817,69.116 L10.817,59.082 L10.298,59.082 L10.298,69.116 Z" id="Shape"></path>
                        <rect id="Rectangle-path" x="17.333" y="59.082" width="0.521" height="10.034"></rect>
                        <rect id="Rectangle-path" x="18.115" y="59.082" width="0.262" height="10.034"></rect>
                        <rect id="Rectangle-path" x="14.466" y="59.082" width="0.26" height="10.034"></rect>
                        <rect id="Rectangle-path" x="16.031" y="59.082" width="0.26" height="10.034"></rect>
                        <rect id="Rectangle-path" x="15.249" y="59.082" width="0.26" height="10.034"></rect>
                        <rect id="Rectangle-path" x="38.965" y="59.082" width="0.261" height="10.034"></rect>
                        <rect id="Rectangle-path" x="38.183" y="59.082" width="0.261" height="10.034"></rect>
                        <rect id="Rectangle-path" x="30.365" y="59.082" width="0.26" height="10.034"></rect>
                        <rect id="Rectangle-path" x="90.09" y="10.818" width="1.896" height="8.628"></rect>
                        <path d="M99.602,11.688 C98.709,11.068 97.518,10.818 95.981,10.818 L93.561,10.818 L93.561,19.446 L95.897,19.446 C97.708,19.446 98.948,19.1 99.829,18.385 C100.747,17.634 101.261,16.478 101.261,15.119 C101.26,13.643 100.662,12.427 99.602,11.688 Z M98.529,17.11 C97.994,17.575 97.207,17.79 95.98,17.79 L95.455,17.79 L95.455,12.475 L95.967,12.475 C96.934,12.475 97.756,12.571 98.363,12.999 C99.006,13.452 99.363,14.215 99.363,15.12 C99.363,15.979 99.043,16.669 98.529,17.11 Z" id="Shape"></path>
                        <rect id="Rectangle-path" x="36.88" y="59.082" width="1.042" height="10.034"></rect>
                        <path d="M32.727,11.026 C33.154,11.13 33.578,11.249 34.001,11.361 C34.962,11.616 35.18,11.986 34.839,12.788 C34.789,12.906 34.736,13.023 34.685,13.14 C35.158,13.451 35.028,13.952 34.422,14.186 C35.17,14.826 35.17,14.826 34.758,15.279 C35.326,15.955 35.648,16.692 35.413,17.574 C35.401,17.62 35.39,17.667 35.38,17.716 C35.37,17.77 35.361,17.823 35.355,17.876 C35.316,18.152 35.307,18.436 35.262,18.709 L35.601,19.331 C35.603,19.334 36.034,19.685 36.084,19.925 L36.084,19.928 C36.15,20.101 36.155,20.288 36.062,20.513 C36.045,20.553 36.056,20.609 36.076,20.652 C36.8,22.192 36.287,23.767 36.241,25.327 C36.234,25.551 35.972,25.77 35.828,25.991 C35.766,25.977 35.705,25.967 35.643,25.954 C35.62,25.615 35.595,25.279 35.571,24.941 L35.422,24.941 C35.366,25.657 35.31,26.372 35.255,27.087 C35.192,27.096 35.126,27.105 35.064,27.115 C35.289,24.862 34.308,23.246 31.685,22.468 C31.997,22.168 32.26,21.915 32.524,21.663 L32.523,21.663 C32.485,21.694 32.444,21.724 32.412,21.759 C31.83,22.381 31.16,22.329 30.337,22.095 C28.216,21.495 26.087,21.777 23.986,22.241 C23.732,22.303 23.467,22.361 23.201,22.411 C23.205,22.415 23.208,22.417 23.212,22.421 C20.263,23.055 18.577,24.48 18.949,27.231 C18.89,27.215 18.832,27.201 18.773,27.186 C18.742,27.005 18.702,26.826 18.68,26.644 C18.658,26.457 18.655,26.269 18.642,26.053 C18.113,26.162 17.934,25.929 17.883,25.534 C17.715,24.232 17.503,22.934 17.365,21.63 C17.303,21.044 17.491,20.506 17.917,19.987 C18.03,19.85 18.122,19.7 18.203,19.541 C18.2,19.481 18.124,18.032 19.228,17.26 C19.306,17.204 19.397,17.15 19.496,17.093 C20.01,16.276 20.519,15.454 21.099,14.673 C21.457,14.189 21.984,13.791 22.475,13.39 C23.077,12.9 23.705,12.43 24.351,11.982 C24.922,11.586 25.535,11.232 26.129,10.86 C26.336,10.729 26.577,10.623 26.744,10.462 C26.977,10.236 27.239,10.092 27.522,10.016 L10.298,10.016 L10.298,44.081 C10.399,44.021 10.472,43.978 10.472,43.978 C10.472,43.978 17.716,41.293 19.961,39.9 L20.706,39.319 C20.706,39.319 20.709,39.326 20.709,39.328 C20.713,39.325 20.718,39.322 20.721,39.319 C20.721,39.319 20.723,39.339 20.726,39.371 C20.858,39.716 21.681,41.851 22.261,42.426 C22.774,42.932 24.181,43.537 24.892,43.759 C25.663,43.997 26.837,44.408 27.643,44.312 C28.616,44.194 31.49,43.554 32.203,42.931 C33.055,42.189 34.351,39.699 34.351,39.699 L35.555,39.701 C35.557,39.688 35.562,39.676 35.564,39.663 C35.591,39.69 35.63,39.722 35.669,39.754 L38.131,40.896 C38.131,40.896 41.027,41.953 43.488,43.061 L43.488,10.014 L28.528,10.014 C29.933,10.335 31.329,10.684 32.727,11.026 Z M21.635,31.561 C21.704,31.342 22.095,31.163 22.385,31.047 C22.491,31.005 22.727,31.203 22.903,31.291 C22.865,31.331 22.829,31.369 22.792,31.408 C22.494,31.119 22.214,31.183 22.125,31.521 C22.06,31.772 22.056,32.183 22.23,32.299 C22.504,32.484 22.966,32.577 23.323,32.537 C24.066,32.453 24.508,31.94 24.962,31.483 C25.643,30.798 25.891,30.741 26.872,31.032 C26.964,31.058 27.1,31.014 27.2,30.976 C27.769,30.753 28.294,30.821 28.725,31.202 C29.021,31.463 29.305,31.734 29.583,32.01 C30.078,32.503 30.94,32.716 31.592,32.422 C31.778,32.337 31.907,32.036 31.916,31.83 C31.925,31.641 31.76,31.428 31.613,31.265 C31.575,31.222 31.321,31.321 31.051,31.378 C31.214,31.24 31.345,31.046 31.45,31.056 C31.705,31.078 32.045,31.136 32.179,31.288 C32.78,31.977 32.445,33.193 31.41,33.533 C30.623,33.791 29.927,33.609 29.351,33.292 C28.261,32.691 27.099,32.745 25.924,32.803 C25.588,32.822 25.266,33.026 24.938,33.146 C24.436,33.33 23.95,33.559 23.428,33.687 C22.827,33.833 21.761,33.256 21.648,32.732 C21.568,32.351 21.52,31.926 21.635,31.561 Z M33.972,33.891 C33.932,34.129 33.88,34.365 33.789,34.59 C33.746,34.694 33.703,34.797 33.659,34.901 C33.658,34.902 33.658,34.903 33.658,34.903 L33.657,34.903 C33.315,35.697 32.889,36.47 32.427,37.217 C31.987,37.929 31.449,38.606 30.886,39.253 C30.078,40.182 28.935,40.745 27.709,41.19 C27.614,41.224 27.46,41.205 27.364,41.16 C27.152,41.061 26.786,41.056 26.593,41.146 C26.495,41.194 26.332,41.237 26.247,41.2 C25.376,40.816 24.4,40.56 23.764,39.875 C23.208,39.276 22.762,38.599 22.173,38.025 C21.281,37.159 20.846,36.092 20.307,35.079 C20.297,35.061 20.288,35.04 20.28,35.022 L20.278,35.023 C20.278,35.023 20.277,35.018 20.275,35.009 C20.106,34.665 20.019,34.287 19.948,33.906 C19.555,32.488 18.983,30.071 19.238,28.776 C19.313,28.934 19.408,29.088 19.464,29.252 C19.579,29.594 19.693,29.935 19.806,30.275 C20.162,31.208 20.582,32.281 20.733,32.563 C21.165,33.126 21.601,33.694 22.07,34.306 C22.113,34.131 22.14,34.016 22.169,33.896 C22.195,33.907 22.234,33.913 22.24,33.928 C22.275,34.016 22.308,34.109 22.332,34.199 C22.467,34.755 22.622,34.896 23.235,34.763 C23.689,34.663 23.901,34.921 24.226,35.106 C24.302,34.949 24.359,34.835 24.377,34.794 C24.803,35.057 25.238,35.315 25.66,35.589 C25.763,35.656 25.832,35.77 25.897,35.872 C26.09,36.176 26.235,36.509 26.469,36.788 C26.807,37.191 27.126,37.176 27.489,36.78 C27.603,36.656 27.737,36.522 27.775,36.377 C27.936,35.745 28.537,35.471 29.077,35.135 C29.25,35.028 29.371,34.86 29.55,34.685 C29.582,34.804 29.614,34.922 29.672,35.133 C29.903,34.971 30.074,34.852 30.259,34.723 C31.262,34.946 31.262,34.946 31.763,33.838 C31.802,34.007 31.831,34.13 31.875,34.317 C32.29,33.764 32.69,33.234 33.09,32.702 C33.135,32.551 33.185,32.418 33.235,32.325 C33.522,31.785 34.771,28.432 34.771,28.432 C35.065,29.795 34.396,32.44 33.972,33.891 Z" id="Shape"></path>
                        <rect id="Rectangle-path" x="34.794" y="59.082" width="0.262" height="10.034"></rect>
                        <rect id="Rectangle-path" x="33.231" y="59.082" width="0.521" height="10.034"></rect>
                        <rect id="Rectangle-path" x="32.45" y="59.082" width="0.261" height="10.034"></rect>
                        <rect id="Rectangle-path" x="35.316" y="59.082" width="0.261" height="10.034"></rect>
                        <rect id="Rectangle-path" x="31.667" y="59.082" width="0.521" height="10.034"></rect>
                        <rect id="Rectangle-path" x="36.098" y="59.082" width="0.261" height="10.034"></rect>
                        <path d="M98.363,12.999 C97.756,12.57 96.933,12.475 95.967,12.475 L95.455,12.475 L95.455,17.79 L95.98,17.79 C97.207,17.79 97.994,17.575 98.529,17.11 C99.043,16.669 99.363,15.978 99.363,15.12 C99.363,14.215 99.006,13.452 98.363,12.999 Z" id="Shape" fill="#000000"></path>
                        <path d="M69.693,64.22 C69.39,63.009 69.3,62.146 69.509,61.595 C69.642,61.243 69.915,60.954 70.333,60.85 C70.763,60.744 71.126,60.873 71.409,61.121 C71.87,61.518 72.179,62.313 72.473,63.499 C72.805,64.827 72.86,65.603 72.657,66.124 C72.52,66.463 72.262,66.763 71.833,66.869 C71.417,66.973 71.036,66.833 70.755,66.598 C70.334,66.233 70.014,65.511 69.693,64.22 Z M61.512,66.26 C61.209,65.049 61.119,64.186 61.326,63.635 C61.461,63.283 61.734,62.993 62.152,62.89 C62.582,62.783 62.947,62.912 63.23,63.161 C63.687,63.559 63.998,64.354 64.292,65.54 C64.622,66.868 64.679,67.644 64.476,68.164 C64.339,68.503 64.081,68.803 63.652,68.91 C63.236,69.014 62.853,68.874 62.574,68.639 C62.152,68.273 61.834,67.551 61.512,66.26 Z M84.404,63.113 C84.258,62.526 84.412,61.975 84.984,61.833 C85.558,61.69 85.951,62.104 86.097,62.691 C86.243,63.277 86.091,63.828 85.517,63.97 C84.945,64.113 84.551,63.699 84.404,63.113 Z M76.682,59.89 C76.536,59.304 76.69,58.754 77.262,58.612 C77.836,58.469 78.229,58.883 78.375,59.468 C78.521,60.055 78.367,60.605 77.795,60.747 C77.221,60.89 76.828,60.477 76.682,59.89 Z M78.582,95.551 L78.914,96.039 L77.621,96.361 L77.685,95.802 C77.738,95.36 77.79,94.839 77.826,94.442 L77.84,94.439 C78.057,94.773 78.348,95.208 78.582,95.551 Z M68.404,96.791 C68.623,97.125 68.914,97.56 69.146,97.903 L69.48,98.39 L68.187,98.712 L68.251,98.153 C68.302,97.711 68.356,97.19 68.392,96.794 L68.404,96.791 Z M115.811,75.074 L115.676,74.535 L126.365,71.87 L119.72,65.14 L122.427,56.078 L109.337,59.342 L109.337,8.203 C109.337,8.203 109.337,0.96 102.095,0.96 L7.582,0.96 C7.582,0.96 0.339,0.96 0.339,8.203 L0.339,67.709 C0.339,67.709 0.339,74.952 7.582,74.952 L36.923,74.952 C37.159,73.873 37.837,72.916 38.497,71.986 C39.079,71.167 39.63,70.392 39.864,69.577 C39.907,69.429 39.93,69.272 39.956,69.116 L39.486,69.116 L39.486,59.082 L40.007,59.082 L40.007,64.369 C40.07,63.919 40.185,63.484 40.384,63.077 C40.423,62.996 40.484,62.931 40.529,62.853 L40.529,59.082 L40.79,59.082 L40.79,62.451 C41.084,62.06 41.44,61.715 41.832,61.396 L41.832,59.082 L42.353,59.082 L42.353,60.986 C42.525,60.86 42.7,60.738 42.874,60.617 L42.874,59.082 L43.135,59.082 L43.135,60.434 C43.223,60.372 43.308,60.312 43.395,60.251 L43.395,59.082 L43.657,59.082 L43.657,60.068 C44.038,59.795 44.392,59.516 44.7,59.218 L44.7,59.081 L44.833,59.081 C44.961,58.947 45.085,58.811 45.19,58.666 C45.692,57.975 45.964,57.06 46.253,56.092 C46.618,54.867 46.996,53.6 47.894,52.732 C48.782,51.875 50.052,51.54 51.282,51.217 C52.266,50.958 53.196,50.713 53.916,50.228 C54.615,49.757 55.181,48.998 55.778,48.193 C56.546,47.162 57.338,46.096 58.492,45.584 C59.047,45.339 59.68,45.225 60.488,45.225 C61.037,45.225 61.607,45.278 62.158,45.329 C63.187,45.426 64.267,45.485 65.008,45.301 C65.867,45.086 66.715,44.529 67.537,43.989 C68.592,43.297 69.68,42.58 70.892,42.493 C72.146,42.402 73.357,42.973 74.519,43.524 C75.423,43.953 76.279,44.358 77.117,44.446 C77.986,44.538 78.959,44.305 79.906,44.082 C81.17,43.784 82.541,43.523 83.609,43.83 C84.808,44.176 85.736,45.117 86.634,46.026 C87.343,46.746 88.013,47.424 88.782,47.8 C89.553,48.177 90.503,48.288 91.511,48.406 C92.777,48.553 94.087,48.707 95.093,49.437 C96.095,50.165 96.646,51.36 97.179,52.515 C97.603,53.439 98.005,54.31 98.607,54.931 C99.197,55.54 100.046,55.966 100.945,56.416 C102.091,56.991 103.277,57.585 103.98,58.626 C104.356,59.183 104.546,59.83 104.667,60.506 L104.645,60.512 C104.68,60.715 104.713,60.921 104.739,61.129 L121.52,56.945 L119.02,65.314 L125.157,71.53 L115.526,73.931 L112.714,62.643 L112.687,62.539 L112.449,62.598 L104.76,61.27 C104.785,61.483 104.801,61.698 104.821,61.912 L110.956,62.972 L104.335,64.623 C104.13,63.875 104.064,63.069 103.999,62.283 C103.901,61.076 103.808,59.935 103.245,59.103 C102.667,58.247 101.632,57.728 100.534,57.178 C99.612,56.715 98.657,56.237 97.966,55.524 C97.263,54.798 96.814,53.819 96.376,52.872 C95.868,51.767 95.386,50.724 94.565,50.127 C93.739,49.527 92.594,49.394 91.383,49.252 C90.35,49.131 89.281,49.006 88.379,48.565 C87.479,48.126 86.727,47.362 85.998,46.623 C85.139,45.754 84.33,44.932 83.344,44.647 C82.461,44.392 81.283,44.624 80.073,44.91 C79.057,45.149 77.993,45.399 76.999,45.292 C76.017,45.189 75.054,44.733 74.124,44.293 C73.013,43.766 71.968,43.27 70.925,43.342 C69.933,43.413 68.984,44.038 67.976,44.7 C67.095,45.279 66.185,45.878 65.185,46.127 C64.33,46.341 63.152,46.28 62.05,46.178 C61.495,46.126 60.97,46.077 60.458,46.077 C59.774,46.077 59.249,46.168 58.81,46.363 C57.859,46.785 57.165,47.717 56.432,48.703 C55.818,49.529 55.182,50.384 54.363,50.935 C53.523,51.501 52.479,51.776 51.469,52.041 C50.294,52.35 49.184,52.642 48.456,53.345 C47.719,54.058 47.389,55.165 47.039,56.336 C46.743,57.33 46.436,58.357 45.85,59.167 C45.26,59.979 44.375,60.591 43.52,61.184 C42.517,61.877 41.569,62.534 41.121,63.451 C40.676,64.364 40.741,65.513 40.811,66.727 C40.871,67.768 40.932,68.844 40.653,69.814 C40.379,70.768 39.759,71.638 39.162,72.48 C38.451,73.48 37.78,74.425 37.672,75.453 C37.567,76.452 38.02,77.503 38.499,78.615 C38.811,79.339 39.131,80.081 39.301,80.838 L32.681,82.488 L37.598,78.673 C37.513,78.476 37.43,78.277 37.351,78.078 L31.186,82.861 L30.949,82.92 L32.541,89.304 L33.79,94.313 L24.159,96.714 L26.659,88.344 L20.521,82.128 L37.3,77.945 C37.225,77.749 37.155,77.552 37.092,77.355 L19.312,81.788 L25.958,88.518 L23.251,97.58 L33.94,94.915 L34.926,98.872 L35.249,98.621 L42.921,96.708 C43.013,97.699 43.151,98.619 43.623,99.318 C44.201,100.174 45.236,100.694 46.333,101.243 C47.257,101.706 48.212,102.184 48.902,102.898 C49.603,103.623 50.054,104.601 50.49,105.547 C50.999,106.652 51.48,107.696 52.302,108.294 C53.129,108.894 54.274,109.027 55.486,109.17 C56.518,109.29 57.585,109.415 58.487,109.855 C59.385,110.295 60.139,111.058 60.866,111.796 C61.725,112.666 62.538,113.488 63.524,113.773 C64.405,114.028 65.583,113.795 66.795,113.51 C67.643,113.311 68.52,113.104 69.369,113.104 C69.537,113.104 69.703,113.112 69.869,113.129 C70.849,113.233 71.812,113.688 72.742,114.128 C73.853,114.655 74.885,115.146 75.941,115.078 C76.931,115.007 77.882,114.382 78.89,113.721 C79.771,113.142 80.681,112.543 81.681,112.294 C82.535,112.08 83.716,112.14 84.816,112.242 C85.371,112.294 85.896,112.343 86.406,112.343 C87.092,112.343 87.615,112.252 88.056,112.056 C89.009,111.634 89.702,110.702 90.437,109.716 C91.052,108.891 91.687,108.038 92.505,107.486 C93.343,106.92 94.388,106.645 95.398,106.38 C96.574,106.07 97.683,105.778 98.412,105.075 C99.148,104.363 99.478,103.256 99.828,102.084 C100.125,101.091 100.432,100.063 101.017,99.255 C101.607,98.442 102.492,97.829 103.347,97.237 C104.351,96.543 105.298,95.887 105.745,94.97 C106.19,94.056 106.126,92.908 106.056,91.692 C105.997,90.652 105.935,89.577 106.214,88.609 C106.489,87.654 107.107,86.784 107.706,85.941 C108.415,84.941 109.087,83.997 109.194,82.969 C109.284,82.13 108.973,81.252 108.589,80.334 L116.259,78.421 L116.663,78.491 L116.624,78.33 L115.811,75.074 Z M10.817,69.116 L10.298,69.116 L10.298,59.082 L10.817,59.082 L10.817,69.116 Z M11.338,69.116 L11.077,69.116 L11.077,59.082 L11.338,59.082 L11.338,69.116 Z M12.122,69.116 L11.86,69.116 L11.86,59.082 L12.122,59.082 L12.122,69.116 Z M14.206,69.116 L13.163,69.116 L13.163,59.082 L14.206,59.082 L14.206,69.116 Z M14.726,69.116 L14.466,69.116 L14.466,59.082 L14.726,59.082 L14.726,69.116 Z M15.508,69.116 L15.248,69.116 L15.248,59.082 L15.508,59.082 L15.508,69.116 Z M16.291,69.116 L16.031,69.116 L16.031,59.082 L16.291,59.082 L16.291,69.116 Z M17.854,69.116 L17.333,69.116 L17.333,59.082 L17.854,59.082 L17.854,69.116 Z M18.376,69.116 L18.114,69.116 L18.114,59.082 L18.376,59.082 L18.376,69.116 Z M19.158,69.116 L18.897,69.116 L18.897,59.082 L19.158,59.082 L19.158,69.116 Z M20.46,69.116 L20.2,69.116 L20.2,59.082 L20.461,59.082 L20.461,69.116 L20.46,69.116 Z M21.503,69.116 L20.982,69.116 L20.982,59.082 L21.503,59.082 L21.503,69.116 Z M22.024,69.116 L21.764,69.116 L21.764,59.082 L22.024,59.082 L22.024,69.116 Z M22.806,69.116 L22.285,69.116 L22.285,59.082 L22.806,59.082 L22.806,69.116 Z M23.587,69.116 L23.327,69.116 L23.327,59.082 L23.587,59.082 L23.587,69.116 Z M24.891,69.116 L24.63,69.116 L24.63,59.082 L24.891,59.082 L24.891,69.116 L24.891,69.116 Z M26.715,69.116 L25.673,69.116 L25.673,59.082 L26.715,59.082 L26.715,69.116 Z M27.237,69.116 L26.976,69.116 L26.976,59.082 L27.237,59.082 L27.237,69.116 Z M28.018,69.116 L27.497,69.116 L27.497,59.082 L28.018,59.082 L28.018,69.116 Z M28.801,69.116 L28.279,69.116 L28.279,59.082 L28.801,59.082 L28.801,69.116 Z M29.842,69.116 L29.321,69.116 L29.321,59.082 L29.842,59.082 L29.842,69.116 Z M30.625,69.116 L30.365,69.116 L30.365,59.082 L30.625,59.082 L30.625,69.116 Z M32.188,69.116 L31.667,69.116 L31.667,59.082 L32.188,59.082 L32.188,69.116 Z M32.71,69.116 L32.45,69.116 L32.45,59.082 L32.711,59.082 L32.711,69.116 L32.71,69.116 Z M33.752,69.116 L33.231,69.116 L33.231,59.082 L33.752,59.082 L33.752,69.116 Z M35.056,69.116 L34.794,69.116 L34.794,59.082 L35.056,59.082 L35.056,69.116 Z M35.577,69.116 L35.316,69.116 L35.316,59.082 L35.577,59.082 L35.577,69.116 Z M36.359,69.116 L36.098,69.116 L36.098,59.082 L36.359,59.082 L36.359,69.116 Z M37.922,69.116 L36.88,69.116 L36.88,59.082 L37.922,59.082 L37.922,69.116 Z M38.444,69.116 L38.183,69.116 L38.183,59.082 L38.444,59.082 L38.444,69.116 Z M39.226,69.116 L38.965,69.116 L38.965,59.082 L39.226,59.082 L39.226,69.116 Z M43.489,43.058 C41.027,41.95 38.132,40.893 38.132,40.893 L35.67,39.751 C35.631,39.719 35.592,39.688 35.565,39.66 C35.563,39.673 35.558,39.685 35.556,39.698 L34.352,39.696 C34.352,39.696 33.055,42.186 32.204,42.928 C31.491,43.551 28.617,44.191 27.644,44.309 C26.838,44.406 25.664,43.995 24.893,43.756 C24.182,43.534 22.775,42.929 22.262,42.423 C21.682,41.849 20.859,39.713 20.727,39.368 C20.724,39.336 20.722,39.316 20.722,39.316 C20.719,39.319 20.714,39.322 20.71,39.325 C20.71,39.323 20.707,39.316 20.707,39.316 L19.962,39.897 C17.717,41.291 10.473,43.975 10.473,43.975 C10.473,43.975 10.4,44.018 10.299,44.078 L10.299,10.014 L27.523,10.014 C27.24,10.09 26.978,10.235 26.745,10.46 C26.578,10.621 26.337,10.728 26.13,10.858 C25.535,11.23 24.923,11.585 24.352,11.98 C23.706,12.428 23.078,12.898 22.476,13.388 C21.985,13.789 21.458,14.187 21.1,14.671 C20.521,15.452 20.011,16.274 19.497,17.091 C19.398,17.148 19.308,17.202 19.229,17.258 C18.125,18.03 18.201,19.48 18.204,19.539 C18.123,19.698 18.031,19.849 17.918,19.985 C17.492,20.504 17.305,21.042 17.366,21.628 C17.504,22.933 17.716,24.231 17.884,25.532 C17.935,25.927 18.113,26.16 18.643,26.051 C18.656,26.267 18.659,26.455 18.681,26.642 C18.702,26.824 18.743,27.003 18.774,27.184 C18.833,27.199 18.891,27.213 18.95,27.229 C18.578,24.478 20.263,23.053 23.213,22.419 C23.209,22.415 23.206,22.413 23.202,22.409 C23.469,22.359 23.733,22.302 23.987,22.239 C26.088,21.774 28.216,21.493 30.338,22.093 C31.161,22.327 31.831,22.379 32.413,21.757 C32.445,21.722 32.486,21.693 32.524,21.661 L32.525,21.661 C32.261,21.913 31.999,22.166 31.686,22.466 C34.309,23.244 35.29,24.861 35.065,27.113 C35.127,27.102 35.193,27.093 35.256,27.085 C35.311,26.369 35.367,25.654 35.423,24.939 L35.572,24.939 C35.596,25.277 35.621,25.613 35.644,25.952 C35.706,25.965 35.767,25.975 35.829,25.989 C35.974,25.768 36.235,25.549 36.242,25.325 C36.288,23.765 36.801,22.19 36.077,20.65 C36.057,20.607 36.047,20.551 36.063,20.511 C36.157,20.286 36.152,20.099 36.085,19.926 L36.085,19.923 C36.034,19.684 35.604,19.332 35.602,19.329 L35.263,18.707 C35.308,18.434 35.317,18.15 35.356,17.874 C35.363,17.821 35.372,17.768 35.381,17.714 C35.391,17.665 35.402,17.618 35.414,17.572 C35.648,16.69 35.327,15.953 34.759,15.277 C35.171,14.824 35.171,14.824 34.423,14.184 C35.028,13.951 35.158,13.449 34.686,13.138 C34.738,13.022 34.79,12.905 34.84,12.786 C35.181,11.984 34.963,11.614 34.002,11.359 C33.578,11.247 33.154,11.128 32.728,11.024 C31.33,10.681 29.934,10.333 28.529,10.011 L43.49,10.011 L43.49,43.058 L43.489,43.058 Z M91.986,19.446 L90.09,19.446 L90.09,10.818 L91.986,10.818 L91.986,19.446 Z M99.828,18.386 C98.947,19.101 97.707,19.447 95.896,19.447 L93.56,19.447 L93.56,10.819 L95.98,10.819 C97.517,10.819 98.709,11.069 99.601,11.689 C100.662,12.427 101.259,13.643 101.259,15.121 C101.26,16.479 100.746,17.635 99.828,18.386 Z M101.076,58.619 C101.597,58.974 101.986,59.348 102.265,59.764 C102.542,60.173 102.742,60.675 102.872,61.297 L102.263,61.425 C102.15,60.884 101.982,60.454 101.749,60.112 C101.515,59.763 101.181,59.444 100.726,59.133 L101.076,58.619 Z M96.359,55.084 C96.632,55.598 96.894,55.976 97.183,56.274 C97.47,56.571 97.841,56.844 98.349,57.135 L98.04,57.674 C97.479,57.354 97.065,57.046 96.735,56.706 C96.405,56.364 96.11,55.941 95.809,55.374 L96.359,55.084 Z M92.359,50.415 C92.97,50.568 93.464,50.786 93.869,51.081 C94.273,51.374 94.633,51.776 94.969,52.31 L94.444,52.642 C94.149,52.176 93.842,51.83 93.505,51.584 C93.165,51.336 92.741,51.151 92.21,51.019 L92.359,50.415 Z M86.723,48.696 C87.162,49.092 87.537,49.359 87.905,49.537 C88.274,49.718 88.716,49.85 89.294,49.953 L89.185,50.565 C88.55,50.452 88.056,50.302 87.632,50.095 C87.214,49.892 86.792,49.594 86.308,49.157 L86.723,48.696 Z M87.648,62.305 C87.998,63.711 87.293,64.981 85.859,65.338 C84.425,65.695 83.205,64.906 82.853,63.5 C82.501,62.093 83.21,60.823 84.644,60.466 C86.078,60.109 87.297,60.897 87.648,62.305 Z M83.018,45.783 C83.498,45.922 83.975,46.177 84.471,46.562 L84.09,47.053 C83.656,46.716 83.25,46.496 82.846,46.38 C82.446,46.265 81.981,46.235 81.436,46.291 L81.372,45.673 C82.004,45.608 82.539,45.646 83.018,45.783 Z M82.508,56.002 L84.176,55.586 L80.274,66.579 L78.606,66.994 L82.508,56.002 Z M75.488,45.981 C76.033,46.203 76.474,46.326 76.883,46.369 C77.297,46.412 77.758,46.386 78.332,46.286 L78.437,46.898 C78.003,46.973 77.626,47.01 77.279,47.01 C77.119,47.01 76.967,47.002 76.818,46.987 C76.349,46.938 75.853,46.801 75.254,46.557 L75.488,45.981 Z M76.92,57.243 C78.354,56.886 79.574,57.675 79.926,59.081 C80.278,60.488 79.569,61.758 78.135,62.115 C76.703,62.472 75.483,61.683 75.131,60.276 C74.779,58.87 75.488,57.601 76.92,57.243 Z M71.004,44.521 C71.51,44.487 72.045,44.561 72.639,44.751 L72.45,45.343 C71.932,45.177 71.479,45.113 71.048,45.141 C70.632,45.17 70.202,45.299 69.696,45.547 L69.423,44.988 C69.994,44.708 70.512,44.555 71.004,44.521 Z M67.584,60.927 C67.99,59.94 68.83,59.26 69.873,59 C70.928,58.737 71.977,58.945 72.797,59.627 C73.584,60.289 74.137,61.341 74.549,62.996 C74.963,64.651 74.967,65.839 74.584,66.793 C74.178,67.779 73.352,68.456 72.295,68.719 C71.254,68.979 70.191,68.774 69.371,68.093 C68.584,67.431 68.031,66.379 67.617,64.724 C67.205,63.068 67.201,61.881 67.584,60.927 Z M63.998,47.301 C64.574,47.322 65.037,47.281 65.443,47.179 C65.847,47.077 66.285,46.891 66.777,46.609 L67.086,47.149 C66.543,47.46 66.055,47.667 65.594,47.783 C65.203,47.881 64.776,47.928 64.266,47.928 C64.172,47.928 64.077,47.927 63.979,47.923 L63.998,47.301 Z M64.615,61.667 C65.402,62.329 65.955,63.38 66.367,65.035 C66.781,66.69 66.787,67.879 66.4,68.833 C65.998,69.819 65.17,70.496 64.113,70.759 C63.072,71.019 62.009,70.814 61.189,70.132 C60.402,69.471 59.849,68.419 59.435,66.764 C59.023,65.109 59.017,63.921 59.402,62.966 C59.806,61.98 60.648,61.3 61.691,61.04 C62.746,60.777 63.795,60.985 64.615,61.667 Z M59.285,47.441 C59.742,47.239 60.271,47.131 60.904,47.113 L60.924,47.734 C60.373,47.751 59.92,47.84 59.539,48.008 C59.154,48.181 58.779,48.454 58.396,48.845 L57.953,48.41 C58.391,47.964 58.826,47.646 59.285,47.441 Z M54.966,51.833 C55.303,51.605 55.637,51.288 56.016,50.836 L56.493,51.235 C56.075,51.733 55.701,52.088 55.313,52.349 C54.915,52.616 54.448,52.832 53.842,53.03 L53.649,52.439 C54.199,52.26 54.617,52.067 54.966,51.833 Z M55.698,62.534 L58.084,72.11 L56.013,72.627 L54.282,65.682 L52.54,66.851 L52.072,64.975 L55.698,62.534 Z M49.274,54.196 C49.631,53.849 50.09,53.565 50.675,53.327 L50.909,53.903 C50.398,54.11 50.005,54.352 49.706,54.642 C49.402,54.936 49.146,55.321 48.922,55.821 L48.356,55.566 C48.613,54.993 48.913,54.545 49.274,54.196 Z M46.721,59.805 C46.965,59.47 47.17,59.059 47.369,58.51 L47.953,58.721 C47.734,59.326 47.503,59.787 47.224,60.17 C46.946,60.554 46.58,60.917 46.074,61.314 L45.691,60.824 C46.151,60.464 46.478,60.141 46.721,59.805 Z M42.179,63.968 C42.397,63.52 42.731,63.096 43.198,62.673 L43.616,63.134 C43.208,63.503 42.922,63.864 42.738,64.24 C42.555,64.615 42.446,65.065 42.404,65.617 L41.785,65.57 C41.833,64.938 41.961,64.414 42.179,63.968 Z M41.689,70.111 C41.804,69.71 41.859,69.253 41.86,68.671 L42.481,68.672 C42.48,69.314 42.419,69.825 42.287,70.283 C42.157,70.735 41.936,71.201 41.593,71.75 L41.066,71.42 C41.377,70.922 41.576,70.506 41.689,70.111 Z M39.024,77.216 C38.849,76.606 38.789,76.07 38.84,75.576 C38.893,75.08 39.061,74.568 39.354,74.01 L39.905,74.299 C39.649,74.786 39.504,75.226 39.46,75.642 C39.416,76.054 39.47,76.513 39.622,77.044 L39.024,77.216 Z M45.786,99.802 C45.265,99.448 44.876,99.074 44.597,98.659 C44.32,98.248 44.12,97.747 43.989,97.126 L44.596,96.997 C44.711,97.538 44.88,97.968 45.113,98.31 C45.347,98.659 45.682,98.978 46.136,99.287 L45.786,99.802 Z M50.503,103.339 C50.227,102.823 49.964,102.444 49.677,102.149 C49.393,101.854 49.023,101.581 48.512,101.287 L48.823,100.748 C49.385,101.072 49.799,101.38 50.125,101.717 C50.453,102.056 50.748,102.479 51.053,103.046 L50.503,103.339 Z M54.503,108.007 C53.892,107.854 53.398,107.636 52.992,107.341 C52.586,107.044 52.226,106.642 51.892,106.112 L52.419,105.781 C52.709,106.244 53.016,106.59 53.357,106.839 C53.697,107.086 54.121,107.272 54.652,107.404 L54.503,108.007 Z M60.141,109.727 C59.702,109.331 59.327,109.065 58.957,108.886 C58.592,108.705 58.15,108.574 57.568,108.47 L57.677,107.858 C58.318,107.972 58.812,108.122 59.23,108.328 C59.65,108.532 60.072,108.83 60.556,109.266 L60.141,109.727 Z M59.951,102.796 C58.412,103.18 57.072,102.408 56.72,100.995 C56.366,99.576 57.192,98.229 58.725,97.848 C59.315,97.701 59.866,97.732 60.287,97.845 L60.553,98.907 C60.078,98.729 59.504,98.661 58.981,98.791 C58.012,99.033 57.559,99.871 57.772,100.728 C57.981,101.563 58.752,102.117 59.743,101.871 C59.962,101.816 60.163,101.725 60.305,101.618 L60.125,100.894 L59.289,101.103 L59.07,100.228 L60.927,99.765 L61.482,101.994 C61.111,102.338 60.547,102.647 59.951,102.796 Z M64.908,112.779 C64.519,112.779 64.168,112.732 63.844,112.639 C63.364,112.5 62.889,112.245 62.391,111.858 L62.774,111.368 C63.208,111.705 63.614,111.926 64.018,112.042 C64.416,112.157 64.877,112.187 65.426,112.13 L65.49,112.748 C65.287,112.769 65.094,112.779 64.908,112.779 Z M65.996,100.472 C65.777,101.04 65.232,101.479 64.463,101.67 C63.693,101.862 62.998,101.732 62.535,101.319 C62.181,100.999 61.951,100.501 61.781,99.817 L61.158,97.316 L62.213,97.053 L62.826,99.514 C62.953,100.025 63.078,100.325 63.273,100.515 C63.476,100.711 63.802,100.827 64.252,100.715 C64.67,100.611 64.904,100.391 65.002,100.106 C65.092,99.844 65.068,99.497 64.943,98.993 L64.328,96.525 L65.344,96.272 L65.961,98.747 C66.141,99.47 66.172,100.02 65.996,100.472 Z M71.375,112.439 C70.828,112.218 70.385,112.095 69.979,112.052 C69.569,112.01 69.11,112.034 68.53,112.134 L68.425,111.522 C69.062,111.413 69.581,111.385 70.044,111.434 C70.511,111.483 71.007,111.619 71.61,111.863 L71.375,112.439 Z M70.641,100.053 L70.006,99.141 L68.068,99.623 L67.929,100.729 L66.847,100.999 L67.599,95.71 L68.62,95.455 L71.768,99.772 L70.641,100.053 Z M73.283,99.395 L72.228,99.658 L71.031,94.855 L72.537,94.48 C73.107,94.337 73.664,94.284 74.107,94.426 C74.513,94.557 74.83,94.866 74.968,95.417 C75.103,95.961 74.954,96.49 74.515,96.854 C74.458,96.904 74.392,96.949 74.326,96.994 L76.181,98.673 L74.966,98.976 L73.282,97.395 L72.811,97.512 L73.283,99.395 Z M75.857,113.902 C75.777,113.908 75.697,113.911 75.615,113.911 C75.183,113.911 74.724,113.832 74.222,113.673 L74.411,113.08 C74.932,113.246 75.39,113.309 75.813,113.282 C76.223,113.252 76.667,113.119 77.165,112.875 L77.438,113.434 C76.869,113.713 76.352,113.866 75.857,113.902 Z M77.502,97.271 L77.363,98.377 L76.281,98.647 L77.035,93.358 L78.056,93.103 L81.202,97.419 L80.075,97.7 L79.438,96.787 L77.502,97.271 Z M82.863,111.121 C82.279,111.106 81.822,111.144 81.416,111.244 C81.01,111.347 80.586,111.527 80.084,111.814 L79.775,111.274 C80.328,110.959 80.8,110.756 81.265,110.64 C81.73,110.526 82.245,110.481 82.88,110.499 L82.863,111.121 Z M83.096,94.891 C82.68,94.551 82.287,94.219 81.885,93.875 L81.873,93.885 C81.994,94.342 82.117,94.804 82.232,95.269 L82.677,97.053 L81.661,97.306 L80.464,92.503 L81.458,92.255 L83.382,93.834 C83.798,94.173 84.191,94.505 84.593,94.849 L84.605,94.839 C84.484,94.383 84.361,93.92 84.246,93.455 L83.801,91.671 L84.817,91.418 L86.014,96.221 L85.018,96.469 L83.096,94.891 Z M87.574,110.98 C87.121,111.181 86.592,111.29 85.957,111.309 L85.937,110.688 C86.49,110.67 86.943,110.58 87.322,110.412 C87.709,110.24 88.082,109.967 88.463,109.576 L88.908,110.011 C88.471,110.459 88.033,110.775 87.574,110.98 Z M88.193,91.556 L89.16,95.437 L88.105,95.7 L87.138,91.819 L85.585,92.206 L85.355,91.284 L89.515,90.248 L89.744,91.17 L88.193,91.556 Z M91.896,106.589 C91.558,106.817 91.224,107.134 90.845,107.586 L90.368,107.187 C90.786,106.689 91.161,106.334 91.548,106.073 C91.946,105.805 92.415,105.589 93.021,105.391 L93.214,105.982 C92.664,106.161 92.246,106.354 91.896,106.589 Z M91.25,94.915 L90.053,90.112 L93.018,89.373 L93.248,90.295 L91.338,90.772 L91.572,91.714 L93.217,91.304 L93.44,92.193 L91.795,92.603 L92.076,93.731 L94.058,93.237 L94.288,94.159 L91.25,94.915 Z M94.973,93.987 L93.776,89.184 L96.741,88.445 L96.97,89.367 L95.06,89.844 L95.296,90.786 L96.941,90.376 L97.162,91.265 L95.517,91.675 L95.798,92.803 L97.782,92.308 L98.011,93.23 L94.973,93.987 Z M97.588,104.226 C97.231,104.573 96.772,104.857 96.188,105.095 L95.954,104.519 C96.464,104.312 96.856,104.07 97.157,103.78 C97.46,103.487 97.71,103.112 97.94,102.6 L98.506,102.856 C98.24,103.442 97.949,103.877 97.588,104.226 Z M100.139,98.617 C99.899,98.95 99.694,99.363 99.493,99.914 L98.909,99.702 C99.13,99.095 99.36,98.635 99.638,98.252 C99.913,97.873 100.279,97.511 100.788,97.109 L101.173,97.597 C100.709,97.963 100.381,98.286 100.139,98.617 Z M104.682,94.454 C104.463,94.901 104.131,95.325 103.662,95.75 L103.244,95.289 C103.652,94.918 103.939,94.556 104.123,94.181 C104.307,93.806 104.416,93.357 104.455,92.807 L105.076,92.852 C105.029,93.481 104.9,94.006 104.682,94.454 Z M105.172,88.311 C105.059,88.706 105.006,89.163 105.002,89.751 L104.381,89.749 C104.383,89.102 104.445,88.59 104.574,88.139 C104.707,87.683 104.928,87.217 105.271,86.672 L105.796,87.004 C105.486,87.497 105.287,87.913 105.172,88.311 Z M107.506,84.414 L106.957,84.123 C107.211,83.643 107.355,83.204 107.4,82.782 C107.445,82.368 107.392,81.909 107.24,81.377 L107.838,81.206 C108.012,81.816 108.072,82.352 108.02,82.848 C107.967,83.349 107.799,83.861 107.506,84.414 Z M114.738,78.16 L114.283,78.273 L75.678,88.219 L37.731,97.36 L36.462,97.676 L36.482,97.66 L35.328,97.938 L31.699,83.371 L40.429,81.125 C40.375,80.813 40.297,80.485 40.158,80.101 L40.742,79.89 C40.886,80.288 40.971,80.637 41.033,80.97 L71.89,73.031 L112.232,63.293 L115.875,77.863 L114.73,78.158 L114.738,78.16 Z M73.777,96.291 C73.638,96.41 73.427,96.498 73.142,96.569 L72.611,96.701 L72.314,95.513 L72.72,95.412 C73.083,95.321 73.353,95.297 73.54,95.341 C73.757,95.393 73.872,95.52 73.929,95.745 C73.986,95.97 73.939,96.152 73.777,96.291 Z M47.598,83.427 L49.34,90.416 L47.805,90.798 L47.072,87.854 L44.05,88.608 L44.784,91.552 L43.25,91.935 L41.508,84.946 L43.042,84.563 L43.716,87.266 L46.737,86.512 L46.063,83.809 L47.598,83.427 Z M55.792,85.208 C56.054,86.261 56.099,87.059 55.844,87.718 C55.527,88.546 54.733,89.185 53.613,89.464 C52.494,89.743 51.482,89.554 50.81,88.952 C50.293,88.486 49.958,87.76 49.71,86.765 L48.803,83.125 L50.338,82.742 L51.232,86.324 C51.417,87.066 51.597,87.504 51.881,87.781 C52.179,88.066 52.651,88.236 53.308,88.072 C53.915,87.921 54.256,87.6 54.399,87.184 C54.53,86.803 54.496,86.298 54.313,85.565 L53.417,81.974 L54.895,81.606 L55.792,85.208 Z M63.184,79.541 L64.926,86.53 L63.391,86.913 L62.694,84.114 C62.549,83.534 62.395,82.875 62.28,82.371 L62.259,82.366 C62.054,82.939 61.833,83.538 61.609,84.117 L60.955,85.808 L59.582,84.621 C59.111,84.216 58.637,83.791 58.186,83.38 L58.17,83.395 C58.305,83.895 58.477,84.548 58.621,85.128 L59.32,87.927 L57.843,88.295 L56.1,81.306 L57.578,80.938 L60.389,83.376 L61.729,79.904 L63.184,79.541 Z M66.686,78.668 L65.59,86.364 L67.164,85.972 L67.367,84.363 L70.185,83.661 L71.111,84.988 L72.752,84.579 L68.172,78.297 L66.686,78.668 Z M69.422,82.569 L67.539,83.038 L67.635,82.226 C67.709,81.58 67.787,80.824 67.838,80.247 L67.858,80.242 C68.174,80.728 68.598,81.359 68.938,81.86 L69.422,82.569 Z M78.008,75.845 L79.75,82.834 L78.303,83.195 L75.504,80.898 C74.899,80.403 74.328,79.92 73.742,79.42 L73.724,79.435 C73.9,80.098 74.078,80.771 74.247,81.448 L74.893,84.045 L73.416,84.413 L71.674,77.424 L73.121,77.063 L75.918,79.361 C76.523,79.856 77.096,80.338 77.682,80.839 L77.7,80.824 C77.524,80.16 77.345,79.487 77.177,78.812 L76.531,76.214 L78.008,75.845 Z M87.396,79.503 L87.73,80.845 L83.308,81.948 L81.566,74.959 L85.882,73.883 L86.216,75.225 L83.435,75.918 L83.777,77.289 L86.172,76.692 L86.494,77.985 L84.099,78.582 L84.509,80.224 L87.396,79.503 Z M93.131,72.075 L91.404,76.586 L92.189,79.733 L90.654,80.116 L89.871,76.978 L86.209,73.8 L88.014,73.35 L89.18,74.403 C89.563,74.749 89.959,75.111 90.319,75.441 L90.339,75.436 C90.507,74.954 90.675,74.481 90.857,73.975 L91.384,72.51 L93.131,72.075 Z M99.459,76.495 L99.793,77.837 L95.373,78.94 L93.631,71.951 L97.945,70.876 L98.279,72.218 L95.5,72.91 L95.842,74.281 L98.237,73.684 L98.559,74.977 L96.164,75.574 L96.572,77.216 L99.459,76.495 Z M104.932,74.353 C105.272,75.713 104.444,76.791 102.938,77.167 C102.243,77.34 101.34,77.381 100.598,77.206 L100.211,75.651 C101.08,75.968 102.072,75.957 102.621,75.82 C103.182,75.68 103.541,75.355 103.412,74.834 C103.25,74.187 102.58,74.293 101.609,74.227 C100.564,74.149 99.578,73.893 99.275,72.676 C98.949,71.373 99.732,70.317 101.199,69.95 C101.885,69.779 102.769,69.745 103.457,69.921 L103.836,71.436 C102.977,71.159 102.065,71.161 101.525,71.295 C101.004,71.425 100.673,71.712 100.791,72.176 C100.943,72.793 101.603,72.681 102.514,72.75 C103.652,72.836 104.625,73.117 104.932,74.353 Z" id="Shape" fill="#000000"></path>
                        <path d="M23.43,33.688 C23.951,33.56 24.438,33.331 24.94,33.147 C25.268,33.027 25.59,32.823 25.926,32.804 C27.101,32.746 28.263,32.693 29.353,33.293 C29.928,33.61 30.624,33.792 31.412,33.534 C32.446,33.194 32.781,31.978 32.181,31.289 C32.047,31.137 31.707,31.079 31.452,31.057 C31.347,31.047 31.216,31.242 31.053,31.379 C31.323,31.321 31.576,31.223 31.615,31.266 C31.761,31.429 31.927,31.642 31.918,31.831 C31.909,32.037 31.779,32.338 31.594,32.423 C30.943,32.717 30.08,32.504 29.585,32.011 C29.307,31.736 29.023,31.464 28.727,31.203 C28.295,30.822 27.771,30.755 27.202,30.977 C27.101,31.015 26.966,31.059 26.874,31.033 C25.893,30.742 25.645,30.8 24.964,31.484 C24.51,31.941 24.068,32.454 23.325,32.538 C22.969,32.578 22.507,32.484 22.232,32.3 C22.057,32.184 22.061,31.773 22.127,31.522 C22.216,31.184 22.496,31.12 22.794,31.409 C22.831,31.37 22.867,31.332 22.905,31.292 C22.729,31.204 22.494,31.006 22.387,31.048 C22.097,31.163 21.706,31.343 21.637,31.562 C21.522,31.927 21.57,32.352 21.652,32.734 C21.763,33.257 22.83,33.834 23.43,33.688 Z" id="Shape" fill="#000000"></path>
                        <path d="M33.234,32.325 C33.184,32.418 33.134,32.551 33.089,32.702 C32.69,33.234 32.289,33.764 31.874,34.317 C31.83,34.13 31.801,34.007 31.762,33.838 C31.261,34.945 31.261,34.945 30.258,34.723 C30.073,34.852 29.903,34.971 29.671,35.133 C29.613,34.922 29.581,34.804 29.549,34.685 C29.37,34.86 29.249,35.028 29.076,35.135 C28.536,35.471 27.935,35.745 27.774,36.377 C27.736,36.523 27.602,36.656 27.488,36.78 C27.126,37.176 26.806,37.191 26.468,36.788 C26.234,36.509 26.089,36.176 25.896,35.872 C25.831,35.769 25.761,35.656 25.659,35.589 C25.237,35.315 24.802,35.057 24.376,34.794 C24.357,34.835 24.301,34.949 24.225,35.106 C23.9,34.921 23.688,34.664 23.234,34.763 C22.621,34.896 22.465,34.754 22.331,34.199 C22.308,34.108 22.274,34.015 22.239,33.928 C22.233,33.912 22.194,33.907 22.168,33.896 C22.14,34.016 22.112,34.131 22.069,34.306 C21.6,33.694 21.164,33.126 20.732,32.563 C20.582,32.281 20.162,31.208 19.805,30.275 C19.692,29.934 19.578,29.593 19.463,29.252 C19.407,29.089 19.313,28.935 19.237,28.776 C18.982,30.071 19.554,32.488 19.947,33.906 C20.018,34.287 20.105,34.665 20.274,35.009 C20.276,35.018 20.277,35.023 20.277,35.023 L20.279,35.022 C20.288,35.04 20.297,35.061 20.306,35.079 C20.845,36.093 21.281,37.159 22.172,38.025 C22.761,38.598 23.207,39.276 23.763,39.875 C24.4,40.561 25.375,40.816 26.246,41.2 C26.331,41.237 26.494,41.194 26.592,41.146 C26.785,41.055 27.152,41.061 27.363,41.16 C27.459,41.205 27.613,41.224 27.708,41.19 C28.934,40.746 30.077,40.182 30.885,39.253 C31.448,38.606 31.986,37.929 32.426,37.217 C32.889,36.47 33.315,35.696 33.656,34.903 L33.657,34.903 C33.657,34.903 33.657,34.902 33.658,34.901 C33.702,34.797 33.745,34.694 33.788,34.59 C33.879,34.364 33.931,34.129 33.971,33.891 C34.395,32.441 35.064,29.795 34.769,28.433 C34.77,28.433 33.521,31.785 33.234,32.325 Z" id="Shape" fill="#000000"></path>
                    </g>
                </g>
            </g>
        </g>
    </g>
</svg>