<?xml version="1.0" encoding="utf-8"?>
<!-- Generator: Adobe Illustrator 15.1.0, SVG Export Plug-In . SVG Version: 6.00 Build 0)  -->
<!DOCTYPE svg PUBLIC "-//W3C//DTD SVG 1.0//EN" "http://www.w3.org/TR/2001/REC-SVG-20010904/DTD/svg10.dtd">
<svg version="1.0" xmlns="http://www.w3.org/2000/svg" xmlns:xlink="http://www.w3.org/1999/xlink" x="0px" y="0px"
	 width="172.914px" height="172.914px" viewBox="0 0 172.914 172.914" enable-background="new 0 0 172.914 172.914"
	 xml:space="preserve">
<g id="Background_on_white">
</g>
<g id="L">
	<path fill="#FFF200" d="M86.457,170.959c-46.594,0-84.501-37.908-84.501-84.501c0-46.595,37.907-84.502,84.501-84.502
		s84.502,37.907,84.502,84.502C170.959,133.051,133.051,170.959,86.457,170.959z"/>
	<path d="M86.457,170.958c-46.595,0-84.501-37.905-84.501-84.499c0-46.596,37.906-84.503,84.501-84.503s84.501,37.907,84.501,84.503
		C170.958,133.053,133.052,170.958,86.457,170.958z M86.457,8.595c-42.934,0-77.862,34.93-77.862,77.864
		c0,42.933,34.929,77.86,77.862,77.86s77.862-34.928,77.862-77.86C164.319,43.524,129.391,8.595,86.457,8.595z"/>
</g>
<g id="social_x5F_twitter">
	<g>
		<g>
			<g>
				<path d="M45.586,115.184c-1.498,0-2.973-0.091-4.429-0.266c8.227,5.289,17.998,8.351,28.496,8.351
					c34.198,0,52.893-28.316,52.893-52.876c0-0.813-0.016-1.626-0.045-2.417c3.621-2.622,6.78-5.891,9.26-9.607
					c-3.319,1.474-6.909,2.475-10.678,2.916c3.849-2.301,6.787-5.941,8.183-10.292c-3.59,2.143-7.576,3.684-11.816,4.509
					c-3.385-3.602-8.215-5.857-13.568-5.857c-10.259,0-18.583,8.323-18.583,18.584c0,1.467,0.155,2.876,0.473,4.24
					c-15.437-0.775-29.149-8.176-38.31-19.424c-1.591,2.746-2.514,5.941-2.514,9.34c0,6.45,3.288,12.149,8.278,15.467
					c-3.05-0.094-5.928-0.916-8.42-2.318c-0.018,0.082-0.018,0.158-0.018,0.24c0,9.008,6.418,16.518,14.917,18.217
					c-1.56,0.432-3.207,0.65-4.893,0.65c-1.206,0-2.366-0.111-3.494-0.334c2.365,7.391,9.226,12.758,17.361,12.918
					C62.31,112.219,54.305,115.184,45.586,115.184"/>
			</g>
		</g>
	</g>
</g>
</svg>
