<?xml version="1.0" encoding="UTF-8" standalone="no"?>
<svg width="170px" height="170px" viewBox="0 0 170 170" version="1.1" xmlns="http://www.w3.org/2000/svg" xmlns:xlink="http://www.w3.org/1999/xlink">
    <!-- Generator: Sketch 41.2 (35397) - http://www.bohemiancoding.com/sketch -->
    <title>vi_icon_hand_iphone_RGB_M</title>
    <desc>Created with Sketch.</desc>
    <defs></defs>
    <g id="Page-1" stroke="none" stroke-width="1" fill="none" fill-rule="evenodd">
        <g id="vi_icon_hand_iphone_RGB_M">
            <g id="M">
                <path d="M85.455,168.955 C39.413498,168.955 1.955,131.49628 1.955,85.4554941 C1.955,39.4127315 39.413498,1.955 85.455,1.955 C131.496502,1.955 168.955,39.4127315 168.955,85.4554941 C168.955,131.49628 131.496502,168.955 85.455,168.955 Z" id="Shape" fill="#FFF200"></path>
                <path d="M169.957,85.457 C169.957,132.051 132.051,169.957 85.457,169.957 C38.863,169.957 0.955,132.051 0.955,85.457 C0.955,38.862 38.863,0.955 85.457,0.955 C132.051,0.955 169.957,38.862 169.957,85.457 Z M161.453,85.457 C161.453,43.552 127.361,9.459 85.456,9.459 C43.55,9.459 9.458,43.552 9.458,85.457 C9.458,127.361 43.55,161.453 85.456,161.453 C127.361,161.453 161.453,127.361 161.453,85.457 Z" id="Shape" fill="#000000"></path>
            </g>
            <g id="hand_x5F_iphone" transform="translate(40.000000, 18.000000)" fill="#000000">
                <g id="Group">
                    <path d="M22.154,51.684 L24.927,57.697 C25.297,58.501 26.281,58.69 27.119,58.303 L28.643,57.6 C28.877,59.244 29.195,60.684 29.433,61.602 L28.435,62.062 C27.605,62.442 27.229,63.397 27.592,64.189 L30.137,69.709 C30.338,73.544 30.513,78.124 30.649,82.147 L8.049,33.129 L52.187,12.777 L85.014,83.981 L55.768,97.463 C54.341,92.726 52.28,90.056 50.305,87.97 L50.105,87.537 C49.893,87.082 49.488,86.781 49.025,86.663 C47.425,85.062 45.997,83.642 45.171,81.516 C45.012,81.103 44.865,80.692 44.72,80.284 L44.858,80.221 C45.694,79.834 46.158,78.976 45.788,78.174 L43.017,72.162 C42.929,71.971 42.802,71.813 42.653,71.685 C41.978,67.363 41.592,62.627 40.681,56.609 C40.484,55.306 40.06,53.951 39.486,52.661 C39.771,52.686 40.068,52.644 40.35,52.515 L46.493,49.683 C47.324,49.298 47.701,48.345 47.337,47.552 L44.632,41.685 C44.264,40.891 43.3,40.559 42.469,40.944 L36.323,43.775 C35.491,44.156 35.115,45.111 35.48,45.904 L36.562,48.25 C34.833,46.508 32.812,45.672 30.954,46.713 C30.5,46.459 29.923,46.414 29.387,46.66 L23.094,49.563 C22.25,49.951 21.788,50.885 22.154,51.684 Z M33.642,15.711 C33.935,15.573 34.284,15.692 34.413,15.979 C34.546,16.264 34.409,16.604 34.113,16.743 L23.078,21.829 C22.78,21.969 22.436,21.849 22.303,21.565 C22.174,21.28 22.307,20.94 22.603,20.802 L33.642,15.711 Z M26.102,14.015 C26.956,13.625 27.948,13.967 28.324,14.782 C28.704,15.598 28.315,16.577 27.463,16.97 C26.609,17.365 25.612,17.023 25.241,16.208 C24.862,15.391 25.249,14.41 26.102,14.015 Z M64.074,96.396 C66.524,95.267 69.383,96.249 70.465,98.589 C71.541,100.928 70.43,103.739 67.983,104.869 C65.533,105.995 62.674,105.015 61.592,102.675 C60.516,100.335 61.627,97.523 64.074,96.396 Z M70.895,142.27 C67.949,136.588 62.233,124.793 63.001,121.168 C64.787,112.726 62.3,110.351 62.3,110.351 L62.282,110.351 L79.047,102.622 L80.391,102.003 C84.367,102.935 87.614,103.099 89.229,101.701 C90.858,100.292 90.577,99.014 89.333,97.882 L89.423,97.84 L89.504,97.803 C92.291,96.515 93.558,93.309 92.331,90.644 L83.691,71.896 L83.648,71.805 C85.745,71.245 87.64,70.243 88.675,68.474 C91.495,63.658 84.368,61.541 78.49,60.626 L78.09,59.754 L75.193,53.467 L74.489,51.942 C76.532,50.752 78.257,49.157 78.737,47.025 C79.629,43.071 74.193,42.45 70.143,42.51 L52.223,3.646 C50.996,0.983 47.735,-0.138 44.945,1.149 L3.65,20.189 C0.858,21.475 -0.41,24.679 0.822,27.347 L13.794,55.604 C9.177,57.779 10.926,66.143 10.797,73.802 C10.688,80.137 6.094,93.275 13.718,104.31 C18.257,110.882 30.051,132.146 37.208,145.645 C40.02,146.145 56.082,146.27 70.895,142.27 Z" id="Shape"></path>
                    <path d="M67.264,103.307 C68.811,102.593 69.514,100.819 68.83,99.338 C68.15,97.858 66.343,97.241 64.796,97.954 C63.246,98.664 62.545,100.44 63.225,101.921 C63.91,103.399 65.714,104.021 67.264,103.307 Z" id="Shape"></path>
                    <path d="M63.174,81.202 C62.795,80.378 61.787,80.036 60.928,80.431 L54.356,83.462 C53.497,83.858 53.109,84.846 53.486,85.666 L56.379,91.946 C56.758,92.767 57.764,93.112 58.625,92.712 L65.197,89.686 C66.056,89.288 66.449,88.298 66.067,87.479 L63.174,81.202 Z" id="Shape"></path>
                    <path d="M66.66,79.562 L69.459,85.633 C69.832,86.442 70.824,86.777 71.668,86.389 L78.022,83.461 C78.868,83.068 79.251,82.097 78.878,81.29 L76.082,75.22 C75.712,74.408 74.724,74.072 73.873,74.461 L67.519,77.392 C66.672,77.784 66.29,78.752 66.66,79.562 Z" id="Shape"></path>
                    <path d="M45.262,33.844 C45.629,34.644 46.609,34.983 47.444,34.598 L53.832,31.654 C54.667,31.269 55.047,30.303 54.681,29.503 L51.867,23.409 C51.502,22.61 50.522,22.274 49.684,22.657 L43.301,25.6 C42.462,25.988 42.081,26.948 42.449,27.75 L45.262,33.844 Z" id="Shape"></path>
                    <path d="M53.56,51.859 L56.336,57.869 C56.702,58.672 57.752,58.826 58.596,58.442 L64.89,55.537 C65.732,55.152 66.124,54.328 65.753,53.525 L62.983,47.513 C62.61,46.712 61.701,46.411 60.859,46.798 L54.567,49.702 C53.724,50.092 53.193,51.056 53.56,51.859 Z" id="Shape"></path>
                    <path d="M32.341,39.797 C32.713,40.6 33.693,40.936 34.533,40.549 L40.912,37.61 C41.747,37.221 42.131,36.258 41.763,35.458 L38.951,29.37 C38.584,28.566 37.603,28.227 36.763,28.616 L30.385,31.554 C29.545,31.943 29.164,32.907 29.532,33.705 L32.341,39.797 Z" id="Shape"></path>
                    <path d="M28.572,41.533 L25.764,35.447 C25.394,34.643 24.416,34.306 23.571,34.691 L17.197,37.631 C16.354,38.018 15.976,38.984 16.344,39.785 L19.15,45.874 C19.522,46.677 20.503,47.015 21.343,46.628 L27.719,43.687 C28.561,43.301 28.94,42.336 28.572,41.533 Z" id="Shape"></path>
                    <path d="M48.39,39.931 L51.11,45.838 C51.474,46.617 52.429,46.947 53.25,46.568 L59.43,43.718 C60.249,43.34 60.624,42.401 60.263,41.617 L57.538,35.711 C57.179,34.93 56.224,34.601 55.403,34.98 L49.219,37.829 C48.398,38.205 48.026,39.146 48.39,39.931 Z" id="Shape"></path>
                    <path d="M59.834,64.748 L62.554,70.654 C62.918,71.435 63.871,71.767 64.691,71.387 L70.876,68.536 C71.695,68.159 72.065,67.218 71.709,66.432 L68.982,60.532 C68.623,59.747 67.665,59.419 66.845,59.797 L60.66,62.646 C59.841,63.025 59.471,63.963 59.834,64.748 Z" id="Shape"></path>
                    <path d="M58.777,72.371 L56.073,66.502 C55.705,65.711 54.741,65.377 53.906,65.762 L47.765,68.595 C46.932,68.977 46.557,69.928 46.921,70.723 L49.627,76.589 C49.993,77.384 50.962,77.718 51.792,77.335 L57.936,74.503 C58.769,74.118 59.144,73.164 58.777,72.371 Z" id="Shape"></path>
                    <path d="M52.906,59.633 L50.202,53.766 C49.834,52.973 48.868,52.643 48.035,53.026 L41.894,55.857 C41.061,56.241 40.685,57.192 41.05,57.986 L43.756,63.854 C44.12,64.648 45.093,64.981 45.92,64.596 L52.066,61.765 C52.897,61.383 53.272,60.427 52.906,59.633 Z" id="Shape"></path>
                </g>
            </g>
        </g>
    </g>
</svg>