<?xml version="1.0" encoding="UTF-8" standalone="no"?>
<svg width="170px" height="170px" viewBox="0 0 170 170" version="1.1" xmlns="http://www.w3.org/2000/svg" xmlns:xlink="http://www.w3.org/1999/xlink">
    <!-- Generator: Sketch 41.2 (35397) - http://www.bohemiancoding.com/sketch -->
    <title>vi_icon_socmed_market_RGB_M</title>
    <desc>Created with Sketch.</desc>
    <defs></defs>
    <g id="Page-1" stroke="none" stroke-width="1" fill="none" fill-rule="evenodd">
        <g id="vi_icon_socmed_market_RGB_M">
            <g id="Group">
                <g id="M">
                    <path d="M85.455,168.955 C39.413498,168.955 1.955,131.49628 1.955,85.4554941 C1.955,39.4127315 39.413498,1.955 85.455,1.955 C131.496502,1.955 168.955,39.4127315 168.955,85.4554941 C168.955,131.49628 131.496502,168.955 85.455,168.955 Z" id="Shape" fill="#FFF200"></path>
                    <path d="M169.957,85.457 C169.957,132.051 132.051,169.957 85.457,169.957 C38.863,169.957 0.955,132.051 0.955,85.457 C0.955,38.862 38.863,0.955 85.457,0.955 C132.051,0.955 169.957,38.862 169.957,85.457 Z M161.453,85.457 C161.453,43.552 127.361,9.459 85.456,9.459 C43.55,9.459 9.458,43.552 9.458,85.457 C9.458,127.361 43.55,161.453 85.456,161.453 C127.361,161.453 161.453,127.361 161.453,85.457 Z" id="Shape" fill="#000000"></path>
                </g>
                <g id="market" transform="translate(37.000000, 30.000000)" fill="#000000">
                    <g id="Group">
                        <path d="M88.033,37.5 C92.461,37.5 96.05,33.911 96.05,29.482 L96.045,28.295 L96.045,24.512 L94.377,24.512 L3.084,24.512 L0.866,24.512 L0.866,26.153 L0.866,28.296 L0.866,29.483 C0.866,33.91 4.455,37.501 8.883,37.501 C10.981,37.501 12.887,36.694 14.315,35.377 L14.315,72.388 L3.607,72.388 L3.607,107.193 L10.301,107.193 L10.301,102.507 L86.609,102.507 L86.609,107.193 L93.302,107.193 L93.302,72.388 L82.593,72.388 L82.593,35.369 C84.021,36.689 85.933,37.5 88.033,37.5 Z M71.99,72.387 L71.99,59.436 L54.589,59.436 L54.589,72.387 L48.563,72.387 L48.563,66.133 L23.799,66.133 L23.799,72.387 L20.34,72.387 L20.34,36.192 C21.599,37.015 23.098,37.5 24.714,37.5 C28.055,37.5 30.921,35.453 32.125,32.54 C32.356,31.976 32.887,31.935 33.105,32.482 C34.29,35.42 37.174,37.5 40.539,37.5 C43.909,37.5 46.79,35.421 47.978,32.482 C48.197,31.934 48.716,31.934 48.936,32.482 C50.12,35.42 53.004,37.5 56.372,37.5 C59.742,37.5 62.622,35.421 63.807,32.482 C64.031,31.934 64.545,31.934 64.765,32.482 C65.955,35.42 68.836,37.5 72.203,37.5 C73.817,37.5 75.314,37.014 76.572,36.192 L76.572,72.386 L71.99,72.386 L71.99,72.387 Z" id="Shape"></path>
                        <polygon id="Shape" points="7.836 0.812 1.163 20.384 95.749 20.384 89.076 0.812"></polygon>
                    </g>
                </g>
            </g>
        </g>
    </g>
</svg>