<?xml version="1.0" encoding="utf-8"?>
<!-- Generator: Adobe Illustrator 15.1.0, SVG Export Plug-In . SVG Version: 6.00 Build 0)  -->
<!DOCTYPE svg PUBLIC "-//W3C//DTD SVG 1.0//EN" "http://www.w3.org/TR/2001/REC-SVG-20010904/DTD/svg10.dtd">
<svg version="1.0" xmlns="http://www.w3.org/2000/svg" xmlns:xlink="http://www.w3.org/1999/xlink" x="0px" y="0px"
	 width="172.914px" height="172.914px" viewBox="0 0 172.914 172.914" enable-background="new 0 0 172.914 172.914"
	 xml:space="preserve">
<g id="Background_on_white">
</g>
<g id="S">
	<path fill="#FFF200" d="M86.457,170.958c-46.594,0-84.502-37.908-84.502-84.501c0-46.595,37.908-84.502,84.502-84.502
		c46.594,0,84.502,37.907,84.502,84.502C170.959,133.05,133.051,170.958,86.457,170.958z"/>
	<path d="M170.957,86.457c0-14.142-3.508-27.473-9.676-39.196C147.131,20.354,118.91,1.955,86.457,1.955
		c-32.453,0-60.674,18.399-74.826,45.306c-1.086,2.066-2.107,4.173-3.024,6.336c-0.063,0.148-0.116,0.302-0.179,0.45
		c-4.162,9.986-6.473,20.933-6.473,32.41l0,0v0.001c0,46.594,37.906,84.499,84.502,84.499
		C133.051,170.957,170.957,133.052,170.957,86.457L170.957,86.457L170.957,86.457z M161.045,86.458
		c0,41.127-33.461,74.587-74.588,74.587c-41.129,0-74.59-33.46-74.59-74.587c0-41.129,33.461-74.591,74.59-74.591
		C127.584,11.867,161.045,45.329,161.045,86.458z"/>
</g>
<g id="social_x5F_twitter">
	<g>
		<g>
			<g>
				<path d="M45.586,115.184c-1.498,0-2.973-0.091-4.429-0.266c8.227,5.289,17.998,8.351,28.496,8.351
					c34.198,0,52.893-28.316,52.893-52.876c0-0.813-0.016-1.626-0.045-2.417c3.621-2.622,6.78-5.891,9.26-9.607
					c-3.319,1.474-6.909,2.475-10.678,2.916c3.849-2.301,6.787-5.941,8.183-10.292c-3.59,2.143-7.576,3.684-11.816,4.509
					c-3.385-3.602-8.215-5.857-13.568-5.857c-10.259,0-18.583,8.323-18.583,18.584c0,1.467,0.155,2.876,0.473,4.24
					c-15.437-0.775-29.149-8.176-38.31-19.424c-1.591,2.746-2.514,5.941-2.514,9.34c0,6.45,3.288,12.149,8.278,15.467
					c-3.05-0.094-5.928-0.916-8.42-2.318c-0.018,0.082-0.018,0.158-0.018,0.24c0,9.008,6.418,16.518,14.917,18.217
					c-1.56,0.432-3.207,0.65-4.893,0.65c-1.206,0-2.366-0.111-3.494-0.334c2.365,7.391,9.226,12.758,17.361,12.918
					C62.31,112.219,54.305,115.184,45.586,115.184"/>
			</g>
		</g>
	</g>
</g>
</svg>
