<?xml version="1.0" encoding="utf-8"?>
<!-- Generator: Adobe Illustrator 15.1.0, SVG Export Plug-In . SVG Version: 6.00 Build 0)  -->
<!DOCTYPE svg PUBLIC "-//W3C//DTD SVG 1.0//EN" "http://www.w3.org/TR/2001/REC-SVG-20010904/DTD/svg10.dtd">
<svg version="1.0" xmlns="http://www.w3.org/2000/svg" xmlns:xlink="http://www.w3.org/1999/xlink" x="0px" y="0px"
	 width="172.914px" height="172.914px" viewBox="0 0 172.914 172.914" enable-background="new 0 0 172.914 172.914"
	 xml:space="preserve">
<g id="Background_on_white">
</g>
<g id="M">
	<path fill="#FFF200" d="M86.457,170.958c-46.594,0-84.502-37.908-84.502-84.501c0-46.595,37.908-84.502,84.502-84.502
		c46.594,0,84.502,37.907,84.502,84.502C170.959,133.05,133.051,170.958,86.457,170.958z"/>
	<path d="M170.957,86.457c0,46.594-37.906,84.5-84.5,84.5c-46.594,0-84.502-37.906-84.502-84.5
		c0-46.595,37.908-84.502,84.502-84.502C133.051,1.955,170.957,39.862,170.957,86.457z M162.453,86.457
		c0-41.905-34.092-75.998-75.997-75.998c-41.906,0-75.998,34.093-75.998,75.998c0,41.904,34.092,75.996,75.998,75.996
		C128.361,162.453,162.453,128.361,162.453,86.457z"/>
</g>
<g id="side_x5F_girl_x5F_ponytail">
	<path d="M83.207,165.958c-0.309-2.273-1.407-9.796-1.177-11.575c2.233-1.278,7.836-4.314,8.282-4.64
		c1.044-0.761,9.525-4.648,9.848-4.777c0.35-0.141,6.715-0.226,7.464-0.218c1.003,0.014,2.034-0.379,2.548-0.81
		c0.32-0.269,0.397-0.62,0.253-1.183c-0.105-0.239-0.068-0.66,0.146-0.771c0.95-0.639,1.371-0.588,2.274-1.135
		c0.779-0.396,1.099-0.982,0.862-1.688c-0.059-0.169-0.117-0.312-0.119-0.486c0.375-0.16,0.74-0.316,1.103-0.476
		c0.642-0.284,0.936-0.918,0.819-1.508c-0.088-0.434-0.562-0.975-0.472-1.527c0.038-0.231,0.682-0.807,0.914-0.938
		c0.728-0.415,0.964-0.994,0.708-1.775c-0.014-0.041-0.083-0.506-0.68-0.931c0.111-0.117,3.714-3.424,4.22-3.942
		c0.286-0.298-0.87-1.213-1.164-1.269c-0.161-0.03-5.298,4.63-6.717,5.838c-0.293,0.244-0.755,0.36-1.174,0.473
		c-0.462,0.124-0.608,0.22-1.105,0.27c-0.968,0.092-3.877,0.306-4.363,0.297c-0.347-0.008-0.706-0.092-1.053-0.17
		c-0.298-0.064-0.249-0.305-0.27-0.464c-0.014-0.113,0.086-0.271,0.199-0.324c0.45-0.214,0.931-0.393,1.386-0.6
		c0.141-0.064,0.236-0.191,0.37-0.269c0.065-0.041,0.185-0.081,0.253-0.051c0.398,0.166,0.625,0.128,0.993,0.055
		c0.148-0.03,0.544-0.049,0.703-0.038c1.014,0.054,2.313-0.6,2.509-1.406c0.032-0.133,0.058-0.271,0.048-0.409
		c-0.025-0.374-0.27-0.584-0.707-0.6c-0.538-0.02-1.074-0.006-1.613-0.039c-0.642-0.038-1.275-0.188-1.873-0.436
		c-0.867-0.355-1.627-0.379-2.367,0.034c-0.52,0.29-1.12,0.488-1.693,0.711c-0.745,0.295-1.499,0.583-2.258,0.856
		c-0.533,0.191-0.873,0.505-1.114,0.957c-0.267,0.502-0.608,0.975-0.974,1.423c-0.74,0.897-1.509,1.772-2.28,2.647
		c-0.721,0.82-1.591,1.501-2.567,2.106c-0.135,0.084-0.265,0.18-0.397,0.27c0-0.011,0-0.023,0.002-0.036
		c-0.036,0.036-0.072,0.071-0.108,0.106c-0.733,0.489-1.437,1.013-2.167,1.507c-0.12,0.083-0.25,0.156-0.373,0.237
		c-1.712,0.896-3.771,1.856-5.947,2.756c-0.248,0.932,2.649-11.271,3.901-13.806c1.417-2.929,1.358-8.654,0.289-11.084
		c-0.588-1.339-4.294-4.913-4.294-4.913s-0.03-0.011-0.047-0.009c-3.25-2.921-7.365-6.69-8.689-8.224c0,0-2.779-3.262-5.184-5.817
		c-0.505-0.534-1.389-2.275-2.246-3.803c0.446-0.609,0.635-1.103,0.372-1.4c-0.283-0.321-1.25-0.54-1.776-0.768
		c-0.123-0.135-0.242-0.263-0.346-0.323c0.773-1.643,3.002-3.877,4.086-5.34c0.727-0.983,1.968-1.159,3.182-0.823
		c2.103,0.582,4.211,1.148,6.299,1.784c2.378,0.725,3.852-0.247,4.137-2.667c0.07-0.586,0.492-1.447,0.955-1.612
		c1.518-0.532,1.883-1.606,1.836-3.056c0.591-0.174,1.041-0.304,1.49-0.441c0.772-0.24,1.167-0.686,1.192-1.579
		c0.062-2.182,0.889-2.864,3.095-2.735c1.822,0.107,2.195-0.399,1.891-2.158c-0.395-2.316-0.774-4.648-0.901-6.986
		c-0.052-0.921,0.497-1.934,0.961-2.806c0.693-1.308,1.753-2.446,2.3-3.8c1.278-3.172,1.232-6.526,0.932-9.883
		c-0.088-0.977-0.241-2-0.048-2.934c0.356-1.725,0.115-3.318-0.556-4.887c-1.718-4.02-4.986-6.297-8.868-7.903
		c-0.558-0.229-1.158-0.597-1.498-1.071c-1.788-2.515-4.021-4.49-6.892-5.594c-9.01-3.462-17.252-1.822-24.668,4.115
		c-4.186,3.352-8.706-1.559-9.441,3.52c-0.037,0.268-6.371,5.307-8.189,7.873c-1.7,1.933-3.384,4.128-4.515,6.486
		c-1.776,3.711-2.51,7.713-2.614,11.113c-0.081,0.404-0.143,0.77-0.155,1.038c-0.025,0.502-0.014,0.909,0.015,1.274
		c-0.153,4.094,1.355,8.844,2.888,11.403c0.482,4.724-0.351,9.81-3.085,12.479c3.144,0.254,6.265-1.509,9.065-4.603
		c0.13,2.591-0.15,5.071-1.082,6.799c4.566-0.574,7.936-9.802,8.635-20.771c0.842-2.57,1.529-5.294,2.02-8.101
		c1.441,4.768,3.184,11.164,3.113,11.744c-0.595,4.848-3.947,9.808-5.748,12.825c-1.183,1.99-1.564,2.441-2.739,3.963h-0.885
		c-1.206,2.021-9.3,18.666-9.635,21.959c-0.473,4.595,5.726,31.394,8.362,42.381C53.041,162.624,79.874,165.791,83.207,165.958z"/>
</g>
</svg>
