<?xml version="1.0" encoding="utf-8"?>
<!-- Generator: Adobe Illustrator 15.1.0, SVG Export Plug-In . SVG Version: 6.00 Build 0)  -->
<!DOCTYPE svg PUBLIC "-//W3C//DTD SVG 1.0//EN" "http://www.w3.org/TR/2001/REC-SVG-20010904/DTD/svg10.dtd">
<svg version="1.0" xmlns="http://www.w3.org/2000/svg" xmlns:xlink="http://www.w3.org/1999/xlink" x="0px" y="0px"
	 width="172.914px" height="172.914px" viewBox="0 0 172.914 172.914" enable-background="new 0 0 172.914 172.914"
	 xml:space="preserve">
<g id="Background_on_white">
</g>
<g id="L">
	<path fill="#FFF200" d="M86.457,170.959c-46.594,0-84.501-37.908-84.501-84.501c0-46.595,37.907-84.502,84.501-84.502
		s84.502,37.907,84.502,84.502C170.959,133.051,133.051,170.959,86.457,170.959z"/>
	<path d="M86.457,170.958c-46.595,0-84.501-37.905-84.501-84.499c0-46.596,37.906-84.503,84.501-84.503s84.501,37.907,84.501,84.503
		C170.958,133.053,133.052,170.958,86.457,170.958z M86.457,8.595c-42.934,0-77.862,34.93-77.862,77.864
		c0,42.933,34.929,77.86,77.862,77.86s77.862-34.928,77.862-77.86C164.319,43.524,129.391,8.595,86.457,8.595z"/>
</g>
<g id="code">
	<g>
		<polygon points="46.567,65.929 28.548,86.454 46.567,106.989 62.034,106.989 44.015,86.454 62.034,65.929 		"/>
		<g>
			<g>
				<path d="M93.646,63.557h9.988l-23.306,45.801h-9.988L93.646,63.557z"/>
			</g>
		</g>
		<polygon points="128.899,86.454 110.881,65.924 126.34,65.924 144.366,86.454 126.34,106.989 110.881,106.989 		"/>
	</g>
</g>
</svg>
