<?xml version="1.0" encoding="UTF-8" standalone="no"?>
<svg width="170px" height="170px" viewBox="0 0 170 170" version="1.1" xmlns="http://www.w3.org/2000/svg" xmlns:xlink="http://www.w3.org/1999/xlink">
    <!-- Generator: Sketch 41.2 (35397) - http://www.bohemiancoding.com/sketch -->
    <title>vi_icon_service_concierge_RGB_M</title>
    <desc>Created with Sketch.</desc>
    <defs></defs>
    <g id="Page-1" stroke="none" stroke-width="1" fill="none" fill-rule="evenodd">
        <g id="vi_icon_service_concierge_RGB_M">
            <g id="Group">
                <g id="M">
                    <path d="M85.455,168.955 C39.413498,168.955 1.955,131.49628 1.955,85.4554941 C1.955,39.4127315 39.413498,1.955 85.455,1.955 C131.496502,1.955 168.955,39.4127315 168.955,85.4554941 C168.955,131.49628 131.496502,168.955 85.455,168.955 Z" id="Shape" fill="#FFF200"></path>
                    <path d="M169.957,85.457 C169.957,132.051 132.051,169.957 85.457,169.957 C38.863,169.957 0.955,132.051 0.955,85.457 C0.955,38.862 38.863,0.955 85.457,0.955 C132.051,0.955 169.957,38.862 169.957,85.457 Z M161.453,85.457 C161.453,43.552 127.361,9.459 85.456,9.459 C43.55,9.459 9.458,43.552 9.458,85.457 C9.458,127.361 43.55,161.453 85.456,161.453 C127.361,161.453 161.453,127.361 161.453,85.457 Z" id="Shape" fill="#000000"></path>
                </g>
                <g id="service_x5F_concierge" transform="translate(6.000000, 26.000000)" fill="#000000">
                    <g id="Group">
                        <path d="M152.332,91.814 L125.812,91.814 L125.812,95.109 L118.153,95.109 L117.251,95.109 L109.075,95.109 L109.075,122.771 L117.251,122.771 L117.251,124.031 L124.707,124.031 C136.531,116.048 146.329,104.896 152.332,91.814 Z" id="Shape"></path>
                        <path d="M28.94,72.375 C28.337,72.897 28.067,73.714 28.129,74.785 L28.329,75.388 C28.329,75.388 28.895,76.335 31.174,76.905 L39.715,87.914 C39.715,87.914 43.509,91.522 48.445,93.233 C48.445,93.233 54.388,96.223 55.846,98.169 C57.463,100.325 58.387,102.899 65.337,103.291 C69.941,103.553 83.455,109.894 87.138,111.86 C91.391,114.122 96.492,115.405 103.606,117.18 L103.606,96.355 C101.624,95.959 99.753,95.436 98.168,94.751 C98.168,94.751 97.497,85.891 78.62,78.049 C72.206,75.388 69.534,73.591 67.874,72.333 L96.738,72.333 C96.738,72.333 103.24,72.459 104.918,71.439 C106.203,70.662 107.364,67.018 107.364,67.018 L92.193,67.018 L92.193,65.678 C78.634,65.678 79.192,58.893 79.192,58.893 L79.192,37.569 C79.135,35.896 79.271,35.463 79.612,34.867 C84.921,25.76 104.146,0.567 104.146,0.567 L96.106,0.567 L95.363,0.567 L94.472,0.567 L78.349,0.567 L60.83,0.567 L52.34,0.567 C52.34,0.567 71.562,25.759 76.872,34.867 C77.217,35.463 77.351,35.896 77.293,37.569 L77.293,58.893 C77.293,58.893 77.851,65.678 64.292,65.678 L64.292,67.018 L0.707,67.018 C0.88,68.809 0.852,70.579 1.145,72.332 L28.997,72.332 C28.978,72.348 28.958,72.358 28.94,72.375 Z M74.509,27.812 L61.765,10.055 L94.883,10.055 L81.757,28.004 C80.92,29.024 79.652,29.674 78.224,29.674 L78.186,29.674 C76.685,29.665 75.35,28.932 74.509,27.812 Z M46.82,72.333 L58.346,72.333 C58.322,73.232 58.693,74.421 59.638,75.965 C60.781,77.83 63.706,79.275 67.798,82.419 C68.224,82.75 70.161,84.999 69.087,85.711 L68.896,85.884 C68.269,86.768 66.89,88.071 64.012,88.659 C63.434,88.513 55.052,86.358 52.126,85.265 C51.676,84.872 45.862,79.808 43.397,79.374 C43.167,79.098 41.813,77.477 40.023,75.842 C38.083,74.065 36.343,72.894 34.823,72.332 L46.82,72.332 L46.82,72.333 Z" id="Shape"></path>
                    </g>
                </g>
            </g>
        </g>
    </g>
</svg>