<?xml version="1.0" encoding="UTF-8" standalone="no"?>
<svg width="170px" height="170px" viewBox="0 0 170 170" version="1.1" xmlns="http://www.w3.org/2000/svg" xmlns:xlink="http://www.w3.org/1999/xlink">
    <!-- Generator: Sketch 41.2 (35397) - http://www.bohemiancoding.com/sketch -->
    <title>vi_icon_socmed_linkedin_RGB_M</title>
    <desc>Created with Sketch.</desc>
    <defs></defs>
    <g id="Page-1" stroke="none" stroke-width="1" fill="none" fill-rule="evenodd">
        <g id="vi_icon_socmed_linkedin_RGB_M">
            <g id="Group">
                <g id="M">
                    <path d="M85.455,168.955 C39.413498,168.955 1.955,131.49628 1.955,85.4554941 C1.955,39.4127315 39.413498,1.955 85.455,1.955 C131.496502,1.955 168.955,39.4127315 168.955,85.4554941 C168.955,131.49628 131.496502,168.955 85.455,168.955 Z" id="Shape" fill="#FFF200"></path>
                    <path d="M169.957,85.457 C169.957,132.051 132.051,169.957 85.457,169.957 C38.863,169.957 0.955,132.051 0.955,85.457 C0.955,38.862 38.863,0.955 85.457,0.955 C132.051,0.955 169.957,38.862 169.957,85.457 Z M161.453,85.457 C161.453,43.552 127.361,9.459 85.456,9.459 C43.55,9.459 9.458,43.552 9.458,85.457 C9.458,127.361 43.55,161.453 85.456,161.453 C127.361,161.453 161.453,127.361 161.453,85.457 Z" id="Shape" fill="#000000"></path>
                </g>
                <g id="social_x5F_linkedin" transform="translate(46.000000, 35.000000)" fill="#000000">
                    <path d="M19.845,9.922 C19.845,4.959 15.78,0.892 10.767,0.848 C5.765,0.848 1.691,4.91 1.691,9.922 C1.691,14.979 5.762,19.046 10.767,19.046 C15.78,19.046 19.845,14.979 19.845,9.922 L19.845,9.922 Z M0.464,90.934 L19.846,90.934 L19.846,23.144 L0.464,23.144 L0.464,90.934 Z M68.25,90.934 L87.581,90.934 L87.581,49.623 C87.581,26.935 74.533,23.193 68.25,23.193 C58.556,23.193 51.652,27.553 48.865,29.634 L48.865,23.143 L29.542,23.143 L29.542,90.933 L48.866,90.933 L48.866,49.055 C48.866,49.055 50.805,40.696 60.827,40.696 C66.833,40.696 68.251,44.139 68.251,49.055 L68.251,90.934 L68.25,90.934 Z" id="Shape"></path>
                </g>
            </g>
        </g>
    </g>
</svg>