<?xml version="1.0" encoding="utf-8"?>
<!-- Generator: Adobe Illustrator 15.1.0, SVG Export Plug-In . SVG Version: 6.00 Build 0)  -->
<!DOCTYPE svg PUBLIC "-//W3C//DTD SVG 1.0//EN" "http://www.w3.org/TR/2001/REC-SVG-20010904/DTD/svg10.dtd">
<svg version="1.0" xmlns="http://www.w3.org/2000/svg" xmlns:xlink="http://www.w3.org/1999/xlink" x="0px" y="0px"
	 width="172.914px" height="172.914px" viewBox="0 0 172.914 172.914" enable-background="new 0 0 172.914 172.914"
	 xml:space="preserve">
<g id="Background_on_white">
</g>
<g id="S">
	<path fill="#FFF200" d="M86.457,170.958c-46.594,0-84.502-37.908-84.502-84.501c0-46.595,37.908-84.502,84.502-84.502
		c46.594,0,84.502,37.907,84.502,84.502C170.959,133.05,133.051,170.958,86.457,170.958z"/>
	<path d="M170.957,86.457c0-14.142-3.508-27.473-9.676-39.196C147.131,20.354,118.91,1.955,86.457,1.955
		c-32.453,0-60.674,18.399-74.826,45.306c-1.086,2.066-2.107,4.173-3.024,6.336c-0.063,0.148-0.116,0.302-0.179,0.45
		c-4.162,9.986-6.473,20.933-6.473,32.41l0,0v0.001c0,46.594,37.906,84.499,84.502,84.499
		C133.051,170.957,170.957,133.052,170.957,86.457L170.957,86.457L170.957,86.457z M161.045,86.458
		c0,41.127-33.461,74.587-74.588,74.587c-41.129,0-74.59-33.46-74.59-74.587c0-41.129,33.461-74.591,74.59-74.591
		C127.584,11.867,161.045,45.329,161.045,86.458z"/>
</g>
<g id="guarantee">
	<g>
		<rect x="51.982" y="95.082" fill="none" width="0.521" height="10.034"/>
		<rect x="53.286" y="95.082" fill="none" width="0.521" height="10.034"/>
		<rect x="54.328" y="95.082" fill="none" width="0.26" height="10.034"/>
		<rect x="52.764" y="95.082" fill="none" width="0.26" height="10.034"/>
		<rect x="58.497" y="95.082" fill="none" width="0.521" height="10.034"/>
		<rect x="55.63" y="95.082" fill="none" width="0.261" height="10.034"/>
		<rect x="51.2" y="95.082" fill="none" width="0.261" height="10.034"/>
		<rect x="59.279" y="95.082" fill="none" width="0.522" height="10.034"/>
		<rect x="60.322" y="95.082" fill="none" width="0.521" height="10.034"/>
		<rect x="57.976" y="95.082" fill="none" width="0.261" height="10.034"/>
		<rect x="56.673" y="95.082" fill="none" width="1.042" height="10.034"/>
		<rect x="44.163" y="95.082" fill="none" width="1.043" height="10.034"/>
		<rect x="42.86" y="95.082" fill="none" width="0.262" height="10.034"/>
		<rect x="42.078" y="95.082" fill="none" width="0.261" height="10.034"/>
		<rect x="49.897" y="95.082" fill="none" width="0.261" height="10.034"/>
		<path fill="none" d="M41.298,105.116h0.519V95.082h-0.519C41.298,98.427,41.298,101.771,41.298,105.116z"/>
		<rect x="48.333" y="95.082" fill="none" width="0.521" height="10.034"/>
		<rect x="49.115" y="95.082" fill="none" width="0.262" height="10.034"/>
		<rect x="45.466" y="95.082" fill="none" width="0.26" height="10.034"/>
		<rect x="47.031" y="95.082" fill="none" width="0.26" height="10.034"/>
		<rect x="46.249" y="95.082" fill="none" width="0.26" height="10.034"/>
		<rect x="69.965" y="95.082" fill="none" width="0.261" height="10.034"/>
		<rect x="69.183" y="95.082" fill="none" width="0.261" height="10.034"/>
		<rect x="61.365" y="95.082" fill="none" width="0.26" height="10.034"/>
		<rect x="121.09" y="46.818" fill="none" width="1.896" height="8.628"/>
		<path fill="none" d="M130.602,47.688c-0.893-0.62-2.084-0.87-3.621-0.87h-2.42v8.628h2.336c1.811,0,3.051-0.346,3.932-1.061
			c0.918-0.751,1.432-1.907,1.432-3.266C132.26,49.643,131.662,48.427,130.602,47.688z M129.529,53.11
			c-0.535,0.465-1.322,0.68-2.549,0.68h-0.525v-5.315h0.512c0.967,0,1.789,0.096,2.396,0.524c0.643,0.453,1,1.216,1,2.121
			C130.363,51.979,130.043,52.669,129.529,53.11z"/>
		<rect x="67.88" y="95.082" fill="none" width="1.042" height="10.034"/>
		<path fill="none" d="M63.727,47.026c0.427,0.104,0.851,0.223,1.274,0.335c0.961,0.255,1.179,0.625,0.838,1.427
			c-0.05,0.118-0.103,0.235-0.154,0.352c0.473,0.311,0.343,0.812-0.263,1.046c0.748,0.64,0.748,0.64,0.336,1.093
			c0.568,0.676,0.89,1.413,0.655,2.295c-0.012,0.046-0.023,0.093-0.033,0.142c-0.01,0.054-0.019,0.107-0.025,0.16
			c-0.039,0.276-0.048,0.56-0.093,0.833l0.339,0.622c0.002,0.003,0.433,0.354,0.483,0.594c0,0.001,0,0.002,0,0.003
			c0.066,0.173,0.071,0.36-0.022,0.585c-0.017,0.04-0.006,0.096,0.014,0.139c0.724,1.54,0.211,3.115,0.165,4.675
			c-0.007,0.224-0.269,0.443-0.413,0.664c-0.062-0.014-0.123-0.024-0.185-0.037c-0.023-0.339-0.048-0.675-0.072-1.013
			c-0.051,0-0.1,0-0.149,0c-0.056,0.716-0.112,1.431-0.167,2.146c-0.063,0.009-0.129,0.018-0.191,0.028
			c0.225-2.253-0.756-3.869-3.379-4.647c0.312-0.3,0.575-0.553,0.839-0.805h-0.001c-0.038,0.031-0.079,0.061-0.111,0.096
			c-0.582,0.622-1.252,0.57-2.075,0.336c-2.121-0.6-4.25-0.318-6.351,0.146c-0.254,0.062-0.519,0.12-0.785,0.17
			c0.004,0.004,0.007,0.006,0.011,0.01c-2.949,0.634-4.635,2.059-4.263,4.81c-0.059-0.016-0.117-0.03-0.176-0.045
			c-0.031-0.181-0.071-0.36-0.093-0.542c-0.022-0.187-0.025-0.375-0.038-0.591c-0.529,0.109-0.708-0.124-0.759-0.519
			c-0.168-1.302-0.38-2.6-0.518-3.904c-0.062-0.586,0.126-1.124,0.552-1.643c0.113-0.137,0.205-0.287,0.286-0.446
			c-0.003-0.06-0.079-1.509,1.025-2.281c0.078-0.056,0.169-0.11,0.268-0.167c0.514-0.817,1.023-1.639,1.603-2.42
			c0.358-0.484,0.885-0.882,1.376-1.283c0.602-0.49,1.23-0.96,1.876-1.408c0.571-0.396,1.184-0.75,1.778-1.122
			c0.207-0.131,0.448-0.237,0.615-0.398c0.233-0.226,0.495-0.37,0.778-0.446H41.298v34.065c0.101-0.06,0.174-0.103,0.174-0.103
			s7.244-2.685,9.489-4.078l0.745-0.581c0,0,0.003,0.007,0.003,0.009c0.004-0.003,0.009-0.006,0.012-0.009
			c0,0,0.002,0.02,0.005,0.052c0.132,0.345,0.955,2.48,1.535,3.055c0.513,0.506,1.92,1.111,2.631,1.333
			c0.771,0.238,1.945,0.649,2.751,0.553c0.973-0.118,3.847-0.758,4.56-1.381c0.852-0.742,2.148-3.232,2.148-3.232l1.204,0.002
			c0.002-0.013,0.007-0.025,0.009-0.038c0.027,0.027,0.066,0.059,0.105,0.091l2.462,1.142c0,0,2.896,1.057,5.357,2.165V46.014
			H59.528C60.933,46.335,62.329,46.684,63.727,47.026z M52.635,67.561c0.069-0.219,0.46-0.398,0.75-0.514
			c0.106-0.042,0.342,0.156,0.518,0.244c-0.038,0.04-0.074,0.078-0.111,0.117c-0.298-0.289-0.578-0.225-0.667,0.113
			c-0.065,0.251-0.069,0.662,0.105,0.778c0.274,0.185,0.736,0.278,1.093,0.238c0.743-0.084,1.185-0.597,1.639-1.054
			c0.681-0.685,0.929-0.742,1.91-0.451c0.092,0.026,0.228-0.018,0.328-0.056c0.569-0.223,1.094-0.155,1.525,0.226
			c0.296,0.261,0.58,0.532,0.858,0.808c0.495,0.493,1.357,0.706,2.009,0.412c0.186-0.085,0.315-0.386,0.324-0.592
			c0.009-0.189-0.156-0.402-0.303-0.565c-0.038-0.043-0.292,0.056-0.562,0.113c0.163-0.138,0.294-0.332,0.399-0.322
			c0.255,0.022,0.595,0.08,0.729,0.232c0.601,0.689,0.266,1.905-0.769,2.245c-0.787,0.258-1.483,0.076-2.059-0.241
			c-1.09-0.601-2.252-0.547-3.427-0.489c-0.336,0.019-0.658,0.223-0.986,0.343c-0.502,0.184-0.988,0.413-1.51,0.541
			c-0.601,0.146-1.667-0.431-1.78-0.955C52.568,68.351,52.52,67.926,52.635,67.561z M64.972,69.891
			c-0.04,0.238-0.092,0.474-0.183,0.699c-0.043,0.104-0.086,0.207-0.13,0.311c-0.001,0.001-0.001,0.002-0.001,0.002h-0.001
			c-0.342,0.794-0.768,1.567-1.23,2.314c-0.44,0.712-0.978,1.389-1.541,2.036c-0.808,0.929-1.951,1.492-3.177,1.937
			c-0.095,0.034-0.249,0.015-0.345-0.03c-0.212-0.099-0.578-0.104-0.771-0.014c-0.098,0.048-0.261,0.091-0.346,0.054
			c-0.871-0.384-1.847-0.64-2.483-1.325c-0.556-0.599-1.002-1.276-1.591-1.85c-0.892-0.866-1.327-1.933-1.866-2.946
			c-0.01-0.018-0.019-0.039-0.027-0.057l-0.002,0.001c0,0-0.001-0.005-0.003-0.014c-0.169-0.344-0.256-0.722-0.327-1.103
			c-0.393-1.418-0.965-3.835-0.71-5.13c0.075,0.158,0.17,0.312,0.226,0.476c0.115,0.342,0.229,0.683,0.342,1.023
			c0.356,0.933,0.776,2.006,0.927,2.288c0.432,0.563,0.868,1.131,1.337,1.743c0.043-0.175,0.07-0.29,0.099-0.41
			c0.026,0.011,0.065,0.017,0.071,0.032c0.035,0.088,0.068,0.181,0.092,0.271c0.135,0.556,0.29,0.697,0.903,0.564
			c0.454-0.1,0.666,0.158,0.991,0.343c0.076-0.157,0.133-0.271,0.151-0.312c0.426,0.263,0.861,0.521,1.283,0.795
			c0.103,0.067,0.172,0.181,0.237,0.283c0.193,0.304,0.338,0.637,0.572,0.916c0.338,0.403,0.657,0.388,1.02-0.008
			c0.114-0.124,0.248-0.258,0.286-0.403c0.161-0.632,0.762-0.906,1.302-1.242c0.173-0.107,0.294-0.275,0.473-0.45
			c0.032,0.119,0.064,0.237,0.122,0.448c0.231-0.162,0.402-0.281,0.587-0.41c1.003,0.223,1.003,0.223,1.504-0.885
			c0.039,0.169,0.068,0.292,0.112,0.479c0.415-0.553,0.815-1.083,1.215-1.615c0.045-0.151,0.095-0.284,0.145-0.377
			c0.287-0.54,1.536-3.893,1.536-3.893C66.065,65.795,65.396,68.44,64.972,69.891z"/>
		<rect x="65.794" y="95.082" fill="none" width="0.262" height="10.034"/>
		<rect x="64.231" y="95.082" fill="none" width="0.521" height="10.034"/>
		<rect x="63.45" y="95.082" fill="none" width="0.261" height="10.034"/>
		<rect x="66.316" y="95.082" fill="none" width="0.261" height="10.034"/>
		<rect x="62.667" y="95.082" fill="none" width="0.521" height="10.034"/>
		<rect x="67.098" y="95.082" fill="none" width="0.261" height="10.034"/>
		<path d="M129.363,48.999c-0.607-0.429-1.43-0.524-2.396-0.524h-0.512v5.315h0.525c1.227,0,2.014-0.215,2.549-0.68
			c0.514-0.441,0.834-1.132,0.834-1.99C130.363,50.215,130.006,49.452,129.363,48.999z"/>
		<path d="M100.693,100.22c-0.303-1.211-0.393-2.074-0.184-2.625c0.133-0.352,0.406-0.641,0.824-0.745
			c0.43-0.106,0.793,0.023,1.076,0.271c0.461,0.397,0.77,1.192,1.064,2.378c0.332,1.328,0.387,2.104,0.184,2.625
			c-0.137,0.339-0.395,0.639-0.824,0.745c-0.416,0.104-0.797-0.036-1.078-0.271C101.334,102.233,101.014,101.511,100.693,100.22z
			 M92.512,102.26c-0.303-1.211-0.393-2.074-0.186-2.625c0.135-0.352,0.408-0.642,0.826-0.745c0.43-0.107,0.795,0.022,1.078,0.271
			c0.457,0.398,0.768,1.193,1.062,2.379c0.33,1.328,0.387,2.104,0.184,2.624c-0.137,0.339-0.395,0.639-0.824,0.746
			c-0.416,0.104-0.799-0.036-1.078-0.271C93.152,104.273,92.834,103.551,92.512,102.26z M115.404,99.113
			c-0.146-0.587,0.008-1.138,0.58-1.28c0.574-0.143,0.967,0.271,1.113,0.858c0.146,0.586-0.006,1.137-0.58,1.279
			C115.945,100.113,115.551,99.699,115.404,99.113z M107.682,95.89c-0.146-0.586,0.008-1.136,0.58-1.278
			c0.574-0.143,0.967,0.271,1.113,0.856c0.146,0.587-0.008,1.137-0.58,1.279C108.221,96.89,107.828,96.477,107.682,95.89z
			 M109.582,131.551l0.332,0.488l-1.293,0.322l0.064-0.559c0.053-0.442,0.105-0.963,0.141-1.36l0.014-0.003
			C109.057,130.773,109.348,131.208,109.582,131.551z M99.404,132.791c0.219,0.334,0.51,0.769,0.742,1.112l0.334,0.487l-1.293,0.322
			l0.064-0.559c0.051-0.442,0.105-0.963,0.141-1.359L99.404,132.791z M146.811,111.074l-0.135-0.539l10.689-2.665l-6.645-6.73
			l2.707-9.062l-13.09,3.264V44.203c0,0,0-7.243-7.242-7.243H38.582c0,0-7.243,0-7.243,7.243v59.506c0,0,0,7.243,7.243,7.243h29.341
			c0.236-1.079,0.914-2.036,1.574-2.966c0.582-0.819,1.133-1.594,1.367-2.409c0.043-0.148,0.066-0.305,0.092-0.461h-0.47V95.082
			h0.521v5.287c0.063-0.45,0.178-0.885,0.377-1.292c0.039-0.081,0.1-0.146,0.145-0.224v-3.771h0.261v3.369
			c0.294-0.391,0.65-0.736,1.042-1.055v-2.314h0.521v1.904c0.172-0.126,0.347-0.248,0.521-0.369v-1.535h0.261v1.352
			c0.088-0.062,0.173-0.122,0.26-0.183v-1.169h0.262v0.986c0.381-0.273,0.735-0.552,1.043-0.85v-0.137h0.133
			c0.128-0.134,0.252-0.27,0.357-0.415c0.502-0.691,0.774-1.606,1.063-2.574c0.365-1.225,0.743-2.492,1.641-3.36
			c0.888-0.857,2.158-1.192,3.388-1.515c0.984-0.259,1.914-0.504,2.634-0.989c0.699-0.471,1.265-1.23,1.862-2.035
			c0.768-1.031,1.56-2.097,2.714-2.609c0.555-0.245,1.188-0.359,1.996-0.359c0.549,0,1.119,0.053,1.67,0.104
			c1.029,0.097,2.109,0.156,2.85-0.028c0.859-0.215,1.707-0.772,2.529-1.312c1.055-0.692,2.143-1.409,3.355-1.496
			c1.254-0.091,2.465,0.48,3.627,1.031c0.904,0.429,1.76,0.834,2.598,0.922c0.869,0.092,1.842-0.141,2.789-0.364
			c1.264-0.298,2.635-0.559,3.703-0.252c1.199,0.346,2.127,1.287,3.025,2.196c0.709,0.72,1.379,1.398,2.148,1.774
			c0.771,0.377,1.721,0.488,2.729,0.606c1.266,0.147,2.576,0.301,3.582,1.031c1.002,0.728,1.553,1.923,2.086,3.078
			c0.424,0.924,0.826,1.795,1.428,2.416c0.59,0.609,1.439,1.035,2.338,1.485c1.146,0.575,2.332,1.169,3.035,2.21
			c0.376,0.557,0.566,1.204,0.687,1.88l-0.022,0.006c0.035,0.203,0.068,0.409,0.094,0.617l16.781-4.184l-2.5,8.369l6.137,6.216
			l-9.631,2.401l-2.812-11.288l-0.027-0.104l-0.238,0.059l-7.689-1.328c0.025,0.213,0.041,0.428,0.061,0.642l6.135,1.06
			l-6.621,1.651c-0.205-0.748-0.271-1.554-0.336-2.34c-0.098-1.207-0.191-2.348-0.754-3.18c-0.578-0.856-1.613-1.375-2.711-1.925
			c-0.922-0.463-1.877-0.941-2.568-1.654c-0.703-0.726-1.152-1.705-1.59-2.652c-0.508-1.105-0.99-2.148-1.811-2.745
			c-0.826-0.6-1.971-0.733-3.182-0.875c-1.033-0.121-2.102-0.246-3.004-0.687c-0.9-0.439-1.652-1.203-2.381-1.942
			c-0.859-0.869-1.668-1.691-2.654-1.976c-0.883-0.255-2.061-0.023-3.271,0.263c-1.016,0.239-2.08,0.489-3.074,0.382
			c-0.982-0.103-1.945-0.559-2.875-0.999c-1.111-0.527-2.156-1.023-3.199-0.951c-0.992,0.071-1.941,0.696-2.949,1.358
			c-0.881,0.579-1.791,1.178-2.791,1.427c-0.855,0.214-2.033,0.153-3.135,0.051c-0.555-0.052-1.08-0.101-1.592-0.101
			c-0.684,0-1.209,0.091-1.648,0.286c-0.951,0.422-1.645,1.354-2.378,2.34c-0.614,0.826-1.25,1.681-2.069,2.232
			c-0.84,0.566-1.884,0.841-2.894,1.106c-1.175,0.309-2.285,0.601-3.013,1.304c-0.737,0.713-1.067,1.82-1.417,2.991
			c-0.296,0.994-0.603,2.021-1.189,2.831c-0.59,0.812-1.475,1.424-2.33,2.017c-1.003,0.693-1.951,1.35-2.399,2.267
			c-0.445,0.913-0.38,2.062-0.31,3.276c0.06,1.041,0.121,2.117-0.158,3.087c-0.274,0.954-0.894,1.824-1.491,2.666
			c-0.711,1-1.382,1.945-1.49,2.973c-0.105,0.999,0.348,2.05,0.827,3.162c0.312,0.724,0.632,1.466,0.802,2.223l-6.62,1.65
			l4.917-3.815c-0.085-0.197-0.168-0.396-0.247-0.595l-6.165,4.783l-0.237,0.059l1.592,6.384l1.249,5.009l-9.631,2.401l2.5-8.37
			l-6.138-6.216l16.779-4.183c-0.075-0.196-0.145-0.393-0.208-0.59l-17.78,4.433l6.646,6.73l-2.707,9.062l10.689-2.665l0.986,3.957
			l0.323-0.251l7.672-1.913c0.092,0.991,0.23,1.911,0.702,2.61c0.578,0.856,1.613,1.376,2.71,1.925
			c0.924,0.463,1.879,0.941,2.569,1.655c0.701,0.725,1.152,1.703,1.588,2.649c0.509,1.105,0.99,2.149,1.812,2.747
			c0.827,0.6,1.972,0.733,3.184,0.876c1.032,0.12,2.099,0.245,3.001,0.685c0.898,0.44,1.652,1.203,2.379,1.941
			c0.859,0.87,1.672,1.692,2.658,1.977c0.881,0.255,2.059,0.022,3.271-0.263c0.848-0.199,1.725-0.406,2.574-0.406
			c0.168,0,0.334,0.008,0.5,0.025c0.98,0.104,1.943,0.559,2.873,0.999c1.111,0.527,2.143,1.018,3.199,0.95
			c0.99-0.071,1.941-0.696,2.949-1.357c0.881-0.579,1.791-1.178,2.791-1.427c0.854-0.214,2.035-0.154,3.135-0.052
			c0.555,0.052,1.08,0.101,1.59,0.101c0.686,0,1.209-0.091,1.65-0.287c0.953-0.422,1.646-1.354,2.381-2.34
			c0.615-0.825,1.25-1.678,2.068-2.23c0.838-0.566,1.883-0.841,2.893-1.106c1.176-0.31,2.285-0.602,3.014-1.305
			c0.736-0.712,1.066-1.819,1.416-2.991c0.297-0.993,0.604-2.021,1.189-2.829c0.59-0.813,1.475-1.426,2.33-2.018
			c1.004-0.694,1.951-1.35,2.398-2.267c0.445-0.914,0.381-2.062,0.311-3.278c-0.059-1.04-0.121-2.115,0.158-3.083
			c0.275-0.955,0.893-1.825,1.492-2.668c0.709-1,1.381-1.944,1.488-2.972c0.09-0.839-0.221-1.717-0.605-2.635l7.67-1.913l0.404,0.07
			l-0.039-0.161L146.811,111.074z M41.817,105.116h-0.519c0-3.345,0-6.689,0-10.034h0.519V105.116z M42.338,105.116h-0.261V95.082
			h0.261V105.116z M43.122,105.116H42.86V95.082h0.262V105.116z M45.206,105.116h-1.043V95.082h1.043V105.116z M45.726,105.116
			h-0.26V95.082h0.26V105.116z M46.508,105.116h-0.26V95.082h0.26V105.116z M47.291,105.116h-0.26V95.082h0.26V105.116z
			 M48.854,105.116h-0.521V95.082h0.521V105.116z M49.376,105.116h-0.262V95.082h0.262V105.116z M50.158,105.116h-0.261V95.082
			h0.261V105.116z M51.46,105.116H51.2V95.082h0.261V105.116z M52.503,105.116h-0.521V95.082h0.521V105.116z M53.024,105.116h-0.26
			V95.082h0.26V105.116z M53.806,105.116h-0.521V95.082h0.521V105.116z M54.587,105.116h-0.26V95.082h0.26V105.116z M55.891,105.116
			H55.63V95.082h0.261V105.116z M57.715,105.116h-1.042V95.082h1.042V105.116z M58.237,105.116h-0.261V95.082h0.261V105.116z
			 M59.018,105.116h-0.521V95.082h0.521V105.116z M59.801,105.116h-0.522V95.082h0.522V105.116z M60.842,105.116h-0.521V95.082
			h0.521V105.116z M61.625,105.116h-0.26V95.082h0.26V105.116z M63.188,105.116h-0.521V95.082h0.521V105.116z M63.71,105.116H63.45
			V95.082h0.261V105.116z M64.752,105.116h-0.521V95.082h0.521V105.116z M66.056,105.116h-0.262V95.082h0.262V105.116z
			 M66.577,105.116h-0.261V95.082h0.261V105.116z M67.359,105.116h-0.261V95.082h0.261V105.116z M68.922,105.116H67.88V95.082h1.042
			V105.116z M69.444,105.116h-0.261V95.082h0.261V105.116z M70.226,105.116h-0.261V95.082h0.261V105.116z M74.489,79.058
			c-2.462-1.108-5.357-2.165-5.357-2.165l-2.462-1.142c-0.039-0.032-0.078-0.063-0.105-0.091c-0.002,0.013-0.007,0.025-0.009,0.038
			l-1.204-0.002c0,0-1.297,2.49-2.148,3.232c-0.713,0.623-3.587,1.263-4.56,1.381c-0.806,0.097-1.98-0.314-2.751-0.553
			c-0.711-0.222-2.118-0.827-2.631-1.333c-0.58-0.574-1.403-2.71-1.535-3.055c-0.003-0.032-0.005-0.052-0.005-0.052
			c-0.003,0.003-0.008,0.006-0.012,0.009c0-0.002-0.003-0.009-0.003-0.009l-0.745,0.581c-2.245,1.394-9.489,4.078-9.489,4.078
			s-0.073,0.043-0.174,0.103V46.014h17.224c-0.283,0.076-0.545,0.221-0.778,0.446c-0.167,0.161-0.408,0.268-0.615,0.398
			c-0.595,0.372-1.207,0.727-1.778,1.122c-0.646,0.448-1.274,0.918-1.876,1.408c-0.491,0.401-1.018,0.799-1.376,1.283
			c-0.579,0.781-1.089,1.603-1.603,2.42c-0.099,0.057-0.189,0.111-0.268,0.167c-1.104,0.772-1.028,2.222-1.025,2.281
			c-0.081,0.159-0.173,0.31-0.286,0.446c-0.426,0.519-0.613,1.057-0.552,1.643c0.138,1.305,0.35,2.603,0.518,3.904
			c0.051,0.395,0.229,0.628,0.759,0.519c0.013,0.216,0.016,0.404,0.038,0.591c0.021,0.182,0.062,0.361,0.093,0.542
			c0.059,0.015,0.117,0.029,0.176,0.045c-0.372-2.751,1.313-4.176,4.263-4.81c-0.004-0.004-0.007-0.006-0.011-0.01
			c0.267-0.05,0.531-0.107,0.785-0.17c2.101-0.465,4.229-0.746,6.351-0.146c0.823,0.234,1.493,0.286,2.075-0.336
			c0.032-0.035,0.073-0.064,0.111-0.096h0.001c-0.264,0.252-0.526,0.505-0.839,0.805c2.623,0.778,3.604,2.395,3.379,4.647
			c0.062-0.011,0.128-0.02,0.191-0.028c0.055-0.716,0.111-1.431,0.167-2.146c0.05,0,0.099,0,0.149,0
			c0.024,0.338,0.049,0.674,0.072,1.013c0.062,0.013,0.123,0.023,0.185,0.037c0.145-0.221,0.406-0.44,0.413-0.664
			c0.046-1.56,0.559-3.135-0.165-4.675c-0.02-0.043-0.03-0.099-0.014-0.139c0.094-0.225,0.089-0.412,0.022-0.585
			c0-0.001,0-0.002,0-0.003c-0.051-0.239-0.481-0.591-0.483-0.594l-0.339-0.622c0.045-0.273,0.054-0.557,0.093-0.833
			c0.007-0.053,0.016-0.106,0.025-0.16c0.01-0.049,0.021-0.096,0.033-0.142c0.234-0.882-0.087-1.619-0.655-2.295
			c0.412-0.453,0.412-0.453-0.336-1.093c0.605-0.233,0.735-0.735,0.263-1.046c0.052-0.116,0.104-0.233,0.154-0.352
			c0.341-0.802,0.123-1.172-0.838-1.427c-0.424-0.112-0.848-0.231-1.274-0.335c-1.398-0.343-2.794-0.691-4.199-1.013h14.961V79.058z
			 M122.986,55.446h-1.896v-8.628h1.896V55.446z M130.828,54.386c-0.881,0.715-2.121,1.061-3.932,1.061h-2.336v-8.628h2.42
			c1.537,0,2.729,0.25,3.621,0.87c1.061,0.738,1.658,1.954,1.658,3.432C132.26,52.479,131.746,53.635,130.828,54.386z
			 M132.076,94.619c0.521,0.355,0.91,0.729,1.189,1.145c0.277,0.409,0.477,0.911,0.607,1.533l-0.609,0.128
			c-0.113-0.541-0.281-0.971-0.514-1.313c-0.234-0.349-0.568-0.668-1.023-0.979L132.076,94.619z M127.359,91.084
			c0.273,0.514,0.535,0.892,0.824,1.19c0.287,0.297,0.658,0.57,1.166,0.861l-0.309,0.539c-0.561-0.32-0.975-0.628-1.305-0.968
			c-0.33-0.342-0.625-0.765-0.926-1.332L127.359,91.084z M123.359,86.415c0.611,0.153,1.105,0.371,1.51,0.666
			c0.404,0.293,0.764,0.695,1.1,1.229l-0.525,0.332c-0.295-0.466-0.602-0.812-0.939-1.058c-0.34-0.248-0.764-0.433-1.295-0.565
			L123.359,86.415z M117.723,84.696c0.439,0.396,0.814,0.663,1.182,0.841c0.369,0.181,0.811,0.313,1.389,0.416l-0.109,0.612
			c-0.635-0.113-1.129-0.263-1.553-0.47c-0.418-0.203-0.84-0.501-1.324-0.938L117.723,84.696z M118.648,98.305
			c0.35,1.406-0.355,2.676-1.789,3.033s-2.654-0.432-3.006-1.838c-0.352-1.407,0.357-2.677,1.791-3.034
			S118.297,96.897,118.648,98.305z M114.018,81.783c0.48,0.139,0.957,0.394,1.453,0.779l-0.381,0.491
			c-0.434-0.337-0.84-0.557-1.244-0.673c-0.4-0.115-0.865-0.145-1.41-0.089l-0.064-0.618
			C113.004,81.608,113.539,81.646,114.018,81.783z M113.508,92.002l1.668-0.416l-3.902,10.993l-1.668,0.415L113.508,92.002z
			 M106.488,81.981c0.545,0.222,0.986,0.345,1.395,0.388c0.414,0.043,0.875,0.017,1.449-0.083l0.105,0.612
			c-0.434,0.075-0.811,0.112-1.158,0.112c-0.16,0-0.312-0.008-0.461-0.023c-0.469-0.049-0.965-0.186-1.564-0.43L106.488,81.981z
			 M107.92,93.243c1.434-0.357,2.654,0.432,3.006,1.838c0.352,1.407-0.357,2.677-1.791,3.034c-1.432,0.357-2.652-0.432-3.004-1.839
			C105.779,94.87,106.488,93.601,107.92,93.243z M102.004,80.521c0.506-0.034,1.041,0.04,1.635,0.23l-0.189,0.592
			c-0.518-0.166-0.971-0.23-1.402-0.202c-0.416,0.029-0.846,0.158-1.352,0.406l-0.273-0.559
			C100.994,80.708,101.512,80.555,102.004,80.521z M98.584,96.927c0.406-0.987,1.246-1.667,2.289-1.927
			c1.055-0.263,2.104-0.055,2.924,0.627c0.787,0.662,1.34,1.714,1.752,3.369c0.414,1.655,0.418,2.843,0.035,3.797
			c-0.406,0.986-1.232,1.663-2.289,1.926c-1.041,0.26-2.104,0.055-2.924-0.626c-0.787-0.662-1.34-1.714-1.754-3.369
			C98.205,99.068,98.201,97.881,98.584,96.927z M94.998,83.301c0.576,0.021,1.039-0.02,1.445-0.122
			c0.404-0.102,0.842-0.288,1.334-0.57l0.309,0.54c-0.543,0.311-1.031,0.518-1.492,0.634c-0.391,0.098-0.818,0.145-1.328,0.145
			c-0.094,0-0.189-0.001-0.287-0.005L94.998,83.301z M95.615,97.667c0.787,0.662,1.34,1.713,1.752,3.368
			c0.414,1.655,0.42,2.844,0.033,3.798c-0.402,0.986-1.23,1.663-2.287,1.926c-1.041,0.26-2.104,0.055-2.924-0.627
			c-0.787-0.661-1.34-1.713-1.754-3.368c-0.412-1.655-0.418-2.843-0.033-3.798c0.404-0.986,1.246-1.666,2.289-1.926
			C93.746,96.777,94.795,96.985,95.615,97.667z M90.285,83.441c0.457-0.202,0.986-0.31,1.619-0.328l0.02,0.621
			c-0.551,0.017-1.004,0.106-1.385,0.274c-0.385,0.173-0.76,0.446-1.143,0.837l-0.443-0.435
			C89.391,83.964,89.826,83.646,90.285,83.441z M85.966,87.833c0.337-0.228,0.671-0.545,1.05-0.997l0.477,0.399
			c-0.418,0.498-0.792,0.853-1.18,1.114c-0.398,0.267-0.865,0.483-1.471,0.681l-0.193-0.591
			C85.199,88.26,85.617,88.067,85.966,87.833z M86.698,98.534l2.386,9.576l-2.071,0.517l-1.731-6.945l-1.742,1.169l-0.468-1.876
			L86.698,98.534z M80.274,90.196c0.357-0.347,0.816-0.631,1.401-0.869l0.234,0.576c-0.511,0.207-0.904,0.449-1.203,0.739
			c-0.304,0.294-0.56,0.679-0.784,1.179l-0.566-0.255C79.613,90.993,79.913,90.545,80.274,90.196z M77.721,95.805
			c0.244-0.335,0.449-0.746,0.648-1.295l0.584,0.211c-0.219,0.605-0.45,1.066-0.729,1.449c-0.278,0.384-0.644,0.747-1.15,1.144
			l-0.383-0.49C77.151,96.464,77.478,96.141,77.721,95.805z M73.179,99.968c0.218-0.448,0.552-0.872,1.019-1.295l0.418,0.461
			c-0.408,0.369-0.694,0.73-0.878,1.106c-0.183,0.375-0.292,0.825-0.334,1.377l-0.619-0.047
			C72.833,100.938,72.961,100.414,73.179,99.968z M72.689,106.111c0.115-0.401,0.17-0.858,0.171-1.44l0.621,0.001
			c-0.001,0.642-0.062,1.153-0.194,1.611c-0.13,0.452-0.351,0.918-0.694,1.467l-0.527-0.33
			C72.377,106.922,72.576,106.506,72.689,106.111z M70.024,113.216c-0.175-0.61-0.235-1.146-0.184-1.64
			c0.053-0.496,0.221-1.008,0.514-1.566l0.551,0.289c-0.256,0.487-0.401,0.927-0.445,1.343c-0.044,0.412,0.01,0.871,0.162,1.402
			L70.024,113.216z M76.786,135.802c-0.521-0.354-0.91-0.728-1.189-1.143c-0.277-0.411-0.477-0.912-0.608-1.533l0.607-0.129
			c0.115,0.541,0.284,0.971,0.517,1.313c0.234,0.349,0.569,0.668,1.023,0.977L76.786,135.802z M81.503,139.339
			c-0.276-0.516-0.539-0.895-0.826-1.19c-0.284-0.295-0.654-0.568-1.165-0.862l0.311-0.539c0.562,0.324,0.976,0.632,1.302,0.969
			c0.328,0.339,0.623,0.762,0.928,1.329L81.503,139.339z M85.503,144.007c-0.611-0.153-1.105-0.371-1.511-0.666
			c-0.406-0.297-0.766-0.699-1.1-1.229l0.527-0.331c0.29,0.463,0.597,0.809,0.938,1.058c0.34,0.247,0.764,0.433,1.295,0.565
			L85.503,144.007z M91.141,145.727c-0.439-0.396-0.814-0.662-1.184-0.841c-0.365-0.181-0.807-0.312-1.389-0.416l0.109-0.612
			c0.641,0.114,1.135,0.264,1.553,0.47c0.42,0.204,0.842,0.502,1.326,0.938L91.141,145.727z M90.951,138.796
			c-1.539,0.384-2.879-0.388-3.231-1.801c-0.354-1.419,0.472-2.766,2.005-3.147c0.59-0.147,1.141-0.116,1.562-0.003l0.266,1.062
			c-0.475-0.178-1.049-0.246-1.572-0.116c-0.969,0.242-1.422,1.08-1.209,1.937c0.209,0.835,0.98,1.389,1.971,1.143
			c0.219-0.055,0.42-0.146,0.562-0.253l-0.18-0.724l-0.836,0.209l-0.219-0.875l1.857-0.463l0.555,2.229
			C92.111,138.338,91.547,138.647,90.951,138.796z M95.908,148.779c-0.389,0-0.74-0.047-1.064-0.14
			c-0.48-0.139-0.955-0.394-1.453-0.781l0.383-0.49c0.434,0.337,0.84,0.558,1.244,0.674c0.398,0.115,0.859,0.145,1.408,0.088
			l0.064,0.618C96.287,148.769,96.094,148.779,95.908,148.779z M96.996,136.472c-0.219,0.568-0.764,1.007-1.533,1.198
			c-0.77,0.192-1.465,0.062-1.928-0.351c-0.354-0.32-0.584-0.818-0.754-1.502l-0.623-2.501l1.055-0.263l0.613,2.461
			c0.127,0.511,0.252,0.811,0.447,1.001c0.203,0.196,0.529,0.312,0.979,0.2c0.418-0.104,0.652-0.324,0.75-0.609
			c0.09-0.262,0.066-0.609-0.059-1.113l-0.615-2.468l1.016-0.253l0.617,2.475C97.141,135.47,97.172,136.02,96.996,136.472z
			 M102.375,148.439c-0.547-0.221-0.99-0.344-1.396-0.387c-0.41-0.042-0.869-0.018-1.449,0.082l-0.105-0.612
			c0.637-0.109,1.156-0.137,1.619-0.088c0.467,0.049,0.963,0.185,1.566,0.429L102.375,148.439z M101.641,136.053l-0.635-0.912
			l-1.938,0.482l-0.139,1.106l-1.082,0.27l0.752-5.289l1.021-0.255l3.148,4.317L101.641,136.053z M104.283,135.395l-1.055,0.263
			l-1.197-4.803l1.506-0.375c0.57-0.143,1.127-0.196,1.57-0.054c0.406,0.131,0.723,0.44,0.861,0.991
			c0.135,0.544-0.014,1.073-0.453,1.437c-0.057,0.05-0.123,0.095-0.189,0.14l1.855,1.679l-1.215,0.303l-1.684-1.581l-0.471,0.117
			L104.283,135.395z M106.857,149.902c-0.08,0.006-0.16,0.009-0.242,0.009c-0.432,0-0.891-0.079-1.393-0.238l0.189-0.593
			c0.521,0.166,0.979,0.229,1.402,0.202c0.41-0.03,0.854-0.163,1.352-0.407l0.273,0.559
			C107.869,149.713,107.352,149.866,106.857,149.902z M108.502,133.271l-0.139,1.106l-1.082,0.27l0.754-5.289l1.021-0.255
			l3.146,4.316l-1.127,0.281l-0.637-0.913L108.502,133.271z M113.863,147.121c-0.584-0.015-1.041,0.023-1.447,0.123
			c-0.406,0.103-0.83,0.283-1.332,0.57l-0.309-0.54c0.553-0.315,1.025-0.518,1.49-0.634c0.465-0.114,0.98-0.159,1.615-0.141
			L113.863,147.121z M114.096,130.891c-0.416-0.34-0.809-0.672-1.211-1.016l-0.012,0.01c0.121,0.457,0.244,0.919,0.359,1.384
			l0.445,1.784l-1.016,0.253l-1.197-4.803l0.994-0.248l1.924,1.579c0.416,0.339,0.809,0.671,1.211,1.015l0.012-0.01
			c-0.121-0.456-0.244-0.919-0.359-1.384l-0.445-1.784l1.016-0.253l1.197,4.803l-0.996,0.248L114.096,130.891z M118.574,146.98
			c-0.453,0.201-0.982,0.31-1.617,0.329l-0.02-0.621c0.553-0.018,1.006-0.108,1.385-0.276c0.387-0.172,0.76-0.445,1.141-0.836
			l0.445,0.435C119.471,146.459,119.033,146.775,118.574,146.98z M119.193,127.556l0.967,3.881l-1.055,0.263l-0.967-3.881
			l-1.553,0.387l-0.23-0.922l4.16-1.036l0.229,0.922L119.193,127.556z M122.896,142.589c-0.338,0.228-0.672,0.545-1.051,0.997
			l-0.477-0.399c0.418-0.498,0.793-0.853,1.18-1.114c0.398-0.268,0.867-0.484,1.473-0.682l0.193,0.591
			C123.664,142.161,123.246,142.354,122.896,142.589z M122.25,130.915l-1.197-4.803l2.965-0.739l0.23,0.922l-1.91,0.477l0.234,0.942
			l1.645-0.41l0.223,0.889l-1.645,0.41l0.281,1.128l1.982-0.494l0.23,0.922L122.25,130.915z M125.973,129.987l-1.197-4.803
			l2.965-0.739l0.229,0.922l-1.91,0.477l0.236,0.942l1.645-0.41l0.221,0.889l-1.645,0.41l0.281,1.128l1.984-0.495l0.229,0.922
			L125.973,129.987z M128.588,140.226c-0.357,0.347-0.816,0.631-1.4,0.869l-0.234-0.576c0.51-0.207,0.902-0.449,1.203-0.739
			c0.303-0.293,0.553-0.668,0.783-1.18l0.566,0.256C129.24,139.442,128.949,139.877,128.588,140.226z M131.139,134.617
			c-0.24,0.333-0.445,0.746-0.646,1.297l-0.584-0.212c0.221-0.607,0.451-1.067,0.729-1.45c0.275-0.379,0.641-0.741,1.15-1.143
			l0.385,0.488C131.709,133.963,131.381,134.286,131.139,134.617z M135.682,130.454c-0.219,0.447-0.551,0.871-1.02,1.296
			l-0.418-0.461c0.408-0.371,0.695-0.733,0.879-1.108s0.293-0.824,0.332-1.374l0.621,0.045
			C136.029,129.481,135.9,130.006,135.682,130.454z M136.172,124.311c-0.113,0.395-0.166,0.852-0.17,1.44l-0.621-0.002
			c0.002-0.647,0.064-1.159,0.193-1.61c0.133-0.456,0.354-0.922,0.697-1.467l0.525,0.332
			C136.486,123.497,136.287,123.913,136.172,124.311z M138.506,120.414l-0.549-0.291c0.254-0.48,0.398-0.919,0.443-1.341
			c0.045-0.414-0.008-0.873-0.16-1.405l0.598-0.171c0.174,0.61,0.234,1.146,0.182,1.642
			C138.967,119.349,138.799,119.861,138.506,120.414z M145.738,114.16l-0.455,0.113l-38.605,9.946l-37.947,9.141l-1.269,0.316
			l0.02-0.016l-1.154,0.278l-3.629-14.567l8.73-2.246c-0.054-0.312-0.132-0.64-0.271-1.024l0.584-0.211
			c0.144,0.398,0.229,0.747,0.291,1.08l30.857-7.939l40.342-9.738l3.643,14.57l-1.145,0.295L145.738,114.16z M104.777,132.291
			c-0.139,0.119-0.35,0.207-0.635,0.278l-0.531,0.132l-0.297-1.188l0.406-0.101c0.363-0.091,0.633-0.115,0.82-0.071
			c0.217,0.052,0.332,0.179,0.389,0.404S104.939,132.152,104.777,132.291z M78.598,119.427l1.742,6.989l-1.535,0.382l-0.733-2.944
			l-3.022,0.754l0.734,2.944l-1.534,0.383l-1.742-6.989l1.534-0.383l0.674,2.703l3.021-0.754l-0.674-2.703L78.598,119.427z
			 M86.792,121.208c0.262,1.053,0.307,1.851,0.052,2.51c-0.317,0.828-1.111,1.467-2.231,1.746c-1.119,0.279-2.131,0.09-2.803-0.512
			c-0.517-0.466-0.852-1.192-1.1-2.187l-0.907-3.64l1.535-0.383l0.894,3.582c0.185,0.742,0.365,1.18,0.649,1.457
			c0.298,0.285,0.77,0.455,1.427,0.291c0.607-0.151,0.948-0.472,1.091-0.888c0.131-0.381,0.097-0.886-0.086-1.619l-0.896-3.591
			l1.478-0.368L86.792,121.208z M94.184,115.541l1.742,6.989l-1.535,0.383l-0.697-2.799c-0.145-0.58-0.299-1.239-0.414-1.743
			l-0.021-0.005c-0.205,0.573-0.426,1.172-0.65,1.751l-0.654,1.691l-1.373-1.187c-0.471-0.405-0.945-0.83-1.396-1.241l-0.016,0.015
			c0.135,0.5,0.307,1.153,0.451,1.733l0.699,2.799l-1.477,0.368l-1.743-6.989l1.478-0.368l2.811,2.438l1.34-3.472L94.184,115.541z
			 M97.686,114.668l-1.096,7.696l1.574-0.392l0.203-1.609l2.818-0.702l0.926,1.327l1.641-0.409l-4.58-6.282L97.686,114.668z
			 M100.422,118.569l-1.883,0.469l0.096-0.812c0.074-0.646,0.152-1.402,0.203-1.979l0.02-0.005c0.316,0.486,0.74,1.117,1.08,1.618
			L100.422,118.569z M109.008,111.845l1.742,6.989l-1.447,0.361l-2.799-2.297c-0.605-0.495-1.176-0.978-1.762-1.478l-0.018,0.015
			c0.176,0.663,0.354,1.336,0.523,2.013l0.646,2.597l-1.477,0.368l-1.742-6.989l1.447-0.361l2.797,2.298
			c0.605,0.495,1.178,0.977,1.764,1.478l0.018-0.015c-0.176-0.664-0.355-1.337-0.523-2.012l-0.646-2.598L109.008,111.845z
			 M118.396,115.503l0.334,1.342l-4.422,1.103l-1.742-6.989l4.316-1.076l0.334,1.342l-2.781,0.693l0.342,1.371l2.395-0.597
			l0.322,1.293l-2.395,0.597l0.41,1.642L118.396,115.503z M124.131,108.075l-1.727,4.511l0.785,3.147l-1.535,0.383l-0.783-3.138
			l-3.662-3.178l1.805-0.45l1.166,1.053c0.383,0.346,0.779,0.708,1.139,1.038l0.02-0.005c0.168-0.482,0.336-0.955,0.518-1.461
			l0.527-1.465L124.131,108.075z M130.459,112.495l0.334,1.342l-4.42,1.103l-1.742-6.989l4.314-1.075l0.334,1.342l-2.779,0.692
			l0.342,1.371l2.395-0.597l0.322,1.293l-2.395,0.597l0.408,1.642L130.459,112.495z M135.932,110.353
			c0.34,1.36-0.488,2.438-1.994,2.814c-0.695,0.173-1.598,0.214-2.34,0.039l-0.387-1.555c0.869,0.317,1.861,0.306,2.41,0.169
			c0.561-0.14,0.92-0.465,0.791-0.986c-0.162-0.647-0.832-0.541-1.803-0.607c-1.045-0.078-2.031-0.334-2.334-1.551
			c-0.326-1.303,0.457-2.359,1.924-2.726c0.686-0.171,1.57-0.205,2.258-0.029l0.379,1.515c-0.859-0.277-1.771-0.275-2.311-0.141
			c-0.521,0.13-0.852,0.417-0.734,0.881c0.152,0.617,0.812,0.505,1.723,0.574C134.652,108.836,135.625,109.117,135.932,110.353z"/>
		<path d="M54.43,69.688c0.521-0.128,1.008-0.357,1.51-0.541c0.328-0.12,0.65-0.324,0.986-0.343
			c1.175-0.058,2.337-0.111,3.427,0.489c0.575,0.317,1.271,0.499,2.059,0.241c1.034-0.34,1.369-1.556,0.769-2.245
			c-0.134-0.152-0.474-0.21-0.729-0.232c-0.105-0.01-0.236,0.185-0.399,0.322c0.27-0.058,0.523-0.156,0.562-0.113
			c0.146,0.163,0.312,0.376,0.303,0.565c-0.009,0.206-0.139,0.507-0.324,0.592c-0.651,0.294-1.514,0.081-2.009-0.412
			c-0.278-0.275-0.562-0.547-0.858-0.808c-0.432-0.381-0.956-0.448-1.525-0.226c-0.101,0.038-0.236,0.082-0.328,0.056
			c-0.981-0.291-1.229-0.233-1.91,0.451c-0.454,0.457-0.896,0.97-1.639,1.054c-0.356,0.04-0.818-0.054-1.093-0.238
			c-0.175-0.116-0.171-0.527-0.105-0.778c0.089-0.338,0.369-0.402,0.667-0.113c0.037-0.039,0.073-0.077,0.111-0.117
			c-0.176-0.088-0.411-0.286-0.518-0.244c-0.29,0.115-0.681,0.295-0.75,0.514c-0.115,0.365-0.067,0.79,0.015,1.172
			C52.763,69.257,53.83,69.834,54.43,69.688z"/>
		<path d="M64.234,68.325c-0.05,0.093-0.1,0.226-0.145,0.377c-0.399,0.532-0.8,1.062-1.215,1.615
			c-0.044-0.187-0.073-0.31-0.112-0.479c-0.501,1.107-0.501,1.107-1.504,0.885c-0.185,0.129-0.355,0.248-0.587,0.41
			c-0.058-0.211-0.09-0.329-0.122-0.448c-0.179,0.175-0.3,0.343-0.473,0.45c-0.54,0.336-1.141,0.61-1.302,1.242
			c-0.038,0.146-0.172,0.279-0.286,0.403c-0.362,0.396-0.682,0.411-1.02,0.008c-0.234-0.279-0.379-0.612-0.572-0.916
			c-0.065-0.103-0.135-0.216-0.237-0.283c-0.422-0.274-0.857-0.532-1.283-0.795c-0.019,0.041-0.075,0.155-0.151,0.312
			c-0.325-0.185-0.537-0.442-0.991-0.343c-0.613,0.133-0.769-0.009-0.903-0.564c-0.023-0.091-0.057-0.184-0.092-0.271
			c-0.006-0.016-0.045-0.021-0.071-0.032c-0.028,0.12-0.056,0.235-0.099,0.41c-0.469-0.612-0.905-1.18-1.337-1.743
			c-0.15-0.282-0.57-1.355-0.927-2.288c-0.113-0.341-0.227-0.682-0.342-1.023c-0.056-0.163-0.15-0.317-0.226-0.476
			c-0.255,1.295,0.317,3.712,0.71,5.13c0.071,0.381,0.158,0.759,0.327,1.103c0.002,0.009,0.003,0.014,0.003,0.014l0.002-0.001
			c0.009,0.018,0.018,0.039,0.027,0.057c0.539,1.014,0.975,2.08,1.866,2.946c0.589,0.573,1.035,1.251,1.591,1.85
			c0.637,0.686,1.612,0.941,2.483,1.325c0.085,0.037,0.248-0.006,0.346-0.054c0.193-0.091,0.56-0.085,0.771,0.014
			c0.096,0.045,0.25,0.064,0.345,0.03c1.226-0.444,2.369-1.008,3.177-1.937c0.563-0.647,1.101-1.324,1.541-2.036
			c0.463-0.747,0.889-1.521,1.23-2.314h0.001c0,0,0-0.001,0.001-0.002c0.044-0.104,0.087-0.207,0.13-0.311
			c0.091-0.226,0.143-0.461,0.183-0.699c0.424-1.45,1.093-4.096,0.798-5.458C65.77,64.433,64.521,67.785,64.234,68.325z"/>
	</g>
</g>
</svg>
