<?xml version="1.0" encoding="utf-8"?>
<!-- Generator: Adobe Illustrator 15.1.0, SVG Export Plug-In . SVG Version: 6.00 Build 0)  -->
<!DOCTYPE svg PUBLIC "-//W3C//DTD SVG 1.0//EN" "http://www.w3.org/TR/2001/REC-SVG-20010904/DTD/svg10.dtd">
<svg version="1.0" xmlns="http://www.w3.org/2000/svg" xmlns:xlink="http://www.w3.org/1999/xlink" x="0px" y="0px"
	 width="172.914px" height="172.914px" viewBox="0 0 172.914 172.914" enable-background="new 0 0 172.914 172.914"
	 xml:space="preserve">
<g id="Background_on_white">
</g>
<g id="M">
	<path fill="#FFF200" d="M86.457,170.958c-46.594,0-84.502-37.908-84.502-84.501c0-46.595,37.908-84.502,84.502-84.502
		c46.594,0,84.502,37.907,84.502,84.502C170.959,133.05,133.051,170.958,86.457,170.958z"/>
	<path d="M170.957,86.457c0,46.594-37.906,84.5-84.5,84.5c-46.594,0-84.502-37.906-84.502-84.5
		c0-46.595,37.908-84.502,84.502-84.502C133.051,1.955,170.957,39.862,170.957,86.457z M162.453,86.457
		c0-41.905-34.092-75.998-75.997-75.998c-41.906,0-75.998,34.093-75.998,75.998c0,41.904,34.092,75.996,75.998,75.996
		C128.361,162.453,162.453,128.361,162.453,86.457z"/>
</g>
<g id="social_x5F_facebook">
	<g>
		<g>
			<g>
				<path d="M91.804,69.743v-8.325c0-4.346,0.343-6.707,6.556-6.707h8.381V38.009H93.383c-16.08,0-19.773,8.326-19.773,21.927
					l0.05,9.808l-12.126,0.05v16.655H73.66v48.459h18.141V86.448h13.261l1.778-16.705H91.804z"/>
			</g>
		</g>
	</g>
</g>
</svg>
