<?xml version="1.0" encoding="UTF-8" standalone="no"?>
<svg width="170px" height="170px" viewBox="0 0 170 170" version="1.1" xmlns="http://www.w3.org/2000/svg" xmlns:xlink="http://www.w3.org/1999/xlink">
    <!-- Generator: Sketch 41.2 (35397) - http://www.bohemiancoding.com/sketch -->
    <title>vi_icon_socmed_offices_RGB_M</title>
    <desc>Created with Sketch.</desc>
    <defs></defs>
    <g id="Page-1" stroke="none" stroke-width="1" fill="none" fill-rule="evenodd">
        <g id="vi_icon_socmed_offices_RGB_M">
            <g id="Group">
                <g id="M">
                    <path d="M85.455,168.955 C39.413498,168.955 1.955,131.49628 1.955,85.4554941 C1.955,39.4127315 39.413498,1.955 85.455,1.955 C131.496502,1.955 168.955,39.4127315 168.955,85.4554941 C168.955,131.49628 131.496502,168.955 85.455,168.955 Z" id="Shape" fill="#FFF200"></path>
                    <path d="M169.957,85.457 C169.957,132.051 132.051,169.957 85.457,169.957 C38.863,169.957 0.955,132.051 0.955,85.457 C0.955,38.862 38.863,0.955 85.457,0.955 C132.051,0.955 169.957,38.862 169.957,85.457 Z M161.453,85.457 C161.453,43.552 127.361,9.459 85.456,9.459 C43.55,9.459 9.458,43.552 9.458,85.457 C9.458,127.361 43.55,161.453 85.456,161.453 C127.361,161.453 161.453,127.361 161.453,85.457 Z" id="Shape" fill="#000000"></path>
                </g>
                <g id="offices" transform="translate(27.000000, 31.000000)" fill="#000000">
                    <g id="Group">
                        <path d="M11.875,26.03 C8.732,26.03 6.182,23.482 6.182,20.338 C6.182,17.194 8.732,14.648 11.875,14.648 C15.018,14.648 17.566,17.195 17.566,20.338 C17.563,23.482 15.015,26.03 11.875,26.03 M11.875,9.434 C5.821,9.434 0.895,14.359 0.895,20.411 C0.895,22.852 2.452,26.826 5.657,32.565 C7.922,36.624 10.15,40.01 10.244,40.15 L11.876,42.626 L13.507,40.15 C13.6,40.01 15.828,36.624 18.094,32.565 C21.297,26.826 22.853,22.852 22.853,20.415 C22.85,14.358 17.924,9.434 11.875,9.434" id="Shape"></path>
                        <path d="M107.922,53.347 C104.778,53.347 102.229,50.799 102.229,47.655 C102.229,44.511 104.779,41.965 107.922,41.965 C111.065,41.965 113.614,44.512 113.614,47.655 C113.614,50.802 111.065,53.347 107.922,53.347 M107.922,36.75 C101.867,36.75 96.942,41.675 96.942,47.727 C96.942,50.168 98.499,54.142 101.707,59.881 C103.971,63.942 106.199,67.326 106.293,67.466 L107.923,69.942 L109.557,67.466 C109.65,67.326 111.874,63.942 114.142,59.881 C117.346,54.142 118.901,50.168 118.901,47.731 C118.899,41.675 113.976,36.75 107.922,36.75" id="Shape"></path>
                        <path d="M59.143,17.385 C56.001,17.385 53.454,14.839 53.454,11.694 C53.454,8.551 56.002,6.006 59.143,6.006 C62.288,6.006 64.835,8.551 64.835,11.694 C64.839,14.839 62.291,17.385 59.143,17.385 M59.143,0.79 C53.092,0.79 48.164,5.716 48.164,11.77 C48.164,14.208 49.722,18.182 52.925,23.923 C55.191,27.982 57.419,31.363 57.513,31.509 L59.142,33.981 L60.776,31.509 C60.87,31.363 63.099,27.98 65.36,23.923 C68.566,18.182 70.123,14.207 70.123,11.77 C70.123,5.716 65.201,0.79 59.143,0.79" id="Shape"></path>
                        <path d="M75.198,51.962 C72.054,51.962 69.506,49.416 69.506,46.272 C69.506,43.13 72.055,40.584 75.198,40.584 C78.341,40.584 80.889,43.131 80.889,46.272 C80.89,49.416 78.342,51.962 75.198,51.962 M75.198,35.368 C69.144,35.368 64.218,40.29 64.218,46.344 C64.218,48.783 65.776,52.759 68.979,58.498 C71.247,62.56 73.471,65.943 73.565,66.085 L75.199,68.558 L76.828,66.085 C76.922,65.943 79.149,62.56 81.417,58.498 C84.622,52.759 86.175,48.783 86.175,46.348 C86.174,40.29 81.252,35.368 75.198,35.368" id="Shape"></path>
                        <path d="M91.249,22.474 C88.109,22.474 85.561,19.93 85.561,16.782 C85.561,13.64 88.109,11.094 91.249,11.094 C94.391,11.094 96.938,13.64 96.938,16.782 C96.941,19.93 94.393,22.474 91.249,22.474 M91.249,5.878 C85.2,5.878 80.269,10.804 80.269,16.858 C80.269,19.296 81.827,23.271 85.034,29.011 C87.298,33.07 89.527,36.451 89.621,36.597 L91.25,39.069 L92.884,36.597 C92.978,36.451 95.204,33.07 97.468,29.011 C100.673,23.271 102.23,19.295 102.23,16.858 C102.229,10.804 97.303,5.878 91.249,5.878" id="Shape"></path>
                        <path d="M83.226,98.888 C80.082,98.888 77.535,96.339 77.535,93.197 C77.535,90.055 80.083,87.509 83.226,87.509 C86.366,87.509 88.918,90.055 88.918,93.197 C88.918,96.339 86.365,98.888 83.226,98.888 M83.226,82.292 C77.172,82.292 72.247,87.219 72.247,93.268 C72.247,95.71 73.804,99.683 77.007,105.422 C79.275,109.483 81.499,112.867 81.594,113.01 L83.227,115.482 L84.857,113.01 C84.95,112.867 87.179,109.483 89.443,105.422 C92.65,99.683 94.203,95.71 94.203,93.273 C94.201,87.216 89.279,82.292 83.226,82.292" id="Shape"></path>
                    </g>
                </g>
            </g>
        </g>
    </g>
</svg>