<?xml version="1.0" encoding="utf-8"?>
<!-- Generator: Adobe Illustrator 15.1.0, SVG Export Plug-In . SVG Version: 6.00 Build 0)  -->
<!DOCTYPE svg PUBLIC "-//W3C//DTD SVG 1.0//EN" "http://www.w3.org/TR/2001/REC-SVG-20010904/DTD/svg10.dtd">
<svg version="1.0" xmlns="http://www.w3.org/2000/svg" xmlns:xlink="http://www.w3.org/1999/xlink" x="0px" y="0px"
	 width="172.914px" height="172.914px" viewBox="0 0 172.914 172.914" enable-background="new 0 0 172.914 172.914"
	 xml:space="preserve">
<g id="Background_on_white">
</g>
<g id="S">
	<path fill="#FFF200" d="M86.457,170.958c-46.594,0-84.502-37.908-84.502-84.501c0-46.595,37.908-84.502,84.502-84.502
		c46.594,0,84.502,37.907,84.502,84.502C170.959,133.05,133.051,170.958,86.457,170.958z"/>
	<path d="M170.957,86.457c0-14.142-3.508-27.473-9.676-39.196C147.131,20.354,118.91,1.955,86.457,1.955
		c-32.453,0-60.674,18.399-74.826,45.306c-1.086,2.066-2.107,4.173-3.024,6.336c-0.063,0.148-0.116,0.302-0.179,0.45
		c-4.162,9.986-6.473,20.933-6.473,32.41l0,0v0.001c0,46.594,37.906,84.499,84.502,84.499
		C133.051,170.957,170.957,133.052,170.957,86.457L170.957,86.457L170.957,86.457z M161.045,86.458
		c0,41.127-33.461,74.587-74.588,74.587c-41.129,0-74.59-33.46-74.59-74.587c0-41.129,33.461-74.591,74.59-74.591
		C127.584,11.867,161.045,45.329,161.045,86.458z"/>
</g>
<g id="offices">
	<g>
		<g>
			<g>
				<path d="M39.875,58.03c-3.143,0-5.693-2.548-5.693-5.692c0-3.144,2.55-5.69,5.693-5.69c3.143,0,5.691,2.547,5.691,5.69
					C45.563,55.482,43.015,58.03,39.875,58.03 M39.875,41.434c-6.054,0-10.98,4.925-10.98,10.977c0,2.441,1.557,6.415,4.762,12.154
					c2.265,4.059,4.493,7.445,4.587,7.585l1.632,2.476l1.631-2.476c0.093-0.14,2.321-3.526,4.587-7.585
					c3.203-5.739,4.759-9.713,4.759-12.15C50.85,46.358,45.924,41.434,39.875,41.434"/>
			</g>
			<g>
				<path d="M135.922,85.347c-3.144,0-5.693-2.548-5.693-5.692c0-3.144,2.55-5.69,5.693-5.69s5.692,2.547,5.692,5.69
					C141.614,82.802,139.065,85.347,135.922,85.347 M135.922,68.75c-6.055,0-10.98,4.925-10.98,10.977
					c0,2.441,1.557,6.415,4.765,12.154c2.264,4.061,4.492,7.445,4.586,7.585l1.63,2.476l1.634-2.476
					c0.093-0.14,2.317-3.524,4.585-7.585c3.204-5.739,4.759-9.713,4.759-12.15C146.899,73.675,141.976,68.75,135.922,68.75"/>
			</g>
			<g>
				<path d="M87.143,49.385c-3.142,0-5.689-2.546-5.689-5.691c0-3.143,2.548-5.688,5.689-5.688c3.145,0,5.692,2.545,5.692,5.688
					C92.839,46.839,90.291,49.385,87.143,49.385 M87.143,32.79c-6.051,0-10.979,4.926-10.979,10.98
					c0,2.438,1.558,6.412,4.761,12.153c2.266,4.059,4.494,7.44,4.588,7.586l1.629,2.472l1.634-2.472
					c0.094-0.146,2.323-3.529,4.584-7.586c3.206-5.741,4.763-9.716,4.763-12.153C98.123,37.716,93.201,32.79,87.143,32.79"/>
			</g>
			<g>
				<path d="M103.198,83.962c-3.144,0-5.692-2.546-5.692-5.69c0-3.142,2.549-5.688,5.692-5.688s5.691,2.547,5.691,5.688
					C108.89,81.416,106.342,83.962,103.198,83.962 M103.198,67.368c-6.054,0-10.98,4.922-10.98,10.976
					c0,2.439,1.558,6.415,4.761,12.154c2.268,4.062,4.492,7.445,4.586,7.587l1.634,2.473l1.629-2.473
					c0.094-0.142,2.321-3.525,4.589-7.587c3.205-5.739,4.758-9.715,4.758-12.15C114.174,72.29,109.252,67.368,103.198,67.368"/>
			</g>
			<g>
				<path d="M119.249,54.474c-3.14,0-5.688-2.544-5.688-5.692c0-3.142,2.548-5.688,5.688-5.688c3.142,0,5.689,2.546,5.689,5.688
					C124.941,51.93,122.393,54.474,119.249,54.474 M119.249,37.878c-6.049,0-10.98,4.926-10.98,10.98
					c0,2.438,1.558,6.413,4.765,12.153c2.264,4.059,4.493,7.44,4.587,7.586l1.629,2.472l1.634-2.472
					c0.094-0.146,2.32-3.527,4.584-7.586c3.205-5.74,4.762-9.716,4.762-12.153C130.229,42.804,125.303,37.878,119.249,37.878"/>
			</g>
			<g>
				<path d="M111.226,130.888c-3.144,0-5.691-2.549-5.691-5.691s2.548-5.688,5.691-5.688c3.14,0,5.692,2.546,5.692,5.688
					S114.365,130.888,111.226,130.888 M111.226,114.292c-6.054,0-10.979,4.927-10.979,10.976c0,2.442,1.557,6.415,4.76,12.154
					c2.268,4.061,4.492,7.445,4.587,7.588l1.633,2.472l1.63-2.472c0.093-0.143,2.322-3.527,4.586-7.588
					c3.207-5.739,4.76-9.712,4.76-12.149C122.201,119.216,117.279,114.292,111.226,114.292"/>
			</g>
		</g>
	</g>
</g>
</svg>
