<?xml version="1.0" encoding="utf-8"?>
<!-- Generator: Adobe Illustrator 15.1.0, SVG Export Plug-In . SVG Version: 6.00 Build 0)  -->
<!DOCTYPE svg PUBLIC "-//W3C//DTD SVG 1.0//EN" "http://www.w3.org/TR/2001/REC-SVG-20010904/DTD/svg10.dtd">
<svg version="1.0" xmlns="http://www.w3.org/2000/svg" xmlns:xlink="http://www.w3.org/1999/xlink" x="0px" y="0px"
	 width="172.914px" height="172.914px" viewBox="0 0 172.914 172.914" enable-background="new 0 0 172.914 172.914"
	 xml:space="preserve">
<g id="Background_on_white">
</g>
<g id="S">
	<path fill="#FFF200" d="M86.457,170.958c-46.594,0-84.502-37.908-84.502-84.501c0-46.595,37.908-84.502,84.502-84.502
		c46.594,0,84.502,37.907,84.502,84.502C170.959,133.05,133.051,170.958,86.457,170.958z"/>
	<path d="M170.957,86.457c0-14.142-3.508-27.473-9.676-39.196C147.131,20.354,118.91,1.955,86.457,1.955
		c-32.453,0-60.674,18.399-74.826,45.306c-1.086,2.066-2.107,4.173-3.024,6.336c-0.063,0.148-0.116,0.302-0.179,0.45
		c-4.162,9.986-6.473,20.933-6.473,32.41l0,0v0.001c0,46.594,37.906,84.499,84.502,84.499
		C133.051,170.957,170.957,133.052,170.957,86.457L170.957,86.457L170.957,86.457z M161.045,86.458
		c0,41.127-33.461,74.587-74.588,74.587c-41.129,0-74.59-33.46-74.59-74.587c0-41.129,33.461-74.591,74.59-74.591
		C127.584,11.867,161.045,45.329,161.045,86.458z"/>
</g>
<g id="hand_x5F_iphone">
	<g>
		<path d="M63.154,70.684l2.773,6.013c0.37,0.804,1.354,0.993,2.192,0.606l1.524-0.703c0.234,1.644,0.552,3.084,0.79,4.002
			l-0.998,0.46c-0.83,0.38-1.206,1.335-0.843,2.127l2.545,5.52c0.201,3.835,0.376,8.415,0.512,12.438l-22.6-49.018l44.138-20.352
			l32.827,71.204l-29.246,13.482c-1.427-4.737-3.488-7.407-5.463-9.493l-0.2-0.433c-0.212-0.455-0.617-0.756-1.08-0.874
			c-1.6-1.601-3.028-3.021-3.854-5.147c-0.159-0.413-0.306-0.824-0.451-1.232l0.138-0.063c0.836-0.387,1.3-1.245,0.93-2.047
			l-2.771-6.012c-0.088-0.191-0.215-0.349-0.364-0.477c-0.675-4.322-1.061-9.058-1.972-15.076c-0.197-1.303-0.621-2.658-1.195-3.948
			c0.285,0.025,0.582-0.017,0.864-0.146l6.143-2.832c0.831-0.385,1.208-1.338,0.844-2.131l-2.705-5.867
			c-0.368-0.794-1.332-1.126-2.163-0.741l-6.146,2.831c-0.832,0.381-1.208,1.336-0.843,2.129l1.082,2.346
			c-1.729-1.742-3.75-2.578-5.608-1.537c-0.454-0.254-1.031-0.299-1.567-0.053l-6.293,2.903
			C63.25,68.951,62.788,69.885,63.154,70.684z M74.642,34.711c0.293-0.138,0.642-0.019,0.771,0.268
			c0.133,0.285-0.004,0.625-0.3,0.764l-11.035,5.086c-0.298,0.14-0.642,0.02-0.775-0.264c-0.129-0.285,0.004-0.625,0.3-0.763
			L74.642,34.711z M67.102,33.015c0.854-0.39,1.846-0.048,2.222,0.767c0.38,0.816-0.009,1.795-0.861,2.188
			c-0.854,0.395-1.851,0.053-2.222-0.762C65.862,34.391,66.249,33.41,67.102,33.015z M105.074,115.396
			c2.45-1.129,5.309-0.147,6.391,2.193c1.076,2.339-0.035,5.15-2.482,6.28c-2.45,1.126-5.309,0.146-6.391-2.194
			C101.516,119.335,102.627,116.523,105.074,115.396z M111.895,161.27c-2.946-5.682-8.662-17.477-7.894-21.102
			c1.786-8.442-0.701-10.817-0.701-10.817h-0.018l16.765-7.729l1.344-0.619c3.976,0.932,7.223,1.096,8.838-0.302
			c1.629-1.409,1.348-2.687,0.104-3.819l0.09-0.042l0.081-0.037c2.787-1.288,4.054-4.494,2.827-7.159l-8.64-18.748l-0.043-0.091
			c2.097-0.56,3.992-1.562,5.027-3.331c2.82-4.816-4.307-6.933-10.185-7.848l-0.4-0.872l-2.897-6.287l-0.704-1.525
			c2.043-1.19,3.768-2.785,4.248-4.917c0.892-3.954-4.544-4.575-8.594-4.515l-17.92-38.864c-1.227-2.663-4.488-3.784-7.278-2.497
			l-41.295,19.04c-2.792,1.286-4.06,4.49-2.828,7.158l12.972,28.257c-4.617,2.175-2.868,10.539-2.997,18.198
			c-0.109,6.335-4.703,19.473,2.921,30.508c4.539,6.572,16.333,27.836,23.49,41.335C81.02,165.145,97.082,165.27,111.895,161.27z"/>
		<path d="M108.264,122.307c1.547-0.714,2.25-2.488,1.566-3.969c-0.68-1.48-2.487-2.097-4.034-1.384
			c-1.55,0.71-2.251,2.486-1.571,3.967C104.91,122.399,106.714,123.021,108.264,122.307z"/>
		<path d="M104.174,100.202c-0.379-0.824-1.387-1.166-2.246-0.771l-6.572,3.031c-0.859,0.396-1.247,1.384-0.87,2.204l2.893,6.28
			c0.379,0.821,1.385,1.166,2.246,0.766l6.572-3.026c0.859-0.398,1.252-1.388,0.87-2.207L104.174,100.202z"/>
		<path d="M107.66,98.562l2.799,6.071c0.373,0.809,1.365,1.144,2.209,0.756l6.354-2.928c0.846-0.393,1.229-1.364,0.856-2.171
			l-2.796-6.07c-0.37-0.812-1.358-1.148-2.209-0.759l-6.354,2.931C107.672,96.784,107.29,97.752,107.66,98.562z"/>
		<path d="M86.262,52.844c0.367,0.8,1.347,1.139,2.182,0.754l6.388-2.944c0.835-0.385,1.215-1.351,0.849-2.151l-2.814-6.094
			c-0.365-0.799-1.345-1.135-2.183-0.752L84.301,44.6c-0.839,0.388-1.22,1.348-0.852,2.15L86.262,52.844z"/>
		<path d="M94.56,70.859l2.776,6.01c0.366,0.803,1.416,0.957,2.26,0.573l6.294-2.905c0.842-0.385,1.234-1.209,0.863-2.012
			l-2.77-6.012c-0.373-0.801-1.282-1.102-2.124-0.715l-6.292,2.904C94.724,69.092,94.193,70.056,94.56,70.859z"/>
		<path d="M73.341,58.797c0.372,0.803,1.352,1.139,2.192,0.752l6.379-2.939c0.835-0.389,1.219-1.352,0.851-2.152l-2.812-6.088
			c-0.367-0.804-1.348-1.143-2.188-0.754l-6.378,2.938c-0.84,0.389-1.221,1.353-0.853,2.151L73.341,58.797z"/>
		<path d="M69.572,60.533l-2.808-6.086c-0.37-0.804-1.348-1.141-2.193-0.756l-6.374,2.94c-0.843,0.387-1.221,1.353-0.853,2.154
			l2.806,6.089c0.372,0.803,1.353,1.141,2.193,0.754l6.376-2.941C69.561,62.301,69.94,61.336,69.572,60.533z"/>
		<path d="M89.39,58.931l2.72,5.907c0.364,0.779,1.319,1.109,2.14,0.73l6.18-2.85c0.819-0.378,1.194-1.317,0.833-2.101l-2.725-5.906
			c-0.359-0.781-1.314-1.11-2.135-0.731l-6.184,2.849C89.398,57.205,89.026,58.146,89.39,58.931z"/>
		<path d="M100.834,83.748l2.72,5.906c0.364,0.781,1.317,1.113,2.137,0.733l6.185-2.851c0.819-0.377,1.189-1.318,0.833-2.104
			l-2.727-5.9c-0.359-0.785-1.317-1.113-2.137-0.735l-6.185,2.849C100.841,82.025,100.471,82.963,100.834,83.748z"/>
		<path d="M99.777,91.371l-2.704-5.869c-0.368-0.791-1.332-1.125-2.167-0.74l-6.141,2.833c-0.833,0.382-1.208,1.333-0.844,2.128
			l2.706,5.866c0.366,0.795,1.335,1.129,2.165,0.746l6.144-2.832C99.769,93.118,100.144,92.164,99.777,91.371z"/>
		<path d="M93.906,78.633l-2.704-5.867c-0.368-0.793-1.334-1.123-2.167-0.74l-6.141,2.831c-0.833,0.384-1.209,1.335-0.844,2.129
			l2.706,5.868c0.364,0.794,1.337,1.127,2.164,0.742l6.146-2.831C93.897,80.383,94.272,79.427,93.906,78.633z"/>
	</g>
</g>
</svg>
