<?xml version="1.0" encoding="UTF-8" standalone="no"?>
<svg width="170px" height="170px" viewBox="0 0 170 170" version="1.1" xmlns="http://www.w3.org/2000/svg" xmlns:xlink="http://www.w3.org/1999/xlink">
    <!-- Generator: Sketch 41.2 (35397) - http://www.bohemiancoding.com/sketch -->
    <title>vi_icon_vi_player_RGB_M</title>
    <desc>Created with Sketch.</desc>
    <defs></defs>
    <g id="Page-1" stroke="none" stroke-width="1" fill="none" fill-rule="evenodd">
        <g id="vi_icon_vi_player_RGB_M">
            <g id="Group">
                <g id="M">
                    <path d="M85.455,168.955 C39.413498,168.955 1.955,131.49628 1.955,85.4554941 C1.955,39.4127315 39.413498,1.955 85.455,1.955 C131.496502,1.955 168.955,39.4127315 168.955,85.4554941 C168.955,131.49628 131.496502,168.955 85.455,168.955 Z" id="Shape" fill="#FFF200"></path>
                    <path d="M169.957,85.457 C169.957,132.051 132.051,169.957 85.457,169.957 C38.863,169.957 0.955,132.051 0.955,85.457 C0.955,38.862 38.863,0.955 85.457,0.955 C132.051,0.955 169.957,38.862 169.957,85.457 Z M161.453,85.457 C161.453,43.552 127.361,9.459 85.456,9.459 C43.55,9.459 9.458,43.552 9.458,85.457 C9.458,127.361 43.55,161.453 85.456,161.453 C127.361,161.453 161.453,127.361 161.453,85.457 Z" id="Shape" fill="#000000"></path>
                </g>
                <g id="vi_x5F_player" transform="translate(6.000000, 50.000000)" fill="#000000">
                    <path d="M125.04,26.871 C123.958,25.413 124.097,24.616 125.39,23.372 C125.677,23.097 125.966,22.821 126.249,22.543 C127.187,21.625 127.665,21.633 128.491,22.691 C129.446,23.92 130.427,25.142 131.243,26.462 C131.581,27.012 131.55,27.806 131.645,28.495 C131.852,30.019 131.79,31.524 131.04,33.311 C129.999,32.336 129.05,31.553 128.222,30.655 C127.104,29.443 126.021,28.191 125.04,26.871 Z M29.006,41.477 C28.322,40.65 27.526,39.918 26.656,39.016 C25.917,40.551 25.792,41.868 25.902,43.218 C25.953,43.826 25.888,44.52 26.162,45.019 C26.817,46.215 27.622,47.334 28.404,48.456 C29.078,49.423 29.498,49.45 30.363,48.687 C30.626,48.456 30.891,48.229 31.156,47.999 C32.349,46.968 32.506,46.275 31.625,44.945 C30.825,43.74 29.93,42.592 29.006,41.477 Z M114.226,35.456 C114.226,54.511 98.777,69.961 79.722,69.961 C60.665,69.961 45.218,54.512 45.218,35.456 C45.218,16.402 60.665,0.952 79.722,0.952 C98.776,0.952 114.226,16.4 114.226,35.456 Z M91.356,35.456 L72.059,22.122 L72.059,48.791 L91.356,35.456 Z M156.645,50.082 C155.838,49.473 152.746,47.049 151.927,46.457 C149.849,44.959 147.531,44.311 144.868,44.307 C142.528,44.306 140.19,43.557 137.85,43.141 C137.311,43.044 136.778,42.905 136.235,42.854 C134.077,42.657 131.919,42.471 129.756,42.311 C128.262,42.204 126.762,42.135 125.266,42.079 C124.209,42.034 123.282,41.801 122.645,40.847 C122.104,40.04 121.207,39.891 120.331,39.706 C119.643,39.563 118.964,39.38 118.296,39.158 C117.714,38.966 117.134,38.587 117.298,37.927 C117.417,37.446 117.849,36.786 118.263,36.675 C120.238,36.144 122.242,35.655 124.265,35.394 C125.466,35.24 126.732,35.503 127.96,35.642 C129.931,35.86 131.505,34.908 132.239,33.083 C133.161,30.796 132.725,28.51 132.344,26.217 C132.317,26.054 132.192,25.897 132.082,25.761 C131.492,25.022 130.787,24.351 130.32,23.542 C129.468,22.073 128.125,21.245 126.81,20.275 C125.119,19.031 123.507,18.837 121.56,19.492 C120.453,19.866 119.206,19.873 118.017,19.941 C117.46,19.972 116.843,19.854 116.328,19.633 C115.385,19.225 115.291,18.574 115.994,17.832 C116.265,17.545 116.588,17.299 116.906,17.064 C118.998,15.512 121.103,13.978 123.189,12.419 C124.261,11.618 125.308,11.546 126.517,12.188 C128.978,13.496 131.494,14.703 133.974,15.977 C134.431,16.212 134.781,16.204 135.234,15.934 C135.834,15.578 136.484,15.281 137.144,15.051 C138.462,14.597 139.078,14.862 140.019,15.88 C142.947,19.053 145.89,22.214 148.878,25.327 C150.704,27.227 152.524,29.153 154.536,30.847 C154.796,31.065 157.619,33.22 157.892,33.425 C159.676,39.551 156.645,50.082 156.645,50.082 Z M2.041,20.687 C3.492,21.938 7.438,25.319 8.933,26.52 C10.687,27.93 12.691,28.608 15.027,28.733 C17.082,28.842 19.099,29.606 21.132,30.082 C21.601,30.19 22.063,30.339 22.534,30.406 C24.421,30.678 26.306,30.942 28.195,31.18 C29.502,31.343 30.813,31.472 32.126,31.592 C33.05,31.678 33.854,31.927 34.37,32.791 C34.808,33.524 35.587,33.697 36.349,33.899 C36.944,34.057 37.535,34.249 38.107,34.472 C38.608,34.667 39.102,35.027 38.927,35.601 C38.802,36.017 38.394,36.577 38.023,36.653 C36.266,37.027 34.486,37.365 32.697,37.502 C31.636,37.582 30.539,37.291 29.467,37.114 C27.746,36.832 26.322,37.595 25.594,39.161 C24.68,41.127 24.955,43.152 25.186,45.183 C25.203,45.328 25.305,45.47 25.395,45.594 C25.879,46.27 26.465,46.89 26.839,47.62 C27.519,48.95 28.658,49.737 29.768,50.648 C31.196,51.819 32.602,52.063 34.338,51.578 C35.327,51.302 36.42,51.351 37.467,51.347 C37.959,51.345 38.494,51.476 38.938,51.696 C39.747,52.099 39.799,52.672 39.147,53.292 C38.895,53.53 38.602,53.731 38.312,53.923 C36.405,55.19 34.488,56.439 32.584,57.709 C31.607,58.364 30.684,58.379 29.652,57.762 C27.552,56.501 25.402,55.325 23.284,54.093 C22.891,53.864 22.586,53.86 22.178,54.072 C21.633,54.358 21.051,54.589 20.459,54.759 C19.281,55.096 18.752,54.838 17.975,53.9 C15.551,50.981 13.115,48.075 10.635,45.205 C9.121,43.452 7.61,41.678 5.922,40.1 C5.188,39.413 2.027,37.096 1.188,36.521 C-0.502,30.915 2.041,20.687 2.041,20.687 Z" id="Shape"></path>
                </g>
            </g>
        </g>
    </g>
</svg>