<?xml version="1.0" encoding="UTF-8" standalone="no"?>
<svg width="170px" height="170px" viewBox="0 0 170 170" version="1.1" xmlns="http://www.w3.org/2000/svg" xmlns:xlink="http://www.w3.org/1999/xlink">
    <!-- Generator: Sketch 41.2 (35397) - http://www.bohemiancoding.com/sketch -->
    <title>vi_icon_side_girl_ponytail_RGB_M</title>
    <desc>Created with Sketch.</desc>
    <defs></defs>
    <g id="Page-1" stroke="none" stroke-width="1" fill="none" fill-rule="evenodd">
        <g id="vi_icon_side_girl_ponytail_RGB_M">
            <g id="Group">
                <g id="M">
                    <path d="M85.455,168.955 C39.413498,168.955 1.955,131.49628 1.955,85.4554941 C1.955,39.4127315 39.413498,1.955 85.455,1.955 C131.496502,1.955 168.955,39.4127315 168.955,85.4554941 C168.955,131.49628 131.496502,168.955 85.455,168.955 Z" id="Shape" fill="#FFF200"></path>
                    <path d="M169.957,85.457 C169.957,132.051 132.051,169.957 85.457,169.957 C38.863,169.957 0.955,132.051 0.955,85.457 C0.955,38.862 38.863,0.955 85.457,0.955 C132.051,0.955 169.957,38.862 169.957,85.457 Z M161.453,85.457 C161.453,43.552 127.361,9.459 85.456,9.459 C43.55,9.459 9.458,43.552 9.458,85.457 C9.458,127.361 43.55,161.453 85.456,161.453 C127.361,161.453 161.453,127.361 161.453,85.457 Z" id="Shape" fill="#000000"></path>
                </g>
                <g id="side_x5F_girl_x5F_ponytail" transform="translate(29.000000, 24.000000)" fill="#000000">
                    <path d="M53.207,140.958 C52.898,138.685 51.8,131.162 52.03,129.383 C54.263,128.105 59.866,125.069 60.312,124.743 C61.356,123.982 69.837,120.095 70.16,119.966 C70.51,119.825 76.875,119.74 77.624,119.748 C78.627,119.762 79.658,119.369 80.172,118.938 C80.492,118.669 80.569,118.318 80.425,117.755 C80.32,117.516 80.357,117.095 80.571,116.984 C81.521,116.345 81.942,116.396 82.845,115.849 C83.624,115.453 83.944,114.867 83.707,114.161 C83.648,113.992 83.59,113.849 83.588,113.675 C83.963,113.515 84.328,113.359 84.691,113.199 C85.333,112.915 85.627,112.281 85.51,111.691 C85.422,111.257 84.948,110.716 85.038,110.164 C85.076,109.933 85.72,109.357 85.952,109.226 C86.68,108.811 86.916,108.232 86.66,107.451 C86.646,107.41 86.577,106.945 85.98,106.52 C86.091,106.403 89.694,103.096 90.2,102.578 C90.486,102.28 89.33,101.365 89.036,101.309 C88.875,101.279 83.738,105.939 82.319,107.147 C82.026,107.391 81.564,107.507 81.145,107.62 C80.683,107.744 80.537,107.84 80.04,107.89 C79.072,107.982 76.163,108.196 75.677,108.187 C75.33,108.179 74.971,108.095 74.624,108.017 C74.326,107.953 74.375,107.712 74.354,107.553 C74.34,107.44 74.44,107.282 74.553,107.229 C75.003,107.015 75.484,106.836 75.939,106.629 C76.08,106.565 76.175,106.438 76.309,106.36 C76.374,106.319 76.494,106.279 76.562,106.309 C76.96,106.475 77.187,106.437 77.555,106.364 C77.703,106.334 78.099,106.315 78.258,106.326 C79.272,106.38 80.571,105.726 80.767,104.92 C80.799,104.787 80.825,104.649 80.815,104.511 C80.79,104.137 80.545,103.927 80.108,103.911 C79.57,103.891 79.034,103.905 78.495,103.872 C77.853,103.834 77.22,103.684 76.622,103.436 C75.755,103.081 74.995,103.057 74.255,103.47 C73.735,103.76 73.135,103.958 72.562,104.181 C71.817,104.476 71.063,104.764 70.304,105.037 C69.771,105.228 69.431,105.542 69.19,105.994 C68.923,106.496 68.582,106.969 68.216,107.417 C67.476,108.314 66.707,109.189 65.936,110.064 C65.215,110.884 64.345,111.565 63.369,112.17 C63.234,112.254 63.104,112.35 62.972,112.44 C62.972,112.429 62.972,112.417 62.974,112.404 C62.938,112.44 62.902,112.475 62.866,112.51 C62.133,112.999 61.429,113.523 60.699,114.017 C60.579,114.1 60.449,114.173 60.326,114.254 C58.614,115.15 56.555,116.11 54.379,117.01 C54.131,117.942 57.028,105.739 58.28,103.204 C59.697,100.275 59.638,94.55 58.569,92.12 C57.981,90.781 54.275,87.207 54.275,87.207 C54.275,87.207 54.245,87.196 54.228,87.198 C50.978,84.277 46.863,80.508 45.539,78.974 C45.539,78.974 42.76,75.712 40.355,73.157 C39.85,72.623 38.966,70.882 38.109,69.354 C38.555,68.745 38.744,68.251 38.481,67.954 C38.198,67.633 37.231,67.414 36.705,67.186 C36.582,67.051 36.463,66.923 36.359,66.863 C37.132,65.22 39.361,62.986 40.445,61.523 C41.172,60.54 42.413,60.364 43.627,60.7 C45.73,61.282 47.838,61.848 49.926,62.484 C52.304,63.209 53.778,62.237 54.063,59.817 C54.133,59.231 54.555,58.37 55.018,58.205 C56.536,57.673 56.901,56.599 56.854,55.149 C57.445,54.975 57.895,54.845 58.344,54.708 C59.116,54.468 59.511,54.022 59.536,53.129 C59.598,50.947 60.425,50.265 62.631,50.394 C64.453,50.501 64.826,49.995 64.522,48.236 C64.127,45.92 63.748,43.588 63.621,41.25 C63.569,40.329 64.118,39.316 64.582,38.444 C65.275,37.136 66.335,35.998 66.882,34.644 C68.16,31.472 68.114,28.118 67.814,24.761 C67.726,23.784 67.573,22.761 67.766,21.827 C68.122,20.102 67.881,18.509 67.21,16.94 C65.492,12.92 62.224,10.643 58.342,9.037 C57.784,8.808 57.184,8.44 56.844,7.966 C55.056,5.451 52.823,3.476 49.952,2.372 C40.942,-1.09 32.7,0.55 25.284,6.487 C21.098,9.839 16.578,4.928 15.843,10.007 C15.806,10.275 9.472,15.314 7.654,17.88 C5.954,19.813 4.27,22.008 3.139,24.366 C1.363,28.077 0.629,32.079 0.525,35.479 C0.444,35.883 0.382,36.249 0.37,36.517 C0.345,37.019 0.356,37.426 0.385,37.791 C0.232,41.885 1.74,46.635 3.273,49.194 C3.755,53.918 2.922,59.004 0.188,61.673 C3.332,61.927 6.453,60.164 9.253,57.07 C9.383,59.661 9.103,62.141 8.171,63.869 C12.737,63.295 16.107,54.067 16.806,43.098 C17.648,40.528 18.335,37.804 18.826,34.997 C20.267,39.765 22.01,46.161 21.939,46.741 C21.344,51.589 17.992,56.549 16.191,59.566 C15.008,61.556 14.627,62.007 13.452,63.529 L12.567,63.529 C11.361,65.55 3.267,82.195 2.932,85.488 C2.459,90.083 8.658,116.882 11.294,127.869 C23.041,137.624 49.874,140.791 53.207,140.958 Z" id="Shape"></path>
                </g>
            </g>
        </g>
    </g>
</svg>