<?xml version="1.0" encoding="utf-8"?>
<!-- Generator: Adobe Illustrator 15.1.0, SVG Export Plug-In . SVG Version: 6.00 Build 0)  -->
<!DOCTYPE svg PUBLIC "-//W3C//DTD SVG 1.0//EN" "http://www.w3.org/TR/2001/REC-SVG-20010904/DTD/svg10.dtd">
<svg version="1.0" xmlns="http://www.w3.org/2000/svg" xmlns:xlink="http://www.w3.org/1999/xlink" x="0px" y="0px"
	 width="172.914px" height="172.914px" viewBox="0 0 172.914 172.914" enable-background="new 0 0 172.914 172.914"
	 xml:space="preserve">
<g id="Background_on_white">
</g>
<g id="L">
	<path fill="#FFF200" d="M86.457,170.959c-46.594,0-84.501-37.908-84.501-84.501c0-46.595,37.907-84.502,84.501-84.502
		s84.502,37.907,84.502,84.502C170.959,133.051,133.051,170.959,86.457,170.959z"/>
	<path d="M86.457,170.958c-46.595,0-84.501-37.905-84.501-84.499c0-46.596,37.906-84.503,84.501-84.503s84.501,37.907,84.501,84.503
		C170.958,133.053,133.052,170.958,86.457,170.958z M86.457,8.595c-42.934,0-77.862,34.93-77.862,77.864
		c0,42.933,34.929,77.86,77.862,77.86s77.862-34.928,77.862-77.86C164.319,43.524,129.391,8.595,86.457,8.595z"/>
</g>
<g id="market">
	<g>
		<g>
			<g>
				<g>
					<path d="M126.033,68.5c4.428,0,8.017-3.589,8.017-8.018l-0.005-1.187v-3.783h-1.668H41.084h-2.218v1.641v2.143v1.187
						c0,4.427,3.589,8.018,8.017,8.018c2.098,0,4.004-0.807,5.432-2.124v37.011H41.607v34.805h6.694v-4.686h76.308v4.686h6.693
						v-34.805h-10.709V66.369C122.021,67.689,123.933,68.5,126.033,68.5z M109.99,103.387V90.436H92.589v12.951h-6.026v-6.254
						H61.799v6.254H58.34V67.192c1.259,0.823,2.758,1.308,4.374,1.308c3.341,0,6.207-2.047,7.411-4.96
						c0.231-0.564,0.762-0.605,0.98-0.058c1.185,2.938,4.069,5.018,7.434,5.018c3.37,0,6.251-2.079,7.439-5.018
						c0.219-0.548,0.738-0.548,0.958,0c1.184,2.938,4.068,5.018,7.436,5.018c3.37,0,6.25-2.079,7.435-5.018
						c0.224-0.548,0.738-0.548,0.958,0c1.19,2.938,4.071,5.018,7.438,5.018c1.614,0,3.111-0.486,4.369-1.308v36.194H109.99z"/>
				</g>
			</g>
			<polygon points="45.836,31.812 39.163,51.384 133.749,51.384 127.076,31.812 			"/>
		</g>
	</g>
</g>
</svg>
