<?xml version="1.0" encoding="utf-8"?>
<!-- Generator: Adobe Illustrator 15.1.0, SVG Export Plug-In . SVG Version: 6.00 Build 0)  -->
<!DOCTYPE svg PUBLIC "-//W3C//DTD SVG 1.0//EN" "http://www.w3.org/TR/2001/REC-SVG-20010904/DTD/svg10.dtd">
<svg version="1.0" xmlns="http://www.w3.org/2000/svg" xmlns:xlink="http://www.w3.org/1999/xlink" x="0px" y="0px"
	 width="172.914px" height="172.914px" viewBox="0 0 172.914 172.914" enable-background="new 0 0 172.914 172.914"
	 xml:space="preserve">
<g id="Background_on_white">
</g>
<g id="S">
	<path fill="#FFF200" d="M86.457,170.958c-46.594,0-84.502-37.908-84.502-84.501c0-46.595,37.908-84.502,84.502-84.502
		c46.594,0,84.502,37.907,84.502,84.502C170.959,133.05,133.051,170.958,86.457,170.958z"/>
	<path d="M170.957,86.457c0-14.142-3.508-27.473-9.676-39.196C147.131,20.354,118.91,1.955,86.457,1.955
		c-32.453,0-60.674,18.399-74.826,45.306c-1.086,2.066-2.107,4.173-3.024,6.336c-0.063,0.148-0.116,0.302-0.179,0.45
		c-4.162,9.986-6.473,20.933-6.473,32.41l0,0v0.001c0,46.594,37.906,84.499,84.502,84.499
		C133.051,170.957,170.957,133.052,170.957,86.457L170.957,86.457L170.957,86.457z M161.045,86.458
		c0,41.127-33.461,74.587-74.588,74.587c-41.129,0-74.59-33.46-74.59-74.587c0-41.129,33.461-74.591,74.59-74.591
		C127.584,11.867,161.045,45.329,161.045,86.458z"/>
</g>
<g id="side_x5F_boy_x5F_cap">
	<path d="M88.957,165.791c-0.395-2.773-1.679-10.744-2.201-13.503c-0.038-0.204,0.783-0.83,1.927-1.583
		c0.858-0.479,1.476-0.832,1.613-0.932c1.045-0.759,9.531-4.653,9.852-4.781c0.352-0.14,6.72-0.228,7.468-0.218
		c1.003,0.013,2.036-0.38,2.548-0.81c0.321-0.269,0.401-0.62,0.258-1.183c-0.108-0.24-0.073-0.662,0.144-0.771
		c0.948-0.64,1.371-0.589,2.272-1.139c0.781-0.396,1.101-0.981,0.864-1.686c-0.056-0.168-0.117-0.312-0.121-0.487
		c0.377-0.161,0.74-0.317,1.105-0.477c0.641-0.282,0.937-0.919,0.82-1.509c-0.088-0.432-0.563-0.975-0.473-1.526
		c0.039-0.231,0.685-0.804,0.917-0.938c0.726-0.414,0.963-0.993,0.705-1.777c-0.013-0.042-0.081-0.504-0.679-0.93
		c0.113-0.117,3.717-3.428,4.222-3.946c0.288-0.294-0.869-1.206-1.163-1.265c-0.162-0.031-5.301,4.632-6.721,5.839
		c-0.291,0.244-0.76,0.362-1.175,0.478c-0.467,0.123-0.612,0.22-1.106,0.267c-0.969,0.091-3.877,0.305-4.365,0.297
		c-0.345-0.009-0.706-0.092-1.056-0.169c-0.295-0.063-0.248-0.305-0.269-0.465c-0.013-0.113,0.09-0.271,0.2-0.322
		c0.451-0.218,0.928-0.396,1.385-0.603c0.142-0.064,0.238-0.189,0.371-0.269c0.066-0.038,0.186-0.082,0.254-0.052
		c0.403,0.168,0.624,0.13,0.994,0.055c0.151-0.028,0.546-0.046,0.703-0.038c1.013,0.054,2.313-0.599,2.508-1.408
		c0.032-0.132,0.058-0.27,0.051-0.404c-0.029-0.377-0.274-0.587-0.707-0.604c-0.542-0.02-1.078-0.007-1.618-0.039
		c-0.637-0.038-1.272-0.188-1.873-0.434c-0.866-0.357-1.626-0.382-2.369,0.031c-0.518,0.291-1.117,0.489-1.691,0.715
		c-0.747,0.292-1.499,0.581-2.26,0.854c-0.534,0.191-0.875,0.506-1.116,0.956c-0.267,0.504-0.607,0.977-0.977,1.427
		c-0.734,0.896-1.508,1.771-2.277,2.649c-0.723,0.819-1.594,1.503-2.568,2.105c-0.928,0.575-1.773,1.24-2.674,1.851
		c-0.565,0.38-1.16,0.732-1.744,1.098c-0.247,0.155-0.491,0.314-0.736,0.475c-1.27,0.439-2.446,0.845-3.06,1.057
		c-0.178-0.998-0.235-2.545-0.341-3.305c-1.047-7.525-2.924-14.893-4.23-22.375c-0.569-3.257-1.765-6.402-2.674-9.599
		c-0.747-2.623-3.501-10.356-3.974-11.562c0.96-0.21,1.59-0.352,2.554-0.562c-1.394-2.954-4.329-4.426-6.153-6.852
		c-0.019-2.34,1.22-3.68,4.537-4.812c0.866,0.749,1.736,1.58,2.681,2.312c2.708,2.099,4.843,2.112,7.807,0.342
		c0.986-0.589,2.188-0.82,3.431-0.929c1.46-1.14,2.92-2.278,4.653-3.629c0.038,0.02,0.426,0.292,0.856,0.446
		c1.377,0.503,2.403,0.015,2.77-1.413c0.267-1.022,0.357-2.094,0.491-3.147c0.334-2.665,1.052-5.086,3.321-6.869
		c0.842-0.66,1.412-1.739,1.943-2.712c1.016-1.864,1.914-3.792,2.853-5.675c4.891-2.664,3.884-9.373-1.842-13.683
		c-0.648-2.575-1.234-4.952-1.854-7.314c-0.065-0.252-0.314-0.48-0.531-0.655c-2.416-1.955-4.809-3.944-7.279-5.832
		c-1.789-1.369-3.83-2.078-6.14-2.003c-2.625,0.084-5.252,0.06-7.877,0.068c-0.563,0-1.138-0.002-1.684-0.112
		c-1.976-0.404-2.333-0.271-3.021,0.832c-4.282,2.132-7.995,4.002-11.73,5.825c-1.972,0.963-2.697,2.605-2.725,4.66
		c-0.014,0.921,0.024,1.846,0.118,2.76c0.213,2.043,0.355,4.102,0.753,6.108c0.352,1.777,0.384,3.454,0.73,5.886
		c-0.586,0.235-2.932,1.005-3.644,1.215c-3.325,0.978-4.113,1.088-7.432,2.077c-0.641,0.192-1.214,0.613-1.725,1.206
		c3.267,1.078,9.475-1.055,12.455-1.376c0.455,1.78-0.348,3.471-1.852,6.05c-1.551,2.72-3.554,5.421-6.148,7.697
		c-1.108,0.974-2.036,2.156-3.005,3.278c-2.353,2.726-4.819,5.351-6.345,8.705c-2.912,6.395-5.547,12.927-6.824,19.816
		c-0.672,3.624-0.241,7.502,0.03,11.241c0.231,3.163-0.66,27.341-0.618,30.503C44.041,156.791,71.895,168.772,88.957,165.791z"/>
</g>
</svg>
