<?xml version="1.0" encoding="utf-8"?>
<!-- Generator: Adobe Illustrator 15.1.0, SVG Export Plug-In . SVG Version: 6.00 Build 0)  -->
<!DOCTYPE svg PUBLIC "-//W3C//DTD SVG 1.0//EN" "http://www.w3.org/TR/2001/REC-SVG-20010904/DTD/svg10.dtd">
<svg version="1.0" xmlns="http://www.w3.org/2000/svg" xmlns:xlink="http://www.w3.org/1999/xlink" x="0px" y="0px"
	 width="172.914px" height="172.914px" viewBox="0 0 172.914 172.914" enable-background="new 0 0 172.914 172.914"
	 xml:space="preserve">
<g id="Background_on_white">
</g>
<g id="L">
	<path fill="#FFF200" d="M86.457,170.959c-46.594,0-84.501-37.908-84.501-84.501c0-46.595,37.907-84.502,84.501-84.502
		s84.502,37.907,84.502,84.502C170.959,133.051,133.051,170.959,86.457,170.959z"/>
	<path d="M86.457,170.958c-46.595,0-84.501-37.905-84.501-84.499c0-46.596,37.906-84.503,84.501-84.503s84.501,37.907,84.501,84.503
		C170.958,133.053,133.052,170.958,86.457,170.958z M86.457,8.595c-42.934,0-77.862,34.93-77.862,77.864
		c0,42.933,34.929,77.86,77.862,77.86s77.862-34.928,77.862-77.86C164.319,43.524,129.391,8.595,86.457,8.595z"/>
</g>
<g id="social_x5F_mail">
	<g>
		<g>
			<g>
				<g>
					<path d="M86.477,99.866L74.869,89.692l-33.142,28.402c1.205,1.146,2.811,1.83,4.612,1.83h80.237
						c1.797,0,3.397-0.684,4.608-1.83L98.039,89.692L86.477,99.866z"/>
				</g>
			</g>
			<g>
				<g>
					<path d="M131.186,54.823c-1.175-1.146-2.812-1.834-4.608-1.834H46.342c-1.768,0-3.409,0.688-4.614,1.834l44.749,38.336
						L131.186,54.823z"/>
				</g>
			</g>
		</g>
		<polygon points="39.604,58.872 39.604,114.474 71.958,86.978 		"/>
		<polygon points="100.953,86.978 133.311,114.474 133.311,58.835 		"/>
	</g>
</g>
</svg>
