<?xml version="1.0" encoding="utf-8"?>
<!-- Generator: Adobe Illustrator 15.1.0, SVG Export Plug-In . SVG Version: 6.00 Build 0)  -->
<!DOCTYPE svg PUBLIC "-//W3C//DTD SVG 1.0//EN" "http://www.w3.org/TR/2001/REC-SVG-20010904/DTD/svg10.dtd">
<svg version="1.0" xmlns="http://www.w3.org/2000/svg" xmlns:xlink="http://www.w3.org/1999/xlink" x="0px" y="0px"
	 width="172.914px" height="172.914px" viewBox="0 0 172.914 172.914" enable-background="new 0 0 172.914 172.914"
	 xml:space="preserve">
<g id="Background_on_white">
</g>
<g id="M">
	<path fill="#FFF200" d="M86.457,170.958c-46.594,0-84.502-37.908-84.502-84.501c0-46.595,37.908-84.502,84.502-84.502
		c46.594,0,84.502,37.907,84.502,84.502C170.959,133.05,133.051,170.958,86.457,170.958z"/>
	<path d="M170.957,86.457c0,46.594-37.906,84.5-84.5,84.5c-46.594,0-84.502-37.906-84.502-84.5
		c0-46.595,37.908-84.502,84.502-84.502C133.051,1.955,170.957,39.862,170.957,86.457z M162.453,86.457
		c0-41.905-34.092-75.998-75.997-75.998c-41.906,0-75.998,34.093-75.998,75.998c0,41.904,34.092,75.996,75.998,75.996
		C128.361,162.453,162.453,128.361,162.453,86.457z"/>
</g>
<g id="service_x5F_concierge">
	<g>
		<path d="M159.332,118.814h-26.52v3.295h-7.659h-0.902h-8.176v27.662h8.176v1.26h7.456
			C143.531,143.048,153.329,131.896,159.332,118.814z"/>
		<path d="M35.94,99.375c-0.603,0.522-0.873,1.339-0.811,2.41l0.2,0.603c0,0,0.566,0.947,2.845,1.517l8.541,11.009
			c0,0,3.794,3.608,8.73,5.319c0,0,5.943,2.99,7.401,4.936c1.617,2.156,2.541,4.73,9.491,5.122
			c4.604,0.262,18.118,6.603,21.801,8.569c4.253,2.262,9.354,3.545,16.468,5.32v-20.825c-1.982-0.396-3.853-0.919-5.438-1.604
			c0,0-0.671-8.86-19.548-16.702c-6.414-2.661-9.086-4.458-10.746-5.716h28.864c0,0,6.502,0.126,8.18-0.894
			c1.285-0.777,2.446-4.421,2.446-4.421H99.193v-1.34c-13.559,0-13.001-6.785-13.001-6.785V64.569
			c-0.057-1.673,0.079-2.106,0.42-2.702c5.309-9.107,24.534-34.3,24.534-34.3h-8.04h-0.743h-0.891H85.349H67.83h-8.49
			c0,0,19.222,25.192,24.532,34.3c0.345,0.596,0.479,1.029,0.421,2.702v21.324c0,0,0.558,6.785-13.001,6.785v1.34H7.707
			c0.173,1.791,0.145,3.561,0.438,5.314h27.852C35.978,99.348,35.958,99.358,35.94,99.375z M81.509,54.812L68.765,37.055h33.118
			L88.757,55.004c-0.837,1.02-2.105,1.67-3.533,1.67h-0.038C83.685,56.665,82.35,55.932,81.509,54.812z M53.82,99.333h11.526
			c-0.024,0.899,0.347,2.088,1.292,3.632c1.143,1.865,4.068,3.31,8.16,6.454c0.426,0.331,2.363,2.58,1.289,3.292l-0.191,0.173
			c-0.627,0.884-2.006,2.187-4.884,2.775c-0.578-0.146-8.96-2.301-11.886-3.394c-0.45-0.393-6.264-5.457-8.729-5.891
			c-0.23-0.276-1.584-1.897-3.374-3.532c-1.94-1.777-3.68-2.948-5.2-3.51H53.82z"/>
	</g>
</g>
</svg>
