<?xml version="1.0" encoding="utf-8"?>
<!-- Generator: Adobe Illustrator 15.1.0, SVG Export Plug-In . SVG Version: 6.00 Build 0)  -->
<!DOCTYPE svg PUBLIC "-//W3C//DTD SVG 1.0//EN" "http://www.w3.org/TR/2001/REC-SVG-20010904/DTD/svg10.dtd">
<svg version="1.0" xmlns="http://www.w3.org/2000/svg" xmlns:xlink="http://www.w3.org/1999/xlink" x="0px" y="0px"
	 width="172.914px" height="172.914px" viewBox="0 0 172.914 172.914" enable-background="new 0 0 172.914 172.914"
	 xml:space="preserve">
<g id="Background_on_white">
</g>
<g id="S">
	<path fill="#FFF200" d="M86.457,170.958c-46.594,0-84.502-37.908-84.502-84.501c0-46.595,37.908-84.502,84.502-84.502
		c46.594,0,84.502,37.907,84.502,84.502C170.959,133.05,133.051,170.958,86.457,170.958z"/>
	<path d="M170.957,86.457c0-14.142-3.508-27.473-9.676-39.196C147.131,20.354,118.91,1.955,86.457,1.955
		c-32.453,0-60.674,18.399-74.826,45.306c-1.086,2.066-2.107,4.173-3.024,6.336c-0.063,0.148-0.116,0.302-0.179,0.45
		c-4.162,9.986-6.473,20.933-6.473,32.41l0,0v0.001c0,46.594,37.906,84.499,84.502,84.499
		C133.051,170.957,170.957,133.052,170.957,86.457L170.957,86.457L170.957,86.457z M161.045,86.458
		c0,41.127-33.461,74.587-74.588,74.587c-41.129,0-74.59-33.46-74.59-74.587c0-41.129,33.461-74.591,74.59-74.591
		C127.584,11.867,161.045,45.329,161.045,86.458z"/>
</g>
<g id="front_x5F_guy_x5F_beard">
	<path d="M149.565,140.721c-0.279-2.077-6.273-8.878-7.866-9.479c-8.047-4.275-22.686-9.612-22.686-9.612l-7.818-3.626
		c-0.126-0.101-0.244-0.2-0.334-0.288c-0.009,0.037-0.019,0.083-0.027,0.12l-3.824-0.007c0,0-4.117,7.906-6.822,10.271
		c-2.266,1.979-11.393,4.01-14.481,4.381c-2.558,0.312-6.291-0.997-8.736-1.755c-2.258-0.701-6.73-2.623-8.356-4.233
		c-1.843-1.825-4.46-8.606-4.875-9.702c-0.011-0.104-0.018-0.168-0.018-0.168c-0.01,0.013-0.024,0.02-0.035,0.026
		c-0.002-0.005-0.01-0.026-0.01-0.026l-2.368,1.847c-7.131,4.43-30.141,12.953-30.141,12.953s-7.177,4.09-9.422,6.944
		c-2.246,2.855,48.708,29.43,48.708,29.43s7.15,0,23.168,0C109.64,167.797,149.849,142.797,149.565,140.721z"/>
	<g>
		<g>
			<g>
				<g>
					<path d="M99.093,75.334c-0.925,0.051-1.867,0.081-2.81,0.154c-1.332,0.104-2.646,0.312-3.923,0.719
						c-0.583,0.186-1.052,0.527-1.394,1.033c-0.6,0.885-0.732,1.893-0.713,2.924c0.021,1.344,0.39,2.617,0.811,3.877
						c0.207,0.606,0.582,1.07,1.094,1.424c1.167,0.803,2.479,1.192,3.879,1.237c1.034,0.032,2.07-0.018,3.102-0.073
						c0.821-0.047,1.647-0.104,2.452-0.252c1.039-0.189,1.937-0.667,2.513-1.593c0.219-0.355,0.359-0.754,0.542-1.13
						c0.521-1.084,0.715-2.253,0.886-3.425c0.119-0.825,0.172-1.652,0.01-2.477c-0.172-0.864-0.636-1.52-1.492-1.785
						c-0.681-0.21-1.382-0.387-2.091-0.468C101.015,75.39,100.062,75.384,99.093,75.334 M75.394,86.567c0-0.017,0-0.028,0.001-0.042
						c0.879-0.045,1.755-0.095,2.635-0.133c1.835-0.078,3.092-0.987,3.803-2.66c0.377-0.888,0.57-1.829,0.695-2.777
						c0.09-0.688,0.185-1.377,0.182-2.07c-0.002-0.939-0.385-1.733-1.151-2.314c-0.413-0.313-0.879-0.521-1.376-0.653
						c-1.854-0.502-3.745-0.712-5.658-0.74c-1.745-0.025-3.47,0.139-5.179,0.493c-1.133,0.237-1.91,0.847-2.125,2.029
						c-0.06,0.338-0.076,0.69-0.069,1.037c0.013,0.603,0.055,1.202,0.091,1.805c0.056,0.943,0.152,1.882,0.472,2.779
						c0.336,0.941,0.811,1.792,1.732,2.282c0.895,0.476,1.838,0.837,2.863,0.885C73.337,86.534,74.367,86.542,75.394,86.567
						 M63.448,78.574c0-0.734-0.001-1.466,0-2.195c0.001-0.447,0.009-0.895,0.002-1.342c-0.001-0.129,0.034-0.179,0.167-0.209
						c1.384-0.322,2.783-0.55,4.193-0.711c2.698-0.309,5.407-0.394,8.119-0.246c2.528,0.135,5.018,0.514,7.47,1.163
						c1.564,0.414,3.163,0.623,4.784,0.433c0.529-0.063,1.047-0.235,1.567-0.371c1.396-0.37,2.813-0.596,4.245-0.769
						c2.315-0.281,4.637-0.368,6.965-0.354c1.68,0.015,3.363,0.087,5.036,0.283c0.958,0.111,1.912,0.243,2.839,0.535
						c0.15,0.047,0.211,0.104,0.211,0.273c0,1.152,0.017,2.3,0.02,3.451c0,0.057-0.037,0.134-0.084,0.172
						c-1.245,1.033-2.104,2.32-2.61,3.859c-0.273,0.83-0.626,1.629-1.143,2.348c-0.892,1.253-2.121,1.995-3.62,2.207
						c-1.076,0.152-2.176,0.175-3.264,0.237c-1.344,0.074-2.683,0.013-4.017-0.184c-1.002-0.146-1.967-0.43-2.822-1
						c-0.547-0.364-0.944-0.846-1.193-1.457c-0.63-1.53-1.075-3.122-1.481-4.727c-0.073-0.286-0.145-0.577-0.225-0.864
						c-0.113-0.414-0.395-0.693-0.777-0.848c-1.03-0.411-2.042-0.338-3.017,0.181c-0.324,0.171-0.528,0.448-0.634,0.813
						c-0.35,1.205-0.714,2.406-1.074,3.608c-0.17,0.569-0.284,1.162-0.527,1.7c-0.513,1.146-1.457,1.823-2.642,2.172
						c-0.996,0.295-2.026,0.413-3.058,0.505c-1.772,0.15-3.546,0.132-5.314-0.055c-0.66-0.067-1.329-0.122-1.963-0.348
						c-1.151-0.41-1.967-1.214-2.517-2.269c-0.401-0.77-0.703-1.593-1.046-2.394c-0.372-0.868-0.751-1.73-1.303-2.509
						C64.401,79.201,64.03,78.774,63.448,78.574"/>
				</g>
			</g>
		</g>
	</g>
	<g>
		<g>
			<g>
				<g>
					<path d="M80.012,97.367H79.52c0,2.082,3.018,3.77,6.737,3.77c3.72,0,6.737-1.688,6.737-3.77h-0.493
						c-0.999,1.383-3.416,2.359-6.246,2.359C83.43,99.727,81.011,98.75,80.012,97.367"/>
				</g>
			</g>
		</g>
	</g>
	<g>
		<g>
			<g>
				<g>
					<path d="M73.188,91.502c-0.947-0.918-1.834-0.711-2.119,0.358c-0.21,0.799-0.219,2.103,0.333,2.473
						c0.873,0.583,2.34,0.882,3.472,0.755c2.359-0.264,3.763-1.897,5.205-3.345c2.162-2.176,2.948-2.357,6.064-1.435
						c0.292,0.085,0.725-0.055,1.043-0.179c1.808-0.706,3.471-0.493,4.846,0.715c0.939,0.828,1.839,1.69,2.722,2.564
						c1.58,1.567,4.315,2.246,6.385,1.312c0.592-0.267,1.001-1.226,1.034-1.882c0.023-0.6-0.498-1.273-0.961-1.792
						c-0.121-0.136-0.929,0.175-1.789,0.359c0.515-0.438,0.933-1.058,1.269-1.028c0.81,0.075,1.888,0.257,2.312,0.74
						c1.906,2.191,0.847,6.055-2.438,7.129c-2.503,0.818-4.71,0.246-6.541-0.767c-3.458-1.905-7.151-1.735-10.884-1.554
						c-1.064,0.054-2.088,0.704-3.129,1.087c-1.596,0.584-3.141,1.313-4.796,1.716c-1.906,0.466-5.298-1.365-5.656-3.031
						c-0.262-1.217-0.412-2.563-0.046-3.722c0.22-0.695,1.459-1.267,2.383-1.633c0.336-0.132,1.084,0.497,1.643,0.776
						C73.425,91.254,73.308,91.378,73.188,91.502"/>
				</g>
			</g>
		</g>
	</g>
	<g>
		<g>
			<g>
				<g>
					<path d="M115.378,57.334c-0.062-0.132-0.094-0.312-0.042-0.439c0.293-0.709,0.281-1.308,0.066-1.857
						c0-0.001,0-0.005-0.001-0.007c-0.155-0.76-1.526-1.878-1.532-1.885c0-0.001,0-0.001,0-0.001l-1.077-1.979
						c0.144-0.868,0.172-1.767,0.296-2.643c0.024-0.171,0.053-0.34,0.086-0.51c0.029-0.152,0.062-0.304,0.102-0.453
						c0.744-2.801-0.276-5.138-2.082-7.288c1.309-1.437,1.309-1.437-1.064-3.468c1.918-0.746,2.332-2.337,0.832-3.325
						c0.163-0.366,0.333-0.739,0.492-1.115c1.079-2.545,0.386-3.72-2.664-4.531c-1.346-0.356-2.688-0.73-4.045-1.062
						c-4.463-1.092-8.918-2.208-13.401-3.228c-2.141-0.487-4.056-0.058-5.601,1.429c-0.531,0.513-1.298,0.851-1.958,1.265
						c-1.887,1.184-3.831,2.308-5.646,3.567c-2.052,1.419-4.046,2.913-5.956,4.472c-1.56,1.273-3.232,2.54-4.369,4.072
						c-1.842,2.485-3.458,5.093-5.092,7.688c-0.313,0.178-0.6,0.356-0.85,0.531c-3.509,2.45-3.267,7.057-3.258,7.244
						c-0.259,0.503-0.548,0.981-0.906,1.415c-1.353,1.648-1.95,3.355-1.755,5.22c0.438,4.139,1.11,8.265,1.642,12.397
						c0.163,1.255,0.729,1.99,2.413,1.645c0.041,0.686,0.052,1.287,0.12,1.882c0.066,0.576,0.192,1.147,0.292,1.718
						c0.187,0.048,0.373,0.095,0.559,0.139c-1.182-8.736,4.169-13.265,13.538-15.274c-0.012-0.01-0.02-0.019-0.03-0.029
						c0.846-0.161,1.684-0.342,2.491-0.543c6.671-1.474,13.434-2.367,20.167-0.461c2.622,0.738,4.749,0.907,6.592-1.073
						c0.104-0.111,0.235-0.204,0.355-0.305c0,0.001,0.002,0.001,0.004,0.001c-0.836,0.805-1.674,1.604-2.664,2.557
						c8.332,2.474,11.447,7.606,10.732,14.762c0.205-0.031,0.404-0.059,0.605-0.094c0.177-2.271,0.356-4.544,0.53-6.812
						c0.162,0.001,0.319,0.002,0.478,0.002c0.076,1.073,0.152,2.14,0.23,3.21c0.194,0.042,0.393,0.083,0.585,0.123
						c0.456-0.704,1.29-1.398,1.31-2.111C116.049,67.229,117.676,62.226,115.378,57.334"/>
				</g>
			</g>
		</g>
	</g>
	<g>
		<g>
			<g>
				<g>
					<path d="M111.232,82.05c0,0-3.965,10.646-4.878,12.363c-0.159,0.299-0.313,0.718-0.458,1.203
						c-1.271,1.686-2.542,3.373-3.863,5.128c-0.137-0.593-0.231-0.983-0.359-1.52c-1.589,3.52-1.589,3.52-4.773,2.812
						c-0.586,0.408-1.127,0.787-1.865,1.302c-0.183-0.671-0.283-1.04-0.389-1.419c-0.568,0.551-0.954,1.086-1.501,1.428
						c-1.718,1.066-3.623,1.94-4.133,3.942c-0.119,0.464-0.546,0.892-0.905,1.282c-1.152,1.256-2.166,1.308-3.24,0.023
						c-0.743-0.888-1.203-1.944-1.818-2.911c-0.207-0.324-0.426-0.687-0.755-0.899c-1.338-0.87-2.721-1.688-4.071-2.519
						c-0.062,0.128-0.241,0.488-0.485,0.989c-1.031-0.584-1.705-1.403-3.146-1.088c-1.947,0.424-2.441-0.025-2.872-1.792
						c-0.071-0.294-0.176-0.586-0.288-0.867c-0.019-0.047-0.142-0.065-0.227-0.101c-0.093,0.384-0.18,0.748-0.315,1.306
						c-1.491-1.944-2.874-3.749-4.246-5.538c-0.473-0.896-1.809-4.306-2.944-7.264c-0.36-1.084-0.721-2.171-1.085-3.252
						c-0.174-0.517-0.474-1.007-0.718-1.513c-0.804,4.117,1.011,11.796,2.257,16.296c0.225,1.211,0.5,2.408,1.038,3.502
						c0.008,0.024,0.014,0.039,0.014,0.039l0.005-0.002c0.029,0.058,0.055,0.124,0.086,0.182c1.713,3.222,3.094,6.607,5.927,9.362
						c1.869,1.817,3.287,3.966,5.052,5.867c2.021,2.175,5.124,2.995,7.889,4.208c0.27,0.119,0.787-0.017,1.101-0.169
						c0.609-0.29,1.771-0.272,2.446,0.039c0.302,0.141,0.794,0.208,1.095,0.097c3.894-1.415,7.528-3.2,10.091-6.152
						c1.79-2.059,3.494-4.202,4.894-6.465c1.467-2.375,2.818-4.828,3.906-7.348h0.002c0,0,0-0.003,0.002-0.009
						c0.141-0.329,0.282-0.659,0.411-0.989c0.287-0.712,0.456-1.46,0.584-2.221C110.043,94.779,112.17,86.377,111.232,82.05"/>
				</g>
			</g>
		</g>
	</g>
</g>
</svg>
