<?xml version="1.0" encoding="UTF-8" standalone="no"?>
<svg width="170px" height="170px" viewBox="0 0 170 170" version="1.1" xmlns="http://www.w3.org/2000/svg" xmlns:xlink="http://www.w3.org/1999/xlink">
    <!-- Generator: Sketch 41.2 (35397) - http://www.bohemiancoding.com/sketch -->
    <title>vi_icon_service_self_RGB_M</title>
    <desc>Created with Sketch.</desc>
    <defs></defs>
    <g id="Page-1" stroke="none" stroke-width="1" fill="none" fill-rule="evenodd">
        <g id="vi_icon_service_self_RGB_M">
            <g id="Group">
                <g id="M">
                    <path d="M85.455,168.955 C39.413498,168.955 1.955,131.49628 1.955,85.4554941 C1.955,39.4127315 39.413498,1.955 85.455,1.955 C131.496502,1.955 168.955,39.4127315 168.955,85.4554941 C168.955,131.49628 131.496502,168.955 85.455,168.955 Z" id="Shape" fill="#FFF200"></path>
                    <path d="M169.957,85.457 C169.957,132.051 132.051,169.957 85.457,169.957 C38.863,169.957 0.955,132.051 0.955,85.457 C0.955,38.862 38.863,0.955 85.457,0.955 C132.051,0.955 169.957,38.862 169.957,85.457 Z M161.453,85.457 C161.453,43.552 127.361,9.459 85.456,9.459 C43.55,9.459 9.458,43.552 9.458,85.457 C9.458,127.361 43.55,161.453 85.456,161.453 C127.361,161.453 161.453,127.361 161.453,85.457 Z" id="Shape" fill="#000000"></path>
                </g>
                <g id="service_x5F_self" transform="translate(42.000000, 19.000000)" fill="#000000">
                    <g id="Group">
                        <path d="M77.412,16.568 C76.726,16.297 76.438,15.947 76.283,15.165 C75.997,13.739 75.596,12.283 74.94,10.996 C72.888,6.936 69.54,4.222 65.402,2.486 C59.723,0.103 53.982,-0.173 48.271,2.385 C45.585,3.589 43.455,5.488 41.937,8.134 C38.321,5.877 34.55,4.353 30.477,3.583 C23.123,2.19 16.123,3.051 9.719,7.111 C4.626,10.338 1.289,14.906 0.484,20.94 C-0.772,30.343 3.54,37.42 10.533,43.09 C13.287,45.323 16.501,46.944 19.94,47.976 C20.673,48.193 20.823,48.57 20.821,49.276 C20.799,55.84 20.812,62.406 20.817,68.967 L20.817,70.228 C36.767,63.944 52.584,64.312 68.489,70.408 L68.489,42.402 C71.29,41.75 73.986,41.336 76.533,40.474 C80.05,39.284 83.029,37.264 85.002,33.93 C87.511,29.677 87.151,24.747 83.925,21.011 C82.146,18.951 79.917,17.553 77.412,16.568 Z" id="Shape"></path>
                        <polygon id="Shape" points="36.417 120.537 25.809 120.537 25.809 126.905 36.418 120.538 61.11 135.829 61.11 120.537 36.419 120.537"></polygon>
                        <path d="M43.456,102.613 C46.447,102.634 49.38,103.022 52.185,104.57 C54.34,105.758 56.946,106.437 59.897,105.471 C63.768,104.202 65.018,99.648 62.768,97.063 C62.273,96.496 61.56,95.983 60.622,95.983 C59.684,95.983 58.56,97.024 58.56,97.899 C59.227,97.211 59.768,96.981 60.656,96.981 C61.518,96.981 61.785,97.733 61.785,99.094 C61.785,100.455 61.271,100.997 60.573,101.309 C58.131,102.409 54.907,101.613 53.046,99.764 C52.006,98.73 50.943,97.717 49.839,96.741 C48.218,95.318 46.257,95.066 44.128,95.899 C43.927,95.978 43.689,96.059 43.457,96.105 C43.225,96.059 42.986,95.978 42.786,95.899 C40.657,95.066 38.697,95.318 37.075,96.741 C35.971,97.718 34.909,98.73 33.868,99.764 C32.007,101.613 28.784,102.409 26.341,101.309 C25.644,100.997 25.13,100.455 25.13,99.094 C25.13,97.733 25.396,96.981 26.259,96.981 C27.146,96.981 27.687,97.211 28.355,97.899 C28.355,97.024 27.23,95.983 26.293,95.983 C25.356,95.983 24.642,96.496 24.147,97.063 C21.897,99.648 23.148,104.203 27.019,105.471 C29.97,106.437 32.575,105.758 34.731,104.57 C37.531,103.022 40.465,102.634 43.456,102.613 Z" id="Shape"></path>
                    </g>
                </g>
            </g>
        </g>
    </g>
</svg>