<?xml version="1.0" encoding="utf-8"?>
<!-- Generator: Adobe Illustrator 15.1.0, SVG Export Plug-In . SVG Version: 6.00 Build 0)  -->
<!DOCTYPE svg PUBLIC "-//W3C//DTD SVG 1.0//EN" "http://www.w3.org/TR/2001/REC-SVG-20010904/DTD/svg10.dtd">
<svg version="1.0" xmlns="http://www.w3.org/2000/svg" xmlns:xlink="http://www.w3.org/1999/xlink" x="0px" y="0px"
	 width="172.914px" height="172.914px" viewBox="0 0 172.914 172.914" enable-background="new 0 0 172.914 172.914"
	 xml:space="preserve">
<g id="Background_on_white">
</g>
<g id="S">
	<path fill="#FFF200" d="M86.457,170.958c-46.594,0-84.502-37.908-84.502-84.501c0-46.595,37.908-84.502,84.502-84.502
		c46.594,0,84.502,37.907,84.502,84.502C170.959,133.05,133.051,170.958,86.457,170.958z"/>
	<path d="M170.957,86.457c0-14.142-3.508-27.473-9.676-39.196C147.131,20.354,118.91,1.955,86.457,1.955
		c-32.453,0-60.674,18.399-74.826,45.306c-1.086,2.066-2.107,4.173-3.024,6.336c-0.063,0.148-0.116,0.302-0.179,0.45
		c-4.162,9.986-6.473,20.933-6.473,32.41l0,0v0.001c0,46.594,37.906,84.499,84.502,84.499
		C133.051,170.957,170.957,133.052,170.957,86.457L170.957,86.457L170.957,86.457z M161.045,86.458
		c0,41.127-33.461,74.587-74.588,74.587c-41.129,0-74.59-33.46-74.59-74.587c0-41.129,33.461-74.591,74.59-74.591
		C127.584,11.867,161.045,45.329,161.045,86.458z"/>
</g>
<g id="side_x5F_girl_x5F_bun">
	<path d="M125.168,128.961c-0.147-0.057-6.089,3.919-7.712,4.935c-0.331,0.21-0.805,0.257-1.229,0.311
		c-0.471,0.059-0.631,0.133-1.117,0.106c-0.948-0.048-3.785-0.261-4.252-0.345c-0.328-0.06-0.656-0.196-0.974-0.326
		c-0.267-0.109-0.171-0.349-0.155-0.512c0.01-0.117,0.143-0.263,0.262-0.3c0.479-0.153,0.975-0.263,1.458-0.404
		c0.149-0.047,0.267-0.159,0.413-0.22c0.073-0.031,0.197-0.054,0.257-0.015c0.346,0.231,0.57,0.225,0.938,0.203
		c0.15-0.008,0.533,0.032,0.685,0.065c0.961,0.207,2.348-0.264,2.712-1.056c0.059-0.13,0.112-0.268,0.132-0.407
		c0.059-0.385-0.132-0.637-0.544-0.715c-0.512-0.1-1.031-0.169-1.543-0.28c-0.604-0.133-1.181-0.38-1.7-0.718
		c-0.754-0.491-1.474-0.629-2.275-0.319c-0.562,0.217-1.181,0.329-1.777,0.474c-0.781,0.187-1.563,0.37-2.353,0.532
		c-0.552,0.117-0.949,0.385-1.278,0.81c-0.365,0.468-0.793,0.901-1.243,1.302c-0.904,0.801-1.836,1.577-2.765,2.354
		c-0.868,0.726-1.854,1.29-2.919,1.76c-1.015,0.446-1.971,0.997-2.964,1.48c-0.626,0.305-1.272,0.575-1.911,0.858
		c-0.523,0.234-1.041,0.476-1.562,0.709c-3.556,0.978-7.086,1.871-6.98,1.607c1.086-2.731,4.558-14.372,2.374-19.798
		c-0.809-2.014-5.618-7.642-9.738-12.55c-3.61-5.296-9.492-14.509-9.766-15.053c0.091-0.146,0.167-0.28,0.233-0.413l-2.478-1.793
		c0.032-0.067,0.046-0.137,0.086-0.2c0.391-0.621,0.737-1.27,1.143-1.877c0.449-0.678,0.905-1.358,1.433-1.974
		c0.508-0.59,1.205-0.761,1.941-0.448c0.77,0.329,1.522,0.692,2.272,1.067c1.354,0.674,2.759,1.208,4.232,1.552
		c0.571,0.135,1.138,0.3,1.716,0.367c1.547,0.174,2.925-0.221,3.97-1.426c0.35-0.402,0.699-0.878,0.83-1.378
		c0.222-0.849,0.814-1.238,1.52-1.523c0.381-0.153,0.809-0.214,1.222-0.255c0.71-0.066,1.156-0.399,1.324-1.108
		c0.086-0.365,0.121-0.742,0.191-1.177c0.46-0.19,0.936-0.39,1.414-0.587c0.328-0.137,0.68-0.232,0.982-0.41
		c0.855-0.5,1.005-1.312,0.357-2.04c-0.265-0.3-0.349-0.604-0.324-0.969c0.023-0.333,0.046-0.668,0.084-1
		c0.049-0.417,0.266-0.681,0.693-0.774c0.345-0.076,0.689-0.18,1.025-0.291c0.83-0.271,1.515-0.717,1.828-1.584
		c0.18-0.506,0.149-0.972-0.202-1.417c-1.062-1.345-1.591-2.91-1.664-4.591c-0.063-1.46,0.224-2.879,1.026-4.146
		c0.701-1.11,1.108-2.339,1.438-3.595c0.308-1.175,0.596-2.354,0.881-3.534c0.349-1.446,0.311-2.908,0.132-4.367
		c-0.308-2.547-1.173-4.919-2.387-7.164c-0.347-0.641-0.777-1.234-1.162-1.854c-0.093-0.156-0.177-0.328-0.218-0.505
		c-0.082-0.343-0.1-0.7-0.196-1.035c-0.133-0.463-0.2-0.926-0.229-1.408c-0.021-0.341-0.111-0.728-0.303-1.001
		c-0.415-0.598-0.909-1.141-1.387-1.692c-0.121-0.135-0.313-0.204-0.464-0.317c-0.13-0.099-0.28-0.192-0.368-0.324
		c-0.34-0.5-0.675-1.004-0.971-1.529c-0.257-0.45-0.595-0.793-1.012-1.091c-0.354-0.251-0.66-0.568-0.991-0.852
		c-0.207-0.177-0.4-0.375-0.628-0.51c-0.505-0.298-1.027-0.567-1.542-0.839c-0.517-0.273-1.044-0.5-1.642-0.584
		c-0.553-0.077-1.084-0.292-1.632-0.433c-0.238-0.062-0.489-0.102-0.736-0.132c-0.374-0.046-0.749-0.086-1.123-0.109
		c-1.104-0.073-2.074-0.535-3.066-0.974c-0.736-0.325-1.546-0.489-2.332-0.699c-0.524-0.139-1.059-0.257-1.596-0.337
		c-0.264-0.04-0.412-0.157-0.53-0.373c-0.1-0.184-0.214-0.357-0.321-0.536c0.196-0.783,0.17-0.846-0.529-1.154
		c0.048-0.381,0.125-0.801-0.448-0.938c0.134-0.244,0.232-0.446,0.352-0.636c0.278-0.438,0.324-0.901,0.088-1.351
		c-0.226-0.43-0.37-0.896-0.722-1.277c-0.29-0.31-0.234-0.36-0.62-0.447c-0.138-0.396-0.312-0.768-0.389-1.154
		c-0.107-0.545-0.35-0.952-0.804-1.291c-0.305-0.229-0.518-0.562-0.666-0.956c-0.207-0.55-0.714-0.789-1.269-0.919
		c-0.45-0.106-0.474-0.161-0.492-0.63c-0.017-0.441-0.232-0.757-0.619-0.987c-0.254-0.15-0.608-0.207-0.689-0.58
		c-0.009-0.045-0.091-0.088-0.146-0.111c-0.724-0.299-1.085-0.904-1.365-1.587c-0.13-0.318-0.331-0.543-0.718-0.622
		c-0.418-0.084-0.814-0.281-1.219-0.433c-0.038-0.013-0.089-0.033-0.104-0.063c-0.287-0.613-0.876-0.55-1.395-0.597
		c-0.296-0.026-0.481-0.114-0.673-0.354c-0.248-0.313-0.47-0.721-0.952-0.743c-0.514-0.024-1.038,0.072-1.526-0.177
		c-0.016-0.008-0.041,0.003-0.061,0.006c-0.628,0.066-0.733,0.05-1.217-0.271c-0.384-0.255-0.777-0.304-1.242-0.243
		c-0.609,0.08-1.224,0.244-1.858,0.04c-0.175-0.056-0.42,0.095-0.701,0.168c-0.139-0.146-0.308-0.215-0.489-0.258
		c-6.068,3.795-11.587,8.379-16.405,13.624c-0.03,0.039-0.063,0.079-0.08,0.124c-0.074,0.208-0.131,0.426-0.176,0.644
		c-0.091,0.445-0.025,0.943-0.648,1.115c-0.401,0.11-0.224,0.526-0.257,0.854c-0.296,0.162-0.53,0.373-0.372,0.784
		c0.039,0.1-0.036,0.243-0.066,0.364c-0.094,0.371-0.208,0.739,0.201,1.017c0.056,0.038,0.057,0.148,0.092,0.222
		c0.109,0.231,0.223,0.461,0.372,0.769c0.024,0.115,0.069,0.327,0.119,0.538c0.02,0.079,0.097,0.188,0.07,0.229
		c-0.279,0.397,0.02,0.806-0.032,1.21c-0.035,0.285,0.021,0.565-0.234,0.808c-0.1,0.098-0.1,0.359-0.061,0.526
		c0.153,0.654,0.4,1.295,0.494,1.957c0.081,0.594,0.358,0.909,0.914,1.012c0.035,0.199,0.038,0.387,0.103,0.55
		c0.199,0.501,0.156,0.991,0.053,1.513c-0.101,0.518-0.316,1.067-0.017,1.589c0.178,0.312,0.411,0.593,0.704,1.01
		c-0.028,0.348,0.085,0.776,0.601,1.065c0.159,0.087,0.223,0.427,0.246,0.661c0.07,0.728,0.367,1.343,0.835,1.884
		c0.088,0.104,0.234,0.163,0.357,0.237c0.216,0.127,0.446,0.231,0.648,0.375c0.319,0.226,0.625,0.364,1.045,0.25
		c0.432-0.116,1.062,0.268,1.182,0.702c0.088,0.321,0.269,0.55,0.55,0.634c0.519,0.152,0.917,0.612,1.542,0.521
		c0.247-0.036,0.531,0.197,0.712,0.272c0.266,0.336,0.479,0.609,0.628,0.799c0.157,0.398,0.284,0.717,0.405,1.036
		c0.043,0.11,0.114,0.227,0.11,0.336c-0.029,0.541-0.09,1.079-0.11,1.619c-0.007,0.204-0.001,0.467,0.116,0.6
		c0.306,0.349,0.347,0.732,0.324,1.159c-0.006,0.121,0.013,0.261,0.068,0.367c0.276,0.524,0.577,1.036,0.851,1.562
		c0.082,0.156,0.157,0.348,0.142,0.515c-0.102,1.165-0.27,2.326-0.33,3.491c-0.034,0.68,0.054,1.373,0.162,2.049
		c0.098,0.616,0.275,1.223,0.458,1.821c0.194,0.639,0.526,1.203,0.917,1.757c0.506,0.716,1.032,1.4,1.638,2.038
		c0.42,0.442,0.666,1.045,1.017,1.558c0.235,0.343,0.489,0.683,0.786,0.972c0.657,0.639,1.113,1.413,1.553,2.196
		c0.556,0.988,0.415,2.023,0.135,3.055c-0.234,0.871-0.575,1.694-1.045,2.476c-0.614,1.02-1.108,2.114-1.747,3.115
		c-0.533,0.834-1.064,1.67-1.604,2.5c-1.218,1.556-0.495,0.515-2.168,3.079l-0.83-0.015c-1.1,2.141-7.78,18.518-8.042,22.032
		c-0.313,4.102,4.328,34.973,6.14,46.338c11.457,10.159,23.324,10.844,39.25,13c0.041-1.338,0.598-12.97,1.073-14.939
		c2.696-1.242,9.981-4.482,10.489-4.751c1.169-0.616,10.151-3.312,10.486-3.394c0.367-0.091,6.487,0.764,7.201,0.883
		c0.96,0.163,2.036-0.08,2.622-0.441c0.367-0.227,0.519-0.573,0.502-1.166c-0.051-0.257,0.076-0.683,0.307-0.761
		c1.049-0.51,1.444-0.396,2.427-0.819c0.834-0.285,1.268-0.833,1.193-1.584c-0.018-0.181-0.042-0.337-0.007-0.513
		c0.392-0.107,0.779-0.213,1.161-0.322c0.676-0.192,1.098-0.791,1.114-1.407c0.01-0.453-0.326-1.077-0.119-1.624
		c0.089-0.229,0.829-0.716,1.081-0.816c0.79-0.317,1.141-0.868,1.067-1.702c-0.006-0.042,0.027-0.524-0.451-1.046
		c0.132-0.102,4.31-2.93,4.907-3.382C126.349,130.162,125.438,129.062,125.168,128.961z"/>
</g>
</svg>
