<?xml version="1.0" encoding="utf-8"?>
<!-- Generator: Adobe Illustrator 15.1.0, SVG Export Plug-In . SVG Version: 6.00 Build 0)  -->
<!DOCTYPE svg PUBLIC "-//W3C//DTD SVG 1.1//EN" "http://www.w3.org/Graphics/SVG/1.1/DTD/svg11.dtd">
<svg version="1.1" xmlns="http://www.w3.org/2000/svg" xmlns:xlink="http://www.w3.org/1999/xlink" x="0px" y="0px"
	 width="80.441px" height="80.442px" viewBox="0 0 80.441 80.442" enable-background="new 0 0 80.441 80.442" xml:space="preserve">
<g id="Ebene_2">
</g>
<g id="Ebene_1">
	<g>
		<polygon fill="#FFF200" points="67.841,80.184 71.642,80.184 71.642,79.213 68.933,79.213 68.933,77.402 71.214,77.402 
			71.214,76.475 68.933,76.475 68.933,74.924 71.56,74.924 71.56,73.951 67.841,73.951 		"/>
		<path fill="#FFF200" d="M18.274,79.273c0.41,0.626,1.168,1.006,2.167,1.006c0.962,0,1.746-0.354,2.177-0.99
			c0.354-0.525,0.447-1.214,0.447-2.135v-3.203h-1.059v3.221c0,0.681-0.049,1.145-0.248,1.48c-0.225,0.389-0.62,0.629-1.275,0.629
			c-0.725,0-1.109-0.293-1.318-0.653c-0.178-0.32-0.24-0.739-0.24-1.474v-3.203h-1.09v3.272
			C17.835,78.067,17.928,78.756,18.274,79.273"/>
		<polygon fill="#FFF200" points="6.747,80.184 10.55,80.184 10.55,79.213 7.838,79.213 7.838,77.403 10.12,77.403 10.12,76.475 
			7.838,76.475 7.838,74.924 10.463,74.924 10.463,73.951 6.747,73.951 		"/>
		<polygon fill="#FFF200" points="64.376,41.704 65.983,43.32 68.231,42.906 67.194,44.938 68.278,46.946 66.028,46.588 
			64.452,48.241 64.097,45.987 62.036,45.003 64.073,43.967 		"/>
		<polygon fill="#FFF200" points="76.673,52.226 77.304,53.538 78.745,53.762 77.694,54.767 77.923,56.205 76.642,55.515 
			75.347,56.181 75.606,54.748 74.575,53.721 76.017,53.525 		"/>
		<polygon fill="#FFF200" points="71.159,42.066 74.136,44.121 77.513,42.837 76.479,46.298 78.745,49.112 75.134,49.199 
			73.157,52.226 71.956,48.816 68.466,47.87 71.339,45.678 		"/>
		<path fill="#FFF200" d="M50.47,44.534c-1.85,4.376-10.773,4.016-13.283-0.212v2.984H28.8v-3.324
			c0.48-0.037,0.938-0.073,1.502-0.118c0-1.263,0.051-2.499-0.023-3.724c-0.053-0.938-0.762-1.277-1.615-1.313
			c-1.094-0.049-2.062,0.627-2.176,1.676c-0.107,1.087-0.021,2.193-0.021,3.346c0.518,0.048,1.006,0.092,1.539,0.139V47.3h-8.525
			v-3.327c0.5-0.039,0.953-0.074,1.463-0.113v-4.973c-0.505-0.047-0.963-0.09-1.465-0.138V35.38h6.732v2.078
			c0.26-0.185,0.395-0.257,0.504-0.36c1.961-1.947,4.311-2.002,6.734-1.232c1.59,0.502,2.273,1.798,2.297,3.426
			c0.021,1.509,0.004,3.01,0.004,4.571h1.102c-0.09-0.899-0.26-1.759-0.248-2.616c0.037-2.408,1.467-4.323,3.9-5.197
			c2.383-0.855,4.797-0.992,7.172,0.015c1.863,0.787,3.014,2.52,2.928,4.373c-1.469,0.161-2.949,0.324-4.473,0.493
			c-0.09-0.468-0.143-0.861-0.238-1.243c-0.23-0.88-0.779-1.386-1.73-1.374c-0.949,0.015-1.719,0.431-1.836,1.381
			c-0.146,1.181-0.164,2.404-0.039,3.589c0.098,0.924,0.822,1.444,1.777,1.467c0.951,0.021,1.717-0.298,2.006-1.316
			c0.045-0.157,0.107-0.309,0.162-0.463h4.541c-0.084,0.521-0.158,0.971-0.23,1.421C50.513,44.438,50.491,44.486,50.47,44.534"/>
		<path fill="#FFF200" d="M18.867,35.322h-0.958H16.93v8.54c0.618,0.034,1.237,0.068,1.927,0.107v3.354H8.014v-3.377h1.884v-8.598
			H8.007v-3.621h10.86V35.322z"/>
		<path fill="#FFF200" d="M50.47,44.534c0.021-0.048,0.043-0.096,0.072-0.144c0.58-0.291,1.135-0.754,1.748-0.835
			c1.139-0.153,1.988,0.729,1.998,1.865c0.012,1.174-0.879,2.036-2.043,1.986c-1.1-0.045-1.926-0.96-1.871-2.074
			C50.386,45.065,50.438,44.801,50.47,44.534"/>
		<path fill="#FFF200" d="M70.675,55.716c-0.965-3.412-2.928-5.924-6.549-6.63c-3.865-0.76-7.348-0.038-9.91,3.294
			c-0.061,0.081-0.119,0.164-0.18,0.248c-4.748-5.169-10.16-5.221-15.406-0.161c-1.633-2.399-3.957-3.533-6.801-3.7
			c-2.793-0.167-5.309,0.535-7.506,2.557c0.064-0.769,0.111-1.361,0.167-2.016H8.112c-0.404,3.915-0.81,7.86-1.224,11.896
			c1.794,0.217,3.483,0.442,5.177,0.607c0.224,0.021,0.518-0.228,0.709-0.423c1.096-1.101,3.288-1.225,4.527-0.229
			c1.225,0.981,1.522,3.245,0.607,4.706c-0.807,1.291-2.717,1.894-4.073,1.069c-0.638-0.39-1.024-1.223-1.437-1.91
			c-0.174-0.285-0.113-0.712-0.167-1.141c-2.194,0.161-4.349,0.32-6.499,0.479v0.805c0.062,0.111,0.159,0.214,0.182,0.33
			c0.887,4.235,4.166,5.737,7.227,6.126c0.289,0.037,0.568,0.128,0.854,0.196h2.418c0.615-0.121,1.229-0.248,1.841-0.357
			c2.081-0.377,3.829-1.346,5.265-3.04c1.535,2.048,3.67,2.894,5.994,3.397h2.418c0.604-0.159,1.213-0.303,1.811-0.481
			c1.576-0.474,2.367-0.998,4.299-2.916h0.668c1.379,1.838,3.326,2.806,5.514,3.397h3.629c0.859-0.325,1.801-0.515,2.559-1.001
			c1.088-0.699,2.08-1.554,3.129-2.396h0.58c1.258,1.794,3.234,2.751,5.416,3.397h3.631c0.75-0.261,1.52-0.463,2.238-0.789
			c3.453-1.562,4.898-4.539,5.598-8.033c0.062-0.286,0.148-0.568,0.225-0.852v-4.434C71.042,57.045,70.862,56.38,70.675,55.716z
			 M21.473,57.066c-2.935-1.396-5.861-1.374-8.918-0.309c0.101-0.986,0.195-1.872,0.288-2.815h9.626
			C22.147,54.957,21.828,55.957,21.473,57.066z M30.747,67.536c-2.029,0-3.672-3.326-3.672-7.429c0-4.106,1.643-7.432,3.672-7.432
			c2.027,0,3.668,3.325,3.668,7.432C34.415,64.21,32.774,67.536,30.747,67.536z M46.261,67.536c-2.029,0-3.674-3.326-3.674-7.429
			c0-4.106,1.645-7.432,3.674-7.432c2.027,0,3.67,3.325,3.67,7.432C49.931,64.21,48.288,67.536,46.261,67.536z M61.909,67.536
			c-2.029,0-3.674-3.326-3.674-7.429c0-4.106,1.645-7.432,3.674-7.432c2.027,0,3.674,3.325,3.674,7.432
			C65.583,64.21,63.937,67.536,61.909,67.536z"/>
		<g>
			<path fill="#FFF200" d="M59.624,74.28c-0.52-0.286-1.178-0.329-1.85-0.329h-1.738v6.232h1.094v-2.341h0.535
				c0.861,0,1.533-0.07,2.037-0.371c0.52-0.308,0.873-0.851,0.873-1.584C60.575,75.104,60.169,74.571,59.624,74.28z M59.042,76.732
				c-0.289,0.173-0.652,0.199-1.291,0.199H57.13v-2.008h0.602c0.535,0,0.934,0.008,1.242,0.163c0.318,0.155,0.506,0.43,0.506,0.835
				C59.479,76.303,59.315,76.569,59.042,76.732z"/>
			<path fill="#FFF200" d="M45.499,73.856c-1.834,0-3.207,1.394-3.207,3.212c0,1.815,1.373,3.211,3.207,3.211
				c1.836,0,3.211-1.396,3.211-3.211C48.71,75.25,47.335,73.856,45.499,73.856z M45.499,79.281c-1.211,0-2.117-0.974-2.117-2.213
				s0.906-2.213,2.117-2.213c1.213,0,2.121,0.974,2.121,2.213S46.712,79.281,45.499,79.281z"/>
			<path fill="#FFF200" d="M35.103,75.776c0-0.741-0.389-1.239-0.896-1.514c-0.492-0.269-1.109-0.312-1.744-0.312h-1.82v6.232h1.094
				v-2.574h0.834l1.742,2.574h1.281l-1.879-2.694C34.593,77.275,35.103,76.621,35.103,75.776z M32.603,76.768h-0.867v-1.844h0.66
				c0.545,0,0.889,0.026,1.166,0.172c0.275,0.146,0.447,0.379,0.447,0.75c0,0.309-0.119,0.524-0.316,0.672
				C33.44,76.697,33.104,76.768,32.603,76.768z"/>
		</g>
	</g>
	<path fill="#FFF200" d="M9.23,5.933l0.424-1.46H7.979l0.924-3.229h-1.57L6.414,4.473H4.654L5.58,1.244H4.015L3.087,4.473H1.411
		l-0.422,1.46h1.679L2.101,7.905H0.423L0,9.362h1.676L0.75,12.59h1.57l0.923-3.228H5L4.078,12.59h1.565l0.926-3.228h1.676
		l0.424-1.458H6.991l0.565-1.972H9.23z M5.425,7.905H3.667l0.565-1.972h1.754L5.425,7.905z"/>
	<polygon fill="#FFF200" points="23.164,0 12.138,3.761 12.138,9.808 16.541,8.328 16.541,19.541 12.927,19.541 12.927,23.681 
		26.357,23.681 26.357,19.541 23.164,19.541 	"/>
	<path fill="#FFF200" d="M42.994,3.25C41.451,1.125,39.041,0,36.017,0c-3.022,0-5.433,1.125-6.979,3.25
		c-1.413,1.929-2.024,4.661-2.024,8.744c0,4.085,0.612,6.816,2.024,8.745c1.547,2.124,3.958,3.25,6.979,3.25
		c3.024,0,5.435-1.126,6.977-3.25c1.413-1.929,2.027-4.66,2.027-8.745C45.021,7.911,44.406,5.178,42.994,3.25z M37.785,17.233
		c-0.319,0.58-0.836,0.998-1.769,0.998c-0.933,0-1.448-0.418-1.769-0.998c-0.48-0.835-0.612-2.505-0.612-5.24
		c0-2.733,0.131-4.406,0.612-5.241c0.321-0.579,0.835-0.997,1.769-0.997c0.933,0,1.45,0.418,1.769,0.997
		c0.48,0.835,0.611,2.508,0.611,5.242C38.396,14.728,38.266,16.398,37.785,17.233z"/>
	<g>
		<path fill="#FFF200" d="M50.674,0c0.644,0,1.182,0.523,1.182,1.167s-0.538,1.168-1.182,1.168c-0.642,0-1.18-0.524-1.18-1.168
			S50.032,0,50.674,0z M49.656,3.261h2.039V9.86h-2.039V3.261z"/>
		<path fill="#FFF200" d="M53.387,3.261H55.4v0.603l0.025,0.014c0.51-0.417,1.208-0.767,2.041-0.767
			c0.695,0,1.314,0.242,1.729,0.672c0.401,0.429,0.577,1.006,0.577,1.958V9.86h-2.039V6.078c0-0.497-0.069-0.739-0.229-0.926
			c-0.176-0.202-0.418-0.284-0.697-0.284c-0.524,0-1.021,0.27-1.383,0.552v4.44h-2.039V3.261z"/>
	</g>
	<g>
		<path fill="#FFF200" d="M52.459,18.716c0.954-1.275,1.45-1.987,1.45-2.737c0-0.806-0.591-1.275-1.436-1.275
			c-0.767,0-1.612,0.416-2.281,1.048v-2.054c0.538-0.455,1.381-0.898,2.509-0.898c1.852,0,3.367,1.167,3.367,2.992
			c0,1.1-0.547,2.12-1.529,3.435l-1.166,1.542l0.012,0.026h3.031v1.866h-6.91l-0.012-0.026L52.459,18.716z"/>
		<path fill="#FFF200" d="M58.607,21.493c-0.605-0.832-0.887-1.987-0.887-3.69c0-1.705,0.282-2.858,0.887-3.69
			c0.63-0.857,1.609-1.314,2.683-1.314c1.085,0,2.053,0.457,2.685,1.314c0.601,0.832,0.885,1.987,0.885,3.69
			s-0.284,2.858-0.885,3.69c-0.632,0.858-1.6,1.313-2.685,1.313C60.216,22.807,59.237,22.351,58.607,21.493z M62.266,20.38
			c0.323-0.458,0.459-1.222,0.459-2.59c0-1.221-0.108-2.066-0.459-2.562c-0.212-0.309-0.531-0.523-0.977-0.523
			c-0.429,0-0.764,0.214-0.979,0.523c-0.337,0.482-0.458,1.342-0.458,2.589c0,1.328,0.134,2.105,0.458,2.563
			c0.214,0.295,0.549,0.522,0.979,0.522C61.735,20.902,62.054,20.675,62.266,20.38z"/>
		<path fill="#FFF200" d="M68.348,15.509l-1.974,0.71v-1.931l4.106-1.489v9.861h-2.133V15.509z"/>
		<path fill="#FFF200" d="M78.694,12.946l-2.615,3.877l0.027,0.013c0.266-0.16,0.645-0.28,1.166-0.28
			c1.609,0,2.965,1.247,2.965,3.018c0,1.866-1.543,3.233-3.622,3.233c-2.011,0-3.608-1.261-3.608-3.395
			c0-1.072,0.362-1.971,1.21-3.246l2.104-3.22H78.694z M76.656,21.022c0.804,0,1.476-0.577,1.476-1.409
			c0-0.792-0.605-1.421-1.462-1.421c-0.791,0-1.477,0.549-1.477,1.381C75.193,20.325,75.77,21.022,76.656,21.022z"/>
	</g>
</g>
</svg>
