<?xml version="1.0" encoding="UTF-8" standalone="no"?>
<svg width="170px" height="170px" viewBox="0 0 170 170" version="1.1" xmlns="http://www.w3.org/2000/svg" xmlns:xlink="http://www.w3.org/1999/xlink">
    <!-- Generator: Sketch 41.2 (35397) - http://www.bohemiancoding.com/sketch -->
    <title>vi_icon_socmed_googleplus_RGB_M</title>
    <desc>Created with Sketch.</desc>
    <defs></defs>
    <g id="Page-1" stroke="none" stroke-width="1" fill="none" fill-rule="evenodd">
        <g id="vi_icon_socmed_googleplus_RGB_M">
            <g id="Group">
                <g id="M">
                    <path d="M85.455,168.955 C39.413498,168.955 1.955,131.49628 1.955,85.4554941 C1.955,39.4127315 39.413498,1.955 85.455,1.955 C131.496502,1.955 168.955,39.4127315 168.955,85.4554941 C168.955,131.49628 131.496502,168.955 85.455,168.955 Z" id="Shape" fill="#FFF200"></path>
                    <path d="M169.957,85.457 C169.957,132.051 132.051,169.957 85.457,169.957 C38.863,169.957 0.955,132.051 0.955,85.457 C0.955,38.862 38.863,0.955 85.457,0.955 C132.051,0.955 169.957,38.862 169.957,85.457 Z M161.453,85.457 C161.453,43.552 127.361,9.459 85.456,9.459 C43.55,9.459 9.458,43.552 9.458,85.457 C9.458,127.361 43.55,161.453 85.456,161.453 C127.361,161.453 161.453,127.361 161.453,85.457 Z" id="Shape" fill="#000000"></path>
                </g>
                <g id="social_x5F_googleplus" transform="translate(20.000000, 44.000000)" fill="#000000">
                    <g id="Group">
                        <path d="M81.39,33.288 L41.764,33.288 L41.764,49.629 C41.764,49.629 57.614,49.605 64.071,49.605 C60.577,60.2 55.139,65.965 41.764,65.965 C28.227,65.965 17.66,54.988 17.66,41.457 C17.66,27.923 28.226,16.949 41.764,16.949 C48.919,16.949 53.543,19.464 57.783,22.969 C61.176,19.577 60.892,19.096 69.53,10.938 C62.201,4.267 52.456,0.2 41.766,0.2 C18.978,0.2 0.508,18.671 0.508,41.458 C0.508,64.245 18.978,82.716 41.766,82.716 C75.824,82.715 84.15,53.061 81.39,33.288" id="Shape"></path>
                        <polygon id="Shape" points="116.11 34.104 116.11 19.808 105.898 19.808 105.898 34.104 91.191 34.104 91.191 44.317 105.898 44.317 105.898 59.022 116.11 59.022 116.11 44.317 130.406 44.317 130.406 34.104"></polygon>
                    </g>
                </g>
            </g>
        </g>
    </g>
</svg>