<?xml version="1.0" encoding="utf-8"?>
<!-- Generator: Adobe Illustrator 15.1.0, SVG Export Plug-In . SVG Version: 6.00 Build 0)  -->
<!DOCTYPE svg PUBLIC "-//W3C//DTD SVG 1.0//EN" "http://www.w3.org/TR/2001/REC-SVG-20010904/DTD/svg10.dtd">
<svg version="1.0" xmlns="http://www.w3.org/2000/svg" xmlns:xlink="http://www.w3.org/1999/xlink" x="0px" y="0px"
	 width="172.914px" height="172.914px" viewBox="0 0 172.914 172.914" enable-background="new 0 0 172.914 172.914"
	 xml:space="preserve">
<g id="Background_on_white">
</g>
<g id="S">
	<path fill="#FFF200" d="M86.457,170.958c-46.594,0-84.502-37.908-84.502-84.501c0-46.595,37.908-84.502,84.502-84.502
		c46.594,0,84.502,37.907,84.502,84.502C170.959,133.05,133.051,170.958,86.457,170.958z"/>
	<path d="M170.957,86.457c0-14.142-3.508-27.473-9.676-39.196C147.131,20.354,118.91,1.955,86.457,1.955
		c-32.453,0-60.674,18.399-74.826,45.306c-1.086,2.066-2.107,4.173-3.024,6.336c-0.063,0.148-0.116,0.302-0.179,0.45
		c-4.162,9.986-6.473,20.933-6.473,32.41l0,0v0.001c0,46.594,37.906,84.499,84.502,84.499
		C133.051,170.957,170.957,133.052,170.957,86.457L170.957,86.457L170.957,86.457z M161.045,86.458
		c0,41.127-33.461,74.587-74.588,74.587c-41.129,0-74.59-33.46-74.59-74.587c0-41.129,33.461-74.591,74.59-74.591
		C127.584,11.867,161.045,45.329,161.045,86.458z"/>
</g>
<g id="vi_x5F_player">
	<g>
		<path d="M132.04,77.871c-1.082-1.458-0.943-2.255,0.35-3.499c0.287-0.275,0.576-0.551,0.859-0.829
			c0.938-0.918,1.416-0.91,2.242,0.148c0.955,1.229,1.936,2.451,2.752,3.771c0.338,0.55,0.307,1.344,0.402,2.033
			c0.207,1.524,0.145,3.029-0.605,4.816c-1.041-0.975-1.99-1.758-2.818-2.656C134.104,80.443,133.021,79.191,132.04,77.871z
			 M36.006,92.477c-0.684-0.827-1.48-1.559-2.35-2.461c-0.739,1.535-0.864,2.852-0.754,4.202c0.051,0.608-0.014,1.302,0.26,1.801
			c0.655,1.196,1.46,2.315,2.242,3.437c0.674,0.967,1.094,0.994,1.959,0.231c0.263-0.231,0.528-0.458,0.793-0.688
			c1.193-1.031,1.35-1.724,0.469-3.054C37.825,94.74,36.93,93.592,36.006,92.477z M121.226,86.456
			c0,19.055-15.449,34.505-34.504,34.505c-19.057,0-34.504-15.449-34.504-34.505c0-19.054,15.447-34.504,34.504-34.504
			C105.776,51.952,121.226,67.4,121.226,86.456z M98.356,86.456L79.059,73.122v26.669L98.356,86.456z M163.645,101.082
			c-0.807-0.609-3.899-3.033-4.718-3.625c-2.078-1.498-4.396-2.146-7.059-2.15c-2.34-0.001-4.678-0.75-7.018-1.166
			c-0.539-0.097-1.072-0.236-1.615-0.287c-2.158-0.197-4.316-0.383-6.479-0.543c-1.494-0.107-2.994-0.176-4.49-0.232
			c-1.057-0.045-1.984-0.278-2.621-1.232c-0.541-0.807-1.438-0.956-2.314-1.141c-0.688-0.143-1.367-0.326-2.035-0.548
			c-0.582-0.192-1.162-0.571-0.998-1.231c0.119-0.481,0.551-1.141,0.965-1.252c1.975-0.531,3.979-1.02,6.002-1.281
			c1.201-0.154,2.467,0.109,3.695,0.248c1.971,0.218,3.545-0.734,4.279-2.559c0.922-2.287,0.486-4.573,0.105-6.866
			c-0.027-0.163-0.152-0.32-0.262-0.456c-0.59-0.739-1.295-1.41-1.762-2.219c-0.852-1.469-2.195-2.297-3.51-3.267
			c-1.691-1.244-3.303-1.438-5.25-0.783c-1.107,0.374-2.354,0.381-3.543,0.449c-0.557,0.031-1.174-0.087-1.689-0.308
			c-0.943-0.408-1.037-1.059-0.334-1.801c0.271-0.287,0.594-0.533,0.912-0.768c2.092-1.552,4.197-3.086,6.283-4.645
			c1.072-0.801,2.119-0.873,3.328-0.231c2.461,1.308,4.977,2.515,7.457,3.789c0.457,0.235,0.807,0.227,1.26-0.043
			c0.6-0.356,1.25-0.653,1.91-0.883c1.318-0.454,1.934-0.189,2.875,0.829c2.928,3.173,5.871,6.334,8.859,9.447
			c1.826,1.9,3.646,3.826,5.658,5.52c0.26,0.218,3.083,2.373,3.356,2.578C166.676,90.551,163.645,101.082,163.645,101.082z
			 M9.041,71.687c1.451,1.251,5.397,4.632,6.892,5.833c1.754,1.41,3.758,2.088,6.094,2.213c2.055,0.109,4.072,0.873,6.105,1.349
			c0.469,0.108,0.931,0.257,1.402,0.324c1.887,0.272,3.772,0.536,5.661,0.774c1.307,0.163,2.618,0.292,3.931,0.412
			c0.924,0.086,1.728,0.335,2.244,1.199c0.438,0.733,1.217,0.906,1.979,1.108c0.595,0.158,1.186,0.35,1.758,0.573
			c0.501,0.195,0.995,0.555,0.82,1.129c-0.125,0.416-0.533,0.976-0.904,1.052c-1.757,0.374-3.537,0.712-5.326,0.849
			c-1.061,0.08-2.158-0.211-3.23-0.388c-1.721-0.282-3.145,0.481-3.873,2.047c-0.914,1.966-0.639,3.991-0.408,6.022
			c0.017,0.145,0.119,0.287,0.209,0.411c0.484,0.676,1.07,1.296,1.444,2.026c0.68,1.33,1.819,2.117,2.929,3.028
			c1.428,1.171,2.834,1.415,4.57,0.93c0.989-0.276,2.082-0.227,3.129-0.231c0.492-0.002,1.027,0.129,1.471,0.349
			c0.809,0.403,0.861,0.976,0.209,1.596c-0.252,0.238-0.545,0.439-0.835,0.631c-1.907,1.267-3.824,2.516-5.728,3.786
			c-0.977,0.655-1.9,0.67-2.932,0.053c-2.1-1.261-4.25-2.437-6.368-3.669c-0.393-0.229-0.698-0.233-1.106-0.021
			c-0.545,0.286-1.127,0.517-1.719,0.687c-1.178,0.337-1.707,0.079-2.484-0.859c-2.424-2.919-4.86-5.825-7.34-8.695
			c-1.514-1.753-3.025-3.527-4.713-5.105c-0.734-0.687-3.895-3.004-4.734-3.579C6.498,81.915,9.041,71.687,9.041,71.687z"/>
	</g>
</g>
</svg>
