<?xml version="1.0" encoding="utf-8"?>
<!-- Generator: Adobe Illustrator 15.1.0, SVG Export Plug-In . SVG Version: 6.00 Build 0)  -->
<!DOCTYPE svg PUBLIC "-//W3C//DTD SVG 1.0//EN" "http://www.w3.org/TR/2001/REC-SVG-20010904/DTD/svg10.dtd">
<svg version="1.0" xmlns="http://www.w3.org/2000/svg" xmlns:xlink="http://www.w3.org/1999/xlink" x="0px" y="0px"
	 width="172.914px" height="172.914px" viewBox="0 0 172.914 172.914" enable-background="new 0 0 172.914 172.914"
	 xml:space="preserve">
<g id="Background_on_white">
</g>
<g id="L">
	<path fill="#FFF200" d="M86.457,170.959c-46.594,0-84.501-37.908-84.501-84.501c0-46.595,37.907-84.502,84.501-84.502
		s84.502,37.907,84.502,84.502C170.959,133.051,133.051,170.959,86.457,170.959z"/>
	<path d="M86.457,170.958c-46.595,0-84.501-37.905-84.501-84.499c0-46.596,37.906-84.503,84.501-84.503s84.501,37.907,84.501,84.503
		C170.958,133.053,133.052,170.958,86.457,170.958z M86.457,8.595c-42.934,0-77.862,34.93-77.862,77.864
		c0,42.933,34.929,77.86,77.862,77.86s77.862-34.928,77.862-77.86C164.319,43.524,129.391,8.595,86.457,8.595z"/>
</g>
<g id="social_x5F_googleplus">
	<g>
		<g>
			<g>
				<g>
					<path d="M102.39,78.288H62.764v16.341c0,0,15.85-0.024,22.307-0.024c-3.494,10.595-8.932,16.36-22.307,16.36
						c-13.537,0-24.104-10.977-24.104-24.508c0-13.534,10.566-24.508,24.104-24.508c7.155,0,11.779,2.515,16.019,6.02
						c3.393-3.392,3.109-3.873,11.747-12.031c-7.329-6.671-17.074-10.738-27.764-10.738c-22.788,0-41.258,18.471-41.258,41.258
						s18.47,41.258,41.258,41.258C96.824,127.715,105.15,98.061,102.39,78.288"/>
				</g>
			</g>
		</g>
		<polygon points="137.11,79.104 137.11,64.808 126.898,64.808 126.898,79.104 112.191,79.104 112.191,89.317 126.898,89.317 
			126.898,104.022 137.11,104.022 137.11,89.317 151.406,89.317 151.406,79.104 		"/>
	</g>
</g>
</svg>
