<?xml version="1.0" encoding="utf-8"?>
<!-- Generator: Adobe Illustrator 15.1.0, SVG Export Plug-In . SVG Version: 6.00 Build 0)  -->
<!DOCTYPE svg PUBLIC "-//W3C//DTD SVG 1.0//EN" "http://www.w3.org/TR/2001/REC-SVG-20010904/DTD/svg10.dtd">
<svg version="1.0" xmlns="http://www.w3.org/2000/svg" xmlns:xlink="http://www.w3.org/1999/xlink" x="0px" y="0px"
	 width="172.914px" height="172.914px" viewBox="0 0 172.914 172.914" enable-background="new 0 0 172.914 172.914"
	 xml:space="preserve">
<g id="Background_on_white">
</g>
<g id="S">
	<path fill="#FFF200" d="M86.457,170.958c-46.594,0-84.502-37.908-84.502-84.501c0-46.595,37.908-84.502,84.502-84.502
		c46.594,0,84.502,37.907,84.502,84.502C170.959,133.05,133.051,170.958,86.457,170.958z"/>
	<path d="M170.957,86.457c0-14.142-3.508-27.473-9.676-39.196C147.131,20.354,118.91,1.955,86.457,1.955
		c-32.453,0-60.674,18.399-74.826,45.306c-1.086,2.066-2.107,4.173-3.024,6.336c-0.063,0.148-0.116,0.302-0.179,0.45
		c-4.162,9.986-6.473,20.933-6.473,32.41l0,0v0.001c0,46.594,37.906,84.499,84.502,84.499
		C133.051,170.957,170.957,133.052,170.957,86.457L170.957,86.457L170.957,86.457z M161.045,86.458
		c0,41.127-33.461,74.587-74.588,74.587c-41.129,0-74.59-33.46-74.59-74.587c0-41.129,33.461-74.591,74.59-74.591
		C127.584,11.867,161.045,45.329,161.045,86.458z"/>
</g>
<g id="market">
	<g>
		<g>
			<g>
				<g>
					<path d="M126.033,68.5c4.428,0,8.017-3.589,8.017-8.018l-0.005-1.187v-3.783h-1.668H41.084h-2.218v1.641v2.143v1.187
						c0,4.427,3.589,8.018,8.017,8.018c2.098,0,4.004-0.807,5.432-2.124v37.011H41.607v34.805h6.694v-4.686h76.308v4.686h6.693
						v-34.805h-10.709V66.369C122.021,67.689,123.933,68.5,126.033,68.5z M109.99,103.387V90.436H92.589v12.951h-6.026v-6.254
						H61.799v6.254H58.34V67.192c1.259,0.823,2.758,1.308,4.374,1.308c3.341,0,6.207-2.047,7.411-4.96
						c0.231-0.564,0.762-0.605,0.98-0.058c1.185,2.938,4.069,5.018,7.434,5.018c3.37,0,6.251-2.079,7.439-5.018
						c0.219-0.548,0.738-0.548,0.958,0c1.184,2.938,4.068,5.018,7.436,5.018c3.37,0,6.25-2.079,7.435-5.018
						c0.224-0.548,0.738-0.548,0.958,0c1.19,2.938,4.071,5.018,7.438,5.018c1.614,0,3.111-0.486,4.369-1.308v36.194H109.99z"/>
				</g>
			</g>
			<polygon points="45.836,31.812 39.163,51.384 133.749,51.384 127.076,31.812 			"/>
		</g>
	</g>
</g>
</svg>
