<?xml version="1.0" encoding="utf-8"?>
<!-- Generator: Adobe Illustrator 15.1.0, SVG Export Plug-In . SVG Version: 6.00 Build 0)  -->
<!DOCTYPE svg PUBLIC "-//W3C//DTD SVG 1.0//EN" "http://www.w3.org/TR/2001/REC-SVG-20010904/DTD/svg10.dtd">
<svg version="1.0" xmlns="http://www.w3.org/2000/svg" xmlns:xlink="http://www.w3.org/1999/xlink" x="0px" y="0px"
	 width="172.914px" height="172.914px" viewBox="0 0 172.914 172.914" enable-background="new 0 0 172.914 172.914"
	 xml:space="preserve">
<g id="Background_on_white">
</g>
<g id="M">
	<path fill="#FFF200" d="M86.457,170.958c-46.594,0-84.502-37.908-84.502-84.501c0-46.595,37.908-84.502,84.502-84.502
		c46.594,0,84.502,37.907,84.502,84.502C170.959,133.05,133.051,170.958,86.457,170.958z"/>
	<path d="M170.957,86.457c0,46.594-37.906,84.5-84.5,84.5c-46.594,0-84.502-37.906-84.502-84.5
		c0-46.595,37.908-84.502,84.502-84.502C133.051,1.955,170.957,39.862,170.957,86.457z M162.453,86.457
		c0-41.905-34.092-75.998-75.997-75.998c-41.906,0-75.998,34.093-75.998,75.998c0,41.904,34.092,75.996,75.998,75.996
		C128.361,162.453,162.453,128.361,162.453,86.457z"/>
</g>
<g id="service_x5F_self">
	<g>
		<path d="M120.412,36.568c-0.686-0.271-0.974-0.621-1.129-1.403c-0.286-1.426-0.687-2.882-1.343-4.169
			c-2.052-4.06-5.4-6.774-9.538-8.51c-5.679-2.383-11.42-2.659-17.131-0.101c-2.686,1.204-4.816,3.103-6.334,5.749
			c-3.616-2.257-7.387-3.781-11.46-4.551c-7.354-1.393-14.354-0.532-20.758,3.528c-5.093,3.227-8.43,7.795-9.235,13.829
			C42.228,50.343,46.54,57.42,53.533,63.09c2.754,2.233,5.968,3.854,9.407,4.886c0.733,0.217,0.883,0.594,0.881,1.3
			c-0.022,6.564-0.009,13.13-0.004,19.691c0,0.338,0,0.682,0,1.261c15.95-6.284,31.767-5.916,47.672,0.18V62.402
			c2.801-0.652,5.497-1.066,8.044-1.928c3.517-1.19,6.496-3.21,8.469-6.544c2.509-4.253,2.149-9.183-1.077-12.919
			C125.146,38.951,122.917,37.553,120.412,36.568z"/>
		<polygon points="79.417,140.537 68.809,140.537 68.809,146.905 79.418,140.538 104.11,155.829 104.11,140.537 79.419,140.537 		
			"/>
		<path d="M86.456,122.613c2.991,0.021,5.924,0.409,8.729,1.957c2.155,1.188,4.761,1.867,7.712,0.901
			c3.871-1.269,5.121-5.823,2.871-8.408c-0.495-0.567-1.208-1.08-2.146-1.08s-2.062,1.041-2.062,1.916
			c0.667-0.688,1.208-0.918,2.096-0.918c0.862,0,1.129,0.752,1.129,2.113s-0.514,1.903-1.212,2.215
			c-2.442,1.1-5.666,0.304-7.527-1.545c-1.04-1.034-2.103-2.047-3.207-3.023c-1.621-1.423-3.582-1.675-5.711-0.842
			c-0.201,0.079-0.439,0.16-0.671,0.206c-0.232-0.046-0.471-0.127-0.671-0.206c-2.129-0.833-4.089-0.581-5.711,0.842
			c-1.104,0.977-2.166,1.989-3.207,3.023c-1.861,1.849-5.084,2.645-7.527,1.545c-0.697-0.312-1.211-0.854-1.211-2.215
			s0.266-2.113,1.129-2.113c0.887,0,1.428,0.23,2.096,0.918c0-0.875-1.125-1.916-2.062-1.916s-1.651,0.513-2.146,1.08
			c-2.25,2.585-0.999,7.14,2.872,8.408c2.951,0.966,5.556,0.287,7.712-0.901C80.531,123.022,83.465,122.634,86.456,122.613z"/>
	</g>
</g>
</svg>
