<?xml version="1.0" encoding="utf-8"?>
<!-- Generator: Adobe Illustrator 15.1.0, SVG Export Plug-In . SVG Version: 6.00 Build 0)  -->
<!DOCTYPE svg PUBLIC "-//W3C//DTD SVG 1.0//EN" "http://www.w3.org/TR/2001/REC-SVG-20010904/DTD/svg10.dtd">
<svg version="1.0" xmlns="http://www.w3.org/2000/svg" xmlns:xlink="http://www.w3.org/1999/xlink" x="0px" y="0px"
	 width="172.914px" height="172.914px" viewBox="0 0 172.914 172.914" enable-background="new 0 0 172.914 172.914"
	 xml:space="preserve">
<g id="Background_on_white">
</g>
<g id="S">
	<path fill="#FFF200" d="M86.457,170.958c-46.594,0-84.502-37.908-84.502-84.501c0-46.595,37.908-84.502,84.502-84.502
		c46.594,0,84.502,37.907,84.502,84.502C170.959,133.05,133.051,170.958,86.457,170.958z"/>
	<path d="M170.957,86.457c0-14.142-3.508-27.473-9.676-39.196C147.131,20.354,118.91,1.955,86.457,1.955
		c-32.453,0-60.674,18.399-74.826,45.306c-1.086,2.066-2.107,4.173-3.024,6.336c-0.063,0.148-0.116,0.302-0.179,0.45
		c-4.162,9.986-6.473,20.933-6.473,32.41l0,0v0.001c0,46.594,37.906,84.499,84.502,84.499
		C133.051,170.957,170.957,133.052,170.957,86.457L170.957,86.457L170.957,86.457z M161.045,86.458
		c0,41.127-33.461,74.587-74.588,74.587c-41.129,0-74.59-33.46-74.59-74.587c0-41.129,33.461-74.591,74.59-74.591
		C127.584,11.867,161.045,45.329,161.045,86.458z"/>
</g>
<g id="social_x5F_googleplus">
	<g>
		<g>
			<g>
				<g>
					<path d="M102.39,78.288H62.764v16.341c0,0,15.85-0.024,22.307-0.024c-3.494,10.595-8.932,16.36-22.307,16.36
						c-13.537,0-24.104-10.977-24.104-24.508c0-13.534,10.566-24.508,24.104-24.508c7.155,0,11.779,2.515,16.019,6.02
						c3.393-3.392,3.109-3.873,11.747-12.031c-7.329-6.671-17.074-10.738-27.764-10.738c-22.788,0-41.258,18.471-41.258,41.258
						s18.47,41.258,41.258,41.258C96.824,127.715,105.15,98.061,102.39,78.288"/>
				</g>
			</g>
		</g>
		<polygon points="137.11,79.104 137.11,64.808 126.898,64.808 126.898,79.104 112.191,79.104 112.191,89.317 126.898,89.317 
			126.898,104.022 137.11,104.022 137.11,89.317 151.406,89.317 151.406,79.104 		"/>
	</g>
</g>
</svg>
