<?xml version="1.0" encoding="utf-8"?>
<!-- Generator: Adobe Illustrator 15.1.0, SVG Export Plug-In . SVG Version: 6.00 Build 0)  -->
<!DOCTYPE svg PUBLIC "-//W3C//DTD SVG 1.0//EN" "http://www.w3.org/TR/2001/REC-SVG-20010904/DTD/svg10.dtd">
<svg version="1.0" xmlns="http://www.w3.org/2000/svg" xmlns:xlink="http://www.w3.org/1999/xlink" x="0px" y="0px"
	 width="172.914px" height="172.914px" viewBox="0 0 172.914 172.914" enable-background="new 0 0 172.914 172.914"
	 xml:space="preserve">
<g id="Background_on_white">
</g>
<g id="L">
	<path fill="#FFF200" d="M86.457,170.959c-46.594,0-84.501-37.908-84.501-84.501c0-46.595,37.907-84.502,84.501-84.502
		s84.502,37.907,84.502,84.502C170.959,133.051,133.051,170.959,86.457,170.959z"/>
	<path d="M86.457,170.958c-46.595,0-84.501-37.905-84.501-84.499c0-46.596,37.906-84.503,84.501-84.503s84.501,37.907,84.501,84.503
		C170.958,133.053,133.052,170.958,86.457,170.958z M86.457,8.595c-42.934,0-77.862,34.93-77.862,77.864
		c0,42.933,34.929,77.86,77.862,77.86s77.862-34.928,77.862-77.86C164.319,43.524,129.391,8.595,86.457,8.595z"/>
</g>
<g id="social_x5F_linkedin">
	<g>
		<g>
			<g>
				<path d="M66.845,45.922c0-4.963-4.065-9.03-9.078-9.074c-5.002,0-9.076,4.062-9.076,9.074c0,5.057,4.071,9.124,9.076,9.124
					C62.78,55.046,66.845,50.979,66.845,45.922 M47.464,126.934h19.382v-67.79H47.464V126.934z M115.25,126.934h19.331V85.623
					c0-22.688-13.048-26.43-19.331-26.43c-9.694,0-16.598,4.36-19.385,6.441v-6.491H76.542v67.79h19.324V85.055
					c0,0,1.939-8.359,11.961-8.359c6.006,0,7.424,3.443,7.424,8.359V126.934z"/>
			</g>
		</g>
	</g>
</g>
</svg>
