<?xml version="1.0" encoding="utf-8"?>
<!-- Generator: Adobe Illustrator 15.1.0, SVG Export Plug-In . SVG Version: 6.00 Build 0)  -->
<!DOCTYPE svg PUBLIC "-//W3C//DTD SVG 1.0//EN" "http://www.w3.org/TR/2001/REC-SVG-20010904/DTD/svg10.dtd">
<svg version="1.0" xmlns="http://www.w3.org/2000/svg" xmlns:xlink="http://www.w3.org/1999/xlink" x="0px" y="0px"
	 width="172.914px" height="172.914px" viewBox="0 0 172.914 172.914" enable-background="new 0 0 172.914 172.914"
	 xml:space="preserve">
<g id="Background_on_white">
</g>
<g id="S">
	<path fill="#FFF200" d="M86.457,170.958c-46.594,0-84.502-37.908-84.502-84.501c0-46.595,37.908-84.502,84.502-84.502
		c46.594,0,84.502,37.907,84.502,84.502C170.959,133.05,133.051,170.958,86.457,170.958z"/>
	<path d="M170.957,86.457c0-14.142-3.508-27.473-9.676-39.196C147.131,20.354,118.91,1.955,86.457,1.955
		c-32.453,0-60.674,18.399-74.826,45.306c-1.086,2.066-2.107,4.173-3.024,6.336c-0.063,0.148-0.116,0.302-0.179,0.45
		c-4.162,9.986-6.473,20.933-6.473,32.41l0,0v0.001c0,46.594,37.906,84.499,84.502,84.499
		C133.051,170.957,170.957,133.052,170.957,86.457L170.957,86.457L170.957,86.457z M161.045,86.458
		c0,41.127-33.461,74.587-74.588,74.587c-41.129,0-74.59-33.46-74.59-74.587c0-41.129,33.461-74.591,74.59-74.591
		C127.584,11.867,161.045,45.329,161.045,86.458z"/>
</g>
<g id="social_x5F_mail">
	<g>
		<g>
			<g>
				<g>
					<path d="M86.477,99.866L74.869,89.692l-33.142,28.402c1.205,1.146,2.811,1.83,4.612,1.83h80.237
						c1.797,0,3.397-0.684,4.608-1.83L98.039,89.692L86.477,99.866z"/>
				</g>
			</g>
			<g>
				<g>
					<path d="M131.186,54.823c-1.175-1.146-2.812-1.834-4.608-1.834H46.342c-1.768,0-3.409,0.688-4.614,1.834l44.749,38.336
						L131.186,54.823z"/>
				</g>
			</g>
		</g>
		<polygon points="39.604,58.872 39.604,114.474 71.958,86.978 		"/>
		<polygon points="100.953,86.978 133.311,114.474 133.311,58.835 		"/>
	</g>
</g>
</svg>
