<?xml version="1.0" encoding="utf-8"?>
<!-- Generator: Adobe Illustrator 15.1.0, SVG Export Plug-In . SVG Version: 6.00 Build 0)  -->
<!DOCTYPE svg PUBLIC "-//W3C//DTD SVG 1.0//EN" "http://www.w3.org/TR/2001/REC-SVG-20010904/DTD/svg10.dtd">
<svg version="1.0" xmlns="http://www.w3.org/2000/svg" xmlns:xlink="http://www.w3.org/1999/xlink" x="0px" y="0px"
	 width="172.914px" height="172.914px" viewBox="0 0 172.914 172.914" enable-background="new 0 0 172.914 172.914"
	 xml:space="preserve">
<g id="Background_on_white">
</g>
<g id="S">
	<path fill="#FFF200" d="M86.457,170.958c-46.594,0-84.502-37.908-84.502-84.501c0-46.595,37.908-84.502,84.502-84.502
		c46.594,0,84.502,37.907,84.502,84.502C170.959,133.05,133.051,170.958,86.457,170.958z"/>
	<path d="M170.957,86.457c0-14.142-3.508-27.473-9.676-39.196C147.131,20.354,118.91,1.955,86.457,1.955
		c-32.453,0-60.674,18.399-74.826,45.306c-1.086,2.066-2.107,4.173-3.024,6.336c-0.063,0.148-0.116,0.302-0.179,0.45
		c-4.162,9.986-6.473,20.933-6.473,32.41l0,0v0.001c0,46.594,37.906,84.499,84.502,84.499
		C133.051,170.957,170.957,133.052,170.957,86.457L170.957,86.457L170.957,86.457z M161.045,86.458
		c0,41.127-33.461,74.587-74.588,74.587c-41.129,0-74.59-33.46-74.59-74.587c0-41.129,33.461-74.591,74.59-74.591
		C127.584,11.867,161.045,45.329,161.045,86.458z"/>
</g>
<g id="money">
	<path d="M135.126,51.422c-5.623,2.479-11.354,3.17-17.266,2.863c-6.073-0.313-11.962-1.62-17.834-3.061
		c-7.63-1.87-15.241-3.824-22.898-5.573c-3.132-0.715-6.366-0.991-9.552-1.467H59.12c-0.339,0.097-0.676,0.249-1.023,0.281
		c-6.545,0.62-12.586,2.717-18.215,6.094c-0.94,0.562-1.216,1.215-1.214,2.261c0.031,15.866,0.022,31.735,0.027,47.601
		c0,0.442,0.058,0.887,0.085,1.275c0.177,0.06,0.241,0.104,0.273,0.086c0.278-0.14,0.559-0.277,0.823-0.44
		c7.206-4.445,15.08-6.431,23.507-6.419c7.566,0.009,14.907,1.505,22.207,3.294c9.649,2.36,19.131,5.484,29.061,6.562
		c6.558,0.717,13.015,0.399,19.245-2.066c0.936-0.369,1.358-0.804,1.354-1.912c-0.045-16.023-0.029-32.048-0.032-48.07
		C135.218,52.346,135.164,51.961,135.126,51.422z M95.826,87.568c-6.486,4.732-15.147,3.678-20.465-2.367
		c-6.156-6.996-6.097-17.66,0.14-24.587c8.107-9.006,22.383-5.72,26.49,6.118c0.392,1.124,0.66,2.302,0.864,3.476
		c0.162,0.919,0.138,1.869,0.201,2.854C102.91,78.999,100.722,84.002,95.826,87.568z"/>
	<path d="M93.312,73.41c-0.409-0.409-0.874-0.744-1.398-1.006c-0.521-0.262-1.047-0.47-1.58-0.627
		c-0.53-0.156-1.045-0.276-1.54-0.364c-0.496-0.087-0.927-0.175-1.293-0.262c-0.487-0.121-0.993-0.245-1.515-0.366
		c-0.522-0.12-1.001-0.269-1.437-0.444c-0.435-0.174-0.792-0.391-1.07-0.652c-0.279-0.261-0.418-0.582-0.418-0.965
		c0-0.386,0.119-0.711,0.355-0.979c0.235-0.271,0.533-0.493,0.892-0.666c0.358-0.174,0.739-0.302,1.141-0.381
		c0.403-0.077,0.762-0.117,1.077-0.117c0.927,0,1.809,0.166,2.646,0.496c0.837,0.331,1.707,0.812,2.612,1.438l2.037-2.873
		c-0.471-0.331-0.915-0.627-1.332-0.887c-0.419-0.262-0.842-0.488-1.268-0.681c-0.425-0.19-0.863-0.349-1.316-0.482
		c-0.455-0.129-0.939-0.231-1.463-0.301v-2.089h-3.655v2.142h0.004v0.001c-0.678,0.104-1.34,0.283-1.984,0.535
		c-0.645,0.253-1.219,0.596-1.723,1.032c-0.506,0.434-0.911,0.979-1.215,1.632c-0.304,0.652-0.457,1.431-0.457,2.337
		c0,0.766,0.126,1.431,0.378,1.996c0.252,0.566,0.588,1.051,1.005,1.464c0.418,0.408,0.888,0.747,1.41,1.015
		c0.521,0.271,1.052,0.489,1.593,0.654c0.539,0.165,1.061,0.295,1.566,0.39c0.503,0.099,0.947,0.18,1.331,0.249
		c0.574,0.104,1.127,0.218,1.658,0.34c0.532,0.121,0.991,0.27,1.383,0.443c0.392,0.175,0.705,0.396,0.939,0.665
		c0.236,0.273,0.354,0.6,0.354,0.98c0,0.295-0.078,0.6-0.234,0.901c-0.16,0.304-0.393,0.574-0.709,0.81
		c-0.311,0.234-0.694,0.426-1.148,0.575c-0.454,0.147-0.973,0.221-1.567,0.221c-1.113,0-2.178-0.24-3.198-0.718
		c-1.018-0.479-2.005-1.049-2.963-1.711l-1.984,2.925c0.452,0.313,0.887,0.604,1.306,0.875c0.417,0.271,0.848,0.524,1.292,0.757
		c0.443,0.235,0.905,0.436,1.384,0.6c0.478,0.167,1.005,0.304,1.58,0.408v2.32h3.654v-2.112c0.937-0.071,1.786-0.238,2.548-0.511
		c0.763-0.27,1.418-0.645,1.962-1.135c0.547-0.486,0.971-1.079,1.274-1.772c0.306-0.697,0.457-1.499,0.457-2.404
		c0-0.853-0.128-1.58-0.38-2.18S93.721,73.819,93.312,73.41z"/>
	<path d="M142.653,62.271c0.179,0.059,0.241,0.104,0.275,0.086c0.276-0.138,0.557-0.274,0.821-0.441
		c5.022-3.098,10.376-4.976,16.009-5.842c-4.027-9.672-9.907-18.388-17.207-25.688c0.006,10.204,0.014,20.406,0.018,30.609
		C142.569,61.439,142.626,61.882,142.653,62.271z"/>
	<path d="M30.195,63.288c0.933-0.369,1.357-0.804,1.354-1.911c-0.029-10.697-0.032-21.394-0.032-32.091
		c-10.109,9.713-17.652,22.063-21.516,35.94c0.317,0.039,0.631,0.093,0.95,0.127C17.509,66.069,23.967,65.754,30.195,63.288z"/>
	<path d="M38.78,42.628c0.177,0.058,0.241,0.103,0.273,0.086c0.278-0.141,0.559-0.278,0.823-0.441
		c7.206-4.445,15.08-6.429,23.507-6.421c7.566,0.01,14.907,1.506,22.207,3.293c9.649,2.364,19.131,5.486,29.061,6.566
		c6.558,0.714,13.015,0.398,19.245-2.068c0.936-0.37,1.358-0.804,1.354-1.911c-0.017-5.933-0.02-11.864-0.023-17.796
		c-9.494-7.419-20.699-12.741-32.931-15.229c0.225,0.803,0.417,1.616,0.56,2.435c0.162,0.918,0.138,1.868,0.201,2.853
		c-0.146,5.938-2.335,10.938-7.23,14.507c-6.486,4.733-15.147,3.677-20.465-2.369c-4.324-4.912-5.568-11.632-3.773-17.598
		c-12.172,2.316-23.369,7.41-32.896,14.612c0.001,6.069,0.001,12.139,0.003,18.208C38.695,41.795,38.753,42.238,38.78,42.628z"/>
	<path d="M79.413,9.811c0,0.767,0.126,1.432,0.378,1.996c0.252,0.567,0.588,1.053,1.005,1.463c0.418,0.409,0.888,0.75,1.41,1.017
		c0.521,0.272,1.052,0.487,1.593,0.654c0.539,0.165,1.061,0.295,1.566,0.391c0.503,0.094,0.947,0.18,1.331,0.247
		c0.574,0.104,1.127,0.218,1.658,0.34c0.532,0.122,0.991,0.271,1.383,0.444c0.392,0.176,0.705,0.396,0.939,0.665
		c0.236,0.272,0.354,0.598,0.354,0.98c0,0.295-0.078,0.598-0.234,0.902c-0.16,0.303-0.393,0.572-0.709,0.809
		c-0.311,0.234-0.694,0.424-1.148,0.571c-0.454,0.15-0.973,0.224-1.567,0.224c-1.113,0-2.178-0.238-3.198-0.718
		c-1.018-0.478-2.005-1.047-2.963-1.71l-1.984,2.925c0.452,0.313,0.887,0.604,1.306,0.875c0.417,0.27,0.848,0.521,1.292,0.757
		c0.443,0.236,0.905,0.436,1.384,0.601c0.478,0.166,1.005,0.302,1.58,0.404v2.323h3.654v-2.115c0.937-0.07,1.786-0.238,2.548-0.509
		c0.763-0.269,1.418-0.646,1.962-1.134c0.547-0.487,0.971-1.08,1.274-1.777c0.306-0.694,0.457-1.496,0.457-2.4
		c0-0.854-0.128-1.581-0.38-2.18s-0.584-1.104-0.992-1.515c-0.409-0.41-0.874-0.745-1.398-1.006c-0.521-0.262-1.047-0.47-1.58-0.627
		c-0.53-0.155-1.045-0.277-1.54-0.364c-0.496-0.087-0.927-0.175-1.293-0.262c-0.487-0.123-0.993-0.244-1.515-0.366
		c-0.522-0.122-1.001-0.27-1.437-0.443c-0.435-0.174-0.792-0.391-1.07-0.652c-0.279-0.262-0.418-0.584-0.418-0.968
		s0.119-0.709,0.355-0.978c0.235-0.272,0.533-0.492,0.892-0.668c0.358-0.172,0.739-0.3,1.141-0.378
		c0.403-0.077,0.762-0.118,1.077-0.118c0.927,0,1.809,0.165,2.646,0.494c0.837,0.331,4.045-0.582,4.045-0.582
		c-2.231-0.188-4.481-0.308-6.76-0.308c-2.207,0-4.386,0.115-6.548,0.292c-0.011,0.025-0.028,0.043-0.04,0.067
		C79.565,8.126,79.413,8.904,79.413,9.811z"/>
	<path d="M135.126,110.492c-5.623,2.479-11.354,3.168-17.266,2.862c-6.073-0.313-11.962-1.618-17.834-3.062
		c-7.63-1.871-15.241-3.825-22.898-5.572c-3.132-0.716-6.366-0.99-9.552-1.47l-8.456,0.002c-0.339,0.099-0.676,0.249-1.023,0.281
		c-6.545,0.621-12.586,2.717-18.215,6.093c-0.94,0.564-1.216,1.215-1.214,2.264c0.024,12.644,0.024,25.29,0.026,37.938
		c3.163,2.391,6.506,4.556,10.012,6.46c4.674-1.562,9.573-2.303,14.678-2.298c7.566,0.009,14.907,1.505,22.207,3.294
		c7.496,1.837,14.895,4.119,22.477,5.558c9.996-2.833,19.189-7.575,27.169-13.812c-0.017-12.409-0.016-24.82-0.018-37.231
		C135.218,111.415,135.164,111.028,135.126,110.492z M95.826,146.637c-6.486,4.731-15.147,3.676-20.465-2.367
		c-6.156-6.998-6.097-17.66,0.14-24.588c8.107-9.004,22.383-5.717,26.49,6.118c0.392,1.124,0.66,2.302,0.864,3.478
		c0.162,0.918,0.138,1.868,0.201,2.853C102.91,138.068,100.722,143.069,95.826,146.637z"/>
	<path d="M93.312,132.477c-0.409-0.41-0.874-0.745-1.398-1.005c-0.521-0.265-1.047-0.472-1.58-0.629
		c-0.53-0.156-1.045-0.276-1.54-0.363c-0.496-0.089-0.927-0.173-1.293-0.263c-0.487-0.121-0.993-0.242-1.515-0.364
		c-0.522-0.122-1.001-0.27-1.437-0.444c-0.435-0.175-0.792-0.393-1.07-0.652c-0.279-0.263-0.418-0.585-0.418-0.967
		c0-0.385,0.119-0.711,0.355-0.979c0.235-0.271,0.533-0.493,0.892-0.666c0.358-0.175,0.739-0.301,1.141-0.382
		c0.403-0.077,0.762-0.117,1.077-0.117c0.927,0,1.809,0.166,2.646,0.499c0.837,0.329,1.707,0.807,2.612,1.435l2.037-2.873
		c-0.471-0.331-0.915-0.628-1.332-0.888c-0.419-0.261-0.842-0.486-1.268-0.678c-0.425-0.191-0.863-0.352-1.316-0.483
		c-0.455-0.13-0.939-0.231-1.463-0.302v-2.089h-3.655v2.144h0.004v0.002c-0.678,0.104-1.34,0.281-1.984,0.533
		c-0.645,0.253-1.219,0.599-1.723,1.034c-0.506,0.432-0.911,0.978-1.215,1.63s-0.457,1.432-0.457,2.337
		c0,0.768,0.126,1.432,0.378,1.997c0.252,0.565,0.588,1.053,1.005,1.462c0.418,0.41,0.888,0.75,1.41,1.019
		c0.521,0.27,1.052,0.486,1.593,0.653c0.539,0.163,1.061,0.295,1.566,0.389c0.503,0.098,0.947,0.179,1.331,0.25
		c0.574,0.104,1.127,0.217,1.658,0.339c0.532,0.122,0.991,0.27,1.383,0.443c0.392,0.175,0.705,0.396,0.939,0.666
		c0.236,0.271,0.354,0.599,0.354,0.979c0,0.298-0.078,0.601-0.234,0.901c-0.16,0.305-0.393,0.575-0.709,0.811
		c-0.311,0.234-0.694,0.428-1.148,0.574c-0.454,0.147-0.973,0.221-1.567,0.221c-1.113,0-2.178-0.239-3.198-0.718
		c-1.018-0.478-2.005-1.047-2.963-1.709l-1.984,2.925c0.452,0.312,0.887,0.603,1.306,0.874c0.417,0.271,0.848,0.525,1.292,0.757
		c0.443,0.236,0.905,0.436,1.384,0.601c0.478,0.166,1.005,0.303,1.58,0.406v2.322h3.654v-2.115c0.937-0.068,1.786-0.237,2.548-0.508
		c0.763-0.271,1.418-0.646,1.962-1.137c0.547-0.486,0.971-1.078,1.274-1.772c0.306-0.697,0.457-1.5,0.457-2.405
		c0-0.852-0.128-1.58-0.38-2.178C94.053,133.39,93.721,132.886,93.312,132.477z"/>
	<path d="M143.757,70.202c-0.941,0.564-1.218,1.212-1.215,2.261c0.03,15.866,0.022,31.735,0.027,47.6
		c0,0.444,0.057,0.889,0.084,1.275c0.179,0.06,0.241,0.104,0.275,0.089c0.276-0.141,0.557-0.276,0.821-0.442
		c5.242-3.235,10.844-5.151,16.749-5.96c3.428-8.862,5.328-18.479,5.328-28.537c0-7.821-1.156-15.374-3.273-22.518
		c-0.191,0.063-0.385,0.12-0.582,0.138C155.427,64.728,149.384,66.825,143.757,70.202z"/>
	<path d="M31.55,120.444c-0.044-16.026-0.029-32.05-0.033-48.074c0-0.384-0.051-0.769-0.089-1.306
		c-5.622,2.48-11.354,3.168-17.267,2.863c-2.005-0.104-3.989-0.323-5.961-0.613c-0.719,4.288-1.113,8.685-1.113,13.173
		c0,13.863,3.582,26.901,9.854,38.255c4.5-0.016,8.933-0.675,13.254-2.386C31.128,121.985,31.553,121.552,31.55,120.444z"/>
	<path d="M142.542,131.53c0.007,3.686,0.003,7.372,0.006,11.059c5.437-5.435,10.086-11.654,13.771-18.469
		c-4.413,1.039-8.594,2.768-12.562,5.151C142.815,129.835,142.539,130.483,142.542,131.53z"/>
	<path d="M31.428,130.133c-3.104,1.368-6.242,2.177-9.424,2.588c2.836,3.94,6.021,7.61,9.514,10.966c0-4.082,0-8.165,0-12.247
		C31.517,131.055,31.466,130.671,31.428,130.133z"/>
</g>
</svg>
