<?xml version="1.0" encoding="utf-8"?>
<!-- Generator: Adobe Illustrator 19.1.0, SVG Export Plug-In . SVG Version: 6.00 Build 0)  -->
<svg version="1.1" id="Layer_1" xmlns="http://www.w3.org/2000/svg" xmlns:xlink="http://www.w3.org/1999/xlink" x="0px" y="0px"
	 viewBox="-12 67 175 67" style="enable-background:new -12 67 175 67;" xml:space="preserve">
<style type="text/css">
	.st0{fill:none;stroke:#FFF200;stroke-width:4;}
	.st1{fill:#FFFFFF;}
</style>
<title>vi_logo_on_black</title>
<desc>Created with Sketch.</desc>
<g id="Page-1_1_">
	<g id="vi_logo_on_black_1_" transform="translate(2.000000, 2.000000)">
		<g id="Page-1">
			<g id="vi_logo_on_black">
				<g id="Group">
					<path id="Fill-1" d="M19.3,129.4c17.2,0,31.1-13.9,31.1-31.2c0-17.2-13.9-31.2-31.1-31.2C2.1,67.1-11.8,81-11.8,98.2
						C-11.8,115.4,2.1,129.4,19.3,129.4"/>
					<path id="Stroke-2" class="st0" d="M19,130c17.1,0,31-14.1,31-31.5C50,81.1,36.1,67,19,67C1.9,67-12,81.1-12,98.5
						C-12,115.9,1.9,130,19,130L19,130L19,130L19,130L19,130z"/>
					<path id="Fill-4" class="st1" d="M10,112h6l8.3-20.5h-6.2L15.5,98c-0.8,2.1-1.7,4.5-2.5,6.5H13c-0.7-2.1-1.5-4.3-2.3-6.5
						l-2.4-6.6H1.6L10,112L10,112L10,112L10,112L10,112z M26.4,112h6.3V91.5h-6.3V112L26.4,112L26.4,112L26.4,112z"/>
					<polygon id="Fill-5" class="st1" points="26.4,88.1 32.7,88.1 32.7,81.8 26.4,81.8 					"/>
					<path id="Fill-6" class="st1" d="M61,112h2.8v-9H61V112L61,112L61,112L61,112z M66.1,112h2.8v-6.1c0.5-0.4,1.2-0.8,1.9-0.8
						c0.4,0,0.7,0.1,1,0.4c0.2,0.3,0.3,0.6,0.3,1.3v5.2h2.8v-5.6c0-1.3-0.2-2.1-0.8-2.7c-0.6-0.6-1.4-0.9-2.4-0.9
						c-1.1,0-2.1,0.5-2.8,1l0,0V103h-2.8V112L66.1,112L66.1,112L66.1,112L66.1,112z M78.6,111.3c0.6,0.6,1.4,0.9,2.3,0.9
						c0.8,0,1.6-0.2,2-0.5v-2.2c-0.4,0.2-0.9,0.4-1.3,0.4c-0.8,0-1-0.7-1-1.5v-3H83V103h-2.4v-2.8l-2.8,0.5v2.3h-1.5v2.3h1.5v3.3
						C77.8,110.1,78.1,110.8,78.6,111.3L78.6,111.3L78.6,111.3L78.6,111.3L78.6,111.3z M93,108.2c0-0.2,0.1-0.6,0.1-1
						c0-3-2.1-4.5-4.3-4.5c-2.5,0-4.7,1.9-4.7,4.8c0,2.8,2.1,4.7,5.1,4.7c1.2,0,2.6-0.3,3.4-0.8v-2.3c-1,0.6-2.1,1-3.1,1
						c-1.3,0-2.3-0.6-2.6-1.8H93L93,108.2L93,108.2L93,108.2L93,108.2z M88.7,104.9c0.9,0,1.6,0.6,1.8,1.6h-3.6
						C87,105.5,87.8,104.9,88.7,104.9L88.7,104.9L88.7,104.9L88.7,104.9L88.7,104.9z M94.8,112h2.8V98h-2.8V112L94.8,112L94.8,112
						L94.8,112z M99.9,112h2.8V98h-2.8V112L99.9,112L99.9,112L99.9,112z M105,112h2.8v-9H105V112L105,112L105,112L105,112z
						 M110.9,115.6c0.8,0.4,1.9,0.7,3.1,0.7c2.9,0,4.8-1.6,4.8-4.4v-8.9l-2.2,0.4c-0.6-0.3-1.4-0.5-2.3-0.5c-2.8,0-4.7,2.1-4.7,4.7
						c0,2.7,2,4.4,4.2,4.4c0.8,0,1.6-0.2,2.1-0.6l0,0v0.5c0,1.3-0.8,2-2.2,2c-1,0-2-0.3-2.9-0.9V115.6L110.9,115.6L110.9,115.6
						L110.9,115.6L110.9,115.6z M112.5,107.4c0-1.2,0.7-2.2,2.1-2.2c0.5,0,1,0.1,1.4,0.3v3.8c-0.4,0.2-0.9,0.4-1.4,0.4
						C113.3,109.7,112.5,108.7,112.5,107.4L112.5,107.4L112.5,107.4L112.5,107.4L112.5,107.4z M129.5,108.2c0-0.2,0.1-0.6,0.1-1
						c0-3-2.1-4.5-4.3-4.5c-2.5,0-4.7,1.9-4.7,4.8c0,2.8,2.1,4.7,5.1,4.7c1.2,0,2.5-0.3,3.4-0.8v-2.3c-1,0.6-2.1,1-3.1,1
						c-1.3,0-2.3-0.6-2.6-1.8H129.5L129.5,108.2L129.5,108.2L129.5,108.2L129.5,108.2z M125.2,104.9c0.9,0,1.6,0.6,1.8,1.6h-3.6
						C123.6,105.5,124.4,104.9,125.2,104.9L125.2,104.9L125.2,104.9L125.2,104.9L125.2,104.9z M131.4,112h2.8v-6.1
						c0.5-0.4,1.2-0.8,1.9-0.8c0.4,0,0.7,0.1,1,0.4c0.2,0.3,0.3,0.6,0.3,1.3v5.2h2.8v-5.6c0-1.3-0.2-2.1-0.8-2.7
						c-0.6-0.6-1.4-0.9-2.4-0.9c-1.1,0-2.1,0.5-2.8,1l0,0V103h-2.8V112L131.4,112L131.4,112L131.4,112L131.4,112z M141.9,107.5
						c0,2.7,2.1,4.7,5,4.7c1,0,2.1-0.2,3-0.7V109c-0.8,0.6-1.8,0.9-2.6,0.9c-1.5,0-2.5-1-2.5-2.3c0-1.4,1-2.4,2.5-2.4
						c0.9,0,1.7,0.3,2.5,0.8v-2.6c-0.7-0.4-1.7-0.6-2.7-0.6C144.2,102.8,141.9,104.7,141.9,107.5L141.9,107.5L141.9,107.5
						L141.9,107.5L141.9,107.5z M160.2,108.2c0-0.2,0.1-0.6,0.1-1c0-3-2.1-4.5-4.3-4.5c-2.5,0-4.7,1.9-4.7,4.8
						c0,2.8,2.1,4.7,5.1,4.7c1.2,0,2.6-0.3,3.4-0.8v-2.3c-1,0.6-2.1,1-3.1,1c-1.3,0-2.3-0.6-2.6-1.8H160.2L160.2,108.2L160.2,108.2
						L160.2,108.2L160.2,108.2z M155.9,104.9c0.9,0,1.6,0.6,1.8,1.6H154C154.3,105.5,155,104.9,155.9,104.9L155.9,104.9L155.9,104.9
						L155.9,104.9L155.9,104.9z"/>
					<path id="Fill-7" class="st1" d="M61,101.5h2.8v-2.8H61V101.5L61,101.5L61,101.5L61,101.5z M105,101.5h2.8v-2.8H105V101.5
						L105,101.5L105,101.5L105,101.5z"/>
					<path id="Fill-8" class="st1" d="M64.7,96h2.7l3.7-9h-2.8l-1.1,2.9c-0.4,0.9-0.8,2-1.1,2.9h0c-0.3-0.9-0.7-1.9-1-2.9L63.9,87
						H61L64.7,96L64.7,96L64.7,96L64.7,96L64.7,96z M72.3,96h2.8v-9h-2.8V96L72.3,96L72.3,96L72.3,96z M76.9,91.7
						c0,2.8,2,4.5,4.2,4.5c0.9,0,1.7-0.3,2.3-0.7l0,0V96h2.7V82h-2.8v5.1l0,0c-0.5-0.2-1-0.3-1.7-0.3C78.9,86.8,76.9,88.8,76.9,91.7
						L76.9,91.7L76.9,91.7L76.9,91.7L76.9,91.7z M79.7,91.6c0-1.4,0.8-2.5,2.3-2.5c0.6,0,1,0.1,1.4,0.3v4c-0.4,0.3-1,0.5-1.6,0.5
						C80.4,93.9,79.7,92.9,79.7,91.6L79.7,91.6L79.7,91.6L79.7,91.6L79.7,91.6z M96.9,92.2c0-0.2,0.1-0.6,0.1-1c0-3-2.1-4.5-4.3-4.5
						c-2.5,0-4.7,1.9-4.7,4.8c0,2.8,2.1,4.7,5.1,4.7c1.2,0,2.6-0.3,3.4-0.8v-2.3c-1,0.6-2.1,1-3.1,1c-1.3,0-2.3-0.6-2.6-1.8H96.9
						L96.9,92.2L96.9,92.2L96.9,92.2L96.9,92.2z M92.6,88.9c0.9,0,1.6,0.6,1.8,1.6h-3.6C91,89.5,91.7,88.9,92.6,88.9L92.6,88.9
						L92.6,88.9L92.6,88.9L92.6,88.9z M101,91.5c0-1.3,1-2.3,2.2-2.3s2.2,1,2.2,2.3c0,1.3-1,2.3-2.2,2.3S101,92.8,101,91.5L101,91.5
						L101,91.5L101,91.5L101,91.5z M98.2,91.5c0,2.7,2.1,4.7,5,4.7s5-2.1,5-4.7s-2.1-4.7-5-4.7S98.2,88.8,98.2,91.5L98.2,91.5
						L98.2,91.5L98.2,91.5L98.2,91.5z"/>
					<polygon id="Fill-9" class="st1" points="72,85.3 74.8,85.3 74.8,82.5 72,82.5 					"/>
				</g>
			</g>
		</g>
	</g>
</g>
</svg>
