<?xml version="1.0" encoding="utf-8"?>
<!-- Generator: Adobe Illustrator 15.1.0, SVG Export Plug-In . SVG Version: 6.00 Build 0)  -->
<!DOCTYPE svg PUBLIC "-//W3C//DTD SVG 1.1//EN" "http://www.w3.org/Graphics/SVG/1.1/DTD/svg11.dtd">
<svg version="1.1" xmlns="http://www.w3.org/2000/svg" xmlns:xlink="http://www.w3.org/1999/xlink" x="0px" y="0px"
	 width="447.719px" height="340.158px" viewBox="0 0 447.719 340.158" enable-background="new 0 0 447.719 340.158"
	 xml:space="preserve">
<g id="Ebene_1">
</g>
<g id="Ebene_2">
	<g>
		<path fill="#FFF200" d="M427.01,103.907V41.659h-42.497V16.161h-15.921V0h-86.91v16.161v25.498v41.419v20.83v43.216h-80.683
			v20.709h82.718v-18.674h54.11h30.765h15.921h42.497h20.709v-45.251H427.01z M422.938,45.73v58.177h-38.425V45.73H422.938z
			 M380.441,103.907h-11.85V45.73h11.85V103.907z M380.441,20.233v21.426h-11.85V20.233H380.441z M285.753,4.072h78.767v12.088
			h-78.767V4.072z M285.753,20.233h78.767v21.426h-78.767V20.233z M285.753,45.73h78.767v58.177h-26.692v-20.83h-52.074V45.73z
			 M285.753,87.15h48.002v16.757h-48.002V87.15z M285.753,145.087v-37.108h48.002v37.108H285.753z M337.827,145.087v-37.108h26.692
			v37.108H337.827z M368.592,145.087v-37.108h11.85v37.108H368.592z M384.513,145.087v-37.108h38.425v37.108H384.513z
			 M443.647,145.087H427.01v-37.108h16.638V145.087z"/>
		<g>
			<path fill="#FFF200" d="M302.286,225.127c-14.369,2.316-21.722,12.931-21.722,31.604c0,18.793,9.788,31.37,24.795,31.37
				c6.973,0,13.315-2.322,26.649-8.867v15.196c-16.004,7.346-25.419,9.611-38.318,9.611c-13.959,0-23.771-3.704-31.793-11.876
				c-8.216-8.223-12.331-19.077-12.331-31.175c0-26.896,19.917-45.083,48.996-45.083c19.323,0,32.601,8.816,32.601,21.785
				c0,8.342-6.185,14.091-15.348,14.091c-4.72,0-8.582-1.243-13.529-4.115V225.127z"/>
			<path fill="#FFF200" d="M231.38,260.99c12.886-16.231,17.436-22.781,17.436-30.758c0-7.938-6.304-14.325-14.723-14.325
				c-5.188,0-9.857,2.442-12.136,4.985v33.087l-21.108,28.12v-64.116h-20.067l-33.358,55.313v-55.313h-11.536l-30.278,7.384v7.743
				l16.521,1.679v67.821h21.343l32.007-52.587v52.587h23.375L231.38,260.99z"/>
			<path fill="#FFF200" d="M41.846,329.228l13.846,3.079v7.851H1.376v-7.851l12.381-3.079v-94.881H0v-8.141l33.226-10.091h8.62
				v11.334c15.562-9.271,20.907-10.905,28.891-10.905c18.439,0,32.038,17.001,32.038,40.546c0,27.205-18.155,45.519-46.761,45.519
				c-3.231,0-8.614-0.196-14.168-0.833V329.228z M41.846,292.165c2.272,0.101,3.27,0.101,4.708,0.101
				c17.196,0,26.416-10.709,26.416-31.276c0-17.398-7.541-26.644-21.469-26.644c-2.31,0-4.739,0.284-9.655,0.877V292.165z"/>
		</g>
	</g>
</g>
</svg>
