<?xml version="1.0" encoding="utf-8"?>
<!-- Generator: Adobe Illustrator 15.1.0, SVG Export Plug-In . SVG Version: 6.00 Build 0)  -->
<!DOCTYPE svg PUBLIC "-//W3C//DTD SVG 1.1//EN" "http://www.w3.org/Graphics/SVG/1.1/DTD/svg11.dtd">
<svg version="1.1" id="Layer_1" xmlns="http://www.w3.org/2000/svg" xmlns:xlink="http://www.w3.org/1999/xlink" x="0px" y="0px"
	 width="500px" height="122.517px" viewBox="0.5 644.5 500 122.517" enable-background="new 0.5 644.5 500 122.517"
	 xml:space="preserve">
<title>footer-logo</title>
<g>
	<rect x="56.607" y="664.979" fill="#FFF200" width="9.314" height="81.559"/>
	<path fill="#FFF200" d="M61.27,646.341c-32.815,0-59.417,26.602-59.417,59.417s26.602,59.417,59.417,59.417
		s59.417-26.602,59.417-59.417l0,0C120.687,672.942,94.085,646.341,61.27,646.341z M61.27,755.851
		c-27.659-0.006-50.077-22.433-50.071-50.093c0.006-27.659,22.434-50.077,50.093-50.071c27.651,0.007,50.065,22.42,50.071,50.071
		c0.006,27.66-22.412,50.087-50.071,50.093C61.284,755.851,61.277,755.851,61.27,755.851z"/>
	<rect x="42.642" y="664.979" fill="#FFF200" width="9.314" height="81.559"/>
	<rect x="70.583" y="664.979" fill="#FFF200" width="9.303" height="81.559"/>
	<polygon fill="#FFF200" points="181.625,716.037 181.42,716.037 172.301,678.153 161.003,678.153 151.483,716.037 151.299,716.037 
		141.378,678.153 129.495,678.153 145.194,728.906 156.98,728.906 166.316,691.207 166.511,691.207 175.922,728.906 
		187.416,728.906 203.311,678.153 191.926,678.153 	"/>
	<path fill="#FFF200" d="M232.163,676.787c-6.679,0-12.469,3.437-15.179,8.044h-0.195V658.81h-11.222v70.097h11.189V698.96
		c0-7.46,4.803-13.348,12.263-13.348c6.582,0,9.759,3.438,9.921,11.385v31.909h11.19V694.06
		C250.129,682.675,243.158,676.787,232.163,676.787z"/>
	<rect x="257.297" y="662.94" fill="#FFF200" width="11.178" height="6.474"/>
	<rect x="257.297" y="678.153" fill="#FFF200" width="11.178" height="50.753"/>
	<path fill="#FFF200" d="M290.268,662.94h-11.189v15.18h-8.446v8.35h8.446v29.969c0.195,8.436,2.353,13.01,14.03,13.01
		c2.461,0,4.814-0.4,7.265-0.584v-8.675c-1.547,0.325-3.127,0.456-4.706,0.39c-4.999,0-5.422-2.353-5.422-6.971v-27.107h10.106
		v-8.348h-10.106L290.268,662.94z"/>
	<path fill="#FFF200" d="M338.269,713.001c-1.962,5.594-5.888,8.447-12.371,8.447c-9.326,0-13.641-7.081-13.641-15.029h31.909
		c-0.075-0.976-0.119-1.951-0.119-2.938c-0.07-4.62,0.901-9.197,2.84-13.391c-3.882-8.211-12.191-13.408-21.272-13.304
		c-15.115,0-24.548,12.36-24.548,26.792c0,15.613,8.935,26.694,24.841,26.694c9.411,0,17.598-4.457,21.371-12.589
		c-0.784-1.498-1.427-3.066-1.919-4.684H338.269z M325.604,685.612c7.59,0,12.372,6.387,12.762,13.445h-26.109
		C312.551,691.5,317.841,685.612,325.604,685.612z"/>
	<g>
		<path fill="#FFF200" d="M369.646,731.267c-10.631,0-18.9-4.658-23.282-13.113c-0.801-1.556-1.458-3.192-1.957-4.869
			c-0.652-2.199-1.07-4.473-1.242-6.758c-0.122-0.979-0.122-2.012-0.122-3.013c-0.07-4.739,0.952-9.531,2.955-13.841
			c4.262-8.953,12.667-13.879,23.67-13.879c16.155,0,26.594,10.867,26.594,27.688C396.263,720.36,385.815,731.267,369.646,731.267z
			 M369.668,677.78c-10.193,0-17.962,4.523-21.872,12.737c-1.873,4.032-2.83,8.524-2.766,12.981c0,0.998,0,1.928,0.111,2.831
			c0.167,2.192,0.559,4.325,1.17,6.39c0.463,1.557,1.074,3.078,1.817,4.521c4.023,7.764,11.665,12.039,21.517,12.039
			c14.962,0,24.63-10.127,24.63-25.799C394.276,687.629,384.847,677.78,369.668,677.78z M369.668,722.44
			c-10.647,0-15.414-9.521-15.414-18.959c0-9.389,4.767-18.861,15.414-18.861c10.655,0,15.426,9.488,15.426,18.894
			C385.095,712.935,380.323,722.44,369.668,722.44z M369.668,686.606c-9.275,0-13.427,8.475-13.427,16.875
			c0,8.448,4.152,16.973,13.427,16.973c9.284,0,13.44-8.508,13.44-16.94C383.108,695.098,378.952,686.606,369.668,686.606z"/>
	</g>
	<g>
		<path fill="#FFF200" d="M412.167,748.647h-13.176v-71.488h12.602v4.896c3.311-4.061,8.494-6.262,14.902-6.262
			c7.83,0,14.279,2.871,18.652,8.305c3.988,4.955,6.092,11.756,6.086,19.666c0,13.688-7.072,27.502-22.873,27.502
			c-6.711,0-12.562-2.309-16.193-6.283V748.647z M400.978,746.66h9.203v-25.327h1.746l0.295,0.463
			c2.959,4.687,8.992,7.484,16.139,7.484c15.418,0,20.887-13.746,20.887-25.518c0.006-7.451-1.947-13.82-5.648-18.419
			c-3.98-4.948-9.896-7.563-17.104-7.563c-3.973,0-11.18,1.003-14.826,7.721l-0.283,0.52h-1.779v-6.875h-8.629V746.66z
			 M425.042,722.44c-0.002,0-0.002,0-0.002,0h-0.008c-9.104-0.005-15.221-7.584-15.221-18.861c0-11.871,5.693-18.959,15.23-18.959
			c10.314,0,15.014,9.828,15.014,18.959C440.056,712.693,436.11,722.435,425.042,722.44L425.042,722.44L425.042,722.44
			L425.042,722.44z M425.042,686.606c-8.416,0-13.242,6.187-13.242,16.973c0,10.25,5.195,16.873,13.238,16.875
			c9.607-0.004,13.029-8.72,13.029-16.875C438.067,695.404,433.993,686.606,425.042,686.606z"/>
	</g>
	<g>
		<path fill="#FFF200" d="M474.495,731.255c-14.512,0-23.289-6.971-23.48-18.649l-0.018-1.01h13.078l0.088,0.895
			c0.529,5.27,4.064,7.942,10.506,7.942c4.438,0,7.717-0.886,9.238-2.493c0.783-0.826,1.127-1.849,1.057-3.127
			c-0.242-4.39-6.041-5.555-12.758-6.903c-1.004-0.202-2.023-0.407-3.049-0.627c-8.854-1.903-17.047-5.158-17.047-15.988
			c0-11.449,11.953-15.512,22.189-15.512c12.643,0,20.936,6.16,22.184,16.477l0.135,1.113h-13.623l-0.15-0.812
			c-0.748-4.014-3.803-5.965-9.336-5.965c-1.375,0-8.234,0.204-8.234,4.223c0,3.889,5.641,5.06,12.17,6.415
			c1.168,0.242,2.357,0.489,3.549,0.759c8.912,2.051,17.156,5.379,17.168,15.778C498.161,726.677,485.413,731.255,474.495,731.255z
			 M453.042,713.583c0.658,9.846,8.598,15.686,21.453,15.686c10,0,21.68-4.059,21.68-15.498c-0.01-8.508-6.254-11.687-15.625-13.842
			c-1.176-0.266-2.354-0.512-3.508-0.75c-7.074-1.469-13.754-2.855-13.754-8.361c0-5.761,7.822-6.209,10.221-6.209
			c6.191,0,9.922,2.279,11.105,6.776h9.73c-2.184-12.261-14.662-13.615-20.045-13.615c-9.32,0-20.203,3.542-20.203,13.524
			c0,8.896,6.188,12.049,15.479,14.046c1.016,0.218,2.027,0.421,3.023,0.621c7.211,1.448,14.021,2.816,14.35,8.741
			c0.102,1.828-0.438,3.377-1.598,4.604c-2.436,2.574-7.152,3.113-10.682,3.113c-7.059,0-11.414-3.129-12.363-8.836H453.042z"/>
	</g>
</g>
</svg>
