<?xml version="1.0" encoding="utf-8"?>
<!-- Generator: Adobe Illustrator 15.1.0, SVG Export Plug-In . SVG Version: 6.00 Build 0)  -->
<!DOCTYPE svg PUBLIC "-//W3C//DTD SVG 1.1//EN" "http://www.w3.org/Graphics/SVG/1.1/DTD/svg11.dtd">
<svg version="1.1" xmlns="http://www.w3.org/2000/svg" xmlns:xlink="http://www.w3.org/1999/xlink" x="0px" y="0px"
	 width="172.914px" height="172.914px" viewBox="-5.287 156.034 172.914 172.914"
	 enable-background="new -5.287 156.034 172.914 172.914" xml:space="preserve">
<g id="Background_on_white">
	<g id="M">
		<path fill="#FFF200" d="M81.169,326.992c-46.594,0-84.502-37.908-84.502-84.501c0-46.595,37.908-84.502,84.502-84.502
			c46.594,0,84.502,37.907,84.502,84.502C165.672,289.084,127.764,326.992,81.169,326.992z"/>
		<path d="M165.67,242.491c0,46.594-37.906,84.5-84.5,84.5c-46.594,0-84.502-37.906-84.502-84.5
			c0-46.595,37.908-84.502,84.502-84.502C127.764,157.989,165.67,195.896,165.67,242.491z M157.166,242.491
			c0-41.905-34.092-75.998-75.997-75.998c-41.906,0-75.998,34.093-75.998,75.998c0,41.904,34.092,75.996,75.998,75.996
			C123.074,318.487,157.166,284.395,157.166,242.491z"/>
	</g>
</g>
<g id="Monica">
	<g>
		<path fill="none" d="M26.822,276.375c6.761-1.844,9.501-4.827,10.126-10.097c1.233-10.396,2.291-19.204,1.938-27.837
			c-0.353-8.634,2.643-27.485,7.399-36.822c4.757-9.338,25.018-25.723,37.703-16.209c0,0,3.501-1.159,9.139,1.66
			s15.417,11.171,22.292,41.421c2.112,9.293,9.875,11.875,13.088,25.677c3.229,13.872-1.301,19.134,8.328,22.411l-8.098,2.384
			l20.305,8.177c8.446-12.814,13.376-28.152,13.376-44.648c0-44.873-36.375-81.249-81.249-81.249s-81.25,36.376-81.25,81.249
			c0,14.385,3.753,27.888,10.312,39.607c8.281-0.403,17.628-0.669,19.792-2.075C30.025,280.023,24.325,277.055,26.822,276.375z"/>
		<path d="M81.17,323.74c28.377,0,53.342-14.557,67.873-36.601l-20.305-8.177l8.098-2.384c-9.629-3.277-5.099-8.539-8.328-22.411
			c-3.213-13.802-10.976-16.384-13.088-25.677c-6.875-30.25-16.655-38.602-22.292-41.421s-9.139-1.66-9.139-1.66
			c-12.686-9.514-32.946,6.871-37.703,16.209c-4.757,9.337-7.752,28.188-7.399,36.822c0.353,8.633-0.705,17.441-1.938,27.837
			c-0.625,5.27-3.365,8.253-10.126,10.097c-2.497,0.681,3.203,3.648,3.203,3.648c-2.164,1.406-11.512,1.672-19.792,2.075
			C24.132,306.938,50.682,323.74,81.17,323.74z"/>
	</g>
	<g id="Portrait_x5F_1_3_" display="none">
		<defs>
			<circle id="SVGID_1_" cx="81.17" cy="242.491" r="81.25"/>
		</defs>
		<clipPath id="SVGID_2_" display="inline">
			<use xlink:href="#SVGID_1_"  overflow="visible"/>
		</clipPath>
		<g transform="matrix(1 0 0 1 7.629395e-06 -7.629395e-06)" display="inline" clip-path="url(#SVGID_2_)">
			
				<image overflow="visible" width="5184" height="3456" xlink:href="../../../Volumes/Projekte/02_Projekte/38_VIZ_Video_Intelligence/160831_newsletter_Mailchimp/_Hilfsdokumente/portrait_Raw/Monica Virzob_jg_jc.jpg"  transform="matrix(0.0761 0 0 0.0761 -104.1411 127.0144)">
			</image>
		</g>
	</g>
</g>
</svg>
