<?xml version="1.0" encoding="utf-8"?>
<!-- Generator: Adobe Illustrator 16.0.0, SVG Export Plug-In . SVG Version: 6.00 Build 0)  -->
<!DOCTYPE svg PUBLIC "-//W3C//DTD SVG 1.1//EN" "http://www.w3.org/Graphics/SVG/1.1/DTD/svg11.dtd">
<svg version="1.1" id="Layer_1" xmlns="http://www.w3.org/2000/svg" xmlns:xlink="http://www.w3.org/1999/xlink" x="0px" y="0px"
	 width="81.5px" height="82.5px" viewBox="0 0 81.5 82.5" enable-background="new 0 0 81.5 82.5" xml:space="preserve">
<g>
	<defs>
		<rect id="SVGID_1_" x="2.883" y="3.383" width="75.734" height="75.734"/>
	</defs>
	<clipPath id="SVGID_2_">
		<use xlink:href="#SVGID_1_"  overflow="visible"/>
	</clipPath>
	<path clip-path="url(#SVGID_2_)" fill="#FFF100" d="M40.75,78.055c20.326,0,36.804-16.479,36.804-36.805
		c0-20.325-16.478-36.804-36.804-36.804S3.946,20.925,3.946,41.25C3.946,61.576,20.424,78.055,40.75,78.055"/>
	<circle clip-path="url(#SVGID_2_)" fill="none" stroke="#000000" stroke-width="2.126" cx="40.75" cy="41.25" r="36.804"/>
	<path clip-path="url(#SVGID_2_)" d="M32.16,23.496c0-2.174-1.78-3.955-3.976-3.975c-2.191,0-3.975,1.78-3.975,3.975
		c0,2.215,1.783,3.996,3.975,3.996C30.38,27.492,32.16,25.711,32.16,23.496 M23.672,58.979h8.489V29.287h-8.489V58.979z
		 M53.361,58.979h8.467V40.885c0-9.938-5.715-11.576-8.467-11.576c-4.246,0-7.268,1.91-8.49,2.821v-2.843h-8.464v29.692h8.464
		V40.636c0,0,0.85-3.662,5.238-3.662c2.631,0,3.252,1.509,3.252,3.662V58.979z"/>
</g>
</svg>
