<?xml version="1.0" encoding="utf-8"?>
<!-- Generator: Adobe Illustrator 15.1.0, SVG Export Plug-In . SVG Version: 6.00 Build 0)  -->
<!DOCTYPE svg PUBLIC "-//W3C//DTD SVG 1.1//EN" "http://www.w3.org/Graphics/SVG/1.1/DTD/svg11.dtd">
<svg version="1.1" xmlns="http://www.w3.org/2000/svg" xmlns:xlink="http://www.w3.org/1999/xlink" x="0px" y="0px"
	 width="172.914px" height="172.914px" viewBox="-5.287 156.034 172.914 172.914"
	 enable-background="new -5.287 156.034 172.914 172.914" xml:space="preserve">
<g id="L">
	<path fill="#FFF200" d="M81.17,326.993c-46.594,0-84.501-37.908-84.501-84.501c0-46.595,37.907-84.502,84.501-84.502
		s84.502,37.907,84.502,84.502C165.672,289.085,127.764,326.993,81.17,326.993z"/>
	<path d="M81.17,326.992c-46.595,0-84.501-37.905-84.501-84.499c0-46.596,37.906-84.503,84.501-84.503s84.501,37.907,84.501,84.503
		C165.671,289.087,127.765,326.992,81.17,326.992z M81.17,164.629c-42.934,0-77.862,34.93-77.862,77.864
		c0,42.933,34.929,77.86,77.862,77.86s77.862-34.928,77.862-77.86C159.032,199.558,124.104,164.629,81.17,164.629z"/>
</g>
<g id="Wicky">
	<g id="Illustration">
		<g>
			<path fill-rule="evenodd" clip-rule="evenodd" d="M92.17,321.866c-2-0.666-21.667-0.542-30.667-1.541
				S36.17,306.991,36.17,306.991l-2.81-19.835c-1.086-12.881-4.898-26.211-3.031-39.906c1.648-12.087,10.483-19.717,15.659-27.781
				c-0.144-1.433,0.336-3.24,1.265-4.458c0.629-0.825,1.058-1.187,2.044-1.172c0.711,0.009,1.905,0.12,2.752,0.831
				c0.739-1.384,1.243-2.695,2.593-3.231c0.38-0.151,1.101,0.231,1.542,0.233c3.46-10.531,8.114-26.788,20.616-28.068
				c8.315-0.852,15.334,4.137,18.438,9.345c1.05,1.763,3.892,6.629,3.535,9.345c-0.282,2.15-2.246,2.459-3.282,4.042
				c-0.694,1.059-0.836,3.622-1.769,5.556c-0.339,0.704-1.271,1.361-1.694,2.01c-0.244,0.374,0.057,1.613-0.156,2.011
				c-0.325,0.604-0.633,0.369-0.765,1.123c-0.365,2.093,0.458,4.735-0.921,6.729c-1.015,0.999-2.667-0.324-3.536,0
				c-0.327,0.641-0.406,1.582-0.638,1.981c-0.389,0.664-1.496,0.202-1.888,0.607c-0.495,0.514,0.407,1.716-0.559,2.213
				c-0.967,0.498-2.198-0.509-2.728-0.187c-0.579,0.352-0.522,1.276-0.966,1.854c-0.412,0.535-1.342,0.661-2.072,0.842
				c1.878,1.938-0.872,4.741-1.252,6.832c4.352,8.272,10.143,19.297,13.891,29.55c0.641,1.754,2.227,7.813,4.547,10.104
				c1.639-0.295,3.982-1.451,5.302-2.022c3.869-1.668,6.618-3.287,11.825-3.104c0.905-1.277,0.999-1.58,2.932-1.371
				c2.469-1.292,7.542-5.858,9.506-6.015c1.008-0.048,2.723,1.209,2.703,1.801c-0.021,0.593-4.441,3.602-6.761,5.407
				c0.256,1.83,0.359,5.091,0.139,5.764c-0.141,0.43-3.593,3.36-5.743,5.687c-1.447,1.564-3,1.629-5.255,1.683
				c0,1.853,0,3.706,0,5.557c-6.294,1.452-10.239,5.001-16.219,6.766c-0.705,3.913-1.662,8.347-0.954,12.935
				C92.461,310.644,94.17,322.532,92.17,321.866z"/>
		</g>
	</g>
</g>
</svg>
