<?xml version="1.0" encoding="utf-8"?>
<!-- Generator: Adobe Illustrator 15.1.0, SVG Export Plug-In . SVG Version: 6.00 Build 0)  -->
<!DOCTYPE svg PUBLIC "-//W3C//DTD SVG 1.1//EN" "http://www.w3.org/Graphics/SVG/1.1/DTD/svg11.dtd">
<svg version="1.1" xmlns="http://www.w3.org/2000/svg" xmlns:xlink="http://www.w3.org/1999/xlink" x="0px" y="0px"
	 width="172.914px" height="172.914px" viewBox="-5.287 156.034 172.914 172.914"
	 enable-background="new -5.287 156.034 172.914 172.914" xml:space="preserve">
<g id="S">
	<path fill="#FFF200" d="M81.169,326.992c-46.594,0-84.502-37.908-84.502-84.501c0-46.595,37.908-84.502,84.502-84.502
		c46.594,0,84.502,37.907,84.502,84.502C165.672,289.084,127.764,326.992,81.169,326.992z"/>
	<path d="M165.67,242.491c0-14.142-3.508-27.473-9.676-39.196c-14.15-26.906-42.371-45.306-74.825-45.306
		c-32.453,0-60.674,18.399-74.826,45.306c-1.086,2.066-2.107,4.173-3.024,6.336c-0.063,0.148-0.116,0.302-0.179,0.45
		c-4.162,9.986-6.473,20.933-6.473,32.41l0,0v0.001c0,46.594,37.906,84.499,84.502,84.499
		C127.764,326.991,165.67,289.086,165.67,242.491L165.67,242.491L165.67,242.491z M155.758,242.492
		c0,41.127-33.461,74.587-74.588,74.587c-41.129,0-74.59-33.46-74.59-74.587c0-41.129,33.461-74.591,74.59-74.591
		C122.297,167.901,155.758,201.363,155.758,242.492z"/>
</g>
<g id="Joerg">
	<g id="Illustration_Kopie_Kopie_Kopie">
		<g>
			<path fill-rule="evenodd" clip-rule="evenodd" d="M84.836,322.742c-7.25,1.167-36.333-4.583-51.036-17.417
				c1.619-9.333-0.753-38.651,0.142-53.061c0.786-12.659,6.655-22.839,13.217-29.401c0.962-0.961,2.44-2.157,2.868-3.176
				c-2.562-0.379-4.727-1.771-5.025-3.836c-0.363-2.514,1.86-5.648,2.509-6.623c-0.017-1.771-0.159-5.06,0.458-6.595
				c1.368-3.401,5.448-4.302,7.013-7.283c1.117-2.128,0.949-4.726,2.427-7.012c3.811-5.893,10.866-10.068,18.882-9.172
				c7.763,0.869,18.101,8.523,17.803,19.691c-0.043,1.63-0.979,3.845-1.088,6.245c-0.015,0.341-0.098,0.938-0.26,1.233
				c-0.306,0.554-1.401,1.264-2.381,1.849c-0.428,0.256-0.923,0.549-1.125,0.922c-0.127,0.545,0.105,0.869,0.194,1.3
				c0.52,2.529,1.723,4.966,1.093,7.618c-0.45,1.165-2.229,0.539-3.079,0.182c-0.122-0.05-0.232-0.041-0.366,0.071
				c-0.133,0.113-0.051,1.11-0.849,1.843c-0.167,0.152-0.577,0.211-0.699,0.398c-0.224,0.35,0.141,0.797,0.049,1.25
				c-0.055,0.274-0.553,0.534-0.66,0.825c-0.665,1.825-0.626,3.915-2.158,4.855c-2.365,1.449-8.382-1.353-8.092-0.271
				c1.659,4.582,6.134,6.508,8.362,11.059c2.167,4.429,2.951,10.454,4.046,16.187c2.124,11.112,4.069,23.291,5.934,34.256
				c3.01,0.496,5.229,1.783,8.362,2.157c-0.203-1.643,0.127-2.751,1.349-2.967c-0.283-1.664,0.328-2.615,0.915-2.707
				c1.697-0.268,2.498,2.762,3.401,2.167c0.712-0.468-1.473-3.021,0.271-3.776c1.973-0.354,2.102,1.136,3.237,1.618
				c3.008-1.559,7.828-4.989,10.601-6.168c1.329-0.565,6.056,1.336,5.663,2.241c-0.393,0.902-3.34,2.849-3.766,3.219
				c-0.281,0.245-0.213,0.851-0.466,1.065c-0.946,0.796-2.409,1.036-3.03,1.697c-0.556,0.592-0.121,1.34-0.396,2.163
				c-0.142,0.418-0.931,1.171-1.166,1.898c-0.344,1.049-0.268,1.785-0.426,2.247c-0.079,0.221-1.34,0.632-2.306,1.514
				c-1.271,1.163-2.161,2.796-4.168,3.34c-1.02,4.737-1.973,8.019-3.187,12.561c0,0-11.679-0.14-15.483-0.291
				c-0.359,0.809-0.219,8.327-0.215,9.5C92.205,320.159,92.086,321.575,84.836,322.742z"/>
		</g>
	</g>
</g>
</svg>
