<?xml version="1.0" encoding="utf-8"?>
<!-- Generator: Adobe Illustrator 15.1.0, SVG Export Plug-In . SVG Version: 6.00 Build 0)  -->
<!DOCTYPE svg PUBLIC "-//W3C//DTD SVG 1.1//EN" "http://www.w3.org/Graphics/SVG/1.1/DTD/svg11.dtd">
<svg version="1.1" xmlns="http://www.w3.org/2000/svg" xmlns:xlink="http://www.w3.org/1999/xlink" x="0px" y="0px"
	 width="172.914px" height="172.914px" viewBox="-5.287 156.034 172.914 172.914"
	 enable-background="new -5.287 156.034 172.914 172.914" xml:space="preserve">
<g id="M">
	<path fill="#FFF200" d="M81.169,326.992c-46.594,0-84.502-37.908-84.502-84.501c0-46.595,37.908-84.502,84.502-84.502
		c46.594,0,84.502,37.907,84.502,84.502C165.672,289.084,127.764,326.992,81.169,326.992z"/>
	<path d="M165.67,242.491c0,46.594-37.906,84.5-84.5,84.5c-46.594,0-84.502-37.906-84.502-84.5
		c0-46.595,37.908-84.502,84.502-84.502C127.764,157.989,165.67,195.896,165.67,242.491z M157.166,242.491
		c0-41.905-34.092-75.998-75.997-75.998c-41.906,0-75.998,34.093-75.998,75.998c0,41.904,34.092,75.996,75.998,75.996
		C123.074,318.487,157.166,284.395,157.166,242.491z"/>
</g>
<g id="Christoph">
	<g id="Illustration_Kopie">
		<g>
			<path fill-rule="evenodd" clip-rule="evenodd" d="M102.503,320.325c-1.667,1.667-26.303-0.135-35.667,0
				s-29.758-5.773-29.047-8.873s-1.673-20.795-1.673-20.795c-1.448-11.724-7.394-23.529-7.209-35.482
				c0.128-8.337,4.609-15.053,8.125-20.821c4.83-7.924,12.045-12.041,15.997-19.552c1.107-0.194,2.352,0.313,2.793,0
				c0.644-2.305,2.451-4.077,2.285-6.602c-0.071-1.081-0.989-2.07-1.269-3.048c-3.399-11.848,3.345-19.161,10.665-22.853
				c2.776-1.399,8.042-2.829,12.441-2.285c4.5,0.557,5.047,6.111,10.665,6.602c2.287,1.8,4.958,6.581,1.242,8.592
				c1.301,2.837,1.491,8.804,0.535,11.722c-0.356,0.291,1.32,0.695,1.015,1.777c0.007,1.354-1.999,1.788-1.523,2.794
				c0.114,1.771,0.593,3.75-0.508,4.824c-1.182,0.798-2.349-0.563-3.659-0.448c-0.032,1.015-0.628,1.778-1.274,2.545
				c-0.236,0.28-0.453,0.388-0.854,0.437c0.236,0.378,0.086,0.751,0.035,0.874c-0.683,1.642-0.669,3.846-1.611,4.972
				c-1.512,1.807-4.784,1.484-7.109,2.032c0.763,0.675,2.021,0.993,2.021,2.11c0.125,1.225-2.475,1.188-1.513,1.951
				c0.961,0.764,0.918,2.621,1.015,3.81c7.489,12.571,13.307,26.812,17.521,42.658c2.016-1.197,4.236-3.584,7.115-4.824
				c1.427-0.616,2.964-0.634,4.316-1.27c2.336-1.1,4.86-4.676,5.84-3.809c2.585,3.391-1.617,5.227-6.349,9.141
				c1.884,1.252,4.37,2.025,6.603,1.777c4.21-0.469,8.221-4.657,11.18-5.983c0.77-0.344,2.462-0.33,2.531,0.144
				c0.071,0.473-4.09,4.068-5.988,5.243c0.398,1.438-0.69,2.559-0.944,3.163c-0.22,0.851-1.102,0.773-1.545,1.45
				c-0.475,0.725,0.126,1.482-0.096,2.113c-0.22,0.631-1.827,0.989-2.302,1.389c-0.582,0.489-0.757,1.355-1.312,1.622
				c-4.872,2.323-9.963,4.427-17.778,3.809c1.243,4.936,1.996,10.361,3.557,14.981C100.769,306.212,104.17,318.658,102.503,320.325z
				"/>
		</g>
	</g>
</g>
</svg>
