<?xml version="1.0" encoding="utf-8"?>
<!-- Generator: Adobe Illustrator 15.1.0, SVG Export Plug-In . SVG Version: 6.00 Build 0)  -->
<!DOCTYPE svg PUBLIC "-//W3C//DTD SVG 1.1//EN" "http://www.w3.org/Graphics/SVG/1.1/DTD/svg11.dtd">
<svg version="1.1" xmlns="http://www.w3.org/2000/svg" xmlns:xlink="http://www.w3.org/1999/xlink" x="0px" y="0px"
	 width="172.914px" height="172.914px" viewBox="-5.287 156.034 172.914 172.914"
	 enable-background="new -5.287 156.034 172.914 172.914" xml:space="preserve">
<g id="L">
	<path fill="#FFF200" d="M81.17,326.993c-46.594,0-84.501-37.908-84.501-84.501c0-46.595,37.907-84.502,84.501-84.502
		s84.502,37.907,84.502,84.502C165.672,289.085,127.764,326.993,81.17,326.993z"/>
	<path d="M81.17,326.992c-46.595,0-84.501-37.905-84.501-84.499c0-46.596,37.906-84.503,84.501-84.503s84.501,37.907,84.501,84.503
		C165.671,289.087,127.765,326.992,81.17,326.992z M81.17,164.629c-42.934,0-77.862,34.93-77.862,77.864
		c0,42.933,34.929,77.86,77.862,77.86s77.862-34.928,77.862-77.86C159.032,199.558,124.104,164.629,81.17,164.629z"/>
</g>
<g id="Tilman">
	<g id="Illustration_Kopie_Kopie_Kopie_Kopie">
		<g>
			<path fill-rule="evenodd" clip-rule="evenodd" d="M86.045,322.491c0,0-8-0.375-11.75-0.625s-16.25-3.5-21.875-4.625
				s-18.25-11.25-18.25-11.25l-0.125-2.25l-0.092-4.215c-0.686-6.932-1.529-13.713-2.447-20.663
				c-0.91-6.892-2.663-14.13-2.175-20.935c0.883-12.316,6.074-22.689,11.987-30.767c0.585-0.799,0.439-1.273,0.941-2.111
				c1.851-1.813,1.895-3.177,2.783-4.758c0.364-0.633,1.235,0.219,1.837-0.177c0.445-1.367,1.235-2.765,1.756-4.057
				c0.943-0.436,2.089,1.021,2.175-0.271c2.044-4.069-0.097-9.485,0.543-14.138c0.426-3.093,2.258-6.729,3.807-9.788
				c2.607-5.147,5.861-9.288,11.221-9.767c1.15-0.103,1.846-0.964,3.188-1.109c6.34-0.684,12.254,3.093,16.585,6.797
				c7.386-0.248,14.851,11.927,6.446,14.519c-1.028,3.209-0.645,7.187-1.824,9.952c-0.621,1.453-2.109,2.208-2.447,3.806
				c-0.531,2.516,1.181,5.221-0.815,7.612c-0.908,0.641-2.446,0.033-3.263-0.272c-0.185,0.581-0.638,0.829-0.96,1.271
				c-0.309,0.425-0.25,1.106-0.579,1.511c-0.207,0.254-1.027,0.173-1.208,0.453c-0.263,0.405,0.134,1.307-0.302,1.483
				c-0.436,0.179-1.422,0.667-2.542,0.454c-0.077,1.826-1.049,3.281-2.022,3.527c-0.972,0.247-2.882-0.098-3.539,0.423
				c1.191,2.001-0.258,4.432-0.54,6.918c-0.753,6.663,3.746,10.033,6.253,14.409c1.749,3.053,3.65,6.343,4.894,9.788
				c2.862,7.938,2.477,15.385,3.806,25.285c3.886-0.052,6.832,0.344,10.094-0.261c2.021-2.165,4.086-3.952,7.222-5.235
				c0.971-0.396,1.889-0.644,2.844-1.006c0.873-0.332,1.793-0.8,2.49-0.729c1.486,0.151,2.619,2.365,2.091,3.426
				c-0.394,0.792-1.797,1-2.794,1.38c-1.173,0.447-1.893,1.061-1.385,2.113c2.758,0.161,5.469-2.842,8.529-4.854
				c2.678-1.761,6.286-4.091,8.732-4.833c1.296-0.395,3.221,1.357,2.994,2.289c-0.182,0.749-5.588,4.052-8.58,5.863
				c0.59,1.916-0.076,3.881-0.503,4.68c-0.428,0.801-1.906,1.438-3.188,1.789c-0.425,0.872-1.317,2.564-2.299,3.244
				c-0.2,0.139-0.617,1.378-0.763,1.579c-0.641,0.889-1.067,0.371-1.854,1.164c-0.47,0.474-0.612,1.138-1.124,1.541
				c-0.478,0.377-1.279,0.543-1.719,0.774c-0.442,0.23-0.523,0.527-1.054,0.716c-2.165,0.76-4.444,0.346-6.748-1.572
				c-0.294,3.817-1.811,6.644-3.725,8.001c-2.425,1.725-6.41,1.312-11.876,1.058c0.085,2.905,0.567,5.933,0.981,8.508
				L86.045,322.491z"/>
		</g>
	</g>
</g>
</svg>
