<?xml version="1.0" encoding="utf-8"?>
<!-- Generator: Adobe Illustrator 15.1.0, SVG Export Plug-In . SVG Version: 6.00 Build 0)  -->
<!DOCTYPE svg PUBLIC "-//W3C//DTD SVG 1.1//EN" "http://www.w3.org/Graphics/SVG/1.1/DTD/svg11.dtd">
<svg version="1.1" xmlns="http://www.w3.org/2000/svg" xmlns:xlink="http://www.w3.org/1999/xlink" x="0px" y="0px"
	 width="172.914px" height="172.914px" viewBox="-5.287 156.034 172.914 172.914"
	 enable-background="new -5.287 156.034 172.914 172.914" xml:space="preserve">
<g id="M">
	<path fill="#FFF200" d="M81.169,326.992c-46.594,0-84.502-37.908-84.502-84.501c0-46.595,37.908-84.502,84.502-84.502
		c46.594,0,84.502,37.907,84.502,84.502C165.672,289.084,127.764,326.992,81.169,326.992z"/>
	<path d="M165.67,242.491c0,46.594-37.906,84.5-84.5,84.5c-46.594,0-84.502-37.906-84.502-84.5
		c0-46.595,37.908-84.502,84.502-84.502C127.764,157.989,165.67,195.896,165.67,242.491z M157.166,242.491
		c0-41.905-34.092-75.998-75.997-75.998c-41.906,0-75.998,34.093-75.998,75.998c0,41.904,34.092,75.996,75.998,75.996
		C123.074,318.487,157.166,284.395,157.166,242.491z"/>
</g>
<g id="Steve">
	<g id="Illustration_Kopie_Kopie_Kopie_Kopie_Kopie_Kopie">
		<g>
			<path fill-rule="evenodd" clip-rule="evenodd" d="M84.336,321.824c-3.667,0.333-34.333-7.333-38.167-8.666
				s-14.924-6.312-15.667-10s-1.098-9.886-1.098-9.886c0.744-15.989-3.014-31.694,1.09-44.14
				c2.911-8.823,7.636-16.779,13.078-22.341c1.906-1.946,4.467-3.031,6.812-5.176c1.921-1.758,2.562-4.735,4.36-6.812
				c0.327-0.378,0.99-0.156,1.436-0.378c0.577-0.289,0.918-1.035,1.015-1.802c0.897,0.013,1.558,0.287,2.314,0.54
				c4.791-7.162,3.28-11.527,4.499-17.704c1.548-7.849,9.477-13.649,16.892-14.168c7.822-0.547,17.521,6.959,19.617,13.623
				c0.765,2.428,0.483,5.254,0.079,7.994c-0.253,1.715-0.403,3.429-0.896,4.811c-0.472,1.324-2.614,2.439-2.997,4.36
				c-0.411,2.765,1.557,7.809-1.363,8.718c-1.654,0.351-2.679-1.213-3.469-0.876c-0.791,0.336-0.695,1.357-1.345,1.698
				c-0.393,0.204-0.906-0.25-1.261,0.05c-0.447,0.379-0.353,1.144-0.992,1.614c0.168,0.453,0.175,1.159-0.521,1.967
				c-0.527,0.611-1.427,1.023-1.968,1.682c-0.834,1.015-1.63,3.262-2.083,3.547c-0.455,0.285-2.797,0.124-3.891-0.145
				c-0.121,1.74,1.767,2.652,1.635,4.904c-0.082,1.376-1.083,2.068-1.364,3.27c-0.548,2.357-0.45,5.58-0.271,7.901
				c0.641,8.324,3.095,17.483,5.449,25.61c3.305,11.41,5.933,19.791,7.334,24.189c2.45-0.592,3.346-4.926,7.396-4.892
				c1.912,0.017,2.6,2.513,4.694,3.21c1.622,0.543,2.873-0.064,4.857-0.807c3.647-1.363,8.356-3.447,11.328-3.446
				c0.743,0,2.961,2.287,2.809,2.725c-0.334,0.957-5.178,2.507-7.984,3.425c0.417,1.16,0.593,2.775-0.016,3.719
				c-0.609,0.943-2.987,0.918-4.573,0.757c-0.69,0.792-0.522,1.155-1.312,1.85c-0.271,0.237-0.957,0.409-1.327,0.638
				c-0.375,0.232-0.433,0.523-0.808,0.791c-0.323,0.23-1.072,0.377-1.361,0.623c-0.324,0.273-0.187,0.643-0.495,0.833
				c-2.581,1.598-5.536,2.824-8.827,3.712c-0.026,2.517-0.894,4.191-1.635,5.994c-0.426,1.899-0.042,2.675-0.003,4.984
				C95.336,320.325,88.003,321.491,84.336,321.824z"/>
		</g>
	</g>
</g>
</svg>
