<?xml version="1.0" encoding="utf-8"?>
<!-- Generator: Adobe Illustrator 15.1.0, SVG Export Plug-In . SVG Version: 6.00 Build 0)  -->
<!DOCTYPE svg PUBLIC "-//W3C//DTD SVG 1.1//EN" "http://www.w3.org/Graphics/SVG/1.1/DTD/svg11.dtd">
<svg version="1.1" xmlns="http://www.w3.org/2000/svg" xmlns:xlink="http://www.w3.org/1999/xlink" x="0px" y="0px"
	 width="172.914px" height="172.914px" viewBox="-5.287 156.034 172.914 172.914"
	 enable-background="new -5.287 156.034 172.914 172.914" xml:space="preserve">
<g id="M">
	<path fill="#FFF200" d="M81.169,326.992c-46.594,0-84.502-37.908-84.502-84.501c0-46.595,37.908-84.502,84.502-84.502
		c46.594,0,84.502,37.907,84.502,84.502C165.672,289.084,127.764,326.992,81.169,326.992z"/>
	<path d="M165.67,242.491c0,46.594-37.906,84.5-84.5,84.5c-46.594,0-84.502-37.906-84.502-84.5
		c0-46.595,37.908-84.502,84.502-84.502C127.764,157.989,165.67,195.896,165.67,242.491z M157.166,242.491
		c0-41.905-34.092-75.998-75.997-75.998c-41.906,0-75.998,34.093-75.998,75.998c0,41.904,34.092,75.996,75.998,75.996
		C123.074,318.487,157.166,284.395,157.166,242.491z"/>
</g>
<g id="Kai">
	<g id="Illustration_Kopie_Kopie_Kopie_Kopie_Kopie">
		<g>
			<path fill-rule="evenodd" clip-rule="evenodd" d="M70.337,322.492c-7.148-1.415-22.667-7.334-29.333-10.334
				s-17.845-16.062-17.845-16.062c-0.197-15.631-2.694-31.091-1.792-44.796c0.473-7.177,5.909-12.579,9.855-16.426
				c2.221-2.165,4.195-3.515,6.57-5.077c2.305-1.515,5.179-2.505,7.466-4.18c2.343-1.717,3.083-4.964,5.674-6.869
				c0.896,0,1.715,0.237,2.611,0.237c0.512-2.772,1.437-4.902,5.159-4.718c1.984-5.175-0.334-12.608,0.292-18.217
				c1.085-9.7,9.305-19.638,21.801-17.918c8.952,1.232,17.903,12.614,16.724,22.995c-0.104,0.921-0.685,2.081-0.822,3.227
				c-0.183,1.527,0.073,3.007-0.074,3.642c-0.258,1.112-3.095,3.028-3.285,4.182c-0.252,1.647,1.996,6.107,1.043,9.235
				c-0.412,0.963-3.581,0.703-4.502,0.446c-0.439,0.698-0.385,1.293-0.813,2.004c-0.277,0.46-0.847,0.428-1.14,0.871
				c-0.34,0.515,0.165,1.228-0.221,1.694c-0.386,0.469-1.642,0.932-2.101,1.327c1.032,1.584,1.032,2.617-0.958,4.533
				c4.708,3.504,11.146,4.026,14.664,8.856c2.342,3.214,2.896,9.396,3.885,14.634c1.983,10.509,3.366,22.852,1.574,35.069
				c0.11,0.589,0.937,0.698,1.253,0.553c1.275-0.585,2.594-2.445,3.021-4.054c0.238-0.895-0.856-2.329-0.175-2.899
				c0.545-0.455,1.633,0.737,2.387-0.528c0.508-0.853,1.18-2.027,2.358-2.357c1.442-0.406,1.143-1.733,1.843-1.991
				c1.186-0.438,2.923,0.851,3.943,0.221c2.473-1.525,5.196-5.97,7.665-5.602c1.678,0.251,7.087,0.359,6.486,1.695
				c-2.532,2.571-5.011,4.573-7.518,6.744c1.99,1.806,0.203,3.89-0.59,6.045c-0.551,1.497,0.289,2.5-0.15,3.239
				c-0.439,0.74-1.556,0.569-2.024,0.998c-0.667,0.611-0.725,1.52-1.289,2.174c-0.884,1.024-2.284,1.313-3.833,1.769
				c-0.745,7.88-4.656,11.932-9.876,16.264c-3.686,3.06-7.316,5.521-12.245,6.271C96.125,321.68,77.485,323.907,70.337,322.492z"/>
		</g>
	</g>
</g>
</svg>
