<?xml version="1.0" encoding="UTF-8" standalone="no"?>
<svg width="170px" height="169px" viewBox="0 0 170 169" version="1.1" xmlns="http://www.w3.org/2000/svg" xmlns:xlink="http://www.w3.org/1999/xlink">
    <!-- Generator: Sketch 41.2 (35397) - http://www.bohemiancoding.com/sketch -->
    <title>vi_icon_kai_illu_RGB_M</title>
    <desc>Created with Sketch.</desc>
    <defs></defs>
    <g id="Page-1" stroke="none" stroke-width="1" fill="none" fill-rule="evenodd">
        <g id="vi_icon_kai_illu_RGB_M" transform="translate(0.000000, -1.000000)">
            <g id="M">
                <path d="M85.167,167.989 C39.6768933,167.989 2.667,130.978888 2.667,85.4894882 C2.667,39.9981359 39.6768933,2.989 85.167,2.989 C130.657107,2.989 167.667,39.9981359 167.667,85.4894882 C167.667976,130.978888 130.658083,167.989 85.167,167.989 Z" id="Shape" fill="#FFF200"></path>
                <path d="M169.67,85.491 C169.67,132.085 131.764,169.991 85.17,169.991 C38.576,169.991 0.668,132.085 0.668,85.491 C0.668,38.896 38.576,0.989 85.17,0.989 C131.764,0.989 169.67,38.896 169.67,85.491 Z M161.166,85.491 C161.166,43.586 127.074,9.493 85.169,9.493 C43.263,9.493 9.171,43.586 9.171,85.491 C9.171,127.395 43.263,161.487 85.169,161.487 C127.074,161.487 161.166,127.395 161.166,85.491 Z" id="Shape" fill="#000000"></path>
            </g>
            <g id="Kai" transform="translate(25.000000, 20.000000)" fill="#000000">
                <g id="Illustration_Kopie_Kopie_Kopie_Kopie_Kopie">
                    <path d="M49.337,145.492 C42.189,144.077 26.67,138.158 20.004,135.158 C13.338,132.158 2.159,119.096 2.159,119.096 C1.962,103.465 -0.535,88.005 0.367,74.3 C0.84,67.123 6.276,61.721 10.222,57.874 C12.443,55.709 14.417,54.359 16.792,52.797 C19.097,51.282 21.971,50.292 24.258,48.617 C26.601,46.9 27.341,43.653 29.932,41.748 C30.828,41.748 31.647,41.985 32.543,41.985 C33.055,39.213 33.98,37.083 37.702,37.267 C39.686,32.092 37.368,24.659 37.994,19.05 C39.079,9.35 47.299,-0.588 59.795,1.132 C68.747,2.364 77.698,13.746 76.519,24.127 C76.415,25.048 75.834,26.208 75.697,27.354 C75.514,28.881 75.77,30.361 75.623,30.996 C75.365,32.108 72.528,34.024 72.338,35.178 C72.086,36.825 74.334,41.285 73.381,44.413 C72.969,45.376 69.8,45.116 68.879,44.859 C68.44,45.557 68.494,46.152 68.066,46.863 C67.789,47.323 67.219,47.291 66.926,47.734 C66.586,48.249 67.091,48.962 66.705,49.428 C66.319,49.897 65.063,50.36 64.604,50.755 C65.636,52.339 65.636,53.372 63.646,55.288 C68.354,58.792 74.792,59.314 78.31,64.144 C80.652,67.358 81.206,73.54 82.195,78.778 C84.178,89.287 85.561,101.63 83.769,113.847 C83.879,114.436 84.706,114.545 85.022,114.4 C86.297,113.815 87.616,111.955 88.043,110.346 C88.281,109.451 87.187,108.017 87.868,107.447 C88.413,106.992 89.501,108.184 90.255,106.919 C90.763,106.066 91.435,104.892 92.613,104.562 C94.055,104.156 93.756,102.829 94.456,102.571 C95.642,102.133 97.379,103.422 98.399,102.792 C100.872,101.267 103.595,96.822 106.064,97.19 C107.742,97.441 113.151,97.549 112.55,98.885 C110.018,101.456 107.539,103.458 105.032,105.629 C107.022,107.435 105.235,109.519 104.442,111.674 C103.891,113.171 104.731,114.174 104.292,114.913 C103.853,115.653 102.736,115.482 102.268,115.911 C101.601,116.522 101.543,117.431 100.979,118.085 C100.095,119.109 98.695,119.398 97.146,119.854 C96.401,127.734 92.49,131.786 87.27,136.118 C83.584,139.178 79.954,141.639 75.025,142.389 C75.125,144.68 56.485,146.907 49.337,145.492 Z" id="Shape"></path>
                </g>
            </g>
        </g>
    </g>
</svg>